<?xml version="1.0" encoding="UTF-8" standalone="no"?>
<!DOCTYPE svg PUBLIC "-//W3C//DTD SVG 1.1//EN"
 "http://www.w3.org/Graphics/SVG/1.1/DTD/svg11.dtd">
<!-- Generated by graphviz version 2.38.0 (20140413.2041)
 -->
<!-- Title: %3 Pages: 1 -->
<svg width="238pt" height="216pt"
 viewBox="0.00 0.00 238.23 216.00" xmlns="http://www.w3.org/2000/svg" xmlns:xlink="http://www.w3.org/1999/xlink">
<g id="graph0" class="graph" transform="scale(1 1) rotate(0) translate(4.021 212)">
<title>%3</title>
<polygon fill="white" stroke="none" points="-4.021,4 -4.021,-212 234.208,-212 234.208,4 -4.021,4"/>
<!-- TDI &lt; 71 -->
<g id="node1" class="node"><title>TDI &lt; 71</title>
<polygon fill="none" stroke="black" points="114.199,-208 45.7589,-208 45.7589,-172 114.199,-172 114.199,-208"/>
<text text-anchor="middle" x="79.979" y="-185.8" font-family="Times,serif" font-size="14.00">TDI &lt; 71</text>
</g>
<!-- Release_Demand -->
<g id="node2" class="node"><title>Release_Demand</title>
<polygon fill="none" stroke="black" points="113.979,-36 -0.021,-36 -0.021,-0 113.979,-0 113.979,-36"/>
<text text-anchor="middle" x="56.979" y="-13.8" font-family="Times,serif" font-size="14.00">Release_Demand</text>
</g>
<!-- TDI &lt; 71&#45;&gt;Release_Demand -->
<g id="edge1" class="edge"><title>TDI &lt; 71&#45;&gt;Release_Demand</title>
<path fill="none" stroke="black" d="M75.953,-171.74C72.939,-158.26 68.923,-139.03 66.428,-122 62.68,-96.43 60.16,-67.059 58.672,-46.24"/>
<polygon fill="black" stroke="black" points="62.1595,-45.9366 57.987,-36.198 55.1758,-46.413 62.1595,-45.9366"/>
<text text-anchor="middle" x="71.255" y="-99.8" font-family="Times,serif" font-size="14.00">T</text>
</g>
<!-- Day &lt; 92 -->
<g id="node3" class="node"><title>Day &lt; 92</title>
<polygon fill="none" stroke="black" points="152.2,-122 83.7599,-122 83.7599,-86 152.2,-86 152.2,-122"/>
<text text-anchor="middle" x="117.98" y="-99.8" font-family="Times,serif" font-size="14.00">Day &lt; 92</text>
</g>
<!-- TDI &lt; 71&#45;&gt;Day &lt; 92 -->
<g id="edge2" class="edge"><title>TDI &lt; 71&#45;&gt;Day &lt; 92</title>
<path fill="none" stroke="black" d="M87.853,-171.6C93.085,-160.03 100.05,-144.62 105.97,-131.54"/>
<polygon fill="black" stroke="black" points="109.308,-132.653 110.25,-122.1 102.933,-129.762 109.308,-132.653"/>
<text text-anchor="middle" x="105.87" y="-142.8" font-family="Times,serif" font-size="14.00">F</text>
</g>
<!-- Day &lt; 92&#45;&gt;Release_Demand -->
<g id="edge3" class="edge"><title>Day &lt; 92&#45;&gt;Release_Demand</title>
<path fill="none" stroke="black" d="M105.34,-85.595C96.695,-73.69 85.094,-57.715 75.421,-44.395"/>
<polygon fill="black" stroke="black" points="78.1019,-42.1302 69.394,-36.095 72.4377,-46.2432 78.1019,-42.1302"/>
<text text-anchor="middle" x="95.873" y="-56.8" font-family="Times,serif" font-size="14.00">F</text>
</g>
<!-- Flood_Control -->
<g id="node4" class="node"><title>Flood_Control</title>
<polygon fill="none" stroke="black" points="230.436,-36 131.524,-36 131.524,-0 230.436,-0 230.436,-36"/>
<text text-anchor="middle" x="180.98" y="-13.8" font-family="Times,serif" font-size="14.00">Flood_Control</text>
</g>
<!-- Day &lt; 92&#45;&gt;Flood_Control -->
<g id="edge4" class="edge"><title>Day &lt; 92&#45;&gt;Flood_Control</title>
<path fill="none" stroke="black" d="M131.03,-85.595C139.96,-73.69 151.94,-57.715 161.93,-44.395"/>
<polygon fill="black" stroke="black" points="164.956,-46.1938 168.16,-36.095 159.358,-41.9916 164.956,-46.1938"/>
<text text-anchor="middle" x="157.26" y="-56.8" font-family="Times,serif" font-size="14.00">T</text>
</g>
</g>
</svg>
