<?xml version="1.0" encoding="UTF-8" standalone="no"?>
<!DOCTYPE svg PUBLIC "-//W3C//DTD SVG 1.1//EN"
 "http://www.w3.org/Graphics/SVG/1.1/DTD/svg11.dtd">
<!-- Generated by graphviz version 2.38.0 (20140413.2041)
 -->
<!-- Title: %3 Pages: 1 -->
<svg width="214pt" height="216pt"
 viewBox="0.00 0.00 214.00 216.00" xmlns="http://www.w3.org/2000/svg" xmlns:xlink="http://www.w3.org/1999/xlink">
<g id="graph0" class="graph" transform="scale(1 1) rotate(0) translate(4.021 212)">
<title>%3</title>
<polygon fill="white" stroke="none" points="-4.021,4 -4.021,-212 209.98,-212 209.98,4 -4.021,4"/>
<!-- TDI &lt; 71 -->
<g id="node1" class="node"><title>TDI &lt; 71</title>
<polygon fill="none" stroke="black" points="115.199,-208 46.7589,-208 46.7589,-172 115.199,-172 115.199,-208"/>
<text text-anchor="middle" x="80.979" y="-185.8" font-family="Times,serif" font-size="14.00">TDI &lt; 71</text>
</g>
<!-- Release_Demand -->
<g id="node2" class="node"><title>Release_Demand</title>
<polygon fill="none" stroke="black" points="113.979,-36 -0.021,-36 -0.021,-0 113.979,-0 113.979,-36"/>
<text text-anchor="middle" x="56.979" y="-13.8" font-family="Times,serif" font-size="14.00">Release_Demand</text>
</g>
<!-- TDI &lt; 71&#45;&gt;Release_Demand -->
<g id="edge1" class="edge"><title>TDI &lt; 71&#45;&gt;Release_Demand</title>
<path fill="none" stroke="black" d="M76.251,-171.78C72.734,-158.33 68.1,-139.11 65.428,-122 61.443,-96.488 59.268,-67.109 58.128,-46.273"/>
<polygon fill="black" stroke="black" points="61.6205,-46.0333 57.622,-36.222 54.6293,-46.3854 61.6205,-46.0333"/>
<text text-anchor="middle" x="70.255" y="-99.8" font-family="Times,serif" font-size="14.00">T</text>
</g>
<!-- Day &lt; 259 -->
<g id="node3" class="node"><title>Day &lt; 259</title>
<polygon fill="none" stroke="black" points="158.7,-122 83.26,-122 83.26,-86 158.7,-86 158.7,-122"/>
<text text-anchor="middle" x="120.98" y="-99.8" font-family="Times,serif" font-size="14.00">Day &lt; 259</text>
</g>
<!-- TDI &lt; 71&#45;&gt;Day &lt; 259 -->
<g id="edge2" class="edge"><title>TDI &lt; 71&#45;&gt;Day &lt; 259</title>
<path fill="none" stroke="black" d="M89.268,-171.6C94.829,-159.92 102.25,-144.32 108.52,-131.16"/>
<polygon fill="black" stroke="black" points="111.695,-132.633 112.84,-122.1 105.377,-129.62 111.695,-132.633"/>
<text text-anchor="middle" x="107.87" y="-142.8" font-family="Times,serif" font-size="14.00">F</text>
</g>
<!-- Day &lt; 259&#45;&gt;Release_Demand -->
<g id="edge3" class="edge"><title>Day &lt; 259&#45;&gt;Release_Demand</title>
<path fill="none" stroke="black" d="M107.72,-85.595C98.648,-73.69 86.477,-57.715 76.328,-44.395"/>
<polygon fill="black" stroke="black" points="78.8486,-41.928 70.004,-36.095 73.2806,-46.1705 78.8486,-41.928"/>
<text text-anchor="middle" x="96.873" y="-56.8" font-family="Times,serif" font-size="14.00">F</text>
</g>
<!-- Hedge_80 -->
<g id="node4" class="node"><title>Hedge_80</title>
<polygon fill="none" stroke="black" points="205.98,-36 131.98,-36 131.98,-0 205.98,-0 205.98,-36"/>
<text text-anchor="middle" x="168.98" y="-13.8" font-family="Times,serif" font-size="14.00">Hedge_80</text>
</g>
<!-- Day &lt; 259&#45;&gt;Hedge_80 -->
<g id="edge4" class="edge"><title>Day &lt; 259&#45;&gt;Hedge_80</title>
<path fill="none" stroke="black" d="M130.93,-85.595C137.6,-73.917 146.51,-58.322 154.03,-45.159"/>
<polygon fill="black" stroke="black" points="157.287,-46.5139 159.21,-36.095 151.209,-43.0406 157.287,-46.5139"/>
<text text-anchor="middle" x="151.26" y="-56.8" font-family="Times,serif" font-size="14.00">T</text>
</g>
</g>
</svg>
