<?xml version="1.0" encoding="UTF-8" standalone="no"?>
<!DOCTYPE svg PUBLIC "-//W3C//DTD SVG 1.1//EN"
 "http://www.w3.org/Graphics/SVG/1.1/DTD/svg11.dtd">
<!-- Generated by graphviz version 2.38.0 (20140413.2041)
 -->
<!-- Title: %3 Pages: 1 -->
<svg width="238pt" height="216pt"
 viewBox="0.00 0.00 238.23 216.00" xmlns="http://www.w3.org/2000/svg" xmlns:xlink="http://www.w3.org/1999/xlink">
<g id="graph0" class="graph" transform="scale(1 1) rotate(0) translate(4.021 212)">
<title>%3</title>
<polygon fill="white" stroke="none" points="-4.021,4 -4.021,-212 234.208,-212 234.208,4 -4.021,4"/>
<!-- TDI &lt; 55 -->
<g id="node1" class="node"><title>TDI &lt; 55</title>
<polygon fill="none" stroke="black" points="191.2,-208 122.76,-208 122.76,-172 191.2,-172 191.2,-208"/>
<text text-anchor="middle" x="156.98" y="-185.8" font-family="Times,serif" font-size="14.00">TDI &lt; 55</text>
</g>
<!-- Day &lt; 92 -->
<g id="node2" class="node"><title>Day &lt; 92</title>
<polygon fill="none" stroke="black" points="145.2,-122 76.7599,-122 76.7599,-86 145.2,-86 145.2,-122"/>
<text text-anchor="middle" x="110.98" y="-99.8" font-family="Times,serif" font-size="14.00">Day &lt; 92</text>
</g>
<!-- TDI &lt; 55&#45;&gt;Day &lt; 92 -->
<g id="edge1" class="edge"><title>TDI &lt; 55&#45;&gt;Day &lt; 92</title>
<path fill="none" stroke="black" d="M147.45,-171.6C141.05,-159.92 132.51,-144.32 125.3,-131.16"/>
<polygon fill="black" stroke="black" points="128.212,-129.191 120.34,-122.1 122.072,-132.552 128.212,-129.191"/>
<text text-anchor="middle" x="140.26" y="-142.8" font-family="Times,serif" font-size="14.00">T</text>
</g>
<!-- Flood_Control -->
<g id="node3" class="node"><title>Flood_Control</title>
<polygon fill="none" stroke="black" points="230.436,-36 131.524,-36 131.524,-0 230.436,-0 230.436,-36"/>
<text text-anchor="middle" x="180.98" y="-13.8" font-family="Times,serif" font-size="14.00">Flood_Control</text>
</g>
<!-- TDI &lt; 55&#45;&gt;Flood_Control -->
<g id="edge2" class="edge"><title>TDI &lt; 55&#45;&gt;Flood_Control</title>
<path fill="none" stroke="black" d="M159.41,-171.76C163.59,-142.16 172.17,-81.433 177.15,-46.112"/>
<polygon fill="black" stroke="black" points="180.641,-46.4214 178.58,-36.029 173.71,-45.4384 180.641,-46.4214"/>
<text text-anchor="middle" x="174.87" y="-99.8" font-family="Times,serif" font-size="14.00">F</text>
</g>
<!-- Day &lt; 92&#45;&gt;Flood_Control -->
<g id="edge3" class="edge"><title>Day &lt; 92&#45;&gt;Flood_Control</title>
<path fill="none" stroke="black" d="M125.48,-85.595C135.5,-73.577 148.97,-57.41 160.13,-44.015"/>
<polygon fill="black" stroke="black" points="163.017,-46.0179 166.73,-36.095 157.639,-41.5366 163.017,-46.0179"/>
<text text-anchor="middle" x="154.26" y="-56.8" font-family="Times,serif" font-size="14.00">T</text>
</g>
<!-- Release_Demand -->
<g id="node4" class="node"><title>Release_Demand</title>
<polygon fill="none" stroke="black" points="113.979,-36 -0.021,-36 -0.021,-0 113.979,-0 113.979,-36"/>
<text text-anchor="middle" x="56.979" y="-13.8" font-family="Times,serif" font-size="14.00">Release_Demand</text>
</g>
<!-- Day &lt; 92&#45;&gt;Release_Demand -->
<g id="edge4" class="edge"><title>Day &lt; 92&#45;&gt;Release_Demand</title>
<path fill="none" stroke="black" d="M99.791,-85.595C92.21,-73.804 82.063,-58.019 73.55,-44.776"/>
<polygon fill="black" stroke="black" points="76.3209,-42.6139 67.969,-36.095 70.4328,-46.3994 76.3209,-42.6139"/>
<text text-anchor="middle" x="91.873" y="-56.8" font-family="Times,serif" font-size="14.00">F</text>
</g>
</g>
</svg>
