<?xml version="1.0" encoding="UTF-8" standalone="no"?>
<!DOCTYPE svg PUBLIC "-//W3C//DTD SVG 1.1//EN"
 "http://www.w3.org/Graphics/SVG/1.1/DTD/svg11.dtd">
<!-- Generated by graphviz version 2.38.0 (20140413.2041)
 -->
<!-- Title: %3 Pages: 1 -->
<svg width="238pt" height="216pt"
 viewBox="0.00 0.00 238.23 216.00" xmlns="http://www.w3.org/2000/svg" xmlns:xlink="http://www.w3.org/1999/xlink">
<g id="graph0" class="graph" transform="scale(1 1) rotate(0) translate(4.021 212)">
<title>%3</title>
<polygon fill="white" stroke="none" points="-4.021,4 -4.021,-212 234.208,-212 234.208,4 -4.021,4"/>
<!-- TDI &lt; 42 -->
<g id="node1" class="node"><title>TDI &lt; 42</title>
<polygon fill="none" stroke="black" points="190.2,-208 121.76,-208 121.76,-172 190.2,-172 190.2,-208"/>
<text text-anchor="middle" x="155.98" y="-185.8" font-family="Times,serif" font-size="14.00">TDI &lt; 42</text>
</g>
<!-- Day &lt; 265 -->
<g id="node2" class="node"><title>Day &lt; 265</title>
<polygon fill="none" stroke="black" points="144.7,-122 69.26,-122 69.26,-86 144.7,-86 144.7,-122"/>
<text text-anchor="middle" x="106.98" y="-99.8" font-family="Times,serif" font-size="14.00">Day &lt; 265</text>
</g>
<!-- TDI &lt; 42&#45;&gt;Day &lt; 265 -->
<g id="edge1" class="edge"><title>TDI &lt; 42&#45;&gt;Day &lt; 265</title>
<path fill="none" stroke="black" d="M145.83,-171.6C138.95,-159.8 129.74,-144.02 122.02,-130.78"/>
<polygon fill="black" stroke="black" points="125.016,-128.97 116.95,-122.1 118.971,-132.5 125.016,-128.97"/>
<text text-anchor="middle" x="138.26" y="-142.8" font-family="Times,serif" font-size="14.00">T</text>
</g>
<!-- Flood_Control -->
<g id="node3" class="node"><title>Flood_Control</title>
<polygon fill="none" stroke="black" points="230.436,-36 131.524,-36 131.524,-0 230.436,-0 230.436,-36"/>
<text text-anchor="middle" x="180.98" y="-13.8" font-family="Times,serif" font-size="14.00">Flood_Control</text>
</g>
<!-- TDI &lt; 42&#45;&gt;Flood_Control -->
<g id="edge2" class="edge"><title>TDI &lt; 42&#45;&gt;Flood_Control</title>
<path fill="none" stroke="black" d="M158.51,-171.76C162.87,-142.16 171.8,-81.433 176.99,-46.112"/>
<polygon fill="black" stroke="black" points="180.48,-46.4333 178.48,-36.029 173.556,-45.4099 180.48,-46.4333"/>
<text text-anchor="middle" x="173.87" y="-99.8" font-family="Times,serif" font-size="14.00">F</text>
</g>
<!-- Day &lt; 265&#45;&gt;Flood_Control -->
<g id="edge3" class="edge"><title>Day &lt; 265&#45;&gt;Flood_Control</title>
<path fill="none" stroke="black" d="M122.31,-85.595C133,-73.464 147.41,-57.105 159.28,-43.637"/>
<polygon fill="black" stroke="black" points="161.939,-45.9135 165.92,-36.095 156.685,-41.2879 161.939,-45.9135"/>
<text text-anchor="middle" x="151.87" y="-56.8" font-family="Times,serif" font-size="14.00">F</text>
</g>
<!-- Release_Demand -->
<g id="node4" class="node"><title>Release_Demand</title>
<polygon fill="none" stroke="black" points="113.979,-36 -0.021,-36 -0.021,-0 113.979,-0 113.979,-36"/>
<text text-anchor="middle" x="56.979" y="-13.8" font-family="Times,serif" font-size="14.00">Release_Demand</text>
</g>
<!-- Day &lt; 265&#45;&gt;Release_Demand -->
<g id="edge4" class="edge"><title>Day &lt; 265&#45;&gt;Release_Demand</title>
<path fill="none" stroke="black" d="M96.619,-85.595C89.601,-73.804 80.205,-58.019 72.323,-44.776"/>
<polygon fill="black" stroke="black" points="75.2778,-42.8972 67.155,-36.095 69.263,-46.478 75.2778,-42.8972"/>
<text text-anchor="middle" x="89.255" y="-56.8" font-family="Times,serif" font-size="14.00">T</text>
</g>
</g>
</svg>
