<?xml version="1.0" encoding="UTF-8" standalone="no"?>
<!DOCTYPE svg PUBLIC "-//W3C//DTD SVG 1.1//EN"
 "http://www.w3.org/Graphics/SVG/1.1/DTD/svg11.dtd">
<!-- Generated by graphviz version 2.38.0 (20140413.2041)
 -->
<!-- Title: %3 Pages: 1 -->
<svg width="255pt" height="216pt"
 viewBox="0.00 0.00 255.23 216.00" xmlns="http://www.w3.org/2000/svg" xmlns:xlink="http://www.w3.org/1999/xlink">
<g id="graph0" class="graph" transform="scale(1 1) rotate(0) translate(4.231 212)">
<title>%3</title>
<polygon fill="white" stroke="none" points="-4.231,4 -4.231,-212 250.998,-212 250.998,4 -4.231,4"/>
<!-- TDI &lt; 55 -->
<g id="node1" class="node"><title>TDI &lt; 55</title>
<polygon fill="none" stroke="black" points="204.99,-208 136.55,-208 136.55,-172 204.99,-172 204.99,-208"/>
<text text-anchor="middle" x="170.77" y="-185.8" font-family="Times,serif" font-size="14.00">TDI &lt; 55</text>
</g>
<!-- Day &lt; 259 -->
<g id="node2" class="node"><title>Day &lt; 259</title>
<polygon fill="none" stroke="black" points="130.489,-122 55.049,-122 55.049,-86 130.489,-86 130.489,-122"/>
<text text-anchor="middle" x="92.769" y="-99.8" font-family="Times,serif" font-size="14.00">Day &lt; 259</text>
</g>
<!-- TDI &lt; 55&#45;&gt;Day &lt; 259 -->
<g id="edge1" class="edge"><title>TDI &lt; 55&#45;&gt;Day &lt; 259</title>
<path fill="none" stroke="black" d="M154.61,-171.6C143.34,-159.46 128.15,-143.1 115.65,-129.64"/>
<polygon fill="black" stroke="black" points="118.012,-127.041 108.64,-122.1 112.886,-131.807 118.012,-127.041"/>
<text text-anchor="middle" x="141.04" y="-142.8" font-family="Times,serif" font-size="14.00">T</text>
</g>
<!-- Flood_Control -->
<g id="node3" class="node"><title>Flood_Control</title>
<polygon fill="none" stroke="black" points="247.226,-122 148.314,-122 148.314,-86 247.226,-86 247.226,-122"/>
<text text-anchor="middle" x="197.77" y="-99.8" font-family="Times,serif" font-size="14.00">Flood_Control</text>
</g>
<!-- TDI &lt; 55&#45;&gt;Flood_Control -->
<g id="edge2" class="edge"><title>TDI &lt; 55&#45;&gt;Flood_Control</title>
<path fill="none" stroke="black" d="M176.36,-171.6C180.04,-160.14 184.94,-144.93 189.11,-131.93"/>
<polygon fill="black" stroke="black" points="192.542,-132.691 192.27,-122.1 185.877,-130.549 192.542,-132.691"/>
<text text-anchor="middle" x="190.66" y="-142.8" font-family="Times,serif" font-size="14.00">F</text>
</g>
<!-- Hedge_80 -->
<g id="node4" class="node"><title>Hedge_80</title>
<polygon fill="none" stroke="black" points="73.769,-36 -0.231,-36 -0.231,-0 73.769,-0 73.769,-36"/>
<text text-anchor="middle" x="36.769" y="-13.8" font-family="Times,serif" font-size="14.00">Hedge_80</text>
</g>
<!-- Day &lt; 259&#45;&gt;Hedge_80 -->
<g id="edge3" class="edge"><title>Day &lt; 259&#45;&gt;Hedge_80</title>
<path fill="none" stroke="black" d="M81.166,-85.595C73.305,-73.804 62.782,-58.019 53.953,-44.776"/>
<polygon fill="black" stroke="black" points="56.6251,-42.4743 48.166,-36.095 50.8006,-46.3571 56.6251,-42.4743"/>
<text text-anchor="middle" x="73.045" y="-56.8" font-family="Times,serif" font-size="14.00">T</text>
</g>
<!-- Release_Demand -->
<g id="node5" class="node"><title>Release_Demand</title>
<polygon fill="none" stroke="black" points="205.77,-36 91.77,-36 91.77,-0 205.77,-0 205.77,-36"/>
<text text-anchor="middle" x="148.77" y="-13.8" font-family="Times,serif" font-size="14.00">Release_Demand</text>
</g>
<!-- Day &lt; 259&#45;&gt;Release_Demand -->
<g id="edge4" class="edge"><title>Day &lt; 259&#45;&gt;Release_Demand</title>
<path fill="none" stroke="black" d="M104.37,-85.595C112.23,-73.804 122.76,-58.019 131.58,-44.776"/>
<polygon fill="black" stroke="black" points="134.733,-46.3564 137.37,-36.095 128.909,-42.4723 134.733,-46.3564"/>
<text text-anchor="middle" x="128.66" y="-56.8" font-family="Times,serif" font-size="14.00">F</text>
</g>
</g>
</svg>
