<?xml version="1.0" encoding="UTF-8" standalone="no"?>
<!DOCTYPE svg PUBLIC "-//W3C//DTD SVG 1.1//EN"
 "http://www.w3.org/Graphics/SVG/1.1/DTD/svg11.dtd">
<!-- Generated by graphviz version 2.38.0 (20140413.2041)
 -->
<!-- Title: %3 Pages: 1 -->
<svg width="214pt" height="130pt"
 viewBox="0.00 0.00 214.00 130.00" xmlns="http://www.w3.org/2000/svg" xmlns:xlink="http://www.w3.org/1999/xlink">
<g id="graph0" class="graph" transform="scale(1 1) rotate(0) translate(4.231 126)">
<title>%3</title>
<polygon fill="white" stroke="none" points="-4.231,4 -4.231,-126 209.77,-126 209.77,4 -4.231,4"/>
<!-- Day &lt; 342 -->
<g id="node1" class="node"><title>Day &lt; 342</title>
<polygon fill="none" stroke="black" points="130.489,-122 55.049,-122 55.049,-86 130.489,-86 130.489,-122"/>
<text text-anchor="middle" x="92.769" y="-99.8" font-family="Times,serif" font-size="14.00">Day &lt; 342</text>
</g>
<!-- Hedge_50 -->
<g id="node2" class="node"><title>Hedge_50</title>
<polygon fill="none" stroke="black" points="73.769,-36 -0.231,-36 -0.231,-0 73.769,-0 73.769,-36"/>
<text text-anchor="middle" x="36.769" y="-13.8" font-family="Times,serif" font-size="14.00">Hedge_50</text>
</g>
<!-- Day &lt; 342&#45;&gt;Hedge_50 -->
<g id="edge1" class="edge"><title>Day &lt; 342&#45;&gt;Hedge_50</title>
<path fill="none" stroke="black" d="M81.166,-85.595C73.305,-73.804 62.782,-58.019 53.953,-44.776"/>
<polygon fill="black" stroke="black" points="56.6251,-42.4743 48.166,-36.095 50.8006,-46.3571 56.6251,-42.4743"/>
<text text-anchor="middle" x="73.045" y="-56.8" font-family="Times,serif" font-size="14.00">T</text>
</g>
<!-- Release_Demand -->
<g id="node3" class="node"><title>Release_Demand</title>
<polygon fill="none" stroke="black" points="205.77,-36 91.77,-36 91.77,-0 205.77,-0 205.77,-36"/>
<text text-anchor="middle" x="148.77" y="-13.8" font-family="Times,serif" font-size="14.00">Release_Demand</text>
</g>
<!-- Day &lt; 342&#45;&gt;Release_Demand -->
<g id="edge2" class="edge"><title>Day &lt; 342&#45;&gt;Release_Demand</title>
<path fill="none" stroke="black" d="M104.37,-85.595C112.23,-73.804 122.76,-58.019 131.58,-44.776"/>
<polygon fill="black" stroke="black" points="134.733,-46.3564 137.37,-36.095 128.909,-42.4723 134.733,-46.3564"/>
<text text-anchor="middle" x="128.66" y="-56.8" font-family="Times,serif" font-size="14.00">F</text>
</g>
</g>
</svg>
