<?xml version="1.0" encoding="UTF-8" standalone="no"?>
<!DOCTYPE svg PUBLIC "-//W3C//DTD SVG 1.1//EN"
 "http://www.w3.org/Graphics/SVG/1.1/DTD/svg11.dtd">
<!-- Generated by graphviz version 2.38.0 (20140413.2041)
 -->
<!-- Title: %3 Pages: 1 -->
<svg width="256pt" height="302pt"
 viewBox="0.00 0.00 256.23 302.00" xmlns="http://www.w3.org/2000/svg" xmlns:xlink="http://www.w3.org/1999/xlink">
<g id="graph0" class="graph" transform="scale(1 1) rotate(0) translate(4.231 298)">
<title>%3</title>
<polygon fill="white" stroke="none" points="-4.231,4 -4.231,-298 251.998,-298 251.998,4 -4.231,4"/>
<!-- Storage &lt; 37 -->
<g id="node1" class="node"><title>Storage &lt; 37</title>
<polygon fill="none" stroke="black" points="109.769,-294 21.769,-294 21.769,-258 109.769,-258 109.769,-294"/>
<text text-anchor="middle" x="65.769" y="-271.8" font-family="Times,serif" font-size="14.00">Storage &lt; 37</text>
</g>
<!-- Hedge_80 -->
<g id="node2" class="node"><title>Hedge_80</title>
<polygon fill="none" stroke="black" points="73.769,-208 -0.231,-208 -0.231,-172 73.769,-172 73.769,-208"/>
<text text-anchor="middle" x="36.769" y="-185.8" font-family="Times,serif" font-size="14.00">Hedge_80</text>
</g>
<!-- Storage &lt; 37&#45;&gt;Hedge_80 -->
<g id="edge1" class="edge"><title>Storage &lt; 37&#45;&gt;Hedge_80</title>
<path fill="none" stroke="black" d="M59.76,-257.6C55.807,-246.14 50.553,-230.93 46.066,-217.93"/>
<polygon fill="black" stroke="black" points="49.2438,-216.41 42.671,-208.1 42.6273,-218.695 49.2438,-216.41"/>
<text text-anchor="middle" x="58.045" y="-228.8" font-family="Times,serif" font-size="14.00">T</text>
</g>
<!-- TDI &lt; 7 -->
<g id="node3" class="node"><title>TDI &lt; 7</title>
<polygon fill="none" stroke="black" points="152.49,-208 91.0499,-208 91.0499,-172 152.49,-172 152.49,-208"/>
<text text-anchor="middle" x="121.77" y="-185.8" font-family="Times,serif" font-size="14.00">TDI &lt; 7</text>
</g>
<!-- Storage &lt; 37&#45;&gt;TDI &lt; 7 -->
<g id="edge2" class="edge"><title>Storage &lt; 37&#45;&gt;TDI &lt; 7</title>
<path fill="none" stroke="black" d="M77.372,-257.6C85.233,-245.8 95.757,-230.02 104.58,-216.78"/>
<polygon fill="black" stroke="black" points="107.732,-218.361 110.37,-208.1 101.909,-214.477 107.732,-218.361"/>
<text text-anchor="middle" x="100.66" y="-228.8" font-family="Times,serif" font-size="14.00">F</text>
</g>
<!-- Release_Demand -->
<g id="node4" class="node"><title>Release_Demand</title>
<polygon fill="none" stroke="black" points="142.769,-122 28.769,-122 28.769,-86 142.769,-86 142.769,-122"/>
<text text-anchor="middle" x="85.769" y="-99.8" font-family="Times,serif" font-size="14.00">Release_Demand</text>
</g>
<!-- TDI &lt; 7&#45;&gt;Release_Demand -->
<g id="edge3" class="edge"><title>TDI &lt; 7&#45;&gt;Release_Demand</title>
<path fill="none" stroke="black" d="M114.31,-171.6C109.35,-160.03 102.75,-144.62 97.145,-131.54"/>
<polygon fill="black" stroke="black" points="100.255,-129.911 93.096,-122.1 93.8213,-132.67 100.255,-129.911"/>
<text text-anchor="middle" x="110.04" y="-142.8" font-family="Times,serif" font-size="14.00">T</text>
</g>
<!-- Day &lt; 258 -->
<g id="node5" class="node"><title>Day &lt; 258</title>
<polygon fill="none" stroke="black" points="236.49,-122 161.05,-122 161.05,-86 236.49,-86 236.49,-122"/>
<text text-anchor="middle" x="198.77" y="-99.8" font-family="Times,serif" font-size="14.00">Day &lt; 258</text>
</g>
<!-- TDI &lt; 7&#45;&gt;Day &lt; 258 -->
<g id="edge4" class="edge"><title>TDI &lt; 7&#45;&gt;Day &lt; 258</title>
<path fill="none" stroke="black" d="M137.72,-171.6C148.84,-159.46 163.84,-143.1 176.19,-129.64"/>
<polygon fill="black" stroke="black" points="178.924,-131.837 183.1,-122.1 173.763,-127.108 178.924,-131.837"/>
<text text-anchor="middle" x="168.66" y="-142.8" font-family="Times,serif" font-size="14.00">F</text>
</g>
<!-- Flood_Control -->
<g id="node6" class="node"><title>Flood_Control</title>
<polygon fill="none" stroke="black" points="248.226,-36 149.314,-36 149.314,-0 248.226,-0 248.226,-36"/>
<text text-anchor="middle" x="198.77" y="-13.8" font-family="Times,serif" font-size="14.00">Flood_Control</text>
</g>
<!-- Day &lt; 258&#45;&gt;Flood_Control -->
<g id="edge5" class="edge"><title>Day &lt; 258&#45;&gt;Flood_Control</title>
<path fill="none" stroke="black" d="M198.77,-85.595C198.77,-74.257 198.77,-59.227 198.77,-46.315"/>
<polygon fill="black" stroke="black" points="202.27,-46.095 198.77,-36.095 195.27,-46.095 202.27,-46.095"/>
<text text-anchor="middle" x="202.66" y="-56.8" font-family="Times,serif" font-size="14.00">F</text>
</g>
</g>
</svg>
