<?xml version="1.0" encoding="UTF-8" standalone="no"?>
<!DOCTYPE svg PUBLIC "-//W3C//DTD SVG 1.1//EN"
 "http://www.w3.org/Graphics/SVG/1.1/DTD/svg11.dtd">
<!-- Generated by graphviz version 2.38.0 (20140413.2041)
 -->
<!-- Title: %3 Pages: 1 -->
<svg width="241pt" height="216pt"
 viewBox="0.00 0.00 241.23 216.00" xmlns="http://www.w3.org/2000/svg" xmlns:xlink="http://www.w3.org/1999/xlink">
<g id="graph0" class="graph" transform="scale(1 1) rotate(0) translate(4.231 212)">
<title>%3</title>
<polygon fill="white" stroke="none" points="-4.231,4 -4.231,-212 236.998,-212 236.998,4 -4.231,4"/>
<!-- Storage &lt; 37 -->
<g id="node1" class="node"><title>Storage &lt; 37</title>
<polygon fill="none" stroke="black" points="109.769,-208 21.769,-208 21.769,-172 109.769,-172 109.769,-208"/>
<text text-anchor="middle" x="65.769" y="-185.8" font-family="Times,serif" font-size="14.00">Storage &lt; 37</text>
</g>
<!-- Hedge_80 -->
<g id="node2" class="node"><title>Hedge_80</title>
<polygon fill="none" stroke="black" points="73.769,-122 -0.231,-122 -0.231,-86 73.769,-86 73.769,-122"/>
<text text-anchor="middle" x="36.769" y="-99.8" font-family="Times,serif" font-size="14.00">Hedge_80</text>
</g>
<!-- Storage &lt; 37&#45;&gt;Hedge_80 -->
<g id="edge1" class="edge"><title>Storage &lt; 37&#45;&gt;Hedge_80</title>
<path fill="none" stroke="black" d="M59.76,-171.6C55.807,-160.14 50.553,-144.93 46.066,-131.93"/>
<polygon fill="black" stroke="black" points="49.2438,-130.41 42.671,-122.1 42.6273,-132.695 49.2438,-130.41"/>
<text text-anchor="middle" x="58.045" y="-142.8" font-family="Times,serif" font-size="14.00">T</text>
</g>
<!-- TDI &lt; 7 -->
<g id="node3" class="node"><title>TDI &lt; 7</title>
<polygon fill="none" stroke="black" points="152.49,-122 91.0499,-122 91.0499,-86 152.49,-86 152.49,-122"/>
<text text-anchor="middle" x="121.77" y="-99.8" font-family="Times,serif" font-size="14.00">TDI &lt; 7</text>
</g>
<!-- Storage &lt; 37&#45;&gt;TDI &lt; 7 -->
<g id="edge2" class="edge"><title>Storage &lt; 37&#45;&gt;TDI &lt; 7</title>
<path fill="none" stroke="black" d="M77.372,-171.6C85.233,-159.8 95.757,-144.02 104.58,-130.78"/>
<polygon fill="black" stroke="black" points="107.732,-132.361 110.37,-122.1 101.909,-128.477 107.732,-132.361"/>
<text text-anchor="middle" x="101.66" y="-142.8" font-family="Times,serif" font-size="14.00">F</text>
</g>
<!-- Release_Demand -->
<g id="node4" class="node"><title>Release_Demand</title>
<polygon fill="none" stroke="black" points="116.769,-36 2.769,-36 2.769,-0 116.769,-0 116.769,-36"/>
<text text-anchor="middle" x="59.769" y="-13.8" font-family="Times,serif" font-size="14.00">Release_Demand</text>
</g>
<!-- TDI &lt; 7&#45;&gt;Release_Demand -->
<g id="edge3" class="edge"><title>TDI &lt; 7&#45;&gt;Release_Demand</title>
<path fill="none" stroke="black" d="M108.92,-85.595C100.14,-73.69 88.344,-57.715 78.513,-44.395"/>
<polygon fill="black" stroke="black" points="81.1415,-42.0624 72.387,-36.095 75.5094,-46.2193 81.1415,-42.0624"/>
<text text-anchor="middle" x="99.045" y="-56.8" font-family="Times,serif" font-size="14.00">T</text>
</g>
<!-- Flood_Control -->
<g id="node5" class="node"><title>Flood_Control</title>
<polygon fill="none" stroke="black" points="233.226,-36 134.314,-36 134.314,-0 233.226,-0 233.226,-36"/>
<text text-anchor="middle" x="183.77" y="-13.8" font-family="Times,serif" font-size="14.00">Flood_Control</text>
</g>
<!-- TDI &lt; 7&#45;&gt;Flood_Control -->
<g id="edge4" class="edge"><title>TDI &lt; 7&#45;&gt;Flood_Control</title>
<path fill="none" stroke="black" d="M134.62,-85.595C143.4,-73.69 155.19,-57.715 165.03,-44.395"/>
<polygon fill="black" stroke="black" points="168.032,-46.2208 171.15,-36.095 162.398,-42.0665 168.032,-46.2208"/>
<text text-anchor="middle" x="159.66" y="-56.8" font-family="Times,serif" font-size="14.00">F</text>
</g>
</g>
</svg>
