<?xml version="1.0" encoding="UTF-8" standalone="no"?>
<!DOCTYPE svg PUBLIC "-//W3C//DTD SVG 1.1//EN"
 "http://www.w3.org/Graphics/SVG/1.1/DTD/svg11.dtd">
<!-- Generated by graphviz version 2.38.0 (20140413.2041)
 -->
<!-- Title: %3 Pages: 1 -->
<svg width="330pt" height="216pt"
 viewBox="0.00 0.00 330.00 216.00" xmlns="http://www.w3.org/2000/svg" xmlns:xlink="http://www.w3.org/1999/xlink">
<g id="graph0" class="graph" transform="scale(1 1) rotate(0) translate(4.231 212)">
<title>%3</title>
<polygon fill="white" stroke="none" points="-4.231,4 -4.231,-212 325.77,-212 325.77,4 -4.231,4"/>
<!-- Day &lt; 342 -->
<g id="node1" class="node"><title>Day &lt; 342</title>
<polygon fill="none" stroke="black" points="137.489,-208 62.049,-208 62.049,-172 137.489,-172 137.489,-208"/>
<text text-anchor="middle" x="99.769" y="-185.8" font-family="Times,serif" font-size="14.00">Day &lt; 342</text>
</g>
<!-- TDI &lt; 212 -->
<g id="node2" class="node"><title>TDI &lt; 212</title>
<polygon fill="none" stroke="black" points="80.489,-122 5.04895,-122 5.04895,-86 80.489,-86 80.489,-122"/>
<text text-anchor="middle" x="42.769" y="-99.8" font-family="Times,serif" font-size="14.00">TDI &lt; 212</text>
</g>
<!-- Day &lt; 342&#45;&gt;TDI &lt; 212 -->
<g id="edge1" class="edge"><title>Day &lt; 342&#45;&gt;TDI &lt; 212</title>
<path fill="none" stroke="black" d="M87.959,-171.6C79.88,-159.69 69.04,-143.71 60.001,-130.4"/>
<polygon fill="black" stroke="black" points="62.8802,-128.41 54.369,-122.1 57.0878,-132.34 62.8802,-128.41"/>
<text text-anchor="middle" x="79.045" y="-142.8" font-family="Times,serif" font-size="14.00">T</text>
</g>
<!-- Day &lt; 252 -->
<g id="node3" class="node"><title>Day &lt; 252</title>
<polygon fill="none" stroke="black" points="178.49,-122 103.05,-122 103.05,-86 178.49,-86 178.49,-122"/>
<text text-anchor="middle" x="140.77" y="-99.8" font-family="Times,serif" font-size="14.00">Day &lt; 252</text>
</g>
<!-- Day &lt; 342&#45;&gt;Day &lt; 252 -->
<g id="edge2" class="edge"><title>Day &lt; 342&#45;&gt;Day &lt; 252</title>
<path fill="none" stroke="black" d="M108.26,-171.6C113.96,-159.92 121.58,-144.32 128,-131.16"/>
<polygon fill="black" stroke="black" points="131.181,-132.622 132.42,-122.1 124.89,-129.553 131.181,-132.622"/>
<text text-anchor="middle" x="126.66" y="-142.8" font-family="Times,serif" font-size="14.00">F</text>
</g>
<!-- Hedge_50 -->
<g id="node4" class="node"><title>Hedge_50</title>
<polygon fill="none" stroke="black" points="73.769,-36 -0.231,-36 -0.231,-0 73.769,-0 73.769,-36"/>
<text text-anchor="middle" x="36.769" y="-13.8" font-family="Times,serif" font-size="14.00">Hedge_50</text>
</g>
<!-- TDI &lt; 212&#45;&gt;Hedge_50 -->
<g id="edge3" class="edge"><title>TDI &lt; 212&#45;&gt;Hedge_50</title>
<path fill="none" stroke="black" d="M41.526,-85.595C40.716,-74.257 39.642,-59.227 38.72,-46.315"/>
<polygon fill="black" stroke="black" points="42.1937,-45.8202 37.99,-36.095 35.2115,-46.319 42.1937,-45.8202"/>
<text text-anchor="middle" x="44.662" y="-56.8" font-family="Times,serif" font-size="14.00">F</text>
</g>
<!-- Flood_Control -->
<g id="node5" class="node"><title>Flood_Control</title>
<polygon fill="none" stroke="black" points="190.226,-36 91.3139,-36 91.3139,-0 190.226,-0 190.226,-36"/>
<text text-anchor="middle" x="140.77" y="-13.8" font-family="Times,serif" font-size="14.00">Flood_Control</text>
</g>
<!-- Day &lt; 252&#45;&gt;Flood_Control -->
<g id="edge4" class="edge"><title>Day &lt; 252&#45;&gt;Flood_Control</title>
<path fill="none" stroke="black" d="M140.77,-85.595C140.77,-74.257 140.77,-59.227 140.77,-46.315"/>
<polygon fill="black" stroke="black" points="144.27,-46.095 140.77,-36.095 137.27,-46.095 144.27,-46.095"/>
<text text-anchor="middle" x="145.04" y="-56.8" font-family="Times,serif" font-size="14.00">T</text>
</g>
<!-- Release_Demand -->
<g id="node6" class="node"><title>Release_Demand</title>
<polygon fill="none" stroke="black" points="321.77,-36 207.77,-36 207.77,-0 321.77,-0 321.77,-36"/>
<text text-anchor="middle" x="264.77" y="-13.8" font-family="Times,serif" font-size="14.00">Release_Demand</text>
</g>
<!-- Day &lt; 252&#45;&gt;Release_Demand -->
<g id="edge5" class="edge"><title>Day &lt; 252&#45;&gt;Release_Demand</title>
<path fill="none" stroke="black" d="M166.16,-85.799C184.88,-73.115 210.55,-55.73 231,-41.876"/>
<polygon fill="black" stroke="black" points="233.094,-44.6847 239.41,-36.178 229.168,-38.8896 233.094,-44.6847"/>
<text text-anchor="middle" x="214.66" y="-56.8" font-family="Times,serif" font-size="14.00">F</text>
</g>
</g>
</svg>
