<?xml version="1.0" encoding="UTF-8" standalone="no"?>
<!DOCTYPE svg PUBLIC "-//W3C//DTD SVG 1.1//EN"
 "http://www.w3.org/Graphics/SVG/1.1/DTD/svg11.dtd">
<!-- Generated by graphviz version 2.38.0 (20140413.2041)
 -->
<!-- Title: %3 Pages: 1 -->
<svg width="387pt" height="302pt"
 viewBox="0.00 0.00 387.00 302.00" xmlns="http://www.w3.org/2000/svg" xmlns:xlink="http://www.w3.org/1999/xlink">
<g id="graph0" class="graph" transform="scale(1 1) rotate(0) translate(4.231 298)">
<title>%3</title>
<polygon fill="white" stroke="none" points="-4.231,4 -4.231,-298 382.77,-298 382.77,4 -4.231,4"/>
<!-- Day &lt; 175 -->
<g id="node1" class="node"><title>Day &lt; 175</title>
<polygon fill="none" stroke="black" points="228.49,-294 153.05,-294 153.05,-258 228.49,-258 228.49,-294"/>
<text text-anchor="middle" x="190.77" y="-271.8" font-family="Times,serif" font-size="14.00">Day &lt; 175</text>
</g>
<!-- Inflow &lt; 16 -->
<g id="node2" class="node"><title>Inflow &lt; 16</title>
<polygon fill="none" stroke="black" points="173.725,-208 91.8146,-208 91.8146,-172 173.725,-172 173.725,-208"/>
<text text-anchor="middle" x="132.77" y="-185.8" font-family="Times,serif" font-size="14.00">Inflow &lt; 16</text>
</g>
<!-- Day &lt; 175&#45;&gt;Inflow &lt; 16 -->
<g id="edge1" class="edge"><title>Day &lt; 175&#45;&gt;Inflow &lt; 16</title>
<path fill="none" stroke="black" d="M178.75,-257.6C170.53,-245.69 159.5,-229.71 150.3,-216.4"/>
<polygon fill="black" stroke="black" points="153.132,-214.341 144.57,-208.1 147.371,-218.318 153.132,-214.341"/>
<text text-anchor="middle" x="170.04" y="-228.8" font-family="Times,serif" font-size="14.00">T</text>
</g>
<!-- WYC &lt; 143 -->
<g id="node3" class="node"><title>WYC &lt; 143</title>
<polygon fill="none" stroke="black" points="276.27,-208 191.27,-208 191.27,-172 276.27,-172 276.27,-208"/>
<text text-anchor="middle" x="233.77" y="-185.8" font-family="Times,serif" font-size="14.00">WYC &lt; 143</text>
</g>
<!-- Day &lt; 175&#45;&gt;WYC &lt; 143 -->
<g id="edge2" class="edge"><title>Day &lt; 175&#45;&gt;WYC &lt; 143</title>
<path fill="none" stroke="black" d="M199.68,-257.6C205.66,-245.92 213.64,-230.32 220.38,-217.16"/>
<polygon fill="black" stroke="black" points="223.577,-218.596 225.02,-208.1 217.346,-215.405 223.577,-218.596"/>
<text text-anchor="middle" x="219.66" y="-228.8" font-family="Times,serif" font-size="14.00">F</text>
</g>
<!-- Hedge_80 -->
<g id="node4" class="node"><title>Hedge_80</title>
<polygon fill="none" stroke="black" points="73.769,-122 -0.231,-122 -0.231,-86 73.769,-86 73.769,-122"/>
<text text-anchor="middle" x="36.769" y="-99.8" font-family="Times,serif" font-size="14.00">Hedge_80</text>
</g>
<!-- Inflow &lt; 16&#45;&gt;Hedge_80 -->
<g id="edge3" class="edge"><title>Inflow &lt; 16&#45;&gt;Hedge_80</title>
<path fill="none" stroke="black" d="M112.88,-171.6C98.754,-159.24 79.617,-142.49 64.066,-128.88"/>
<polygon fill="black" stroke="black" points="66.1395,-126.044 56.306,-122.1 61.5337,-131.315 66.1395,-126.044"/>
<text text-anchor="middle" x="95.045" y="-142.8" font-family="Times,serif" font-size="14.00">T</text>
</g>
<!-- Flood_Control -->
<g id="node5" class="node"><title>Flood_Control</title>
<polygon fill="none" stroke="black" points="190.226,-122 91.3139,-122 91.3139,-86 190.226,-86 190.226,-122"/>
<text text-anchor="middle" x="140.77" y="-99.8" font-family="Times,serif" font-size="14.00">Flood_Control</text>
</g>
<!-- Inflow &lt; 16&#45;&gt;Flood_Control -->
<g id="edge4" class="edge"><title>Inflow &lt; 16&#45;&gt;Flood_Control</title>
<path fill="none" stroke="black" d="M134.43,-171.6C135.51,-160.26 136.94,-145.23 138.17,-132.32"/>
<polygon fill="black" stroke="black" points="141.679,-132.386 139.14,-122.1 134.711,-131.725 141.679,-132.386"/>
<text text-anchor="middle" x="141.66" y="-142.8" font-family="Times,serif" font-size="14.00">F</text>
</g>
<!-- Release_Demand -->
<g id="node6" class="node"><title>Release_Demand</title>
<polygon fill="none" stroke="black" points="286.77,-36 172.77,-36 172.77,-0 286.77,-0 286.77,-36"/>
<text text-anchor="middle" x="229.77" y="-13.8" font-family="Times,serif" font-size="14.00">Release_Demand</text>
</g>
<!-- WYC &lt; 143&#45;&gt;Release_Demand -->
<g id="edge5" class="edge"><title>WYC &lt; 143&#45;&gt;Release_Demand</title>
<path fill="none" stroke="black" d="M233.36,-171.76C232.67,-142.16 231.24,-81.433 230.41,-46.112"/>
<polygon fill="black" stroke="black" points="233.907,-45.9428 230.17,-36.029 226.909,-46.1095 233.907,-45.9428"/>
<text text-anchor="middle" x="237.04" y="-99.8" font-family="Times,serif" font-size="14.00">T</text>
</g>
<!-- Day &lt; 280 -->
<g id="node7" class="node"><title>Day &lt; 280</title>
<polygon fill="none" stroke="black" points="331.49,-122 256.05,-122 256.05,-86 331.49,-86 331.49,-122"/>
<text text-anchor="middle" x="293.77" y="-99.8" font-family="Times,serif" font-size="14.00">Day &lt; 280</text>
</g>
<!-- WYC &lt; 143&#45;&gt;Day &lt; 280 -->
<g id="edge6" class="edge"><title>WYC &lt; 143&#45;&gt;Day &lt; 280</title>
<path fill="none" stroke="black" d="M246.2,-171.6C254.7,-159.69 266.12,-143.71 275.63,-130.4"/>
<polygon fill="black" stroke="black" points="278.594,-132.271 281.56,-122.1 272.899,-128.202 278.594,-132.271"/>
<text text-anchor="middle" x="271.66" y="-142.8" font-family="Times,serif" font-size="14.00">F</text>
</g>
<!-- Day &lt; 280&#45;&gt;Release_Demand -->
<g id="edge7" class="edge"><title>Day &lt; 280&#45;&gt;Release_Demand</title>
<path fill="none" stroke="black" d="M280.51,-85.595C271.44,-73.69 259.27,-57.715 249.12,-44.395"/>
<polygon fill="black" stroke="black" points="251.637,-41.924 242.79,-36.095 246.071,-46.169 251.637,-41.924"/>
<text text-anchor="middle" x="269.66" y="-56.8" font-family="Times,serif" font-size="14.00">F</text>
</g>
<!-- Hedge_70 -->
<g id="node8" class="node"><title>Hedge_70</title>
<polygon fill="none" stroke="black" points="378.77,-36 304.77,-36 304.77,-0 378.77,-0 378.77,-36"/>
<text text-anchor="middle" x="341.77" y="-13.8" font-family="Times,serif" font-size="14.00">Hedge_70</text>
</g>
<!-- Day &lt; 280&#45;&gt;Hedge_70 -->
<g id="edge8" class="edge"><title>Day &lt; 280&#45;&gt;Hedge_70</title>
<path fill="none" stroke="black" d="M303.71,-85.595C310.39,-73.917 319.3,-58.322 326.82,-45.159"/>
<polygon fill="black" stroke="black" points="330.077,-46.5139 332,-36.095 323.999,-43.0406 330.077,-46.5139"/>
<text text-anchor="middle" x="324.04" y="-56.8" font-family="Times,serif" font-size="14.00">T</text>
</g>
</g>
</svg>
