<?xml version="1.0" encoding="utf-8" standalone="no"?>
<!DOCTYPE svg PUBLIC "-//W3C//DTD SVG 1.1//EN"
  "http://www.w3.org/Graphics/SVG/1.1/DTD/svg11.dtd">
<!-- Created with matplotlib (http://matplotlib.org/) -->
<svg height="360pt" version="1.1" viewBox="0 0 432 360" width="432pt" xmlns="http://www.w3.org/2000/svg" xmlns:xlink="http://www.w3.org/1999/xlink">
 <defs>
  <style type="text/css">
*{stroke-linecap:butt;stroke-linejoin:round;}
  </style>
 </defs>
 <g id="figure_1">
  <g id="patch_1">
   <path d="
M0 360
L432 360
L432 0
L0 0
z
" style="fill:#ffffff;"/>
  </g>
  <g id="axes_1">
   <g id="patch_2">
    <path d="
M64.6134 308.76
L405.423 308.76
L405.423 19.89
L64.6134 19.89
z
" style="fill:#ffffff;"/>
   </g>
   <g id="matplotlib.axis_1">
    <g id="xtick_1">
     <g id="line2d_1">
      <path clip-path="url(#p30c1912a8d)" d="
M64.6134 308.76
L64.6134 19.89" style="fill:none;stroke:#cccccc;stroke-linecap:round;"/>
     </g>
     <g id="line2d_2">
      <defs>
       <path d="
M0 0
L0 0" id="m219da94a98" style="stroke:#262626;"/>
      </defs>
      <g>
       <use style="fill:#262626;stroke:#262626;" x="64.6134375" xlink:href="#m219da94a98" y="308.76"/>
      </g>
     </g>
     <g id="line2d_3">
      <g>
       <use style="fill:#262626;stroke:#262626;" x="64.6134375" xlink:href="#m219da94a98" y="19.89"/>
      </g>
     </g>
     <g id="text_1">
      <!-- 1000 -->
      <defs>
       <path d="
M31 64.4062
Q31.9062 64.4062 32.1562 64.1562
Q32.4062 63.9062 32.4062 63
L32.4062 6.59375
L41.0938 6.59375
Q42 6.59375 42.25 6.34375
Q42.5 6.09375 42.5 5.20312
L42.5 1.40625
Q42.5 0.5 42.25 0.25
Q42 0 41.0938 0
L14.5938 0
Q13.7031 0 13.4531 0.25
Q13.2031 0.5 13.2031 1.40625
L13.2031 5.20312
Q13.2031 6.09375 13.4531 6.34375
Q13.7031 6.59375 14.5938 6.59375
L24.7969 6.59375
L24.7969 55.5
L10.7969 47.4062
Q10.2969 47 9.79688 47
Q9.40625 47 9 47.9062
L7.79688 50.0938
Q7.5 50.5 7.5 51.0938
Q7.5 51.5 8.29688 51.9062
L26 64.4062
z
" id="OfficinaSanITC-Book-31"/>
       <path d="
M25.2969 58.5938
Q19.2969 58.5938 15.9375 51.6406
Q12.5938 44.7031 12.5938 32.0938
Q12.5938 25.5938 13.5 20.3906
Q14.4062 15.2031 16.2031 11.5
Q19 5.70312 25 5.70312
Q31.7969 5.70312 34.5 12.4062
Q36 16 36.75 21.1406
Q37.5 26.2969 37.5 32.5938
Q37.5 58.5938 25.2969 58.5938
M25.9062 65.7031
Q35.5 65.7031 40.5469 57.25
Q45.5938 48.7969 45.5938 32.7969
Q45.5938 16 40.2969 7.29688
Q35 -1.40625 24.9062 -1.40625
Q16.2031 -1.40625 11.4062 5.20312
Q4.5 14.5938 4.5 31.5
Q4.5 39.5938 5.95312 45.9375
Q7.40625 52.2969 10.1562 56.6875
Q12.9062 61.0938 16.8438 63.3906
Q20.7969 65.7031 25.9062 65.7031" id="OfficinaSanITC-Book-30"/>
      </defs>
      <g style="fill:#262626;" transform="translate(52.63109375 325.1728125)scale(0.13 -0.13)">
       <use xlink:href="#OfficinaSanITC-Book-31"/>
       <use x="46.2499847412" xlink:href="#OfficinaSanITC-Book-30"/>
       <use x="96.2499694824" xlink:href="#OfficinaSanITC-Book-30"/>
       <use x="146.249954224" xlink:href="#OfficinaSanITC-Book-30"/>
      </g>
     </g>
    </g>
    <g id="xtick_2">
     <g id="line2d_4">
      <path clip-path="url(#p30c1912a8d)" d="
M113.301 308.76
L113.301 19.89" style="fill:none;stroke:#cccccc;stroke-linecap:round;"/>
     </g>
     <g id="line2d_5">
      <g>
       <use style="fill:#262626;stroke:#262626;" x="113.300558036" xlink:href="#m219da94a98" y="308.76"/>
      </g>
     </g>
     <g id="line2d_6">
      <g>
       <use style="fill:#262626;stroke:#262626;" x="113.300558036" xlink:href="#m219da94a98" y="19.89"/>
      </g>
     </g>
     <g id="text_2">
      <!-- 1500 -->
      <defs>
       <path d="
M14.2969 37.0938
Q17.5 39.4062 20.25 40.4062
Q23 41.4062 26.2969 41.4062
Q30.0938 41.4062 33.1875 40
Q36.2969 38.5938 38.5469 36
Q40.7969 33.4062 42.0469 29.7969
Q43.2969 26.2031 43.2969 21.7969
Q43.2969 16.5 41.6875 12.25
Q40.0938 8 37.0938 4.95312
Q34.0938 1.90625 29.8906 0.25
Q25.7031 -1.40625 20.5938 -1.40625
Q17.5 -1.40625 14.25 -1
Q11 -0.59375 8.09375 0.203125
Q6.70312 0.59375 6.70312 1.5
Q6.70312 1.70312 6.70312 1.90625
Q6.70312 2.09375 6.79688 2.29688
L7.79688 6.79688
Q8 7.5 8.70312 7.5
Q8.90625 7.5 9.70312 7.29688
Q13.9062 5.70312 19.5 5.70312
Q27.9062 5.70312 31.4062 9.90625
Q33.2031 12 34.2031 15.0469
Q35.2031 18.0938 35.2031 21.5938
Q35.2031 27.5938 32.4531 30.9375
Q29.7031 34.2969 24.7969 34.2969
Q18.7031 34.2969 13.2031 28.7969
Q12.5938 28.2031 12.2031 28.2031
L11.4062 28.2969
L7.90625 29.4062
Q6.79688 29.7969 6.79688 30.4062
Q6.79688 30.7031 6.90625 31
L10 63.0938
Q10.0938 63.9062 10.3438 64.1562
Q10.5938 64.4062 11.4062 64.4062
L37.4062 64.4062
Q38.2969 64.4062 38.5469 64.1562
Q38.7969 63.9062 38.7969 63
L38.7969 58.7969
Q38.7969 57.9062 38.5469 57.6562
Q38.2969 57.4062 37.4062 57.4062
L16.5 57.4062
z
" id="OfficinaSanITC-Book-35"/>
      </defs>
      <g style="fill:#262626;" transform="translate(101.188214286 325.1728125)scale(0.13 -0.13)">
       <use xlink:href="#OfficinaSanITC-Book-31"/>
       <use x="48.2499847412" xlink:href="#OfficinaSanITC-Book-35"/>
       <use x="98.2499694824" xlink:href="#OfficinaSanITC-Book-30"/>
       <use x="148.249954224" xlink:href="#OfficinaSanITC-Book-30"/>
      </g>
     </g>
    </g>
    <g id="xtick_3">
     <g id="line2d_7">
      <path clip-path="url(#p30c1912a8d)" d="
M161.988 308.76
L161.988 19.89" style="fill:none;stroke:#cccccc;stroke-linecap:round;"/>
     </g>
     <g id="line2d_8">
      <g>
       <use style="fill:#262626;stroke:#262626;" x="161.987678571" xlink:href="#m219da94a98" y="308.76"/>
      </g>
     </g>
     <g id="line2d_9">
      <g>
       <use style="fill:#262626;stroke:#262626;" x="161.987678571" xlink:href="#m219da94a98" y="19.89"/>
      </g>
     </g>
     <g id="text_3">
      <!-- 2000 -->
      <defs>
       <path d="
M41.5938 7.29688
Q42.5 7.29688 42.75 7.04688
Q43 6.79688 43 5.90625
L43 1.40625
Q43 0.5 42.75 0.25
Q42.5 0 41.5938 0
L8.09375 0
Q7.29688 0 7.09375 0.25
Q6.90625 0.5 6.90625 1.40625
Q6.90625 6.79688 7.84375 11.25
Q8.79688 15.7031 10.8438 19.5469
Q12.9062 23.4062 16.1562 26.75
Q19.4062 30.0938 23.9062 33.2031
Q26.4062 34.9062 27.7969 35.9062
Q29.2031 36.9062 30.0469 37.5938
Q30.9062 38.2969 31.3438 38.7969
Q31.7969 39.2969 32.4062 40.0938
Q34.9062 43.4062 34.9062 48
Q34.9062 52.9062 32.25 55.75
Q29.5938 58.5938 25.0938 58.5938
Q20.9062 58.5938 18.3438 56.2969
Q15.7969 54 13.7969 48.5938
Q13.5 47.7969 13 47.7969
Q12.7031 47.7969 12.2031 48
L7.79688 49.2969
Q7 49.5938 7 50.2031
Q7 50.7969 7.34375 51.8906
Q7.70312 53 8.29688 54.2031
Q8.90625 55.4062 9.59375 56.6562
Q10.2969 57.9062 11 58.7969
Q16.2031 65.7031 25.5938 65.7031
Q33.7031 65.7031 38.3438 60.8438
Q43 56 43 47.5938
Q43 44.7031 42.3906 42.3438
Q41.7969 40 40.4375 37.8438
Q39.0938 35.7031 36.7969 33.5469
Q34.5 31.4062 31.2031 29
Q27.2969 26.2969 24.5 23.8438
Q21.7031 21.4062 19.8906 18.8438
Q18.0938 16.2969 17.0938 13.5
Q16.0938 10.7031 15.7031 7.29688
z
" id="OfficinaSanITC-Book-32"/>
      </defs>
      <g style="fill:#262626;" transform="translate(149.722991071 325.1728125)scale(0.13 -0.13)">
       <use xlink:href="#OfficinaSanITC-Book-32"/>
       <use x="49.9999847412" xlink:href="#OfficinaSanITC-Book-30"/>
       <use x="99.9999694824" xlink:href="#OfficinaSanITC-Book-30"/>
       <use x="149.999954224" xlink:href="#OfficinaSanITC-Book-30"/>
      </g>
     </g>
    </g>
    <g id="xtick_4">
     <g id="line2d_10">
      <path clip-path="url(#p30c1912a8d)" d="
M210.675 308.76
L210.675 19.89" style="fill:none;stroke:#cccccc;stroke-linecap:round;"/>
     </g>
     <g id="line2d_11">
      <g>
       <use style="fill:#262626;stroke:#262626;" x="210.674799107" xlink:href="#m219da94a98" y="308.76"/>
      </g>
     </g>
     <g id="line2d_12">
      <g>
       <use style="fill:#262626;stroke:#262626;" x="210.674799107" xlink:href="#m219da94a98" y="19.89"/>
      </g>
     </g>
     <g id="text_4">
      <!-- 2500 -->
      <g style="fill:#262626;" transform="translate(198.410111607 325.1728125)scale(0.13 -0.13)">
       <use xlink:href="#OfficinaSanITC-Book-32"/>
       <use x="49.9999847412" xlink:href="#OfficinaSanITC-Book-35"/>
       <use x="99.9999694824" xlink:href="#OfficinaSanITC-Book-30"/>
       <use x="149.999954224" xlink:href="#OfficinaSanITC-Book-30"/>
      </g>
     </g>
    </g>
    <g id="xtick_5">
     <g id="line2d_13">
      <path clip-path="url(#p30c1912a8d)" d="
M259.362 308.76
L259.362 19.89" style="fill:none;stroke:#cccccc;stroke-linecap:round;"/>
     </g>
     <g id="line2d_14">
      <g>
       <use style="fill:#262626;stroke:#262626;" x="259.361919643" xlink:href="#m219da94a98" y="308.76"/>
      </g>
     </g>
     <g id="line2d_15">
      <g>
       <use style="fill:#262626;stroke:#262626;" x="259.361919643" xlink:href="#m219da94a98" y="19.89"/>
      </g>
     </g>
     <g id="text_5">
      <!-- 3000 -->
      <defs>
       <path d="
M7.29688 56.0938
Q6.90625 56.4062 6.90625 56.5938
Q6.90625 57.2969 8.34375 58.8438
Q9.79688 60.4062 11.7969 61.7969
Q17.2031 65.7031 23.9062 65.7031
Q27.7031 65.7031 30.8438 64.5
Q34 63.2969 36.25 61.1875
Q38.5 59.0938 39.75 56.0938
Q41 53.0938 41 49.5
Q41 38.7969 30.7031 34.7969
Q33.0938 34 34.4375 33.3906
Q35.7969 32.7969 37.0938 31.7031
Q40 29.5 41.5938 25.8438
Q43.2031 22.2031 43.2031 17.9062
Q43.2031 13.5 41.6406 9.95312
Q40.0938 6.40625 37.2969 3.90625
Q34.5 1.40625 30.5469 0
Q26.5938 -1.40625 21.7969 -1.40625
Q19.2031 -1.40625 16.3438 -0.953125
Q13.5 -0.5 11.0938 0.140625
Q8.70312 0.796875 7.09375 1.54688
Q5.5 2.29688 5.5 3
Q5.5 3.20312 5.54688 3.29688
Q5.59375 3.40625 5.79688 3.79688
L7.70312 8.29688
Q8.09375 8.90625 8.59375 8.90625
Q8.70312 8.90625 9.09375 8.70312
Q12.7969 7 15.6875 6.34375
Q18.5938 5.70312 21.9062 5.70312
Q28.2031 5.70312 31.6406 8.95312
Q35.0938 12.2031 35.0938 18.2031
Q35.0938 30.5 20.5 30.5
L17.0938 30.5
Q16.0938 30.5 15.8906 30.75
Q15.7031 31 15.7031 31.9062
L15.7031 35.9062
Q15.7031 36.7969 15.9531 37.0469
Q16.2031 37.2969 17.0938 37.2969
L20.4062 37.2969
Q26.4062 37.2969 29.8438 40.5469
Q33.2969 43.7969 33.2969 49.2969
Q33.2969 53.7969 30.6875 56.4375
Q28.0938 59.0938 23.5938 59.0938
Q18.4062 59.0938 13.7969 54.5
Q13.0938 53.7969 12.75 53.4375
Q12.4062 53.0938 12.2031 52.9375
Q12 52.7969 11.8438 52.75
Q11.7031 52.7031 11.5938 52.7031
Q11.0938 52.7031 10.9062 52.9062
z
" id="OfficinaSanITC-Book-33"/>
      </defs>
      <g style="fill:#262626;" transform="translate(247.005825893 325.1728125)scale(0.13 -0.13)">
       <use xlink:href="#OfficinaSanITC-Book-33"/>
       <use x="49.9999847412" xlink:href="#OfficinaSanITC-Book-30"/>
       <use x="99.9999694824" xlink:href="#OfficinaSanITC-Book-30"/>
       <use x="149.999954224" xlink:href="#OfficinaSanITC-Book-30"/>
      </g>
     </g>
    </g>
    <g id="xtick_6">
     <g id="line2d_16">
      <path clip-path="url(#p30c1912a8d)" d="
M308.049 308.76
L308.049 19.89" style="fill:none;stroke:#cccccc;stroke-linecap:round;"/>
     </g>
     <g id="line2d_17">
      <g>
       <use style="fill:#262626;stroke:#262626;" x="308.049040179" xlink:href="#m219da94a98" y="308.76"/>
      </g>
     </g>
     <g id="line2d_18">
      <g>
       <use style="fill:#262626;stroke:#262626;" x="308.049040179" xlink:href="#m219da94a98" y="19.89"/>
      </g>
     </g>
     <g id="text_6">
      <!-- 3500 -->
      <g style="fill:#262626;" transform="translate(295.692946429 325.1728125)scale(0.13 -0.13)">
       <use xlink:href="#OfficinaSanITC-Book-33"/>
       <use x="49.9999847412" xlink:href="#OfficinaSanITC-Book-35"/>
       <use x="99.9999694824" xlink:href="#OfficinaSanITC-Book-30"/>
       <use x="149.999954224" xlink:href="#OfficinaSanITC-Book-30"/>
      </g>
     </g>
    </g>
    <g id="xtick_7">
     <g id="line2d_19">
      <path clip-path="url(#p30c1912a8d)" d="
M356.736 308.76
L356.736 19.89" style="fill:none;stroke:#cccccc;stroke-linecap:round;"/>
     </g>
     <g id="line2d_20">
      <g>
       <use style="fill:#262626;stroke:#262626;" x="356.736160714" xlink:href="#m219da94a98" y="308.76"/>
      </g>
     </g>
     <g id="line2d_21">
      <g>
       <use style="fill:#262626;stroke:#262626;" x="356.736160714" xlink:href="#m219da94a98" y="19.89"/>
      </g>
     </g>
     <g id="text_7">
      <!-- 4000 -->
      <defs>
       <path d="
M29 64.0938
Q29.5 64.9062 30.0938 64.9062
L30.2969 64.9062
L30.7031 64.9062
L35.7031 64.0938
Q36.9062 63.7969 36.9062 63.2031
Q36.9062 62.7969 36.5 62.2969
L11 20.7031
L30.0938 20.7031
L31.2031 36.7969
Q31.2969 37.5938 31.5469 37.8438
Q31.7969 38.0938 32.5938 38.0938
L36.2031 38.0938
Q37.0938 38.0938 37.3438 37.8438
Q37.5938 37.5938 37.5938 36.7031
L37.5938 20.7031
L45.5 20.7031
Q46.4062 20.7031 46.6562 20.4531
Q46.9062 20.2031 46.9062 19.2969
L46.9062 15.5938
Q46.9062 14.7031 46.6562 14.4531
Q46.4062 14.2031 45.5 14.2031
L37.5938 14.2031
L37.5938 0
Q37.5938 -0.90625 37.3438 -1.15625
Q37.0938 -1.40625 36.2031 -1.40625
L31.5 -1.40625
Q30.5938 -1.40625 30.3438 -1.15625
Q30.0938 -0.90625 30.0938 0
L30.0938 14.2031
L4.5 14.2031
Q3.59375 14.2031 3.34375 14.4531
Q3.09375 14.7031 3.09375 15.5938
L3.09375 21.2031
z
" id="OfficinaSanITC-Book-34"/>
      </defs>
      <g style="fill:#262626;" transform="translate(344.223660714 325.1728125)scale(0.13 -0.13)">
       <use xlink:href="#OfficinaSanITC-Book-34"/>
       <use x="49.9999847412" xlink:href="#OfficinaSanITC-Book-30"/>
       <use x="99.9999694824" xlink:href="#OfficinaSanITC-Book-30"/>
       <use x="149.999954224" xlink:href="#OfficinaSanITC-Book-30"/>
      </g>
     </g>
    </g>
    <g id="xtick_8">
     <g id="line2d_22">
      <path clip-path="url(#p30c1912a8d)" d="
M405.423 308.76
L405.423 19.89" style="fill:none;stroke:#cccccc;stroke-linecap:round;"/>
     </g>
     <g id="line2d_23">
      <g>
       <use style="fill:#262626;stroke:#262626;" x="405.42328125" xlink:href="#m219da94a98" y="308.76"/>
      </g>
     </g>
     <g id="line2d_24">
      <g>
       <use style="fill:#262626;stroke:#262626;" x="405.42328125" xlink:href="#m219da94a98" y="19.89"/>
      </g>
     </g>
     <g id="text_8">
      <!-- 4500 -->
      <g style="fill:#262626;" transform="translate(392.91078125 325.1728125)scale(0.13 -0.13)">
       <use xlink:href="#OfficinaSanITC-Book-34"/>
       <use x="49.9999847412" xlink:href="#OfficinaSanITC-Book-35"/>
       <use x="99.9999694824" xlink:href="#OfficinaSanITC-Book-30"/>
       <use x="149.999954224" xlink:href="#OfficinaSanITC-Book-30"/>
      </g>
     </g>
    </g>
    <g id="text_9">
     <!-- Mean Annual Inflow, 2070-2100 (TAF/yr) -->
     <defs>
      <path d="
M20.7031 6.5
L29.5938 6.5
Q30.5 6.5 30.75 6.25
Q31 6 31 5.09375
L31 1.40625
Q31 0.5 30.75 0.25
Q30.5 0 29.5938 0
L3.70312 0
Q2.79688 0 2.54688 0.25
Q2.29688 0.5 2.29688 1.40625
L2.29688 5.09375
Q2.29688 6 2.54688 6.25
Q2.79688 6.5 3.70312 6.5
L12.5 6.5
L12.5 62.0938
L3.70312 62.0938
Q2.79688 62.0938 2.54688 62.3438
Q2.29688 62.5938 2.29688 63.5
L2.29688 67.2031
Q2.29688 68.0938 2.54688 68.3438
Q2.79688 68.5938 3.70312 68.5938
L29.5938 68.5938
Q30.5 68.5938 30.75 68.3438
Q31 68.0938 31 67.2031
L31 63.5
Q31 62.5938 30.75 62.3438
Q30.5 62.0938 29.5938 62.0938
L20.7031 62.0938
z
" id="OfficinaSanITC-Book-49"/>
      <path d="
M17.7969 38.2969
L37.4062 38.2969
Q38.2969 38.2969 38.5469 38.0469
Q38.7969 37.7969 38.7969 36.9062
L38.7969 33
Q38.7969 32.0938 38.5469 31.8438
Q38.2969 31.5938 37.4062 31.5938
L17.7969 31.5938
L17.7969 1.40625
Q17.7969 0.5 17.5469 0.25
Q17.2969 0 16.4062 0
L11 0
Q10.0938 0 9.84375 0.25
Q9.59375 0.5 9.59375 1.40625
L9.59375 67.2031
Q9.59375 68.0938 9.84375 68.3438
Q10.0938 68.5938 11 68.5938
L41.7969 68.5938
Q43.2031 68.5938 43.2031 67.9062
Q43.2031 67.5938 43.0938 67.4062
L43 67
L41.5 62.5938
Q41 61.5 40 61.5
L17.7969 61.5
z
" id="OfficinaSanITC-Book-46"/>
      <path d="
M30.0938 23.9062
Q11.4062 23.7969 11.4062 13.2969
Q11.4062 9.79688 13.4531 7.54688
Q15.5 5.29688 18.7031 5.29688
Q23.7031 5.29688 30.0938 11
z

M30.0938 33.4062
Q30.0938 38.2031 28 40.25
Q25.9062 42.2969 20.9062 42.2969
Q18 42.2969 15.4531 41.6875
Q12.9062 41.0938 9 39.4062
Q8.40625 39.2031 8.29688 39.2031
Q7.79688 39.2031 7.59375 39.7031
L6.09375 43.7031
L6 44.5
Q6 45 6.5 45.3438
Q7 45.7031 8.70312 46.4062
Q14.7031 49.0938 22 49.0938
Q30 49.0938 33.7969 45.6875
Q37.5938 42.2969 37.5938 35.0938
L37.5938 16.2031
Q37.5938 13.5938 37.6875 11.7969
Q37.7969 10 38.0938 8.54688
Q38.4062 7.09375 38.9531 5.84375
Q39.5 4.59375 40.2969 3.09375
Q40.5 2.70312 40.5 2.5
Q40.5 2.20312 40.0938 2
L35.7969 -0.703125
Q35.2969 -1 35 -1
Q34.2031 -1 33.0938 0.890625
Q32 2.79688 31.2031 5.29688
Q27.7969 2 24.4375 0.5
Q21.0938 -1 16.9062 -1
Q10.7969 -1 7.25 2.70312
Q3.70312 6.40625 3.70312 12.7031
Q3.70312 29.7031 30.0938 30.0938
z
" id="OfficinaSanITC-Book-61"/>
      <path d="
M35 28.5
Q34.7969 35.7031 32.0938 39.5
Q29.4062 43.2969 24.2969 43.2969
Q14 43.2969 13.4062 28.5
z

M13.2969 22.2969
Q13.7031 14.0938 17.0469 9.75
Q20.4062 5.40625 26.5 5.40625
Q29.2031 5.40625 32 6.25
Q34.7969 7.09375 38.0938 9
Q38.5 9.29688 39.0938 9.29688
Q39.5 9.29688 39.7969 8.79688
L41.5938 4.90625
Q41.7969 4.40625 41.7969 4.20312
Q41.7969 3.59375 41 3
Q40.2031 2.40625 38.2031 1.40625
Q32.0938 -1.40625 25.9062 -1.40625
Q21.0938 -1.40625 17.25 0.34375
Q13.4062 2.09375 10.7031 5.39062
Q8 8.70312 6.54688 13.3906
Q5.09375 18.0938 5.09375 23.9062
Q5.09375 29.7031 6.5 34.4531
Q7.90625 39.2031 10.4531 42.5
Q13 45.7969 16.6406 47.5938
Q20.2969 49.4062 24.7969 49.4062
Q30.9062 49.4062 35.25 46.25
Q39.5938 43.0938 41.5938 37.4062
Q42.4062 35 42.75 31.9531
Q43.0938 28.9062 43.0938 24.0938
Q43.0938 23 42.8906 22.6406
Q42.7031 22.2969 42 22.2969
z
" id="OfficinaSanITC-Book-65"/>
      <path d="
M9.40625 55.7969
Q9.40625 60.5 9.95312 62.9531
Q10.5 65.4062 12 67.4062
Q15.7969 72.4062 23.2031 72.4062
Q25 72.4062 26.8906 72.0469
Q28.7969 71.7031 30.4375 71.2031
Q32.0938 70.7031 33.1406 70.0938
Q34.2031 69.5 34.2031 68.9062
Q34.2031 68.7031 34 68.2969
L32.2969 64.2031
Q32.0938 63.5938 31.5938 63.5938
Q31.2031 63.5938 30.5938 63.9062
Q28.5938 64.9062 26.5938 65.4531
Q24.5938 66 22.9062 66
Q19.7031 66 18.2969 64
Q17.5 62.9062 17.2031 61.25
Q16.9062 59.5938 16.9062 55.7031
L16.9062 48
L31.2969 48
Q32.4062 48 32.4062 47.2969
Q32.4062 46.9062 32.2969 46.7031
L31 42.7031
Q30.7031 41.7969 29.7031 41.7969
L16.9062 41.7969
L16.9062 1.20312
Q16.9062 0.40625 16.7031 0.203125
Q16.5 0 15.7969 0
L10.5 0
Q9.79688 0 9.59375 0.203125
Q9.40625 0.40625 9.40625 1.20312
L9.40625 41.7969
L2.79688 41.7969
Q2 41.7969 1.79688 42
Q1.59375 42.2031 1.59375 42.9062
L1.59375 46.7969
Q1.59375 47.5938 1.79688 47.7969
Q2 48 2.79688 48
L9.40625 48
z
" id="OfficinaSanITC-Book-66"/>
      <path d="
M35 27.5
L29 49.5
Q28.2969 52.0938 27.75 54.5
Q27.2031 56.9062 26.7031 59.0938
Q26.2969 57.0938 25.75 54.75
Q25.2031 52.4062 24.4062 49.5938
L18.4062 27.5
z

M16.5938 20.5938
L11 1.09375
Q10.7031 0 9.5 0
L3.5 0
Q2.09375 0 2.09375 0.703125
Q2.09375 0.90625 2.09375 1
Q2.09375 1.09375 2.29688 1.59375
L22.4062 67.5
Q22.7031 68.2969 22.8906 68.4375
Q23.0938 68.5938 23.9062 68.5938
L29.9062 68.5938
Q30.7031 68.5938 30.8906 68.4375
Q31.0938 68.2969 31.4062 67.5
L51.5 1.59375
Q51.7031 1.09375 51.7031 1
Q51.7031 0.90625 51.7031 0.796875
Q51.7031 0 50.2969 0
L43.9062 0
Q42.9062 0 42.4062 1.09375
L36.9062 20.5938
z
" id="OfficinaSanITC-Book-41"/>
      <path d="
M31 70.9062
Q31.7031 70.5 31.7031 70
Q31.7031 69.4062 30.7969 68.2031
Q23.2031 58.0938 19.7969 47.75
Q16.4062 37.4062 16.4062 24.9062
Q16.4062 18.5938 17.25 12.9375
Q18.0938 7.29688 19.8438 2
Q21.5938 -3.29688 24.2969 -8.29688
Q27 -13.2969 30.7969 -18.4062
Q31.7031 -19.7031 31.7031 -20.2031
Q31.7031 -20.5 31.2031 -21
Q30.7031 -21.5 30 -21.9531
Q29.2969 -22.4062 28.5469 -22.7031
Q27.7969 -23 27.4062 -23
Q26.5938 -23 25 -21.1406
Q23.4062 -19.2969 20.5 -14.9062
Q14.2031 -5.40625 11.2031 4.25
Q8.20312 13.9062 8.20312 24.9062
Q8.20312 36.7031 11.75 47.1406
Q15.2969 57.5938 22.7031 67.7969
Q25 71 25.8438 71.8906
Q26.7031 72.7969 27.4062 72.7969
Q27.9062 72.7969 28.5938 72.4062
z
" id="OfficinaSanITC-Book-28"/>
      <path d="
M6 -21.2031
Q5.29688 -20.5938 5.29688 -20.2031
Q5.29688 -19.5938 6.20312 -18.4062
Q10 -13.2969 12.7031 -8.25
Q15.4062 -3.20312 17.1562 2.04688
Q18.9062 7.29688 19.75 12.9375
Q20.5938 18.5938 20.5938 24.9062
Q20.5938 31.2031 19.75 36.8438
Q18.9062 42.5 17.1562 47.7969
Q15.4062 53.0938 12.7031 58.0938
Q10 63.0938 6.20312 68.2031
Q5.29688 69.5 5.29688 70
Q5.29688 70.4062 5.59375 70.5938
Q5.90625 70.7969 7.59375 71.9062
Q8.70312 72.5938 8.89062 72.6875
Q9.09375 72.7969 9.59375 72.7969
Q10.4062 72.7969 11.8438 71.0469
Q13.2969 69.2969 16.5 64.7031
Q22.7969 55.2969 25.7969 45.6406
Q28.7969 36 28.7969 24.9062
Q28.7969 13 25.2969 2.64062
Q21.7969 -7.70312 14.2969 -18
Q13.0938 -19.5938 12.3438 -20.5938
Q11.5938 -21.5938 11.0938 -22.0938
Q10.5938 -22.5938 10.25 -22.7969
Q9.90625 -23 9.59375 -23
Q9.09375 -23 8.40625 -22.5938
z
" id="OfficinaSanITC-Book-29"/>
      <path id="OfficinaSanITC-Book-20"/>
      <path d="
M24.9062 43.0938
Q19.2031 43.0938 16.2031 38.4375
Q13.2031 33.7969 13.2031 24.7969
Q13.2031 20 14.0469 15.8906
Q14.9062 11.7969 16.2969 9.29688
Q17.5938 7.29688 19.9375 6.09375
Q22.2969 4.90625 25.0938 4.90625
Q27.7969 4.90625 30.0938 6
Q32.4062 7.09375 33.5938 9.09375
Q35.0938 11.5 35.9375 15.5469
Q36.7969 19.5938 36.7969 24.4062
Q36.7969 43.0938 24.9062 43.0938
M25.5938 49.4062
Q34.7031 49.4062 39.7969 42.75
Q44.9062 36.0938 44.9062 24.2969
Q44.9062 12.0938 39.5 5.34375
Q34.0938 -1.40625 24.4062 -1.40625
Q15.2031 -1.40625 10.1406 5.1875
Q5.09375 11.7969 5.09375 23.7969
Q5.09375 36 10.5 42.7031
Q15.9062 49.4062 25.5938 49.4062" id="OfficinaSanITC-Book-6f"/>
      <path d="
M3.70312 27.9062
Q3.70312 28.7969 3.95312 29.0469
Q4.20312 29.2969 5.09375 29.2969
L30.0938 29.2969
Q31 29.2969 31.25 29.0469
Q31.5 28.7969 31.5 27.9062
L31.5 23.2031
Q31.5 22.2969 31.25 22.0469
Q31 21.7969 30.0938 21.7969
L5.09375 21.7969
Q4.20312 21.7969 3.95312 22.0469
Q3.70312 22.2969 3.70312 23.2031
z
" id="OfficinaSanITC-Book-2d"/>
      <path d="
M24.5938 1.40625
Q24.5938 0.5 24.3438 0.25
Q24.0938 0 23.2031 0
L17.7969 0
Q16.9062 0 16.6562 0.25
Q16.4062 0.5 16.4062 1.40625
L16.4062 61.5938
L1.79688 61.5938
Q0.90625 61.5938 0.65625 61.8438
Q0.40625 62.0938 0.40625 63
L0.40625 67.2031
Q0.40625 68.0938 0.65625 68.3438
Q0.90625 68.5938 1.79688 68.5938
L40.7969 68.5938
Q42.2031 68.5938 42.2031 67.9062
Q42.2031 67.5 42.0938 67.2969
L42 67
L40.5 62.7031
Q40.2031 61.5938 39 61.5938
L24.5938 61.5938
z
" id="OfficinaSanITC-Book-54"/>
      <path d="
M35.7969 71.7969
Q36.2969 72.7969 37.4062 72.7969
L41.2969 72.7969
Q42.7031 72.7969 42.7031 72.0938
Q42.7031 71.9062 42.6406 71.75
Q42.5938 71.5938 42.4062 71.0938
L3.59375 -22
Q3.20312 -22.9062 2 -22.9062
L-1.90625 -22.9062
Q-3.20312 -22.9062 -3.20312 -22.2031
Q-3.20312 -22 -3.14062 -21.8438
Q-3.09375 -21.7031 -2.90625 -21.2969
z
" id="OfficinaSanITC-Book-2f"/>
      <path d="
M12.2969 10.2969
Q12.7031 11.4062 13.7969 11.4062
L21.9062 11.4062
Q23.2969 11.4062 23.2969 10.7031
Q23.2969 10.5 23.25 10.3438
Q23.2031 10.2031 22.9062 9.70312
L11.4062 -11.5
Q11 -12.0938 10.8438 -12.25
Q10.7031 -12.4062 10.4062 -12.4062
Q10.0938 -12.4062 9.90625 -12.2969
L9.59375 -12.2031
L7.40625 -11.4062
Q6.29688 -11 6.29688 -10.5
Q6.29688 -10.2969 6.29688 -10.2031
Q6.29688 -10.2031 6.5 -9.70312
z
" id="OfficinaSanITC-Book-2c"/>
      <path d="
M16.9062 13.2969
Q17.0938 12.7031 17.1406 12.0938
Q17.2031 11.5 17.5938 9.40625
Q17.7031 10 17.7969 10.4531
Q17.9062 10.9062 18.0469 11.4062
Q18.2031 11.9062 18.3906 12.7031
Q18.5938 13.5 18.9062 14.9062
L28.4062 47.2969
Q28.5938 47.9062 28.75 48.0469
Q28.9062 48.2031 29.5938 48.2031
L33.5938 48.2031
Q34.4062 48.2031 34.5 48.0938
Q34.5938 48 34.7969 47.2969
L43 13.5938
L43.2969 12.4062
L43.5 10.7969
L43.7031 9.70312
L44 11.0938
L44.5 13.5938
L53 48
Q53.2969 48.9062 53.7969 48.9062
Q53.9062 48.9062 54.1562 48.8438
Q54.4062 48.7969 54.4062 48.7969
L59 47.7031
Q60 47.4062 60 46.9062
Q60 46.5938 59.9062 46.5
L59.7969 46.2031
L46.5938 0.296875
Q46.4062 -0.5 46.25 -0.59375
Q46.0938 -0.703125 45.4062 -0.703125
L41.5 -0.703125
Q40.9062 -0.703125 40.7031 -0.546875
Q40.5 -0.40625 40.2969 0.296875
L32.4062 30.5938
Q32.2031 31.4062 32 32.4531
Q31.7969 33.5 31.5938 34.9062
L31.4062 36.4062
L31.0938 38.5
Q30.7031 34.5 29.5938 30.7031
L20.2031 0.203125
Q20 -0.40625 19.7969 -0.546875
Q19.5938 -0.703125 18.9062 -0.703125
L15.2031 -0.703125
Q14.5 -0.703125 14.3438 -0.546875
Q14.2031 -0.40625 14 0.296875
L2.5 46.2031
Q2.40625 46.5938 2.40625 46.7969
Q2.40625 47.5 3.29688 47.5938
L8.40625 48.9062
Q8.79688 49 9 49
Q9.5 49 9.79688 48
L16.5938 14.9062
z
" id="OfficinaSanITC-Book-77"/>
      <path d="
M34.5938 46.5
Q34.5938 47.5 35.5938 47.7969
L40.9062 49.2031
Q41.2969 49.2969 41.5 49.2969
Q42.2031 49.2969 42.2031 48.2031
L42.2031 13.2969
Q42.2031 9.40625 42.75 7.29688
Q43.2969 5.20312 44.7969 3
Q45.0938 2.5 45.0938 2.29688
Q45.0938 2.20312 44.7031 1.79688
L40.2031 -1.09375
Q39.7031 -1.40625 39.5 -1.40625
Q38.9062 -1.40625 37.8438 0.390625
Q36.7969 2.20312 36 4.59375
Q31.7031 1.29688 28.3438 -0.046875
Q25 -1.40625 21 -1.40625
Q14.2969 -1.40625 10.7969 2
Q7.29688 5.40625 7.29688 12
L7.29688 46.5
Q7.29688 47.5 8.29688 47.7969
L13.5 49.2031
Q13.9062 49.2969 14.0938 49.2969
Q14.7969 49.2969 14.7969 48.2031
L14.7969 17
Q14.7969 10.4062 16.3438 7.90625
Q17.9062 5.40625 22 5.40625
Q25.0938 5.40625 28.3906 6.75
Q31.7031 8.09375 34.5938 10.5
z
" id="OfficinaSanITC-Book-75"/>
      <path d="
M11.2969 49.0938
Q11.7031 49.4062 12.0938 49.4062
Q12.5 49.4062 13.0938 48.7031
Q13.7031 48 14.2031 46.7969
Q14.7031 45.5938 15.1406 44.0938
Q15.5938 42.5938 15.9062 41.0938
Q18.2969 43.7969 19.8906 45.3906
Q21.5 47 22.8438 47.8906
Q24.2031 48.7969 25.4531 49.0938
Q26.7031 49.4062 28.2969 49.4062
Q30 49.4062 31.6406 48.8438
Q33.2969 48.2969 33.2969 47.7969
Q33.2969 47.5 33.0938 47.0938
L30.7031 41.5
Q30.5 41.2031 30.2031 41.2031
Q30.0938 41.2031 29.8906 41.25
Q29.7031 41.2969 28.5 41.7031
Q27.5 41.9062 26.7969 41.9062
Q25.7969 41.9062 24.8438 41.5469
Q23.9062 41.2031 22.7969 40.2969
Q21.7031 39.4062 20.25 37.9531
Q18.7969 36.5 16.9062 34.2969
L16.9062 1.20312
Q16.9062 0.40625 16.7031 0.203125
Q16.5 0 15.7969 0
L10.5 0
Q9.79688 0 9.59375 0.203125
Q9.40625 0.40625 9.40625 1.20312
L9.40625 31.2031
Q9.40625 34.2031 9.29688 36.0938
Q9.20312 38 8.95312 39.4531
Q8.70312 40.9062 8.25 42.0469
Q7.79688 43.2031 7 44.5938
Q6.59375 45.2969 6.59375 45.5938
Q6.59375 46.2031 7.09375 46.5
z
" id="OfficinaSanITC-Book-72"/>
      <path d="
M31.7969 33
Q32.2969 31.5938 32.6406 29.8438
Q33 28.0938 33.2031 26.7969
Q33.5 28.7031 33.7031 29.7969
Q33.9062 30.9062 34.5 33
L46.4062 67.5
Q46.7031 68.2969 46.8906 68.4375
Q47.0938 68.5938 47.9062 68.5938
L54.2031 68.5938
Q55 68.5938 55.25 68.3438
Q55.5 68.0938 55.5 67.2969
L59.2969 1.40625
L59.2969 1.20312
L59.2969 1
Q59.2969 0 58 0
L52.2031 0
Q51.2969 0 51.0938 0.25
Q50.9062 0.5 50.7969 1.29688
L49.2969 52.0938
L49.2969 52.5938
Q49.2969 53.4062 49.3438 54.8438
Q49.4062 56.2969 49.5938 57.7031
L49.7031 59.7031
Q49.2969 57.0938 48.75 54.75
Q48.2031 52.4062 47.5938 50.9062
L35.9062 17.0938
Q35.7031 16.2969 35.4531 16.1406
Q35.2031 16 34.4062 16
L31.5 16
Q30.4062 16 30 17.0938
L18.7031 50.9062
Q18 53 17.5469 55.0938
Q17.0938 57.2031 16.7969 59.7031
L16.7969 57.7969
L16.9062 56
L17 54
L17 52.4062
L17 52.0938
L15.5 1.29688
Q15.5 0.5 15.25 0.25
Q15 0 14.2031 0
L8.79688 0
Q7.40625 0 7.40625 1
L7.40625 1.40625
L11.2031 67.2969
Q11.2031 68.0938 11.4531 68.3438
Q11.7031 68.5938 12.5938 68.5938
L18.5 68.5938
Q19.2969 68.5938 19.5469 68.4375
Q19.7969 68.2969 20 67.5
z
" id="OfficinaSanITC-Book-4d"/>
      <path d="
M15.5938 18.2031
Q15.5938 14.5938 15.6406 12.25
Q15.7031 9.90625 15.7969 9
Q16.4062 5.20312 19.9062 5.20312
Q22 5.20312 24.4062 6.40625
Q25 6.59375 25.2031 6.59375
Q25.5 6.59375 25.9062 5.90625
L27.0938 2.20312
Q27.2969 1.70312 27.2969 1.59375
Q27.2969 1.59375 27.2969 1.40625
Q27.2969 1 26.5 0.59375
Q25.7031 0.203125 24.4531 -0.140625
Q23.2031 -0.5 21.7031 -0.75
Q20.2031 -1 18.7969 -1
Q14.7031 -1 12 0.890625
Q9.29688 2.79688 8.59375 6
Q8.40625 6.79688 8.29688 7.39062
Q8.20312 8 8.14062 9.14062
Q8.09375 10.2969 8.09375 12.4062
Q8.09375 14.5 8.09375 18.2969
L8.09375 69.9062
Q8.09375 70.9062 9.20312 71.0938
L14.2969 72.2969
Q14.4062 72.4062 14.5938 72.4062
Q14.9062 72.4062 15 72.4062
Q15.5938 72.4062 15.5938 71.2969
z
" id="OfficinaSanITC-Book-6c"/>
      <path d="
M19.5 0.09375
Q19.0938 -0.90625 18.5 -0.90625
Q18.4062 -0.90625 17.9062 -0.796875
L12.5 -0.09375
Q11.2969 0.203125 11.2969 0.796875
Q11.2969 1 11.3438 1.09375
Q11.4062 1.20312 11.5938 1.70312
L33.2031 57.2031
L7.40625 57.2031
Q6.5 57.2031 6.25 57.4531
Q6 57.7031 6 58.5938
L6 63
Q6 63.9062 6.25 64.1562
Q6.5 64.4062 7.40625 64.4062
L41.2031 64.4062
Q42.0938 64.4062 42.3438 64.1562
Q42.5938 63.9062 42.5938 63
L42.5938 60.7031
z
" id="OfficinaSanITC-Book-37"/>
      <path d="
M11.7031 48.9062
Q12.2969 49.2031 12.5 49.2031
Q13.2969 49.2031 14.1875 47.3438
Q15.0938 45.5 15.5938 42.5938
Q20.2031 46.2969 23.8438 47.8438
Q27.5 49.4062 31.7031 49.4062
Q35.2031 49.4062 37.8438 48.1562
Q40.5 46.9062 41.9062 44.5938
Q42.4062 43.7031 42.75 42.7969
Q43.0938 41.9062 43.2969 40.7969
Q43.5 39.7031 43.5469 38.1406
Q43.5938 36.5938 43.5938 34.5
L43.5938 1.20312
Q43.5938 0.40625 43.3906 0.203125
Q43.2031 0 42.5 0
L37.2031 0
Q36.5 0 36.2969 0.203125
Q36.0938 0.40625 36.0938 1.20312
L36.0938 34.5938
Q36.0938 39.0938 34.5469 41
Q33 42.9062 29.5 42.9062
Q26 42.9062 23.0469 41.5
Q20.0938 40.0938 16.2969 36.5938
L16.2969 1.20312
Q16.2969 0.40625 16.0938 0.203125
Q15.9062 0 15.2031 0
L9.90625 0
Q9.20312 0 9 0.203125
Q8.79688 0.40625 8.79688 1.20312
L8.79688 35.5
Q8.79688 37.2031 8.6875 38.4531
Q8.59375 39.7031 8.39062 40.75
Q8.20312 41.7969 7.84375 42.8438
Q7.5 43.9062 6.90625 45.0938
Q6.70312 45.5 6.70312 45.7031
Q6.70312 46.0938 7.20312 46.2969
z
" id="OfficinaSanITC-Book-6e"/>
      <path d="
M21 10.0938
Q21.2969 9.09375 21.5 8.4375
Q21.7031 7.79688 21.8906 7.14062
Q22.0938 6.5 22.3438 5.5
Q22.5938 4.5 23 2.90625
Q23.5 5 23.8438 6.59375
Q24.2031 8.20312 24.7031 9.90625
L34.5 48.0938
Q34.9062 48.9062 35.5 48.9062
Q35.5938 48.9062 36 48.7969
L41.2031 46.9062
Q42.0938 46.5938 42.0938 46.0938
Q42.0938 45.9062 42 45.5
L30.5938 6.20312
Q29.7969 3.40625 28.8906 0.546875
Q28 -2.29688 27.0938 -4.89062
Q26.2031 -7.5 25.3906 -9.59375
Q24.5938 -11.7031 24 -13
Q20.0938 -21.2031 11.9062 -21.2031
Q10.0938 -21.2031 7.89062 -20.7031
Q5.70312 -20.2031 3.79688 -19.3906
Q1.90625 -18.5938 0.59375 -17.75
Q-0.703125 -16.9062 -0.703125 -16.0938
Q-0.703125 -15.7031 -0.5 -15.5
L1.5 -11.5
Q1.70312 -11 2.20312 -11
Q2.40625 -11 2.90625 -11.2969
Q5.40625 -13 7.65625 -13.9531
Q9.90625 -14.9062 11.7031 -14.9062
Q16.7031 -14.9062 19.4062 -6.29688
L21.5 0
L17.5 0
Q16.9062 0 16.7031 0.140625
Q16.5 0.296875 16.2969 0.90625
L0.59375 45.2969
Q0.40625 45.7031 0.40625 46
Q0.40625 46.5 1.29688 46.7969
L6.70312 48.7031
L7.5 48.7969
Q7.90625 48.7969 8.20312 47.9062
z
" id="OfficinaSanITC-Book-79"/>
     </defs>
     <g style="fill:#262626;" transform="translate(120.637351563 343.339171875)scale(0.143 -0.143)">
      <use xlink:href="#OfficinaSanITC-Book-4d"/>
      <use x="66.6999969482" xlink:href="#OfficinaSanITC-Book-65"/>
      <use x="112.999984741" xlink:href="#OfficinaSanITC-Book-61"/>
      <use x="159.299972534" xlink:href="#OfficinaSanITC-Book-6e"/>
      <use x="211.199966431" xlink:href="#OfficinaSanITC-Book-20"/>
      <use x="231.799957275" xlink:href="#OfficinaSanITC-Book-41"/>
      <use x="285.499954224" xlink:href="#OfficinaSanITC-Book-6e"/>
      <use x="337.39994812" xlink:href="#OfficinaSanITC-Book-6e"/>
      <use x="389.299942017" xlink:href="#OfficinaSanITC-Book-75"/>
      <use x="439.299926758" xlink:href="#OfficinaSanITC-Book-61"/>
      <use x="485.599914551" xlink:href="#OfficinaSanITC-Book-6c"/>
      <use x="511.499908447" xlink:href="#OfficinaSanITC-Book-20"/>
      <use x="532.099899292" xlink:href="#OfficinaSanITC-Book-49"/>
      <use x="565.399887085" xlink:href="#OfficinaSanITC-Book-6e"/>
      <use x="617.299880981" xlink:href="#OfficinaSanITC-Book-66"/>
      <use x="650.149871826" xlink:href="#OfficinaSanITC-Book-6c"/>
      <use x="676.049865723" xlink:href="#OfficinaSanITC-Book-6f"/>
      <use x="725.674850464" xlink:href="#OfficinaSanITC-Book-77"/>
      <use x="782.774841309" xlink:href="#OfficinaSanITC-Book-2c"/>
      <use x="812.374832153" xlink:href="#OfficinaSanITC-Book-20"/>
      <use x="832.974822998" xlink:href="#OfficinaSanITC-Book-32"/>
      <use x="882.974807739" xlink:href="#OfficinaSanITC-Book-30"/>
      <use x="930.47479248" xlink:href="#OfficinaSanITC-Book-37"/>
      <use x="980.474777222" xlink:href="#OfficinaSanITC-Book-30"/>
      <use x="1030.47476196" xlink:href="#OfficinaSanITC-Book-2d"/>
      <use x="1065.67475891" xlink:href="#OfficinaSanITC-Book-32"/>
      <use x="1113.67474365" xlink:href="#OfficinaSanITC-Book-31"/>
      <use x="1159.92472839" xlink:href="#OfficinaSanITC-Book-30"/>
      <use x="1209.92471313" xlink:href="#OfficinaSanITC-Book-30"/>
      <use x="1259.92469788" xlink:href="#OfficinaSanITC-Book-20"/>
      <use x="1280.52468872" xlink:href="#OfficinaSanITC-Book-28"/>
      <use x="1317.52467346" xlink:href="#OfficinaSanITC-Book-54"/>
      <use x="1354.34967041" xlink:href="#OfficinaSanITC-Book-41"/>
      <use x="1408.04966736" xlink:href="#OfficinaSanITC-Book-46"/>
      <use x="1450.6496582" xlink:href="#OfficinaSanITC-Book-2f"/>
      <use x="1495.0496521" xlink:href="#OfficinaSanITC-Book-79"/>
      <use x="1537.64964294" xlink:href="#OfficinaSanITC-Book-72"/>
      <use x="1570.94963074" xlink:href="#OfficinaSanITC-Book-29"/>
     </g>
    </g>
   </g>
   <g id="matplotlib.axis_2">
    <g id="ytick_1">
     <g id="line2d_25">
      <path clip-path="url(#p30c1912a8d)" d="
M64.6134 308.76
L405.423 308.76" style="fill:none;stroke:#cccccc;stroke-linecap:round;"/>
     </g>
     <g id="line2d_26">
      <g>
       <use style="fill:#262626;stroke:#262626;" x="64.6134375" xlink:href="#m219da94a98" y="308.76"/>
      </g>
     </g>
     <g id="line2d_27">
      <g>
       <use style="fill:#262626;stroke:#262626;" x="405.42328125" xlink:href="#m219da94a98" y="308.76"/>
      </g>
     </g>
     <g id="text_10">
      <!-- 1000 -->
      <g style="fill:#262626;" transform="translate(33.64875 312.088203125)scale(0.13 -0.13)">
       <use xlink:href="#OfficinaSanITC-Book-31"/>
       <use x="46.2499847412" xlink:href="#OfficinaSanITC-Book-30"/>
       <use x="96.2499694824" xlink:href="#OfficinaSanITC-Book-30"/>
       <use x="146.249954224" xlink:href="#OfficinaSanITC-Book-30"/>
      </g>
     </g>
    </g>
    <g id="ytick_2">
     <g id="line2d_28">
      <path clip-path="url(#p30c1912a8d)" d="
M64.6134 260.615
L405.423 260.615" style="fill:none;stroke:#cccccc;stroke-linecap:round;"/>
     </g>
     <g id="line2d_29">
      <g>
       <use style="fill:#262626;stroke:#262626;" x="64.6134375" xlink:href="#m219da94a98" y="260.615"/>
      </g>
     </g>
     <g id="line2d_30">
      <g>
       <use style="fill:#262626;stroke:#262626;" x="405.42328125" xlink:href="#m219da94a98" y="260.615"/>
      </g>
     </g>
     <g id="text_11">
      <!-- 1500 -->
      <g style="fill:#262626;" transform="translate(33.38875 263.943203125)scale(0.13 -0.13)">
       <use xlink:href="#OfficinaSanITC-Book-31"/>
       <use x="48.2499847412" xlink:href="#OfficinaSanITC-Book-35"/>
       <use x="98.2499694824" xlink:href="#OfficinaSanITC-Book-30"/>
       <use x="148.249954224" xlink:href="#OfficinaSanITC-Book-30"/>
      </g>
     </g>
    </g>
    <g id="ytick_3">
     <g id="line2d_31">
      <path clip-path="url(#p30c1912a8d)" d="
M64.6134 212.47
L405.423 212.47" style="fill:none;stroke:#cccccc;stroke-linecap:round;"/>
     </g>
     <g id="line2d_32">
      <g>
       <use style="fill:#262626;stroke:#262626;" x="64.6134375" xlink:href="#m219da94a98" y="212.47"/>
      </g>
     </g>
     <g id="line2d_33">
      <g>
       <use style="fill:#262626;stroke:#262626;" x="405.42328125" xlink:href="#m219da94a98" y="212.47"/>
      </g>
     </g>
     <g id="text_12">
      <!-- 2000 -->
      <g style="fill:#262626;" transform="translate(33.0840625 215.798203125)scale(0.13 -0.13)">
       <use xlink:href="#OfficinaSanITC-Book-32"/>
       <use x="49.9999847412" xlink:href="#OfficinaSanITC-Book-30"/>
       <use x="99.9999694824" xlink:href="#OfficinaSanITC-Book-30"/>
       <use x="149.999954224" xlink:href="#OfficinaSanITC-Book-30"/>
      </g>
     </g>
    </g>
    <g id="ytick_4">
     <g id="line2d_34">
      <path clip-path="url(#p30c1912a8d)" d="
M64.6134 164.325
L405.423 164.325" style="fill:none;stroke:#cccccc;stroke-linecap:round;"/>
     </g>
     <g id="line2d_35">
      <g>
       <use style="fill:#262626;stroke:#262626;" x="64.6134375" xlink:href="#m219da94a98" y="164.325"/>
      </g>
     </g>
     <g id="line2d_36">
      <g>
       <use style="fill:#262626;stroke:#262626;" x="405.42328125" xlink:href="#m219da94a98" y="164.325"/>
      </g>
     </g>
     <g id="text_13">
      <!-- 2500 -->
      <g style="fill:#262626;" transform="translate(33.0840625 167.653203125)scale(0.13 -0.13)">
       <use xlink:href="#OfficinaSanITC-Book-32"/>
       <use x="49.9999847412" xlink:href="#OfficinaSanITC-Book-35"/>
       <use x="99.9999694824" xlink:href="#OfficinaSanITC-Book-30"/>
       <use x="149.999954224" xlink:href="#OfficinaSanITC-Book-30"/>
      </g>
     </g>
    </g>
    <g id="ytick_5">
     <g id="line2d_37">
      <path clip-path="url(#p30c1912a8d)" d="
M64.6134 116.18
L405.423 116.18" style="fill:none;stroke:#cccccc;stroke-linecap:round;"/>
     </g>
     <g id="line2d_38">
      <g>
       <use style="fill:#262626;stroke:#262626;" x="64.6134375" xlink:href="#m219da94a98" y="116.18"/>
      </g>
     </g>
     <g id="line2d_39">
      <g>
       <use style="fill:#262626;stroke:#262626;" x="405.42328125" xlink:href="#m219da94a98" y="116.18"/>
      </g>
     </g>
     <g id="text_14">
      <!-- 3000 -->
      <g style="fill:#262626;" transform="translate(32.90125 119.508203125)scale(0.13 -0.13)">
       <use xlink:href="#OfficinaSanITC-Book-33"/>
       <use x="49.9999847412" xlink:href="#OfficinaSanITC-Book-30"/>
       <use x="99.9999694824" xlink:href="#OfficinaSanITC-Book-30"/>
       <use x="149.999954224" xlink:href="#OfficinaSanITC-Book-30"/>
      </g>
     </g>
    </g>
    <g id="ytick_6">
     <g id="line2d_40">
      <path clip-path="url(#p30c1912a8d)" d="
M64.6134 68.035
L405.423 68.035" style="fill:none;stroke:#cccccc;stroke-linecap:round;"/>
     </g>
     <g id="line2d_41">
      <g>
       <use style="fill:#262626;stroke:#262626;" x="64.6134375" xlink:href="#m219da94a98" y="68.035"/>
      </g>
     </g>
     <g id="line2d_42">
      <g>
       <use style="fill:#262626;stroke:#262626;" x="405.42328125" xlink:href="#m219da94a98" y="68.035"/>
      </g>
     </g>
     <g id="text_15">
      <!-- 3500 -->
      <g style="fill:#262626;" transform="translate(32.90125 71.363203125)scale(0.13 -0.13)">
       <use xlink:href="#OfficinaSanITC-Book-33"/>
       <use x="49.9999847412" xlink:href="#OfficinaSanITC-Book-35"/>
       <use x="99.9999694824" xlink:href="#OfficinaSanITC-Book-30"/>
       <use x="149.999954224" xlink:href="#OfficinaSanITC-Book-30"/>
      </g>
     </g>
    </g>
    <g id="ytick_7">
     <g id="line2d_43">
      <path clip-path="url(#p30c1912a8d)" d="
M64.6134 19.89
L405.423 19.89" style="fill:none;stroke:#cccccc;stroke-linecap:round;"/>
     </g>
     <g id="line2d_44">
      <g>
       <use style="fill:#262626;stroke:#262626;" x="64.6134375" xlink:href="#m219da94a98" y="19.89"/>
      </g>
     </g>
     <g id="line2d_45">
      <g>
       <use style="fill:#262626;stroke:#262626;" x="405.42328125" xlink:href="#m219da94a98" y="19.89"/>
      </g>
     </g>
     <g id="text_16">
      <!-- 4000 -->
      <g style="fill:#262626;" transform="translate(32.5884375 23.218203125)scale(0.13 -0.13)">
       <use xlink:href="#OfficinaSanITC-Book-34"/>
       <use x="49.9999847412" xlink:href="#OfficinaSanITC-Book-30"/>
       <use x="99.9999694824" xlink:href="#OfficinaSanITC-Book-30"/>
       <use x="149.999954224" xlink:href="#OfficinaSanITC-Book-30"/>
      </g>
     </g>
    </g>
    <g id="text_17">
     <!-- Max 7-day flow, 2000-2100 (TAF/7-day) -->
     <defs>
      <path d="
M34 39.5
Q30.7969 41.2969 28.5938 42
Q26.4062 42.7031 23.7969 42.7031
Q18.0938 42.7031 15.6406 38.5469
Q13.2031 34.4062 13.2031 24.9062
Q13.2031 14.5 15.3438 9.95312
Q17.5 5.40625 22.5 5.40625
Q25.4062 5.40625 28.0469 6.75
Q30.7031 8.09375 34 11.2031
z

M39.7969 -0.703125
Q39.5 -1 39 -1
Q38.2969 -1 37.2969 0.796875
Q36.2969 2.59375 35.7031 5
Q33.2969 3.20312 31.2969 1.95312
Q29.2969 0.703125 27.5938 -0.046875
Q25.9062 -0.796875 24.25 -1.09375
Q22.5938 -1.40625 20.7969 -1.40625
Q13.4062 -1.40625 9.25 5.4375
Q5.09375 12.2969 5.09375 24.5
Q5.09375 36.0938 9.84375 42.75
Q14.5938 49.4062 23 49.4062
Q25.7969 49.4062 28.2969 48.6562
Q30.7969 47.9062 34 46.2031
L34 69.7969
Q34 70.7969 35 71.0938
L40.2031 72.2969
Q40.4062 72.4062 40.7969 72.4062
Q41.5 72.4062 41.5 71.2969
L41.5 15.7969
Q41.5 13.5 41.5938 11.7969
Q41.7031 10.0938 42 8.75
Q42.2969 7.40625 42.75 6.29688
Q43.2031 5.20312 44 4
Q44.5938 3 44.6875 2.79688
Q44.7969 2.59375 44.7969 2.40625
Q44.7969 2 44.2969 1.79688
z
" id="OfficinaSanITC-Book-64"/>
      <path d="
M3.79688 45.5
Q3.5 45.7969 3.5 46.2031
Q3.5 46.7969 4.29688 47.0938
L9.5 49
Q9.59375 49.0938 10.0938 49.0938
Q10.5 49.0938 11 48.5
L19.7031 35
Q20.2969 34 20.75 33.3438
Q21.2031 32.7031 21.5 32.2031
Q21.7031 31.9062 21.8438 31.6562
Q22 31.4062 22.5938 30.4062
Q23.2031 31.2969 23.5 31.8438
Q23.7969 32.4062 24.0938 32.8438
Q24.4062 33.2969 24.75 33.7969
Q25.0938 34.2969 25.5938 35.0938
L34.7031 48.4062
Q35.0938 49 35.7031 49
Q35.9062 49 36.2969 48.7969
L41.2031 46.7969
Q42 46.5 42 46.0938
Q42 45.5938 41.5938 45.2031
L26.7969 25.4062
L42.5 2.5
Q42.7969 2.09375 42.8438 2
Q42.9062 1.90625 42.9062 1.70312
Q42.9062 1.29688 42 1
L36.7031 -1
Q36.2031 -1.20312 36 -1.20312
Q35.7031 -1.20312 35.2031 -0.5
L25 15.0938
Q24.7969 15.4062 24.5469 15.75
Q24.2969 16.0938 24.0938 16.5
L23.0938 18.0938
L22.5 19.0938
Q22.0938 18.4062 21.8906 18
Q21.7031 17.5938 21.4531 17.25
Q21.2031 16.9062 20.8906 16.4531
Q20.5938 16 20.0938 15.2969
L9.09375 -0.5
Q8.79688 -1.09375 8.29688 -1.09375
L7.59375 -1
L2.40625 1.20312
Q1.59375 1.5 1.59375 2
Q1.59375 2.29688 2 2.70312
L18.4062 24.5
z
" id="OfficinaSanITC-Book-78"/>
     </defs>
     <g style="fill:#262626;" transform="translate(24.2994375 275.482921875)rotate(-90.0)scale(0.143 -0.143)">
      <use xlink:href="#OfficinaSanITC-Book-4d"/>
      <use x="66.6999969482" xlink:href="#OfficinaSanITC-Book-61"/>
      <use x="112.999984741" xlink:href="#OfficinaSanITC-Book-78"/>
      <use x="157.499969482" xlink:href="#OfficinaSanITC-Book-20"/>
      <use x="178.099960327" xlink:href="#OfficinaSanITC-Book-37"/>
      <use x="228.099945068" xlink:href="#OfficinaSanITC-Book-2d"/>
      <use x="263.299942017" xlink:href="#OfficinaSanITC-Book-64"/>
      <use x="313.299926758" xlink:href="#OfficinaSanITC-Book-61"/>
      <use x="358.974914551" xlink:href="#OfficinaSanITC-Book-79"/>
      <use x="401.574905396" xlink:href="#OfficinaSanITC-Book-20"/>
      <use x="422.17489624" xlink:href="#OfficinaSanITC-Book-66"/>
      <use x="455.024887085" xlink:href="#OfficinaSanITC-Book-6c"/>
      <use x="480.924880981" xlink:href="#OfficinaSanITC-Book-6f"/>
      <use x="530.549865723" xlink:href="#OfficinaSanITC-Book-77"/>
      <use x="587.649856567" xlink:href="#OfficinaSanITC-Book-2c"/>
      <use x="617.249847412" xlink:href="#OfficinaSanITC-Book-20"/>
      <use x="637.849838257" xlink:href="#OfficinaSanITC-Book-32"/>
      <use x="687.849822998" xlink:href="#OfficinaSanITC-Book-30"/>
      <use x="737.849807739" xlink:href="#OfficinaSanITC-Book-30"/>
      <use x="787.84979248" xlink:href="#OfficinaSanITC-Book-30"/>
      <use x="837.849777222" xlink:href="#OfficinaSanITC-Book-2d"/>
      <use x="873.04977417" xlink:href="#OfficinaSanITC-Book-32"/>
      <use x="921.049758911" xlink:href="#OfficinaSanITC-Book-31"/>
      <use x="967.299743652" xlink:href="#OfficinaSanITC-Book-30"/>
      <use x="1017.29972839" xlink:href="#OfficinaSanITC-Book-30"/>
      <use x="1067.29971313" xlink:href="#OfficinaSanITC-Book-20"/>
      <use x="1087.89970398" xlink:href="#OfficinaSanITC-Book-28"/>
      <use x="1124.89968872" xlink:href="#OfficinaSanITC-Book-54"/>
      <use x="1161.72468567" xlink:href="#OfficinaSanITC-Book-41"/>
      <use x="1215.42468262" xlink:href="#OfficinaSanITC-Book-46"/>
      <use x="1258.02467346" xlink:href="#OfficinaSanITC-Book-2f"/>
      <use x="1302.42466736" xlink:href="#OfficinaSanITC-Book-37"/>
      <use x="1352.4246521" xlink:href="#OfficinaSanITC-Book-2d"/>
      <use x="1387.62464905" xlink:href="#OfficinaSanITC-Book-64"/>
      <use x="1437.62463379" xlink:href="#OfficinaSanITC-Book-61"/>
      <use x="1483.29962158" xlink:href="#OfficinaSanITC-Book-79"/>
      <use x="1525.89961243" xlink:href="#OfficinaSanITC-Book-29"/>
     </g>
    </g>
   </g>
   <g id="PathCollection_1">
    <defs>
     <path d="
M0 3.87298
C1.02713 3.87298 2.01232 3.4649 2.73861 2.73861
C3.4649 2.01232 3.87298 1.02713 3.87298 0
C3.87298 -1.02713 3.4649 -2.01232 2.73861 -2.73861
C2.01232 -3.4649 1.02713 -3.87298 0 -3.87298
C-1.02713 -3.87298 -2.01232 -3.4649 -2.73861 -2.73861
C-3.4649 -2.01232 -3.87298 -1.02713 -3.87298 0
C-3.87298 1.02713 -3.4649 2.01232 -2.73861 2.73861
C-2.01232 3.4649 -1.02713 3.87298 0 3.87298
z
" id="me8ff39e17f" style="stroke:#ffd025;stroke-opacity:0.5;stroke-width:0.3;"/>
    </defs>
    <g clip-path="url(#p30c1912a8d)">
     <use style="fill:#ffd025;fill-opacity:0.5;stroke:#ffd025;stroke-opacity:0.5;stroke-width:0.3;" x="214.05185924" xlink:href="#me8ff39e17f" y="281.33719327"/>
     <use style="fill:#ffd025;fill-opacity:0.5;stroke:#ffd025;stroke-opacity:0.5;stroke-width:0.3;" x="199.344396149" xlink:href="#me8ff39e17f" y="215.722044983"/>
     <use style="fill:#ffd025;fill-opacity:0.5;stroke:#ffd025;stroke-opacity:0.5;stroke-width:0.3;" x="168.426873283" xlink:href="#me8ff39e17f" y="267.209124055"/>
     <use style="fill:#ffd025;fill-opacity:0.5;stroke:#ffd025;stroke-opacity:0.5;stroke-width:0.3;" x="281.891392875" xlink:href="#me8ff39e17f" y="180.212143085"/>
     <use style="fill:#ffd025;fill-opacity:0.5;stroke:#ffd025;stroke-opacity:0.5;stroke-width:0.3;" x="230.622785715" xlink:href="#me8ff39e17f" y="227.434652974"/>
     <use style="fill:#ffd025;fill-opacity:0.5;stroke:#ffd025;stroke-opacity:0.5;stroke-width:0.3;" x="267.097483288" xlink:href="#me8ff39e17f" y="174.20554743"/>
     <use style="fill:#ffd025;fill-opacity:0.5;stroke:#ffd025;stroke-opacity:0.5;stroke-width:0.3;" x="194.395177182" xlink:href="#me8ff39e17f" y="198.522790148"/>
     <use style="fill:#ffd025;fill-opacity:0.5;stroke:#ffd025;stroke-opacity:0.5;stroke-width:0.3;" x="173.644656585" xlink:href="#me8ff39e17f" y="228.485964063"/>
     <use style="fill:#ffd025;fill-opacity:0.5;stroke:#ffd025;stroke-opacity:0.5;stroke-width:0.3;" x="310.432181133" xlink:href="#me8ff39e17f" y="184.910788859"/>
     <use style="fill:#ffd025;fill-opacity:0.5;stroke:#ffd025;stroke-opacity:0.5;stroke-width:0.3;" x="181.234126715" xlink:href="#me8ff39e17f" y="236.005367608"/>
     <use style="fill:#ffd025;fill-opacity:0.5;stroke:#ffd025;stroke-opacity:0.5;stroke-width:0.3;" x="219.276381494" xlink:href="#me8ff39e17f" y="255.268403304"/>
     <use style="fill:#ffd025;fill-opacity:0.5;stroke:#ffd025;stroke-opacity:0.5;stroke-width:0.3;" x="262.342930643" xlink:href="#me8ff39e17f" y="170.348742365"/>
     <use style="fill:#ffd025;fill-opacity:0.5;stroke:#ffd025;stroke-opacity:0.5;stroke-width:0.3;" x="217.277654924" xlink:href="#me8ff39e17f" y="252.856068559"/>
     <use style="fill:#ffd025;fill-opacity:0.5;stroke:#ffd025;stroke-opacity:0.5;stroke-width:0.3;" x="193.920912604" xlink:href="#me8ff39e17f" y="190.99141163"/>
     <use style="fill:#ffd025;fill-opacity:0.5;stroke:#ffd025;stroke-opacity:0.5;stroke-width:0.3;" x="191.998966266" xlink:href="#me8ff39e17f" y="222.589240231"/>
     <use style="fill:#ffd025;fill-opacity:0.5;stroke:#ffd025;stroke-opacity:0.5;stroke-width:0.3;" x="292.680957158" xlink:href="#me8ff39e17f" y="222.522350354"/>
     <use style="fill:#ffd025;fill-opacity:0.5;stroke:#ffd025;stroke-opacity:0.5;stroke-width:0.3;" x="233.119921664" xlink:href="#me8ff39e17f" y="257.354514532"/>
     <use style="fill:#ffd025;fill-opacity:0.5;stroke:#ffd025;stroke-opacity:0.5;stroke-width:0.3;" x="252.427156338" xlink:href="#me8ff39e17f" y="254.676631385"/>
     <use style="fill:#ffd025;fill-opacity:0.5;stroke:#ffd025;stroke-opacity:0.5;stroke-width:0.3;" x="202.272464315" xlink:href="#me8ff39e17f" y="156.17015289"/>
     <use style="fill:#ffd025;fill-opacity:0.5;stroke:#ffd025;stroke-opacity:0.5;stroke-width:0.3;" x="209.23698919" xlink:href="#me8ff39e17f" y="176.604119548"/>
     <use style="fill:#ffd025;fill-opacity:0.5;stroke:#ffd025;stroke-opacity:0.5;stroke-width:0.3;" x="191.229991924" xlink:href="#me8ff39e17f" y="221.743289451"/>
     <use style="fill:#ffd025;fill-opacity:0.5;stroke:#ffd025;stroke-opacity:0.5;stroke-width:0.3;" x="235.621392166" xlink:href="#me8ff39e17f" y="234.682409856"/>
     <use style="fill:#ffd025;fill-opacity:0.5;stroke:#ffd025;stroke-opacity:0.5;stroke-width:0.3;" x="250.345106611" xlink:href="#me8ff39e17f" y="189.109109884"/>
     <use style="fill:#ffd025;fill-opacity:0.5;stroke:#ffd025;stroke-opacity:0.5;stroke-width:0.3;" x="250.059176256" xlink:href="#me8ff39e17f" y="212.289910331"/>
     <use style="fill:#ffd025;fill-opacity:0.5;stroke:#ffd025;stroke-opacity:0.5;stroke-width:0.3;" x="165.682157959" xlink:href="#me8ff39e17f" y="235.533616638"/>
     <use style="fill:#ffd025;fill-opacity:0.5;stroke:#ffd025;stroke-opacity:0.5;stroke-width:0.3;" x="140.775408908" xlink:href="#me8ff39e17f" y="289.771383644"/>
     <use style="fill:#ffd025;fill-opacity:0.5;stroke:#ffd025;stroke-opacity:0.5;stroke-width:0.3;" x="124.796705463" xlink:href="#me8ff39e17f" y="255.51309386"/>
     <use style="fill:#ffd025;fill-opacity:0.5;stroke:#ffd025;stroke-opacity:0.5;stroke-width:0.3;" x="231.660341576" xlink:href="#me8ff39e17f" y="204.194615555"/>
     <use style="fill:#ffd025;fill-opacity:0.5;stroke:#ffd025;stroke-opacity:0.5;stroke-width:0.3;" x="248.328155276" xlink:href="#me8ff39e17f" y="222.737418604"/>
     <use style="fill:#ffd025;fill-opacity:0.5;stroke:#ffd025;stroke-opacity:0.5;stroke-width:0.3;" x="234.862105841" xlink:href="#me8ff39e17f" y="245.100135394"/>
     <use style="fill:#ffd025;fill-opacity:0.5;stroke:#ffd025;stroke-opacity:0.5;stroke-width:0.3;" x="219.240853433" xlink:href="#me8ff39e17f" y="141.048050017"/>
    </g>
   </g>
   <g id="PathCollection_2">
    <defs>
     <path d="
M0 3.87298
C1.02713 3.87298 2.01232 3.4649 2.73861 2.73861
C3.4649 2.01232 3.87298 1.02713 3.87298 0
C3.87298 -1.02713 3.4649 -2.01232 2.73861 -2.73861
C2.01232 -3.4649 1.02713 -3.87298 0 -3.87298
C-1.02713 -3.87298 -2.01232 -3.4649 -2.73861 -2.73861
C-3.4649 -2.01232 -3.87298 -1.02713 -3.87298 0
C-3.87298 1.02713 -3.4649 2.01232 -2.73861 2.73861
C-2.01232 3.4649 -1.02713 3.87298 0 3.87298
z
" id="mf3e521a2fb" style="stroke:#e87f19;stroke-opacity:0.5;stroke-width:0.3;"/>
    </defs>
    <g clip-path="url(#p30c1912a8d)">
     <use style="fill:#e87f19;fill-opacity:0.5;stroke:#e87f19;stroke-opacity:0.5;stroke-width:0.3;" x="201.162924405" xlink:href="#mf3e521a2fb" y="248.060620299"/>
     <use style="fill:#e87f19;fill-opacity:0.5;stroke:#e87f19;stroke-opacity:0.5;stroke-width:0.3;" x="305.017036524" xlink:href="#mf3e521a2fb" y="205.547680723"/>
     <use style="fill:#e87f19;fill-opacity:0.5;stroke:#e87f19;stroke-opacity:0.5;stroke-width:0.3;" x="233.083607517" xlink:href="#mf3e521a2fb" y="209.8737138"/>
     <use style="fill:#e87f19;fill-opacity:0.5;stroke:#e87f19;stroke-opacity:0.5;stroke-width:0.3;" x="206.314876669" xlink:href="#mf3e521a2fb" y="230.543281876"/>
     <use style="fill:#e87f19;fill-opacity:0.5;stroke:#e87f19;stroke-opacity:0.5;stroke-width:0.3;" x="259.716779576" xlink:href="#mf3e521a2fb" y="242.82034089"/>
     <use style="fill:#e87f19;fill-opacity:0.5;stroke:#e87f19;stroke-opacity:0.5;stroke-width:0.3;" x="184.375239531" xlink:href="#mf3e521a2fb" y="249.01749525"/>
     <use style="fill:#e87f19;fill-opacity:0.5;stroke:#e87f19;stroke-opacity:0.5;stroke-width:0.3;" x="230.250828925" xlink:href="#mf3e521a2fb" y="192.642090247"/>
     <use style="fill:#e87f19;fill-opacity:0.5;stroke:#e87f19;stroke-opacity:0.5;stroke-width:0.3;" x="204.336700298" xlink:href="#mf3e521a2fb" y="234.800444525"/>
     <use style="fill:#e87f19;fill-opacity:0.5;stroke:#e87f19;stroke-opacity:0.5;stroke-width:0.3;" x="216.865907931" xlink:href="#mf3e521a2fb" y="251.324329896"/>
     <use style="fill:#e87f19;fill-opacity:0.5;stroke:#e87f19;stroke-opacity:0.5;stroke-width:0.3;" x="225.019824585" xlink:href="#mf3e521a2fb" y="250.62158797"/>
     <use style="fill:#e87f19;fill-opacity:0.5;stroke:#e87f19;stroke-opacity:0.5;stroke-width:0.3;" x="234.587295871" xlink:href="#mf3e521a2fb" y="250.819194148"/>
     <use style="fill:#e87f19;fill-opacity:0.5;stroke:#e87f19;stroke-opacity:0.5;stroke-width:0.3;" x="234.14596489" xlink:href="#mf3e521a2fb" y="205.610072823"/>
     <use style="fill:#e87f19;fill-opacity:0.5;stroke:#e87f19;stroke-opacity:0.5;stroke-width:0.3;" x="145.114800188" xlink:href="#mf3e521a2fb" y="234.509582517"/>
     <use style="fill:#e87f19;fill-opacity:0.5;stroke:#e87f19;stroke-opacity:0.5;stroke-width:0.3;" x="136.130013851" xlink:href="#mf3e521a2fb" y="228.834888464"/>
     <use style="fill:#e87f19;fill-opacity:0.5;stroke:#e87f19;stroke-opacity:0.5;stroke-width:0.3;" x="115.467572762" xlink:href="#mf3e521a2fb" y="210.387638835"/>
     <use style="fill:#e87f19;fill-opacity:0.5;stroke:#e87f19;stroke-opacity:0.5;stroke-width:0.3;" x="235.609026844" xlink:href="#mf3e521a2fb" y="243.351584756"/>
    </g>
   </g>
   <g id="PathCollection_3">
    <defs>
     <path d="
M0 3.87298
C1.02713 3.87298 2.01232 3.4649 2.73861 2.73861
C3.4649 2.01232 3.87298 1.02713 3.87298 0
C3.87298 -1.02713 3.4649 -2.01232 2.73861 -2.73861
C2.01232 -3.4649 1.02713 -3.87298 0 -3.87298
C-1.02713 -3.87298 -2.01232 -3.4649 -2.73861 -2.73861
C-3.4649 -2.01232 -3.87298 -1.02713 -3.87298 0
C-3.87298 1.02713 -3.4649 2.01232 -2.73861 2.73861
C-2.01232 3.4649 -1.02713 3.87298 0 3.87298
z
" id="macd1c4640d" style="stroke:#ff4932;stroke-opacity:0.5;stroke-width:0.3;"/>
    </defs>
    <g clip-path="url(#p30c1912a8d)">
     <use style="fill:#ff4932;fill-opacity:0.5;stroke:#ff4932;stroke-opacity:0.5;stroke-width:0.3;" x="153.431568803" xlink:href="#macd1c4640d" y="268.290391678"/>
     <use style="fill:#ff4932;fill-opacity:0.5;stroke:#ff4932;stroke-opacity:0.5;stroke-width:0.3;" x="232.889221351" xlink:href="#macd1c4640d" y="221.207872488"/>
     <use style="fill:#ff4932;fill-opacity:0.5;stroke:#ff4932;stroke-opacity:0.5;stroke-width:0.3;" x="173.168475859" xlink:href="#macd1c4640d" y="163.999704456"/>
     <use style="fill:#ff4932;fill-opacity:0.5;stroke:#ff4932;stroke-opacity:0.5;stroke-width:0.3;" x="363.119347943" xlink:href="#macd1c4640d" y="72.7993699162"/>
     <use style="fill:#ff4932;fill-opacity:0.5;stroke:#ff4932;stroke-opacity:0.5;stroke-width:0.3;" x="232.564258918" xlink:href="#macd1c4640d" y="147.61307674"/>
     <use style="fill:#ff4932;fill-opacity:0.5;stroke:#ff4932;stroke-opacity:0.5;stroke-width:0.3;" x="321.333485796" xlink:href="#macd1c4640d" y="205.851321767"/>
     <use style="fill:#ff4932;fill-opacity:0.5;stroke:#ff4932;stroke-opacity:0.5;stroke-width:0.3;" x="237.449855816" xlink:href="#macd1c4640d" y="135.075734874"/>
     <use style="fill:#ff4932;fill-opacity:0.5;stroke:#ff4932;stroke-opacity:0.5;stroke-width:0.3;" x="166.200813392" xlink:href="#macd1c4640d" y="245.699162963"/>
     <use style="fill:#ff4932;fill-opacity:0.5;stroke:#ff4932;stroke-opacity:0.5;stroke-width:0.3;" x="324.419961811" xlink:href="#macd1c4640d" y="82.6791345247"/>
     <use style="fill:#ff4932;fill-opacity:0.5;stroke:#ff4932;stroke-opacity:0.5;stroke-width:0.3;" x="225.817941597" xlink:href="#macd1c4640d" y="224.774816323"/>
     <use style="fill:#ff4932;fill-opacity:0.5;stroke:#ff4932;stroke-opacity:0.5;stroke-width:0.3;" x="248.623980849" xlink:href="#macd1c4640d" y="217.015617256"/>
     <use style="fill:#ff4932;fill-opacity:0.5;stroke:#ff4932;stroke-opacity:0.5;stroke-width:0.3;" x="232.162896733" xlink:href="#macd1c4640d" y="223.107189393"/>
     <use style="fill:#ff4932;fill-opacity:0.5;stroke:#ff4932;stroke-opacity:0.5;stroke-width:0.3;" x="191.20252021" xlink:href="#macd1c4640d" y="254.002367743"/>
     <use style="fill:#ff4932;fill-opacity:0.5;stroke:#ff4932;stroke-opacity:0.5;stroke-width:0.3;" x="199.419160358" xlink:href="#macd1c4640d" y="139.929440335"/>
     <use style="fill:#ff4932;fill-opacity:0.5;stroke:#ff4932;stroke-opacity:0.5;stroke-width:0.3;" x="169.740729043" xlink:href="#macd1c4640d" y="138.293188983"/>
     <use style="fill:#ff4932;fill-opacity:0.5;stroke:#ff4932;stroke-opacity:0.5;stroke-width:0.3;" x="222.434523756" xlink:href="#macd1c4640d" y="250.195359092"/>
     <use style="fill:#ff4932;fill-opacity:0.5;stroke:#ff4932;stroke-opacity:0.5;stroke-width:0.3;" x="226.928413508" xlink:href="#macd1c4640d" y="181.539527949"/>
     <use style="fill:#ff4932;fill-opacity:0.5;stroke:#ff4932;stroke-opacity:0.5;stroke-width:0.3;" x="212.868160332" xlink:href="#macd1c4640d" y="216.575644851"/>
     <use style="fill:#ff4932;fill-opacity:0.5;stroke:#ff4932;stroke-opacity:0.5;stroke-width:0.3;" x="224.593809582" xlink:href="#macd1c4640d" y="162.285252892"/>
     <use style="fill:#ff4932;fill-opacity:0.5;stroke:#ff4932;stroke-opacity:0.5;stroke-width:0.3;" x="306.445384613" xlink:href="#macd1c4640d" y="127.835002547"/>
     <use style="fill:#ff4932;fill-opacity:0.5;stroke:#ff4932;stroke-opacity:0.5;stroke-width:0.3;" x="248.406138625" xlink:href="#macd1c4640d" y="184.997474687"/>
     <use style="fill:#ff4932;fill-opacity:0.5;stroke:#ff4932;stroke-opacity:0.5;stroke-width:0.3;" x="241.187723978" xlink:href="#macd1c4640d" y="237.623656498"/>
     <use style="fill:#ff4932;fill-opacity:0.5;stroke:#ff4932;stroke-opacity:0.5;stroke-width:0.3;" x="195.318067832" xlink:href="#macd1c4640d" y="245.68055878"/>
     <use style="fill:#ff4932;fill-opacity:0.5;stroke:#ff4932;stroke-opacity:0.5;stroke-width:0.3;" x="106.418640349" xlink:href="#macd1c4640d" y="184.881542801"/>
     <use style="fill:#ff4932;fill-opacity:0.5;stroke:#ff4932;stroke-opacity:0.5;stroke-width:0.3;" x="95.0311756105" xlink:href="#macd1c4640d" y="280.018311211"/>
     <use style="fill:#ff4932;fill-opacity:0.5;stroke:#ff4932;stroke-opacity:0.5;stroke-width:0.3;" x="208.614039744" xlink:href="#macd1c4640d" y="189.713928223"/>
     <use style="fill:#ff4932;fill-opacity:0.5;stroke:#ff4932;stroke-opacity:0.5;stroke-width:0.3;" x="211.394275233" xlink:href="#macd1c4640d" y="211.189696655"/>
     <use style="fill:#ff4932;fill-opacity:0.5;stroke:#ff4932;stroke-opacity:0.5;stroke-width:0.3;" x="273.030992496" xlink:href="#macd1c4640d" y="234.402367342"/>
     <use style="fill:#ff4932;fill-opacity:0.5;stroke:#ff4932;stroke-opacity:0.5;stroke-width:0.3;" x="194.122922143" xlink:href="#macd1c4640d" y="229.350582052"/>
    </g>
   </g>
   <g id="PathCollection_4">
    <defs>
     <path d="
M0 4.1833
C1.10942 4.1833 2.17356 3.74252 2.95804 2.95804
C3.74252 2.17356 4.1833 1.10942 4.1833 0
C4.1833 -1.10942 3.74252 -2.17356 2.95804 -2.95804
C2.17356 -3.74252 1.10942 -4.1833 0 -4.1833
C-1.10942 -4.1833 -2.17356 -3.74252 -2.95804 -2.95804
C-3.74252 -2.17356 -4.1833 -1.10942 -4.1833 0
C-4.1833 1.10942 -3.74252 2.17356 -2.95804 2.95804
C-2.17356 3.74252 -1.10942 4.1833 0 4.1833
z
" id="m85e07e2003" style="stroke:#000000;stroke-width:0.3;"/>
    </defs>
    <g clip-path="url(#p30c1912a8d)">
     <use style="stroke:#000000;stroke-width:0.3;" x="206.4729021" xlink:href="#m85e07e2003" y="289.206063614"/>
    </g>
   </g>
   <g id="PathCollection_5">
    <defs>
     <path d="
M-2.23607 2.23607
L2.23607 -2.23607
M-2.23607 -2.23607
L2.23607 2.23607" id="m484eab6cf3" style="stroke:#000000;stroke-width:1.5;"/>
    </defs>
    <g clip-path="url(#p30c1912a8d)">
     <use style="stroke:#000000;stroke-width:1.5;" x="173.168475859" xlink:href="#m484eab6cf3" y="163.999704456"/>
    </g>
   </g>
   <g id="PathCollection_6">
    <g clip-path="url(#p30c1912a8d)">
     <use style="stroke:#000000;stroke-width:1.5;" x="281.891392875" xlink:href="#m484eab6cf3" y="180.212143085"/>
    </g>
   </g>
   <g id="PathCollection_7">
    <g clip-path="url(#p30c1912a8d)">
     <use style="stroke:#000000;stroke-width:1.5;" x="363.119347943" xlink:href="#m484eab6cf3" y="72.7993699162"/>
    </g>
   </g>
   <g id="PathCollection_8">
    <g clip-path="url(#p30c1912a8d)">
     <use style="stroke:#000000;stroke-width:1.5;" x="305.017036524" xlink:href="#m484eab6cf3" y="205.547680723"/>
    </g>
   </g>
   <g id="PathCollection_9">
    <g clip-path="url(#p30c1912a8d)">
     <use style="stroke:#000000;stroke-width:1.5;" x="232.564258918" xlink:href="#m484eab6cf3" y="147.61307674"/>
    </g>
   </g>
   <g id="PathCollection_10">
    <g clip-path="url(#p30c1912a8d)">
     <use style="stroke:#000000;stroke-width:1.5;" x="267.097483288" xlink:href="#m484eab6cf3" y="174.20554743"/>
    </g>
   </g>
   <g id="PathCollection_11">
    <g clip-path="url(#p30c1912a8d)">
     <use style="stroke:#000000;stroke-width:1.5;" x="321.333485796" xlink:href="#m484eab6cf3" y="205.851321767"/>
    </g>
   </g>
   <g id="PathCollection_12">
    <g clip-path="url(#p30c1912a8d)">
     <use style="stroke:#000000;stroke-width:1.5;" x="194.395177182" xlink:href="#m484eab6cf3" y="198.522790148"/>
    </g>
   </g>
   <g id="PathCollection_13">
    <g clip-path="url(#p30c1912a8d)">
     <use style="stroke:#000000;stroke-width:1.5;" x="310.432181133" xlink:href="#m484eab6cf3" y="184.910788859"/>
    </g>
   </g>
   <g id="PathCollection_14">
    <g clip-path="url(#p30c1912a8d)">
     <use style="stroke:#000000;stroke-width:1.5;" x="324.419961811" xlink:href="#m484eab6cf3" y="82.6791345247"/>
    </g>
   </g>
   <g id="PathCollection_15">
    <g clip-path="url(#p30c1912a8d)">
     <use style="stroke:#000000;stroke-width:1.5;" x="248.623980849" xlink:href="#m484eab6cf3" y="217.015617256"/>
    </g>
   </g>
   <g id="PathCollection_16">
    <g clip-path="url(#p30c1912a8d)">
     <use style="stroke:#000000;stroke-width:1.5;" x="262.342930643" xlink:href="#m484eab6cf3" y="170.348742365"/>
    </g>
   </g>
   <g id="PathCollection_17">
    <g clip-path="url(#p30c1912a8d)">
     <use style="stroke:#000000;stroke-width:1.5;" x="230.250828925" xlink:href="#m484eab6cf3" y="192.642090247"/>
    </g>
   </g>
   <g id="PathCollection_18">
    <g clip-path="url(#p30c1912a8d)">
     <use style="stroke:#000000;stroke-width:1.5;" x="199.419160358" xlink:href="#m484eab6cf3" y="139.929440335"/>
    </g>
   </g>
   <g id="PathCollection_19">
    <g clip-path="url(#p30c1912a8d)">
     <use style="stroke:#000000;stroke-width:1.5;" x="169.740729043" xlink:href="#m484eab6cf3" y="138.293188983"/>
    </g>
   </g>
   <g id="PathCollection_20">
    <g clip-path="url(#p30c1912a8d)">
     <use style="stroke:#000000;stroke-width:1.5;" x="202.272464315" xlink:href="#m484eab6cf3" y="156.17015289"/>
    </g>
   </g>
   <g id="PathCollection_21">
    <g clip-path="url(#p30c1912a8d)">
     <use style="stroke:#000000;stroke-width:1.5;" x="226.928413508" xlink:href="#m484eab6cf3" y="181.539527949"/>
    </g>
   </g>
   <g id="PathCollection_22">
    <g clip-path="url(#p30c1912a8d)">
     <use style="stroke:#000000;stroke-width:1.5;" x="209.23698919" xlink:href="#m484eab6cf3" y="176.604119548"/>
    </g>
   </g>
   <g id="PathCollection_23">
    <g clip-path="url(#p30c1912a8d)">
     <use style="stroke:#000000;stroke-width:1.5;" x="224.593809582" xlink:href="#m484eab6cf3" y="162.285252892"/>
    </g>
   </g>
   <g id="PathCollection_24">
    <g clip-path="url(#p30c1912a8d)">
     <use style="stroke:#000000;stroke-width:1.5;" x="306.445384613" xlink:href="#m484eab6cf3" y="127.835002547"/>
    </g>
   </g>
   <g id="PathCollection_25">
    <g clip-path="url(#p30c1912a8d)">
     <use style="stroke:#000000;stroke-width:1.5;" x="250.345106611" xlink:href="#m484eab6cf3" y="189.109109884"/>
    </g>
   </g>
   <g id="PathCollection_26">
    <g clip-path="url(#p30c1912a8d)">
     <use style="stroke:#000000;stroke-width:1.5;" x="234.14596489" xlink:href="#m484eab6cf3" y="205.610072823"/>
    </g>
   </g>
   <g id="PathCollection_27">
    <g clip-path="url(#p30c1912a8d)">
     <use style="stroke:#000000;stroke-width:1.5;" x="248.406138625" xlink:href="#m484eab6cf3" y="184.997474687"/>
    </g>
   </g>
   <g id="PathCollection_28">
    <g clip-path="url(#p30c1912a8d)">
     <use style="stroke:#000000;stroke-width:1.5;" x="250.059176256" xlink:href="#m484eab6cf3" y="212.289910331"/>
    </g>
   </g>
   <g id="PathCollection_29">
    <g clip-path="url(#p30c1912a8d)">
     <use style="stroke:#000000;stroke-width:1.5;" x="106.418640349" xlink:href="#m484eab6cf3" y="184.881542801"/>
    </g>
   </g>
   <g id="PathCollection_30">
    <g clip-path="url(#p30c1912a8d)">
     <use style="stroke:#000000;stroke-width:1.5;" x="115.467572762" xlink:href="#m484eab6cf3" y="210.387638835"/>
    </g>
   </g>
   <g id="PathCollection_31">
    <g clip-path="url(#p30c1912a8d)">
     <use style="stroke:#000000;stroke-width:1.5;" x="231.660341576" xlink:href="#m484eab6cf3" y="204.194615555"/>
    </g>
   </g>
   <g id="PathCollection_32">
    <g clip-path="url(#p30c1912a8d)">
     <use style="stroke:#000000;stroke-width:1.5;" x="208.614039744" xlink:href="#m484eab6cf3" y="189.713928223"/>
    </g>
   </g>
   <g id="PathCollection_33">
    <g clip-path="url(#p30c1912a8d)">
     <use style="stroke:#000000;stroke-width:1.5;" x="219.240853433" xlink:href="#m484eab6cf3" y="141.048050017"/>
    </g>
   </g>
   <g id="PathCollection_34">
    <path clip-path="url(#p30c1912a8d)" d="
M209.052 286.337
L219.052 286.337
L219.052 276.337
L209.052 276.337
L209.052 286.337" style="fill:none;stroke:#000000;stroke-width:1.5;"/>
   </g>
   <g id="PathCollection_35">
    <path clip-path="url(#p30c1912a8d)" d="
M358.119 77.7994
L368.119 77.7994
L368.119 67.7994
L358.119 67.7994
L358.119 77.7994" style="fill:none;stroke:#000000;stroke-width:1.5;"/>
   </g>
   <g id="PathCollection_36">
    <path clip-path="url(#p30c1912a8d)" d="
M287.681 227.522
L297.681 227.522
L297.681 217.522
L287.681 217.522
L287.681 227.522" style="fill:none;stroke:#000000;stroke-width:1.5;"/>
   </g>
   <g id="PathCollection_37">
    <path clip-path="url(#p30c1912a8d)" d="
M188.921 195.991
L198.921 195.991
L198.921 185.991
L188.921 185.991
L188.921 195.991" style="fill:none;stroke:#000000;stroke-width:1.5;"/>
   </g>
   <g id="PathCollection_38">
    <path clip-path="url(#p30c1912a8d)" d="
M90.0312 285.018
L100.031 285.018
L100.031 275.018
L90.0312 275.018
L90.0312 285.018" style="fill:none;stroke:#000000;stroke-width:1.5;"/>
   </g>
   <g id="patch_3">
    <path d="
M64.6134 19.89
L405.423 19.89" style="fill:none;stroke:#cccccc;stroke-linecap:square;stroke-linejoin:miter;"/>
   </g>
   <g id="patch_4">
    <path d="
M405.423 308.76
L405.423 19.89" style="fill:none;stroke:#cccccc;stroke-linecap:square;stroke-linejoin:miter;"/>
   </g>
   <g id="patch_5">
    <path d="
M64.6134 308.76
L405.423 308.76" style="fill:none;stroke:#cccccc;stroke-linecap:square;stroke-linejoin:miter;"/>
   </g>
   <g id="patch_6">
    <path d="
M64.6134 308.76
L64.6134 19.89" style="fill:none;stroke:#cccccc;stroke-linecap:square;stroke-linejoin:miter;"/>
   </g>
   <g id="text_18">
    <!-- RCP4.5 -->
    <defs>
     <path d="
M44.7031 7
Q45.2031 6.20312 45.2031 5.59375
Q45.2031 5 44.0938 4.09375
Q39.9062 0.796875 36.4062 -0.34375
Q32.9062 -1.5 28.7031 -1.5
Q16.7969 -1.5 10.6406 7.79688
Q4.5 17.0938 4.5 35.0938
Q4.5 40.9062 5.5 47.0938
Q6.5 53.2969 9.14062 58.4375
Q11.7969 63.5938 16.3438 66.8906
Q20.9062 70.2031 28.0938 70.2031
Q32.2969 70.2031 36.4375 68.5938
Q40.5938 67 43.7969 64.2031
Q44.7031 63.4062 44.7969 62.7969
Q44.9062 62.2031 44.2969 61.2969
L41.0938 56.2031
Q40.7031 55.5938 40.0938 55.6875
Q39.5 55.7969 39 56.2031
Q36.5938 58.0938 34.1406 59.5469
Q31.7031 61 28.5 61
Q22.2031 61 19.2031 55.1406
Q16.2031 49.2969 16.2031 36.5938
Q16.2031 7.59375 29.7031 7.59375
Q34.2969 7.59375 39.2969 11.7031
Q39.9062 12.2031 40.5469 12.3906
Q41.2031 12.5938 41.7031 11.7969
L44.7031 7
z
" id="OfficinaSanITC-Medium-43"/>
     <path d="
M37.5 49.5
Q37.5 55.5 34.8906 57.7969
Q32.2969 60.0938 25.7031 60.0938
L20 60.0938
L20 37.4062
L25.0938 37.4062
Q31.0938 37.4062 34.2969 40.0469
Q37.5 42.7031 37.5 49.5
M48.2969 50
Q48.2969 44.5938 46.6875 40.5469
Q45.0938 36.5 42.1875 33.75
Q39.2969 31 35.2969 29.5938
Q31.2969 28.2031 26.5 28.2031
L20 28.2031
L20 1.70312
Q20 0.59375 19.6406 0.296875
Q19.2969 0 18.2031 0
L10.5938 0
Q9.5 0 9.25 0.296875
Q9 0.59375 9 1.70312
L9 66.9062
Q9 68 9.25 68.2969
Q9.5 68.5938 10.5938 68.5938
L26.4062 68.5938
Q32.9062 68.5938 36.5469 67.75
Q40.2031 66.9062 42.7031 64.7031
Q45.4062 62.2969 46.8438 58.5
Q48.2969 54.7031 48.2969 50" id="OfficinaSanITC-Medium-50"/>
     <path d="
M22.9062 6.79688
Q22.9062 3.29688 20.5469 0.9375
Q18.2031 -1.40625 14.7031 -1.40625
Q11.2031 -1.40625 8.84375 0.9375
Q6.5 3.29688 6.5 6.79688
Q6.5 10.2031 8.84375 12.5938
Q11.2031 15 14.7031 15
Q18.2031 15 20.5469 12.5938
Q22.9062 10.2031 22.9062 6.79688" id="OfficinaSanITC-Medium-2e"/>
     <path d="
M37.2031 49.9062
Q37.2031 55.7031 34.6406 57.9531
Q32.0938 60.2031 25.7031 60.2031
L19.7969 60.2031
L19.7969 38.0938
L25 38.0938
Q31.4062 38.0938 34.2969 40.8906
Q37.2031 43.7031 37.2031 49.9062
M51.5938 3.29688
Q52.0938 2.40625 52.1875 1.70312
Q52.2969 1 51.2031 0.703125
L43.4062 -1.20312
Q42.5938 -1.40625 42.25 -1.29688
Q41.9062 -1.20312 41.4062 -0.296875
L26.2031 29.5938
L19.7969 29.5938
L19.7969 1.70312
Q19.7969 0.59375 19.4375 0.296875
Q19.0938 0 18 0
L10.5938 0
Q9.5 0 9.25 0.34375
Q9 0.703125 9 1.90625
L9 66.9062
Q9 68 9.25 68.2969
Q9.5 68.5938 10.5938 68.5938
L26.5 68.5938
Q32.7969 68.5938 36.2969 67.7969
Q39.7969 67 42.4062 64.7969
Q45.2969 62.5 46.75 58.75
Q48.2031 55 48.2031 50.2031
Q48.2031 36.0938 36.0938 30.9062
L51.5938 3.29688
z
" id="OfficinaSanITC-Medium-52"/>
     <path d="
M46.2969 22
Q46.2969 16.4062 44.5469 11.9531
Q42.7969 7.5 39.5938 4.29688
Q36.4062 1.09375 31.9062 -0.59375
Q27.4062 -2.29688 21.7969 -2.29688
Q18.2969 -2.29688 14.6875 -1.64062
Q11.0938 -1 7.90625 0.09375
Q6.79688 0.5 6.64062 0.84375
Q6.5 1.20312 6.70312 2.09375
L7.90625 8.29688
Q8.09375 9.29688 8.9375 9.14062
Q9.79688 9 10.4062 8.79688
Q13.2969 7.90625 16.1875 7.40625
Q19.0938 6.90625 21.7031 6.90625
Q28.7031 6.90625 32.5938 10.7969
Q36.5 14.7031 36.5 21.7969
Q36.5 27.5 33.75 30.5938
Q31 33.7031 26.0938 33.7031
Q22.9062 33.7031 20.2969 32.3906
Q17.7031 31.0938 15.2031 28.4062
Q14.5 27.7031 13.4062 28
L8.09375 29.5938
Q7.29688 29.7969 7.1875 30.25
Q7.09375 30.7031 7.20312 31.7031
L10.2969 64
Q10.4062 65.0938 10.6562 65.3438
Q10.9062 65.5938 12 65.5938
L39.7969 65.5938
Q40.9062 65.5938 41.2031 65.2969
Q41.5 65 41.5 63.7031
L41.5 58.2969
Q41.5 57.2031 41.2031 56.8906
Q40.9062 56.5938 39.7969 56.5938
L18.9062 56.5938
L17 38.7969
Q17.5938 39.2969 18.0469 39.5469
Q18.5 39.7969 19 40
Q23.0938 42.2969 28.0938 42.2969
Q32.2031 42.2969 35.5469 40.8438
Q38.9062 39.4062 41.2969 36.75
Q43.7031 34.0938 45 30.3438
Q46.2969 26.5938 46.2969 22" id="OfficinaSanITC-Medium-35"/>
     <path d="
M48.5 15.4062
Q48.5 14.2969 48.2031 14
Q47.9062 13.7031 46.7969 13.7031
L39.9062 13.7031
L39.9062 0.09375
Q39.9062 -1 39.6562 -1.25
Q39.4062 -1.5 38.2969 -1.5
L31.5938 -1.5
Q30.5 -1.5 30.2031 -1.25
Q29.9062 -1 29.9062 0.09375
L29.9062 13.7031
L4.79688 13.7031
Q3.70312 13.7031 3.45312 13.9531
Q3.20312 14.2031 3.20312 15.2969
L3.20312 23.5938
L28.4062 66.2031
Q28.9062 67.0938 29.2969 67.2969
Q29.7031 67.5 30.5938 67.0938
L36.7031 64.7031
Q37.9062 64.2031 38.0938 63.7969
Q38.2969 63.4062 37.7031 62.4062
L12.7031 22
L30 22
L31.2969 38.0938
Q31.4062 39.2031 31.6562 39.4531
Q31.9062 39.7031 33 39.7031
L38.2969 39.7031
Q39.4062 39.7031 39.6562 39.3906
Q39.9062 39.0938 39.9062 38
L39.9062 21.9062
L46.7969 21.9062
Q47.9062 21.9062 48.2031 21.6562
Q48.5 21.4062 48.5 20.0938
L48.5 15.4062
z
" id="OfficinaSanITC-Medium-34"/>
    </defs>
    <g style="fill:#ffd025;" transform="translate(118.169270089 43.9625)scale(0.13 -0.13)">
     <use xlink:href="#OfficinaSanITC-Medium-52"/>
     <use x="54.4999847412" xlink:href="#OfficinaSanITC-Medium-43"/>
     <use x="100.599975586" xlink:href="#OfficinaSanITC-Medium-50"/>
     <use x="150.399963379" xlink:href="#OfficinaSanITC-Medium-34"/>
     <use x="198.824951172" xlink:href="#OfficinaSanITC-Medium-2e"/>
     <use x="226.599945068" xlink:href="#OfficinaSanITC-Medium-35"/>
    </g>
   </g>
   <g id="text_19">
    <!-- RCP6.0 -->
    <defs>
     <path d="
M37 32.2969
Q37 40.2031 36.3438 44.9531
Q35.7031 49.7031 34 52.9062
Q31.2031 58.2969 25.7969 58.2969
Q13.7969 58.2969 13.7969 32.7031
Q13.7969 19.7031 16.5938 13.5469
Q19.4062 7.40625 25.4062 7.40625
Q31.9062 7.40625 34.5 13.7031
Q35.9062 17 36.4531 21.3438
Q37 25.7031 37 32.2969
M47.5 33.7969
Q47.5 23.9062 46.0938 17.4531
Q44.7031 11 41.5938 6.70312
Q35.7031 -1.5 25.0938 -1.5
Q14.5 -1.5 8.84375 7.25
Q3.20312 16 3.20312 32.2969
Q3.20312 50.7969 10.4062 59.7031
Q13.2969 63.2969 17.2969 65.25
Q21.2969 67.2031 26.0938 67.2031
Q35.5 67.2031 40.9062 60.0938
Q44.2969 55.5938 45.8906 49.2969
Q47.5 43 47.5 33.7969" id="OfficinaSanITC-Medium-30"/>
     <path d="
M36.2031 22.5
Q36.2031 29.2031 33.7031 32.8438
Q31.2031 36.5 26.4062 36.5
Q21.5938 36.5 19.0938 32.8906
Q16.5938 29.2969 16.5938 22.7031
Q16.5938 15.2031 19 11.1406
Q21.4062 7.09375 26.0938 7.09375
Q30.9062 7.09375 33.5469 11.1406
Q36.2031 15.2031 36.2031 22.5
M46.2969 22.4062
Q46.2969 17 44.7969 12.5938
Q43.2969 8.20312 40.5938 5.04688
Q37.9062 1.90625 34.0938 0.203125
Q30.2969 -1.5 25.7969 -1.5
Q16 -1.5 10.8438 5.75
Q5.70312 13 5.70312 26.9062
Q5.70312 36 7.70312 43.4531
Q9.70312 50.9062 13.4531 56.1562
Q17.2031 61.4062 22.5 64.25
Q27.7969 67.0938 34.2969 67.0938
Q37.2969 67.0938 39.75 66.5469
Q42.2031 66 43.2031 65.2031
Q43.7031 64.7969 43.7031 64.5938
Q43.7031 64.5 43.5938 64.0938
L41.9062 57.9062
Q41.7031 57.0938 41.0938 57.1875
Q40.5 57.2969 40 57.5
Q38.4062 58.0938 37.0938 58.3438
Q35.7969 58.5938 34.0938 58.5938
Q27.2031 58.5938 22.7031 53.6406
Q18.2031 48.7031 16.5 39.2969
Q18 41.0938 18.9062 41.9062
Q22.7969 45.2969 28.7031 45.2969
Q33.2031 45.2969 36.5 43.4375
Q39.7969 41.5938 41.9375 38.5
Q44.0938 35.4062 45.1875 31.2031
Q46.2969 27 46.2969 22.4062" id="OfficinaSanITC-Medium-36"/>
    </defs>
    <g style="fill:#e87f19;" transform="translate(118.169270089 63.2205)scale(0.13 -0.13)">
     <use xlink:href="#OfficinaSanITC-Medium-52"/>
     <use x="54.4999847412" xlink:href="#OfficinaSanITC-Medium-43"/>
     <use x="100.599975586" xlink:href="#OfficinaSanITC-Medium-50"/>
     <use x="150.399963379" xlink:href="#OfficinaSanITC-Medium-36"/>
     <use x="200.449951172" xlink:href="#OfficinaSanITC-Medium-2e"/>
     <use x="228.224945068" xlink:href="#OfficinaSanITC-Medium-30"/>
    </g>
   </g>
   <g id="text_20">
    <!-- RCP8.5 -->
    <defs>
     <path d="
M36.9062 17.2031
Q36.9062 20.4062 35.5938 22.7031
Q34.2031 25.2969 31.6406 26.8906
Q29.0938 28.5 25 30.2031
Q23.2969 29.4062 21.8438 28.7031
Q20.4062 28 19.2031 27.2031
Q16.7031 25.5 15.1406 22.9531
Q13.5938 20.4062 13.5938 17.2031
Q13.5938 12.5938 16.8438 9.75
Q20.0938 6.90625 25.5 6.90625
Q30.5938 6.90625 33.75 9.79688
Q36.9062 12.7031 36.9062 17.2031
M34.7969 49.7031
Q34.7969 53.7969 32.2969 56.1875
Q29.7969 58.5938 25.4062 58.5938
Q21.2031 58.5938 18.6406 56.1875
Q16.0938 53.7969 16.0938 49.9062
Q16.0938 47.5938 16.9375 45.8438
Q17.7969 44.0938 19.1406 42.75
Q20.5 41.4062 22.25 40.4062
Q24 39.4062 25.7969 38.5
Q28.5938 39.7031 30.5 41
Q32.5 42.4062 33.6406 44.6562
Q34.7969 46.9062 34.7969 49.7031
M47.5938 17.0938
Q47.5938 13.5 46.3906 10.4531
Q45.2031 7.40625 43 5
Q39.7969 1.5 35.3438 -0.09375
Q30.9062 -1.70312 25.2969 -1.70312
Q20.2031 -1.70312 16.1406 -0.390625
Q12.0938 0.90625 9.1875 3.29688
Q6.29688 5.70312 4.75 9.14062
Q3.20312 12.5938 3.20312 16.9062
Q3.20312 22.2031 6.09375 26.2969
Q7.90625 28.9062 10.5938 30.9062
Q13.2969 32.9062 17.7031 34.5
Q15 35.5938 13.25 36.6875
Q11.5 37.7969 10.0938 39.4062
Q6 43.7969 6 50.2969
Q6 54 7.45312 57.0938
Q8.90625 60.2031 11.5 62.4531
Q14.0938 64.7031 17.6406 65.9531
Q21.2031 67.2031 25.5 67.2031
Q29.7969 67.2031 33.3906 65.9531
Q37 64.7031 39.5938 62.5469
Q42.2031 60.4062 43.6406 57.3438
Q45.0938 54.2969 45.0938 50.7031
Q45.0938 49.0938 44.75 47.5469
Q44.4062 46 43.9062 44.5938
Q42.7031 41.4062 40.25 39.1562
Q37.7969 36.9062 33.5938 34.7031
Q39.9062 32.2031 43.75 27.7969
Q47.5938 23.4062 47.5938 17.0938" id="OfficinaSanITC-Medium-38"/>
    </defs>
    <g style="fill:#ff4932;" transform="translate(118.169270089 82.4785)scale(0.13 -0.13)">
     <use xlink:href="#OfficinaSanITC-Medium-52"/>
     <use x="54.4999847412" xlink:href="#OfficinaSanITC-Medium-43"/>
     <use x="100.599975586" xlink:href="#OfficinaSanITC-Medium-50"/>
     <use x="150.399963379" xlink:href="#OfficinaSanITC-Medium-38"/>
     <use x="201.199951172" xlink:href="#OfficinaSanITC-Medium-2e"/>
     <use x="228.974945068" xlink:href="#OfficinaSanITC-Medium-35"/>
    </g>
   </g>
  </g>
 </g>
 <defs>
  <clipPath id="p30c1912a8d">
   <rect height="288.87" width="340.80984375" x="64.6134375" y="19.89"/>
  </clipPath>
 </defs>
</svg>
