<?xml version="1.0" encoding="UTF-8" standalone="no"?>
<!DOCTYPE svg PUBLIC "-//W3C//DTD SVG 1.1//EN"
 "http://www.w3.org/Graphics/SVG/1.1/DTD/svg11.dtd">
<!-- Generated by graphviz version 2.38.0 (20140413.2041)
 -->
<!-- Title: %3 Pages: 1 -->
<svg width="255pt" height="216pt"
 viewBox="0.00 0.00 255.23 216.00" xmlns="http://www.w3.org/2000/svg" xmlns:xlink="http://www.w3.org/1999/xlink">
<g id="graph0" class="graph" transform="scale(1 1) rotate(0) translate(4.231 212)">
<title>%3</title>
<polygon fill="white" stroke="none" points="-4.231,4 -4.231,-212 250.998,-212 250.998,4 -4.231,4"/>
<!-- Storage &lt; 281 -->
<g id="node1" class="node"><title>Storage &lt; 281</title>
<polygon fill="none" stroke="black" points="116.269,-208 21.269,-208 21.269,-172 116.269,-172 116.269,-208"/>
<text text-anchor="middle" x="68.769" y="-185.8" font-family="Times,serif" font-size="14.00">Storage &lt; 281</text>
</g>
<!-- Hedge_90 -->
<g id="node2" class="node"><title>Hedge_90</title>
<polygon fill="none" stroke="black" points="73.769,-122 -0.231,-122 -0.231,-86 73.769,-86 73.769,-122"/>
<text text-anchor="middle" x="36.769" y="-99.8" font-family="Times,serif" font-size="14.00">Hedge_90</text>
</g>
<!-- Storage &lt; 281&#45;&gt;Hedge_90 -->
<g id="edge1" class="edge"><title>Storage &lt; 281&#45;&gt;Hedge_90</title>
<path fill="none" stroke="black" d="M62.139,-171.6C57.733,-160.03 51.864,-144.62 46.881,-131.54"/>
<polygon fill="black" stroke="black" points="50.1146,-130.196 43.281,-122.1 43.574,-132.691 50.1146,-130.196"/>
<text text-anchor="middle" x="59.045" y="-142.8" font-family="Times,serif" font-size="14.00">T</text>
</g>
<!-- Inflow &lt; 103 -->
<g id="node3" class="node"><title>Inflow &lt; 103</title>
<polygon fill="none" stroke="black" points="180.225,-122 91.3147,-122 91.3147,-86 180.225,-86 180.225,-122"/>
<text text-anchor="middle" x="135.77" y="-99.8" font-family="Times,serif" font-size="14.00">Inflow &lt; 103</text>
</g>
<!-- Storage &lt; 281&#45;&gt;Inflow &lt; 103 -->
<g id="edge2" class="edge"><title>Storage &lt; 281&#45;&gt;Inflow &lt; 103</title>
<path fill="none" stroke="black" d="M82.651,-171.6C92.237,-159.58 105.13,-143.41 115.82,-130.02"/>
<polygon fill="black" stroke="black" points="118.636,-132.102 122.13,-122.1 113.161,-127.74 118.636,-132.102"/>
<text text-anchor="middle" x="110.66" y="-142.8" font-family="Times,serif" font-size="14.00">F</text>
</g>
<!-- Release_Demand -->
<g id="node4" class="node"><title>Release_Demand</title>
<polygon fill="none" stroke="black" points="130.769,-36 16.769,-36 16.769,-0 130.769,-0 130.769,-36"/>
<text text-anchor="middle" x="73.769" y="-13.8" font-family="Times,serif" font-size="14.00">Release_Demand</text>
</g>
<!-- Inflow &lt; 103&#45;&gt;Release_Demand -->
<g id="edge3" class="edge"><title>Inflow &lt; 103&#45;&gt;Release_Demand</title>
<path fill="none" stroke="black" d="M122.92,-85.595C114.14,-73.69 102.34,-57.715 92.513,-44.395"/>
<polygon fill="black" stroke="black" points="95.1415,-42.0624 86.387,-36.095 89.5094,-46.2193 95.1415,-42.0624"/>
<text text-anchor="middle" x="113.04" y="-56.8" font-family="Times,serif" font-size="14.00">T</text>
</g>
<!-- Flood_Control -->
<g id="node5" class="node"><title>Flood_Control</title>
<polygon fill="none" stroke="black" points="247.226,-36 148.314,-36 148.314,-0 247.226,-0 247.226,-36"/>
<text text-anchor="middle" x="197.77" y="-13.8" font-family="Times,serif" font-size="14.00">Flood_Control</text>
</g>
<!-- Inflow &lt; 103&#45;&gt;Flood_Control -->
<g id="edge4" class="edge"><title>Inflow &lt; 103&#45;&gt;Flood_Control</title>
<path fill="none" stroke="black" d="M148.62,-85.595C157.4,-73.69 169.19,-57.715 179.03,-44.395"/>
<polygon fill="black" stroke="black" points="182.032,-46.2208 185.15,-36.095 176.398,-42.0665 182.032,-46.2208"/>
<text text-anchor="middle" x="173.66" y="-56.8" font-family="Times,serif" font-size="14.00">F</text>
</g>
</g>
</svg>
