<?xml version="1.0" encoding="UTF-8" standalone="no"?>
<!DOCTYPE svg PUBLIC "-//W3C//DTD SVG 1.1//EN"
 "http://www.w3.org/Graphics/SVG/1.1/DTD/svg11.dtd">
<!-- Generated by graphviz version 2.38.0 (20140413.2041)
 -->
<!-- Title: %3 Pages: 1 -->
<svg width="198pt" height="130pt"
 viewBox="0.00 0.00 198.23 130.00" xmlns="http://www.w3.org/2000/svg" xmlns:xlink="http://www.w3.org/1999/xlink">
<g id="graph0" class="graph" transform="scale(1 1) rotate(0) translate(4.231 126)">
<title>%3</title>
<polygon fill="white" stroke="none" points="-4.231,4 -4.231,-126 193.998,-126 193.998,4 -4.231,4"/>
<!-- Storage &lt; 3 -->
<g id="node1" class="node"><title>Storage &lt; 3</title>
<polygon fill="none" stroke="black" points="129.269,-122 48.269,-122 48.269,-86 129.269,-86 129.269,-122"/>
<text text-anchor="middle" x="88.769" y="-99.8" font-family="Times,serif" font-size="14.00">Storage &lt; 3</text>
</g>
<!-- Hedge_70 -->
<g id="node2" class="node"><title>Hedge_70</title>
<polygon fill="none" stroke="black" points="73.769,-36 -0.231,-36 -0.231,-0 73.769,-0 73.769,-36"/>
<text text-anchor="middle" x="36.769" y="-13.8" font-family="Times,serif" font-size="14.00">Hedge_70</text>
</g>
<!-- Storage &lt; 3&#45;&gt;Hedge_70 -->
<g id="edge1" class="edge"><title>Storage &lt; 3&#45;&gt;Hedge_70</title>
<path fill="none" stroke="black" d="M77.995,-85.595C70.695,-73.804 60.924,-58.019 52.726,-44.776"/>
<polygon fill="black" stroke="black" points="55.5916,-42.7554 47.352,-36.095 49.6397,-46.4399 55.5916,-42.7554"/>
<text text-anchor="middle" x="71.045" y="-56.8" font-family="Times,serif" font-size="14.00">T</text>
</g>
<!-- Flood_Control -->
<g id="node3" class="node"><title>Flood_Control</title>
<polygon fill="none" stroke="black" points="190.226,-36 91.3139,-36 91.3139,-0 190.226,-0 190.226,-36"/>
<text text-anchor="middle" x="140.77" y="-13.8" font-family="Times,serif" font-size="14.00">Flood_Control</text>
</g>
<!-- Storage &lt; 3&#45;&gt;Flood_Control -->
<g id="edge2" class="edge"><title>Storage &lt; 3&#45;&gt;Flood_Control</title>
<path fill="none" stroke="black" d="M99.543,-85.595C106.84,-73.804 116.61,-58.019 124.81,-44.776"/>
<polygon fill="black" stroke="black" points="127.897,-46.4388 130.19,-36.095 121.947,-42.7513 127.897,-46.4388"/>
<text text-anchor="middle" x="122.66" y="-56.8" font-family="Times,serif" font-size="14.00">F</text>
</g>
</g>
</svg>
