<?xml version="1.0" encoding="UTF-8" standalone="no"?>
<!DOCTYPE svg PUBLIC "-//W3C//DTD SVG 1.1//EN"
 "http://www.w3.org/Graphics/SVG/1.1/DTD/svg11.dtd">
<!-- Generated by graphviz version 2.38.0 (20140413.2041)
 -->
<!-- Title: %3 Pages: 1 -->
<svg width="238pt" height="130pt"
 viewBox="0.00 0.00 238.23 130.00" xmlns="http://www.w3.org/2000/svg" xmlns:xlink="http://www.w3.org/1999/xlink">
<g id="graph0" class="graph" transform="scale(1 1) rotate(0) translate(4.021 126)">
<title>%3</title>
<polygon fill="white" stroke="none" points="-4.021,4 -4.021,-126 234.208,-126 234.208,4 -4.021,4"/>
<!-- Inflow &lt; 117 -->
<g id="node1" class="node"><title>Inflow &lt; 117</title>
<polygon fill="none" stroke="black" points="162.98,-122 74.98,-122 74.98,-86 162.98,-86 162.98,-122"/>
<text text-anchor="middle" x="118.98" y="-99.8" font-family="Times,serif" font-size="14.00">Inflow &lt; 117</text>
</g>
<!-- Release_Demand -->
<g id="node2" class="node"><title>Release_Demand</title>
<polygon fill="none" stroke="black" points="113.979,-36 -0.021,-36 -0.021,-0 113.979,-0 113.979,-36"/>
<text text-anchor="middle" x="56.979" y="-13.8" font-family="Times,serif" font-size="14.00">Release_Demand</text>
</g>
<!-- Inflow &lt; 117&#45;&gt;Release_Demand -->
<g id="edge1" class="edge"><title>Inflow &lt; 117&#45;&gt;Release_Demand</title>
<path fill="none" stroke="black" d="M106.13,-85.595C97.346,-73.69 85.555,-57.715 75.724,-44.395"/>
<polygon fill="black" stroke="black" points="78.352,-42.0617 69.597,-36.095 72.7202,-46.2191 78.352,-42.0617"/>
<text text-anchor="middle" x="96.255" y="-56.8" font-family="Times,serif" font-size="14.00">T</text>
</g>
<!-- Flood_Control -->
<g id="node3" class="node"><title>Flood_Control</title>
<polygon fill="none" stroke="black" points="230.436,-36 131.524,-36 131.524,-0 230.436,-0 230.436,-36"/>
<text text-anchor="middle" x="180.98" y="-13.8" font-family="Times,serif" font-size="14.00">Flood_Control</text>
</g>
<!-- Inflow &lt; 117&#45;&gt;Flood_Control -->
<g id="edge2" class="edge"><title>Inflow &lt; 117&#45;&gt;Flood_Control</title>
<path fill="none" stroke="black" d="M131.83,-85.595C140.61,-73.69 152.4,-57.715 162.24,-44.395"/>
<polygon fill="black" stroke="black" points="165.242,-46.2208 168.36,-36.095 159.608,-42.0665 165.242,-46.2208"/>
<text text-anchor="middle" x="157.87" y="-56.8" font-family="Times,serif" font-size="14.00">F</text>
</g>
</g>
</svg>
