<?xml version="1.0" encoding="UTF-8" standalone="no"?>
<!DOCTYPE svg PUBLIC "-//W3C//DTD SVG 1.1//EN"
 "http://www.w3.org/Graphics/SVG/1.1/DTD/svg11.dtd">
<!-- Generated by graphviz version 2.38.0 (20140413.2041)
 -->
<!-- Title: %3 Pages: 1 -->
<svg width="314pt" height="302pt"
 viewBox="0.00 0.00 314.23 302.00" xmlns="http://www.w3.org/2000/svg" xmlns:xlink="http://www.w3.org/1999/xlink">
<g id="graph0" class="graph" transform="scale(1 1) rotate(0) translate(4.231 298)">
<title>%3</title>
<polygon fill="white" stroke="none" points="-4.231,4 -4.231,-298 309.998,-298 309.998,4 -4.231,4"/>
<!-- Storage &lt; 209 -->
<g id="node1" class="node"><title>Storage &lt; 209</title>
<polygon fill="none" stroke="black" points="117.269,-294 22.269,-294 22.269,-258 117.269,-258 117.269,-294"/>
<text text-anchor="middle" x="69.769" y="-271.8" font-family="Times,serif" font-size="14.00">Storage &lt; 209</text>
</g>
<!-- Hedge_50 -->
<g id="node2" class="node"><title>Hedge_50</title>
<polygon fill="none" stroke="black" points="73.769,-208 -0.231,-208 -0.231,-172 73.769,-172 73.769,-208"/>
<text text-anchor="middle" x="36.769" y="-185.8" font-family="Times,serif" font-size="14.00">Hedge_50</text>
</g>
<!-- Storage &lt; 209&#45;&gt;Hedge_50 -->
<g id="edge1" class="edge"><title>Storage &lt; 209&#45;&gt;Hedge_50</title>
<path fill="none" stroke="black" d="M62.931,-257.6C58.388,-246.03 52.336,-230.62 47.197,-217.54"/>
<polygon fill="black" stroke="black" points="50.4017,-216.126 43.485,-208.1 43.8873,-218.687 50.4017,-216.126"/>
<text text-anchor="middle" x="60.045" y="-228.8" font-family="Times,serif" font-size="14.00">T</text>
</g>
<!-- Storage &lt; 422 -->
<g id="node3" class="node"><title>Storage &lt; 422</title>
<polygon fill="none" stroke="black" points="186.27,-208 91.27,-208 91.27,-172 186.27,-172 186.27,-208"/>
<text text-anchor="middle" x="138.77" y="-185.8" font-family="Times,serif" font-size="14.00">Storage &lt; 422</text>
</g>
<!-- Storage &lt; 209&#45;&gt;Storage &lt; 422 -->
<g id="edge2" class="edge"><title>Storage &lt; 209&#45;&gt;Storage &lt; 422</title>
<path fill="none" stroke="black" d="M84.066,-257.6C93.938,-245.58 107.22,-229.41 118.22,-216.02"/>
<polygon fill="black" stroke="black" points="121.084,-218.048 124.73,-208.1 115.676,-213.603 121.084,-218.048"/>
<text text-anchor="middle" x="112.66" y="-228.8" font-family="Times,serif" font-size="14.00">F</text>
</g>
<!-- Hedge_70 -->
<g id="node4" class="node"><title>Hedge_70</title>
<polygon fill="none" stroke="black" points="142.77,-122 68.77,-122 68.77,-86 142.77,-86 142.77,-122"/>
<text text-anchor="middle" x="105.77" y="-99.8" font-family="Times,serif" font-size="14.00">Hedge_70</text>
</g>
<!-- Storage &lt; 422&#45;&gt;Hedge_70 -->
<g id="edge3" class="edge"><title>Storage &lt; 422&#45;&gt;Hedge_70</title>
<path fill="none" stroke="black" d="M131.93,-171.6C127.39,-160.03 121.34,-144.62 116.2,-131.54"/>
<polygon fill="black" stroke="black" points="119.403,-130.12 112.48,-122.1 112.89,-132.687 119.403,-130.12"/>
<text text-anchor="middle" x="128.04" y="-142.8" font-family="Times,serif" font-size="14.00">T</text>
</g>
<!-- Inflow &lt; 224 -->
<g id="node5" class="node"><title>Inflow &lt; 224</title>
<polygon fill="none" stroke="black" points="249.225,-122 160.315,-122 160.315,-86 249.225,-86 249.225,-122"/>
<text text-anchor="middle" x="204.77" y="-99.8" font-family="Times,serif" font-size="14.00">Inflow &lt; 224</text>
</g>
<!-- Storage &lt; 422&#45;&gt;Inflow &lt; 224 -->
<g id="edge4" class="edge"><title>Storage &lt; 422&#45;&gt;Inflow &lt; 224</title>
<path fill="none" stroke="black" d="M152.44,-171.6C161.89,-159.58 174.59,-143.41 185.11,-130.02"/>
<polygon fill="black" stroke="black" points="187.908,-132.124 191.34,-122.1 182.406,-127.796 187.908,-132.124"/>
<text text-anchor="middle" x="178.66" y="-142.8" font-family="Times,serif" font-size="14.00">F</text>
</g>
<!-- Hedge_90 -->
<g id="node6" class="node"><title>Hedge_90</title>
<polygon fill="none" stroke="black" points="189.77,-36 115.77,-36 115.77,-0 189.77,-0 189.77,-36"/>
<text text-anchor="middle" x="152.77" y="-13.8" font-family="Times,serif" font-size="14.00">Hedge_90</text>
</g>
<!-- Inflow &lt; 224&#45;&gt;Hedge_90 -->
<g id="edge5" class="edge"><title>Inflow &lt; 224&#45;&gt;Hedge_90</title>
<path fill="none" stroke="black" d="M193.99,-85.595C186.7,-73.804 176.92,-58.019 168.73,-44.776"/>
<polygon fill="black" stroke="black" points="171.593,-42.7513 163.35,-36.095 165.643,-46.4388 171.593,-42.7513"/>
<text text-anchor="middle" x="186.04" y="-56.8" font-family="Times,serif" font-size="14.00">T</text>
</g>
<!-- Flood_Control -->
<g id="node7" class="node"><title>Flood_Control</title>
<polygon fill="none" stroke="black" points="306.226,-36 207.314,-36 207.314,-0 306.226,-0 306.226,-36"/>
<text text-anchor="middle" x="256.77" y="-13.8" font-family="Times,serif" font-size="14.00">Flood_Control</text>
</g>
<!-- Inflow &lt; 224&#45;&gt;Flood_Control -->
<g id="edge6" class="edge"><title>Inflow &lt; 224&#45;&gt;Flood_Control</title>
<path fill="none" stroke="black" d="M215.54,-85.595C222.84,-73.804 232.61,-58.019 240.81,-44.776"/>
<polygon fill="black" stroke="black" points="243.897,-46.4388 246.19,-36.095 237.947,-42.7513 243.897,-46.4388"/>
<text text-anchor="middle" x="237.66" y="-56.8" font-family="Times,serif" font-size="14.00">F</text>
</g>
</g>
</svg>
