<?xml version="1.0" encoding="UTF-8" standalone="no"?>
<!DOCTYPE svg PUBLIC "-//W3C//DTD SVG 1.1//EN"
 "http://www.w3.org/Graphics/SVG/1.1/DTD/svg11.dtd">
<!-- Generated by graphviz version 2.40.1 (20161225.0304)
 -->
<!-- Pages: 1 -->
<svg width="328pt" height="302pt"
 viewBox="0.00 0.00 328.00 302.00" xmlns="http://www.w3.org/2000/svg" xmlns:xlink="http://www.w3.org/1999/xlink">
<g id="graph0" class="graph" transform="scale(1 1) rotate(0) translate(4 298)">
<polygon fill="#ffffff" stroke="transparent" points="-4,4 -4,-298 324.001,-298 324.001,4 -4,4"/>
<!-- Storage &lt; 179 -->
<g id="node1" class="node">
<title>Storage &lt; 179</title>
<polygon fill="none" stroke="#000000" points="100.5,-294 5.5,-294 5.5,-258 100.5,-258 100.5,-294"/>
<text text-anchor="middle" x="53" y="-271.8" font-family="Times,serif" font-size="14.00" fill="#000000">Storage &lt; 179</text>
</g>
<!-- Hedge_50 -->
<g id="node2" class="node">
<title>Hedge_50</title>
<polygon fill="none" stroke="#000000" points="74,-208 0,-208 0,-172 74,-172 74,-208"/>
<text text-anchor="middle" x="37" y="-185.8" font-family="Times,serif" font-size="14.00" fill="#000000">Hedge_50</text>
</g>
<!-- Storage &lt; 179&#45;&gt;Hedge_50 -->
<g id="edge1" class="edge">
<title>Storage &lt; 179&#45;&gt;Hedge_50</title>
<path fill="none" stroke="#000000" d="M49.607,-257.76C47.464,-246.25 44.653,-231.14 42.229,-218.11"/>
<polygon fill="#000000" stroke="#000000" points="45.6573,-217.4015 40.388,-208.21 38.7753,-218.6814 45.6573,-217.4015"/>
<text text-anchor="middle" x="50.276" y="-228.8" font-family="Times,serif" font-size="14.00" fill="#000000">T</text>
</g>
<!-- Storage &lt; 430 -->
<g id="node3" class="node">
<title>Storage &lt; 430</title>
<polygon fill="none" stroke="#000000" points="186.501,-208 91.501,-208 91.501,-172 186.501,-172 186.501,-208"/>
<text text-anchor="middle" x="139.001" y="-185.8" font-family="Times,serif" font-size="14.00" fill="#000000">Storage &lt; 430</text>
</g>
<!-- Storage &lt; 179&#45;&gt;Storage &lt; 430 -->
<g id="edge2" class="edge">
<title>Storage &lt; 179&#45;&gt;Storage &lt; 430</title>
<path fill="none" stroke="#000000" d="M71.238,-257.76C83.553,-245.45 99.977,-229.02 113.571,-215.43"/>
<polygon fill="#000000" stroke="#000000" points="116.1948,-217.756 120.791,-208.21 111.245,-212.8062 116.1948,-217.756"/>
<text text-anchor="middle" x="105.891" y="-228.8" font-family="Times,serif" font-size="14.00" fill="#000000">F</text>
</g>
<!-- Hedge_80 -->
<g id="node4" class="node">
<title>Hedge_80</title>
<polygon fill="none" stroke="#000000" points="142.001,-122 68.001,-122 68.001,-86 142.001,-86 142.001,-122"/>
<text text-anchor="middle" x="105.001" y="-99.8" font-family="Times,serif" font-size="14.00" fill="#000000">Hedge_80</text>
</g>
<!-- Storage &lt; 430&#45;&gt;Hedge_80 -->
<g id="edge3" class="edge">
<title>Storage &lt; 430&#45;&gt;Hedge_80</title>
<path fill="none" stroke="#000000" d="M131.791,-171.76C127.191,-160.13 121.141,-144.84 115.961,-131.72"/>
<polygon fill="#000000" stroke="#000000" points="119.1327,-130.2226 112.201,-122.21 112.623,-132.7964 119.1327,-130.2226"/>
<text text-anchor="middle" x="129.271" y="-142.8" font-family="Times,serif" font-size="14.00" fill="#000000">T</text>
</g>
<!-- Storage &lt; 627 -->
<g id="node5" class="node">
<title>Storage &lt; 627</title>
<polygon fill="none" stroke="#000000" points="254.501,-122 159.501,-122 159.501,-86 254.501,-86 254.501,-122"/>
<text text-anchor="middle" x="207.001" y="-99.8" font-family="Times,serif" font-size="14.00" fill="#000000">Storage &lt; 627</text>
</g>
<!-- Storage &lt; 430&#45;&gt;Storage &lt; 627 -->
<g id="edge4" class="edge">
<title>Storage &lt; 430&#45;&gt;Storage &lt; 627</title>
<path fill="none" stroke="#000000" d="M153.421,-171.76C162.981,-159.68 175.661,-143.63 186.291,-130.19"/>
<polygon fill="#000000" stroke="#000000" points="189.1439,-132.225 192.601,-122.21 183.653,-127.8832 189.1439,-132.225"/>
<text text-anchor="middle" x="181.891" y="-142.8" font-family="Times,serif" font-size="14.00" fill="#000000">F</text>
</g>
<!-- Hedge_90 -->
<g id="node6" class="node">
<title>Hedge_90</title>
<polygon fill="none" stroke="#000000" points="188.001,-36 114.001,-36 114.001,0 188.001,0 188.001,-36"/>
<text text-anchor="middle" x="151.001" y="-13.8" font-family="Times,serif" font-size="14.00" fill="#000000">Hedge_90</text>
</g>
<!-- Storage &lt; 627&#45;&gt;Hedge_90 -->
<g id="edge5" class="edge">
<title>Storage &lt; 627&#45;&gt;Hedge_90</title>
<path fill="none" stroke="#000000" d="M195.121,-85.762C187.401,-73.904 177.201,-58.234 168.551,-44.951"/>
<polygon fill="#000000" stroke="#000000" points="171.2505,-42.6825 162.861,-36.212 165.3844,-46.502 171.2505,-42.6825"/>
<text text-anchor="middle" x="187.271" y="-56.8" font-family="Times,serif" font-size="14.00" fill="#000000">T</text>
</g>
<!-- Release_Demand -->
<g id="node7" class="node">
<title>Release_Demand</title>
<polygon fill="none" stroke="#000000" points="320.001,-36 206.001,-36 206.001,0 320.001,0 320.001,-36"/>
<text text-anchor="middle" x="263.001" y="-13.8" font-family="Times,serif" font-size="14.00" fill="#000000">Release_Demand</text>
</g>
<!-- Storage &lt; 627&#45;&gt;Release_Demand -->
<g id="edge6" class="edge">
<title>Storage &lt; 627&#45;&gt;Release_Demand</title>
<path fill="none" stroke="#000000" d="M218.881,-85.762C226.601,-73.904 236.801,-58.234 245.451,-44.951"/>
<polygon fill="#000000" stroke="#000000" points="248.6176,-46.502 251.141,-36.212 242.7515,-42.6825 248.6176,-46.502"/>
<text text-anchor="middle" x="241.891" y="-56.8" font-family="Times,serif" font-size="14.00" fill="#000000">F</text>
</g>
</g>
</svg>
