<?xml version="1.0" encoding="UTF-8" standalone="no"?>
<!DOCTYPE svg PUBLIC "-//W3C//DTD SVG 1.1//EN"
 "http://www.w3.org/Graphics/SVG/1.1/DTD/svg11.dtd">
<!-- Generated by graphviz version 2.38.0 (20140413.2041)
 -->
<!-- Title: %3 Pages: 1 -->
<svg width="285pt" height="216pt"
 viewBox="0.00 0.00 285.23 216.00" xmlns="http://www.w3.org/2000/svg" xmlns:xlink="http://www.w3.org/1999/xlink">
<g id="graph0" class="graph" transform="scale(1 1) rotate(0) translate(3.99954 212)">
<title>%3</title>
<polygon fill="white" stroke="none" points="-3.99954,4 -3.99954,-212 281.23,-212 281.23,4 -3.99954,4"/>
<!-- Day &lt; 217 -->
<g id="node1" class="node"><title>Day &lt; 217</title>
<polygon fill="none" stroke="black" points="122.948,-208 47.508,-208 47.508,-172 122.948,-172 122.948,-208"/>
<text text-anchor="middle" x="85.228" y="-185.8" font-family="Times,serif" font-size="14.00">Day &lt; 217</text>
</g>
<!-- Flood_Control -->
<g id="node2" class="node"><title>Flood_Control</title>
<polygon fill="none" stroke="black" points="98.6841,-122 -0.228135,-122 -0.228135,-86 98.6841,-86 98.6841,-122"/>
<text text-anchor="middle" x="49.228" y="-99.8" font-family="Times,serif" font-size="14.00">Flood_Control</text>
</g>
<!-- Day &lt; 217&#45;&gt;Flood_Control -->
<g id="edge1" class="edge"><title>Day &lt; 217&#45;&gt;Flood_Control</title>
<path fill="none" stroke="black" d="M77.768,-171.6C72.812,-160.03 66.209,-144.62 60.603,-131.54"/>
<polygon fill="black" stroke="black" points="63.7126,-129.911 56.554,-122.1 57.2793,-132.67 63.7126,-129.911"/>
<text text-anchor="middle" x="74.503" y="-142.8" font-family="Times,serif" font-size="14.00">T</text>
</g>
<!-- Storage &lt; 346 -->
<g id="node3" class="node"><title>Storage &lt; 346</title>
<polygon fill="none" stroke="black" points="211.73,-122 116.73,-122 116.73,-86 211.73,-86 211.73,-122"/>
<text text-anchor="middle" x="164.23" y="-99.8" font-family="Times,serif" font-size="14.00">Storage &lt; 346</text>
</g>
<!-- Day &lt; 217&#45;&gt;Storage &lt; 346 -->
<g id="edge2" class="edge"><title>Day &lt; 217&#45;&gt;Storage &lt; 346</title>
<path fill="none" stroke="black" d="M101.6,-171.6C113.01,-159.46 128.39,-143.1 141.06,-129.64"/>
<polygon fill="black" stroke="black" points="143.849,-131.783 148.15,-122.1 138.75,-126.988 143.849,-131.783"/>
<text text-anchor="middle" x="134.12" y="-142.8" font-family="Times,serif" font-size="14.00">F</text>
</g>
<!-- Hedge_50 -->
<g id="node4" class="node"><title>Hedge_50</title>
<polygon fill="none" stroke="black" points="145.23,-36 71.23,-36 71.23,-0 145.23,-0 145.23,-36"/>
<text text-anchor="middle" x="108.23" y="-13.8" font-family="Times,serif" font-size="14.00">Hedge_50</text>
</g>
<!-- Storage &lt; 346&#45;&gt;Hedge_50 -->
<g id="edge3" class="edge"><title>Storage &lt; 346&#45;&gt;Hedge_50</title>
<path fill="none" stroke="black" d="M152.62,-85.595C144.76,-73.804 134.24,-58.019 125.41,-44.776"/>
<polygon fill="black" stroke="black" points="128.081,-42.4723 119.62,-36.095 122.257,-46.3564 128.081,-42.4723"/>
<text text-anchor="middle" x="143.5" y="-56.8" font-family="Times,serif" font-size="14.00">T</text>
</g>
<!-- Release_Demand -->
<g id="node5" class="node"><title>Release_Demand</title>
<polygon fill="none" stroke="black" points="277.23,-36 163.23,-36 163.23,-0 277.23,-0 277.23,-36"/>
<text text-anchor="middle" x="220.23" y="-13.8" font-family="Times,serif" font-size="14.00">Release_Demand</text>
</g>
<!-- Storage &lt; 346&#45;&gt;Release_Demand -->
<g id="edge4" class="edge"><title>Storage &lt; 346&#45;&gt;Release_Demand</title>
<path fill="none" stroke="black" d="M175.83,-85.595C183.69,-73.804 194.22,-58.019 203.04,-44.776"/>
<polygon fill="black" stroke="black" points="206.193,-46.3564 208.83,-36.095 200.369,-42.4723 206.193,-46.3564"/>
<text text-anchor="middle" x="199.12" y="-56.8" font-family="Times,serif" font-size="14.00">F</text>
</g>
</g>
</svg>
