<?xml version="1.0" encoding="utf-8" standalone="no"?>
<!DOCTYPE svg PUBLIC "-//W3C//DTD SVG 1.1//EN"
  "http://www.w3.org/Graphics/SVG/1.1/DTD/svg11.dtd">
<!-- Created with matplotlib (http://matplotlib.org/) -->
<svg height="216pt" version="1.1" viewBox="0 0 612 216" width="612pt" xmlns="http://www.w3.org/2000/svg" xmlns:xlink="http://www.w3.org/1999/xlink">
 <defs>
  <style type="text/css">
*{stroke-linecap:butt;stroke-linejoin:round;}
  </style>
 </defs>
 <g id="figure_1">
  <g id="patch_1">
   <path d="
M0 216
L612 216
L612 0
L0 0
z
" style="fill:#ffffff;"/>
  </g>
  <g id="axes_1">
   <g id="patch_2">
    <path d="
M45.0447 183.26
L597.96 183.26
L597.96 19.89
L45.0447 19.89
z
" style="fill:#ffffff;"/>
   </g>
   <g id="matplotlib.axis_1">
    <g id="xtick_1">
     <g id="line2d_1">
      <path clip-path="url(#pe273d42b18)" d="
M45.0447 183.26
L45.0447 19.89" style="fill:none;stroke:#cccccc;stroke-linecap:round;"/>
     </g>
     <g id="line2d_2">
      <defs>
       <path d="
M0 0
L0 0" id="m219da94a98" style="stroke:#262626;"/>
      </defs>
      <g>
       <use style="fill:#262626;stroke:#262626;" x="45.0446875" xlink:href="#m219da94a98" y="183.26"/>
      </g>
     </g>
     <g id="line2d_3">
      <g>
       <use style="fill:#262626;stroke:#262626;" x="45.0446875" xlink:href="#m219da94a98" y="19.89"/>
      </g>
     </g>
    </g>
    <g id="xtick_2">
     <g id="line2d_4">
      <path clip-path="url(#pe273d42b18)" d="
M162.607 183.26
L162.607 19.89" style="fill:none;stroke:#cccccc;stroke-linecap:round;"/>
     </g>
     <g id="line2d_5">
      <g>
       <use style="fill:#262626;stroke:#262626;" x="162.607321716" xlink:href="#m219da94a98" y="183.26"/>
      </g>
     </g>
     <g id="line2d_6">
      <g>
       <use style="fill:#262626;stroke:#262626;" x="162.607321716" xlink:href="#m219da94a98" y="19.89"/>
      </g>
     </g>
     <g id="text_1">
      <!-- 2000 -->
      <defs>
       <path d="
M41.5938 7.29688
Q42.5 7.29688 42.75 7.04688
Q43 6.79688 43 5.90625
L43 1.40625
Q43 0.5 42.75 0.25
Q42.5 0 41.5938 0
L8.09375 0
Q7.29688 0 7.09375 0.25
Q6.90625 0.5 6.90625 1.40625
Q6.90625 6.79688 7.84375 11.25
Q8.79688 15.7031 10.8438 19.5469
Q12.9062 23.4062 16.1562 26.75
Q19.4062 30.0938 23.9062 33.2031
Q26.4062 34.9062 27.7969 35.9062
Q29.2031 36.9062 30.0469 37.5938
Q30.9062 38.2969 31.3438 38.7969
Q31.7969 39.2969 32.4062 40.0938
Q34.9062 43.4062 34.9062 48
Q34.9062 52.9062 32.25 55.75
Q29.5938 58.5938 25.0938 58.5938
Q20.9062 58.5938 18.3438 56.2969
Q15.7969 54 13.7969 48.5938
Q13.5 47.7969 13 47.7969
Q12.7031 47.7969 12.2031 48
L7.79688 49.2969
Q7 49.5938 7 50.2031
Q7 50.7969 7.34375 51.8906
Q7.70312 53 8.29688 54.2031
Q8.90625 55.4062 9.59375 56.6562
Q10.2969 57.9062 11 58.7969
Q16.2031 65.7031 25.5938 65.7031
Q33.7031 65.7031 38.3438 60.8438
Q43 56 43 47.5938
Q43 44.7031 42.3906 42.3438
Q41.7969 40 40.4375 37.8438
Q39.0938 35.7031 36.7969 33.5469
Q34.5 31.4062 31.2031 29
Q27.2969 26.2969 24.5 23.8438
Q21.7031 21.4062 19.8906 18.8438
Q18.0938 16.2969 17.0938 13.5
Q16.0938 10.7031 15.7031 7.29688
z
" id="OfficinaSanITC-Book-32"/>
       <path d="
M25.2969 58.5938
Q19.2969 58.5938 15.9375 51.6406
Q12.5938 44.7031 12.5938 32.0938
Q12.5938 25.5938 13.5 20.3906
Q14.4062 15.2031 16.2031 11.5
Q19 5.70312 25 5.70312
Q31.7969 5.70312 34.5 12.4062
Q36 16 36.75 21.1406
Q37.5 26.2969 37.5 32.5938
Q37.5 58.5938 25.2969 58.5938
M25.9062 65.7031
Q35.5 65.7031 40.5469 57.25
Q45.5938 48.7969 45.5938 32.7969
Q45.5938 16 40.2969 7.29688
Q35 -1.40625 24.9062 -1.40625
Q16.2031 -1.40625 11.4062 5.20312
Q4.5 14.5938 4.5 31.5
Q4.5 39.5938 5.95312 45.9375
Q7.40625 52.2969 10.1562 56.6875
Q12.9062 61.0938 16.8438 63.3906
Q20.7969 65.7031 25.9062 65.7031" id="OfficinaSanITC-Book-30"/>
      </defs>
      <g style="fill:#262626;" transform="translate(150.342634216 199.6728125)scale(0.13 -0.13)">
       <use xlink:href="#OfficinaSanITC-Book-32"/>
       <use x="49.9999847412" xlink:href="#OfficinaSanITC-Book-30"/>
       <use x="99.9999694824" xlink:href="#OfficinaSanITC-Book-30"/>
       <use x="149.999954224" xlink:href="#OfficinaSanITC-Book-30"/>
      </g>
     </g>
    </g>
    <g id="xtick_3">
     <g id="line2d_7">
      <path clip-path="url(#pe273d42b18)" d="
M300.912 183.26
L300.912 19.89" style="fill:none;stroke:#cccccc;stroke-linecap:round;"/>
     </g>
     <g id="line2d_8">
      <g>
       <use style="fill:#262626;stroke:#262626;" x="300.911850185" xlink:href="#m219da94a98" y="183.26"/>
      </g>
     </g>
     <g id="line2d_9">
      <g>
       <use style="fill:#262626;stroke:#262626;" x="300.911850185" xlink:href="#m219da94a98" y="19.89"/>
      </g>
     </g>
     <g id="text_2">
      <!-- 2005 -->
      <defs>
       <path d="
M14.2969 37.0938
Q17.5 39.4062 20.25 40.4062
Q23 41.4062 26.2969 41.4062
Q30.0938 41.4062 33.1875 40
Q36.2969 38.5938 38.5469 36
Q40.7969 33.4062 42.0469 29.7969
Q43.2969 26.2031 43.2969 21.7969
Q43.2969 16.5 41.6875 12.25
Q40.0938 8 37.0938 4.95312
Q34.0938 1.90625 29.8906 0.25
Q25.7031 -1.40625 20.5938 -1.40625
Q17.5 -1.40625 14.25 -1
Q11 -0.59375 8.09375 0.203125
Q6.70312 0.59375 6.70312 1.5
Q6.70312 1.70312 6.70312 1.90625
Q6.70312 2.09375 6.79688 2.29688
L7.79688 6.79688
Q8 7.5 8.70312 7.5
Q8.90625 7.5 9.70312 7.29688
Q13.9062 5.70312 19.5 5.70312
Q27.9062 5.70312 31.4062 9.90625
Q33.2031 12 34.2031 15.0469
Q35.2031 18.0938 35.2031 21.5938
Q35.2031 27.5938 32.4531 30.9375
Q29.7031 34.2969 24.7969 34.2969
Q18.7031 34.2969 13.2031 28.7969
Q12.5938 28.2031 12.2031 28.2031
L11.4062 28.2969
L7.90625 29.4062
Q6.79688 29.7969 6.79688 30.4062
Q6.79688 30.7031 6.90625 31
L10 63.0938
Q10.0938 63.9062 10.3438 64.1562
Q10.5938 64.4062 11.4062 64.4062
L37.4062 64.4062
Q38.2969 64.4062 38.5469 64.1562
Q38.7969 63.9062 38.7969 63
L38.7969 58.7969
Q38.7969 57.9062 38.5469 57.6562
Q38.2969 57.4062 37.4062 57.4062
L16.5 57.4062
z
" id="OfficinaSanITC-Book-35"/>
      </defs>
      <g style="fill:#262626;" transform="translate(288.79645956 199.6728125)scale(0.13 -0.13)">
       <use xlink:href="#OfficinaSanITC-Book-32"/>
       <use x="49.9999847412" xlink:href="#OfficinaSanITC-Book-30"/>
       <use x="99.9999694824" xlink:href="#OfficinaSanITC-Book-30"/>
       <use x="149.999954224" xlink:href="#OfficinaSanITC-Book-35"/>
      </g>
     </g>
    </g>
    <g id="xtick_4">
     <g id="line2d_10">
      <path clip-path="url(#pe273d42b18)" d="
M439.141 183.26
L439.141 19.89" style="fill:none;stroke:#cccccc;stroke-linecap:round;"/>
     </g>
     <g id="line2d_11">
      <g>
       <use style="fill:#262626;stroke:#262626;" x="439.14067831" xlink:href="#m219da94a98" y="183.26"/>
      </g>
     </g>
     <g id="line2d_12">
      <g>
       <use style="fill:#262626;stroke:#262626;" x="439.14067831" xlink:href="#m219da94a98" y="19.89"/>
      </g>
     </g>
     <g id="text_3">
      <!-- 2010 -->
      <defs>
       <path d="
M31 64.4062
Q31.9062 64.4062 32.1562 64.1562
Q32.4062 63.9062 32.4062 63
L32.4062 6.59375
L41.0938 6.59375
Q42 6.59375 42.25 6.34375
Q42.5 6.09375 42.5 5.20312
L42.5 1.40625
Q42.5 0.5 42.25 0.25
Q42 0 41.0938 0
L14.5938 0
Q13.7031 0 13.4531 0.25
Q13.2031 0.5 13.2031 1.40625
L13.2031 5.20312
Q13.2031 6.09375 13.4531 6.34375
Q13.7031 6.59375 14.5938 6.59375
L24.7969 6.59375
L24.7969 55.5
L10.7969 47.4062
Q10.2969 47 9.79688 47
Q9.40625 47 9 47.9062
L7.79688 50.0938
Q7.5 50.5 7.5 51.0938
Q7.5 51.5 8.29688 51.9062
L26 64.4062
z
" id="OfficinaSanITC-Book-31"/>
      </defs>
      <g style="fill:#262626;" transform="translate(427.23349081 199.6728125)scale(0.13 -0.13)">
       <use xlink:href="#OfficinaSanITC-Book-32"/>
       <use x="49.9999847412" xlink:href="#OfficinaSanITC-Book-30"/>
       <use x="98.2499694824" xlink:href="#OfficinaSanITC-Book-31"/>
       <use x="144.499954224" xlink:href="#OfficinaSanITC-Book-30"/>
      </g>
     </g>
    </g>
    <g id="xtick_5">
     <g id="line2d_13">
      <path clip-path="url(#pe273d42b18)" d="
M577.37 183.26
L577.37 19.89" style="fill:none;stroke:#cccccc;stroke-linecap:round;"/>
     </g>
     <g id="line2d_14">
      <g>
       <use style="fill:#262626;stroke:#262626;" x="577.369506435" xlink:href="#m219da94a98" y="183.26"/>
      </g>
     </g>
     <g id="line2d_15">
      <g>
       <use style="fill:#262626;stroke:#262626;" x="577.369506435" xlink:href="#m219da94a98" y="19.89"/>
      </g>
     </g>
     <g id="text_4">
      <!-- 2015 -->
      <g style="fill:#262626;" transform="translate(565.48161581 199.6728125)scale(0.13 -0.13)">
       <use xlink:href="#OfficinaSanITC-Book-32"/>
       <use x="49.9999847412" xlink:href="#OfficinaSanITC-Book-30"/>
       <use x="98.2499694824" xlink:href="#OfficinaSanITC-Book-31"/>
       <use x="146.499954224" xlink:href="#OfficinaSanITC-Book-35"/>
      </g>
     </g>
    </g>
    <g id="xtick_6">
     <g id="line2d_16">
      <path clip-path="url(#pe273d42b18)" d="
M597.96 183.26
L597.96 19.89" style="fill:none;stroke:#cccccc;stroke-linecap:round;"/>
     </g>
     <g id="line2d_17">
      <g>
       <use style="fill:#262626;stroke:#262626;" x="597.96" xlink:href="#m219da94a98" y="183.26"/>
      </g>
     </g>
     <g id="line2d_18">
      <g>
       <use style="fill:#262626;stroke:#262626;" x="597.96" xlink:href="#m219da94a98" y="19.89"/>
      </g>
     </g>
    </g>
    <g id="xtick_7">
     <g id="line2d_19">
      <defs>
       <path d="
M0 0
L0 0" id="m8735711441" style="stroke:#262626;stroke-width:0.5;"/>
      </defs>
      <g>
       <use style="fill:#262626;stroke:#262626;stroke-width:0.5;" x="52.009119147" xlink:href="#m8735711441" y="183.26"/>
      </g>
     </g>
     <g id="line2d_20">
      <g>
       <use style="fill:#262626;stroke:#262626;stroke-width:0.5;" x="52.009119147" xlink:href="#m8735711441" y="19.89"/>
      </g>
     </g>
    </g>
    <g id="xtick_8">
     <g id="line2d_21">
      <g>
       <use style="fill:#262626;stroke:#262626;stroke-width:0.5;" x="79.7154450472" xlink:href="#m8735711441" y="183.26"/>
      </g>
     </g>
     <g id="line2d_22">
      <g>
       <use style="fill:#262626;stroke:#262626;stroke-width:0.5;" x="79.7154450472" xlink:href="#m8735711441" y="19.89"/>
      </g>
     </g>
    </g>
    <g id="xtick_9">
     <g id="line2d_23">
      <g>
       <use style="fill:#262626;stroke:#262626;stroke-width:0.5;" x="107.346070603" xlink:href="#m8735711441" y="183.26"/>
      </g>
     </g>
     <g id="line2d_24">
      <g>
       <use style="fill:#262626;stroke:#262626;stroke-width:0.5;" x="107.346070603" xlink:href="#m8735711441" y="19.89"/>
      </g>
     </g>
    </g>
    <g id="xtick_10">
     <g id="line2d_25">
      <g>
       <use style="fill:#262626;stroke:#262626;stroke-width:0.5;" x="134.97669616" xlink:href="#m8735711441" y="183.26"/>
      </g>
     </g>
     <g id="line2d_26">
      <g>
       <use style="fill:#262626;stroke:#262626;stroke-width:0.5;" x="134.97669616" xlink:href="#m8735711441" y="19.89"/>
      </g>
     </g>
    </g>
    <g id="xtick_11">
     <g id="line2d_27">
      <g>
       <use style="fill:#262626;stroke:#262626;stroke-width:0.5;" x="162.607321716" xlink:href="#m8735711441" y="183.26"/>
      </g>
     </g>
     <g id="line2d_28">
      <g>
       <use style="fill:#262626;stroke:#262626;stroke-width:0.5;" x="162.607321716" xlink:href="#m8735711441" y="19.89"/>
      </g>
     </g>
    </g>
    <g id="xtick_12">
     <g id="line2d_29">
      <g>
       <use style="fill:#262626;stroke:#262626;stroke-width:0.5;" x="190.313647616" xlink:href="#m8735711441" y="183.26"/>
      </g>
     </g>
     <g id="line2d_30">
      <g>
       <use style="fill:#262626;stroke:#262626;stroke-width:0.5;" x="190.313647616" xlink:href="#m8735711441" y="19.89"/>
      </g>
     </g>
    </g>
    <g id="xtick_13">
     <g id="line2d_31">
      <g>
       <use style="fill:#262626;stroke:#262626;stroke-width:0.5;" x="217.944273172" xlink:href="#m8735711441" y="183.26"/>
      </g>
     </g>
     <g id="line2d_32">
      <g>
       <use style="fill:#262626;stroke:#262626;stroke-width:0.5;" x="217.944273172" xlink:href="#m8735711441" y="19.89"/>
      </g>
     </g>
    </g>
    <g id="xtick_14">
     <g id="line2d_33">
      <g>
       <use style="fill:#262626;stroke:#262626;stroke-width:0.5;" x="245.574898728" xlink:href="#m8735711441" y="183.26"/>
      </g>
     </g>
     <g id="line2d_34">
      <g>
       <use style="fill:#262626;stroke:#262626;stroke-width:0.5;" x="245.574898728" xlink:href="#m8735711441" y="19.89"/>
      </g>
     </g>
    </g>
    <g id="xtick_15">
     <g id="line2d_35">
      <g>
       <use style="fill:#262626;stroke:#262626;stroke-width:0.5;" x="273.205524285" xlink:href="#m8735711441" y="183.26"/>
      </g>
     </g>
     <g id="line2d_36">
      <g>
       <use style="fill:#262626;stroke:#262626;stroke-width:0.5;" x="273.205524285" xlink:href="#m8735711441" y="19.89"/>
      </g>
     </g>
    </g>
    <g id="xtick_16">
     <g id="line2d_37">
      <g>
       <use style="fill:#262626;stroke:#262626;stroke-width:0.5;" x="300.911850185" xlink:href="#m8735711441" y="183.26"/>
      </g>
     </g>
     <g id="line2d_38">
      <g>
       <use style="fill:#262626;stroke:#262626;stroke-width:0.5;" x="300.911850185" xlink:href="#m8735711441" y="19.89"/>
      </g>
     </g>
    </g>
    <g id="xtick_17">
     <g id="line2d_39">
      <g>
       <use style="fill:#262626;stroke:#262626;stroke-width:0.5;" x="328.542475741" xlink:href="#m8735711441" y="183.26"/>
      </g>
     </g>
     <g id="line2d_40">
      <g>
       <use style="fill:#262626;stroke:#262626;stroke-width:0.5;" x="328.542475741" xlink:href="#m8735711441" y="19.89"/>
      </g>
     </g>
    </g>
    <g id="xtick_18">
     <g id="line2d_41">
      <g>
       <use style="fill:#262626;stroke:#262626;stroke-width:0.5;" x="356.173101297" xlink:href="#m8735711441" y="183.26"/>
      </g>
     </g>
     <g id="line2d_42">
      <g>
       <use style="fill:#262626;stroke:#262626;stroke-width:0.5;" x="356.173101297" xlink:href="#m8735711441" y="19.89"/>
      </g>
     </g>
    </g>
    <g id="xtick_19">
     <g id="line2d_43">
      <g>
       <use style="fill:#262626;stroke:#262626;stroke-width:0.5;" x="383.803726853" xlink:href="#m8735711441" y="183.26"/>
      </g>
     </g>
     <g id="line2d_44">
      <g>
       <use style="fill:#262626;stroke:#262626;stroke-width:0.5;" x="383.803726853" xlink:href="#m8735711441" y="19.89"/>
      </g>
     </g>
    </g>
    <g id="xtick_20">
     <g id="line2d_45">
      <g>
       <use style="fill:#262626;stroke:#262626;stroke-width:0.5;" x="411.510052754" xlink:href="#m8735711441" y="183.26"/>
      </g>
     </g>
     <g id="line2d_46">
      <g>
       <use style="fill:#262626;stroke:#262626;stroke-width:0.5;" x="411.510052754" xlink:href="#m8735711441" y="19.89"/>
      </g>
     </g>
    </g>
    <g id="xtick_21">
     <g id="line2d_47">
      <g>
       <use style="fill:#262626;stroke:#262626;stroke-width:0.5;" x="439.14067831" xlink:href="#m8735711441" y="183.26"/>
      </g>
     </g>
     <g id="line2d_48">
      <g>
       <use style="fill:#262626;stroke:#262626;stroke-width:0.5;" x="439.14067831" xlink:href="#m8735711441" y="19.89"/>
      </g>
     </g>
    </g>
    <g id="xtick_22">
     <g id="line2d_49">
      <g>
       <use style="fill:#262626;stroke:#262626;stroke-width:0.5;" x="466.771303866" xlink:href="#m8735711441" y="183.26"/>
      </g>
     </g>
     <g id="line2d_50">
      <g>
       <use style="fill:#262626;stroke:#262626;stroke-width:0.5;" x="466.771303866" xlink:href="#m8735711441" y="19.89"/>
      </g>
     </g>
    </g>
    <g id="xtick_23">
     <g id="line2d_51">
      <g>
       <use style="fill:#262626;stroke:#262626;stroke-width:0.5;" x="494.401929422" xlink:href="#m8735711441" y="183.26"/>
      </g>
     </g>
     <g id="line2d_52">
      <g>
       <use style="fill:#262626;stroke:#262626;stroke-width:0.5;" x="494.401929422" xlink:href="#m8735711441" y="19.89"/>
      </g>
     </g>
    </g>
    <g id="xtick_24">
     <g id="line2d_53">
      <g>
       <use style="fill:#262626;stroke:#262626;stroke-width:0.5;" x="522.108255322" xlink:href="#m8735711441" y="183.26"/>
      </g>
     </g>
     <g id="line2d_54">
      <g>
       <use style="fill:#262626;stroke:#262626;stroke-width:0.5;" x="522.108255322" xlink:href="#m8735711441" y="19.89"/>
      </g>
     </g>
    </g>
    <g id="xtick_25">
     <g id="line2d_55">
      <g>
       <use style="fill:#262626;stroke:#262626;stroke-width:0.5;" x="549.738880879" xlink:href="#m8735711441" y="183.26"/>
      </g>
     </g>
     <g id="line2d_56">
      <g>
       <use style="fill:#262626;stroke:#262626;stroke-width:0.5;" x="549.738880879" xlink:href="#m8735711441" y="19.89"/>
      </g>
     </g>
    </g>
    <g id="xtick_26">
     <g id="line2d_57">
      <g>
       <use style="fill:#262626;stroke:#262626;stroke-width:0.5;" x="577.369506435" xlink:href="#m8735711441" y="183.26"/>
      </g>
     </g>
     <g id="line2d_58">
      <g>
       <use style="fill:#262626;stroke:#262626;stroke-width:0.5;" x="577.369506435" xlink:href="#m8735711441" y="19.89"/>
      </g>
     </g>
    </g>
   </g>
   <g id="matplotlib.axis_2">
    <g id="ytick_1">
     <g id="line2d_59">
      <path clip-path="url(#pe273d42b18)" d="
M45.0447 183.26
L597.96 183.26" style="fill:none;stroke:#cccccc;stroke-linecap:round;"/>
     </g>
     <g id="line2d_60">
      <g>
       <use style="fill:#262626;stroke:#262626;" x="45.0446875" xlink:href="#m219da94a98" y="183.26"/>
      </g>
     </g>
     <g id="line2d_61">
      <g>
       <use style="fill:#262626;stroke:#262626;" x="597.96" xlink:href="#m219da94a98" y="183.26"/>
      </g>
     </g>
     <g id="text_5">
      <!-- 0 -->
      <g style="fill:#262626;" transform="translate(32.7025 186.588203125)scale(0.13 -0.13)">
       <use xlink:href="#OfficinaSanITC-Book-30"/>
      </g>
     </g>
    </g>
    <g id="ytick_2">
     <g id="line2d_62">
      <path clip-path="url(#pe273d42b18)" d="
M45.0447 150.586
L597.96 150.586" style="fill:none;stroke:#cccccc;stroke-linecap:round;"/>
     </g>
     <g id="line2d_63">
      <g>
       <use style="fill:#262626;stroke:#262626;" x="45.0446875" xlink:href="#m219da94a98" y="150.586"/>
      </g>
     </g>
     <g id="line2d_64">
      <g>
       <use style="fill:#262626;stroke:#262626;" x="597.96" xlink:href="#m219da94a98" y="150.586"/>
      </g>
     </g>
     <g id="text_6">
      <!-- 200 -->
      <g style="fill:#262626;" transform="translate(20.0153125 153.914203125)scale(0.13 -0.13)">
       <use xlink:href="#OfficinaSanITC-Book-32"/>
       <use x="49.9999847412" xlink:href="#OfficinaSanITC-Book-30"/>
       <use x="99.9999694824" xlink:href="#OfficinaSanITC-Book-30"/>
      </g>
     </g>
    </g>
    <g id="ytick_3">
     <g id="line2d_65">
      <path clip-path="url(#pe273d42b18)" d="
M45.0447 117.912
L597.96 117.912" style="fill:none;stroke:#cccccc;stroke-linecap:round;"/>
     </g>
     <g id="line2d_66">
      <g>
       <use style="fill:#262626;stroke:#262626;" x="45.0446875" xlink:href="#m219da94a98" y="117.912"/>
      </g>
     </g>
     <g id="line2d_67">
      <g>
       <use style="fill:#262626;stroke:#262626;" x="597.96" xlink:href="#m219da94a98" y="117.912"/>
      </g>
     </g>
     <g id="text_7">
      <!-- 400 -->
      <defs>
       <path d="
M29 64.0938
Q29.5 64.9062 30.0938 64.9062
L30.2969 64.9062
L30.7031 64.9062
L35.7031 64.0938
Q36.9062 63.7969 36.9062 63.2031
Q36.9062 62.7969 36.5 62.2969
L11 20.7031
L30.0938 20.7031
L31.2031 36.7969
Q31.2969 37.5938 31.5469 37.8438
Q31.7969 38.0938 32.5938 38.0938
L36.2031 38.0938
Q37.0938 38.0938 37.3438 37.8438
Q37.5938 37.5938 37.5938 36.7031
L37.5938 20.7031
L45.5 20.7031
Q46.4062 20.7031 46.6562 20.4531
Q46.9062 20.2031 46.9062 19.2969
L46.9062 15.5938
Q46.9062 14.7031 46.6562 14.4531
Q46.4062 14.2031 45.5 14.2031
L37.5938 14.2031
L37.5938 0
Q37.5938 -0.90625 37.3438 -1.15625
Q37.0938 -1.40625 36.2031 -1.40625
L31.5 -1.40625
Q30.5938 -1.40625 30.3438 -1.15625
Q30.0938 -0.90625 30.0938 0
L30.0938 14.2031
L4.5 14.2031
Q3.59375 14.2031 3.34375 14.4531
Q3.09375 14.7031 3.09375 15.5938
L3.09375 21.2031
z
" id="OfficinaSanITC-Book-34"/>
      </defs>
      <g style="fill:#262626;" transform="translate(19.5196875 121.240203125)scale(0.13 -0.13)">
       <use xlink:href="#OfficinaSanITC-Book-34"/>
       <use x="49.9999847412" xlink:href="#OfficinaSanITC-Book-30"/>
       <use x="99.9999694824" xlink:href="#OfficinaSanITC-Book-30"/>
      </g>
     </g>
    </g>
    <g id="ytick_4">
     <g id="line2d_68">
      <path clip-path="url(#pe273d42b18)" d="
M45.0447 85.238
L597.96 85.238" style="fill:none;stroke:#cccccc;stroke-linecap:round;"/>
     </g>
     <g id="line2d_69">
      <g>
       <use style="fill:#262626;stroke:#262626;" x="45.0446875" xlink:href="#m219da94a98" y="85.238"/>
      </g>
     </g>
     <g id="line2d_70">
      <g>
       <use style="fill:#262626;stroke:#262626;" x="597.96" xlink:href="#m219da94a98" y="85.238"/>
      </g>
     </g>
     <g id="text_8">
      <!-- 600 -->
      <defs>
       <path d="
M24.9062 36.9062
Q19.7031 36.9062 16.8438 33.1562
Q14 29.4062 14 22.5
Q14 14.4062 16.7969 10.0469
Q19.5938 5.70312 25 5.70312
Q30.4062 5.70312 33.25 9.95312
Q36.0938 14.2031 36.0938 22.2969
Q36.0938 29.5 33.25 33.2031
Q30.4062 36.9062 24.9062 36.9062
M40.7969 58.4062
Q40.5938 57.9062 40.2031 57.9062
Q40 57.9062 39.4062 58.0938
Q36.2969 59.2031 33.0938 59.2031
Q28.9062 59.2031 25.7969 57.5
Q22.7031 55.7969 20 52.0938
Q17.7969 48.9062 16.5938 45.5469
Q15.4062 42.2031 14.7031 37.2969
Q17.7969 40.7969 20.6875 42.2969
Q23.5938 43.7969 27.4062 43.7969
Q31.2031 43.7969 34.2969 42.25
Q37.4062 40.7031 39.5938 37.8906
Q41.7969 35.0938 43 31.1406
Q44.2031 27.2031 44.2031 22.4062
Q44.2031 17.0938 42.7969 12.75
Q41.4062 8.40625 38.8438 5.25
Q36.2969 2.09375 32.75 0.34375
Q29.2031 -1.40625 24.9062 -1.40625
Q20.0938 -1.40625 16.0469 1
Q12 3.40625 9.70312 7.79688
Q7.70312 11.4062 6.79688 15.7031
Q5.90625 20 5.90625 26
Q5.90625 35.0938 7.84375 42.3906
Q9.79688 49.7031 13.3906 54.8906
Q17 60.0938 22.0938 62.8906
Q27.2031 65.7031 33.5 65.7031
Q35.0938 65.7031 36.6406 65.5
Q38.2031 65.2969 39.3906 65
Q40.5938 64.7031 41.3438 64.3438
Q42.0938 64 42.0938 63.5938
Q42.0938 63.4062 42 63
z
" id="OfficinaSanITC-Book-36"/>
      </defs>
      <g style="fill:#262626;" transform="translate(19.8853125 88.566203125)scale(0.13 -0.13)">
       <use xlink:href="#OfficinaSanITC-Book-36"/>
       <use x="49.9999847412" xlink:href="#OfficinaSanITC-Book-30"/>
       <use x="99.9999694824" xlink:href="#OfficinaSanITC-Book-30"/>
      </g>
     </g>
    </g>
    <g id="ytick_5">
     <g id="line2d_71">
      <path clip-path="url(#pe273d42b18)" d="
M45.0447 52.564
L597.96 52.564" style="fill:none;stroke:#cccccc;stroke-linecap:round;"/>
     </g>
     <g id="line2d_72">
      <g>
       <use style="fill:#262626;stroke:#262626;" x="45.0446875" xlink:href="#m219da94a98" y="52.564"/>
      </g>
     </g>
     <g id="line2d_73">
      <g>
       <use style="fill:#262626;stroke:#262626;" x="597.96" xlink:href="#m219da94a98" y="52.564"/>
      </g>
     </g>
     <g id="text_9">
      <!-- 800 -->
      <defs>
       <path d="
M24.7969 30.2031
Q22.2031 29.0938 20.9531 28.5
Q19.7031 27.9062 18.4062 27.0938
Q15.5 25.4062 13.8438 22.4062
Q12.2031 19.4062 12.2031 16.2031
Q12.2031 11.2031 15.75 8.20312
Q19.2969 5.20312 25.2031 5.20312
Q30.7969 5.20312 34.2969 8.29688
Q37.7969 11.4062 37.7969 16.2031
Q37.7969 20.7969 34.75 24.0469
Q31.7031 27.2969 24.7969 30.2031
M25.2969 37.2969
Q30.7031 39.7031 33.0938 42.5938
Q35.5 45.5 35.5 49.7031
Q35.5 54.2031 32.6406 56.75
Q29.7969 59.2969 24.9062 59.2969
Q20.2969 59.2969 17.5 56.6875
Q14.7031 54.0938 14.7031 49.9062
Q14.7031 46.0938 17.25 43.0469
Q19.7969 40 25.2969 37.2969
M18.5938 34.0938
Q6.79688 39 6.79688 49.5938
Q6.79688 56.0938 11.4062 60.7031
Q14 63.2969 17.2969 64.5
Q20.5938 65.7031 25.2031 65.7031
Q29.2031 65.7031 32.5 64.5938
Q35.7969 63.5 38.1406 61.5
Q40.5 59.5 41.7969 56.7031
Q43.0938 53.9062 43.0938 50.5
Q43.0938 44.9062 40.4375 41.0469
Q37.7969 37.2031 31.7969 34.2031
Q38.7969 31.5 42.3906 27.0469
Q46 22.5938 46 16.7031
Q46 13.5938 44.8906 10.6875
Q43.7969 7.79688 41.5 5.29688
Q38.5 1.79688 34.5469 0.1875
Q30.5938 -1.40625 25 -1.40625
Q20.2031 -1.40625 16.3438 -0.09375
Q12.5 1.20312 9.75 3.54688
Q7 5.90625 5.5 9.20312
Q4 12.5 4 16.5938
Q4 20.2969 5.5 23.5938
Q7 26.9062 9.70312 29.2969
Q11.4062 30.7031 13.3438 31.75
Q15.2969 32.7969 18.5938 34.0938" id="OfficinaSanITC-Book-38"/>
      </defs>
      <g style="fill:#262626;" transform="translate(19.6375 55.892203125)scale(0.13 -0.13)">
       <use xlink:href="#OfficinaSanITC-Book-38"/>
       <use x="49.9999847412" xlink:href="#OfficinaSanITC-Book-30"/>
       <use x="99.9999694824" xlink:href="#OfficinaSanITC-Book-30"/>
      </g>
     </g>
    </g>
    <g id="ytick_6">
     <g id="line2d_74">
      <path clip-path="url(#pe273d42b18)" d="
M45.0447 19.89
L597.96 19.89" style="fill:none;stroke:#cccccc;stroke-linecap:round;"/>
     </g>
     <g id="line2d_75">
      <g>
       <use style="fill:#262626;stroke:#262626;" x="45.0446875" xlink:href="#m219da94a98" y="19.89"/>
      </g>
     </g>
     <g id="line2d_76">
      <g>
       <use style="fill:#262626;stroke:#262626;" x="597.96" xlink:href="#m219da94a98" y="19.89"/>
      </g>
     </g>
     <g id="text_10">
      <!-- 1000 -->
      <g style="fill:#262626;" transform="translate(14.08 23.218203125)scale(0.13 -0.13)">
       <use xlink:href="#OfficinaSanITC-Book-31"/>
       <use x="46.2499847412" xlink:href="#OfficinaSanITC-Book-30"/>
       <use x="96.2499694824" xlink:href="#OfficinaSanITC-Book-30"/>
       <use x="146.249954224" xlink:href="#OfficinaSanITC-Book-30"/>
      </g>
     </g>
    </g>
   </g>
   <g id="patch_3">
    <path clip-path="url(#pe273d42b18)" d="
M53.9773 183.26
L53.9773 19.89
L54.6586 19.89
L54.6586 183.26
z
" style="fill:#fff8dc;opacity:0.4;"/>
   </g>
   <g id="patch_4">
    <path clip-path="url(#pe273d42b18)" d="
M54.7343 183.26
L54.7343 19.89
L62.3044 19.89
L62.3044 183.26
z
" style="fill:#fff8dc;opacity:0.4;"/>
   </g>
   <g id="patch_5">
    <path clip-path="url(#pe273d42b18)" d="
M62.3801 183.26
L62.3801 19.89
L78.2014 19.89
L78.2014 183.26
z
" style="fill:#fff8dc;opacity:0.4;"/>
   </g>
   <g id="patch_6">
    <path clip-path="url(#pe273d42b18)" d="
M78.2771 183.26
L78.2771 19.89
L79.564 19.89
L79.564 183.26
z
" style="fill:#fff8dc;opacity:0.4;"/>
   </g>
   <g id="patch_7">
    <path clip-path="url(#pe273d42b18)" d="
M80.0182 183.26
L80.0182 19.89
L81.3809 19.89
L81.3809 183.26
z
" style="fill:#fff8dc;opacity:0.4;"/>
   </g>
   <g id="patch_8">
    <path clip-path="url(#pe273d42b18)" d="
M81.4566 183.26
L81.4566 19.89
L81.608 19.89
L81.608 183.26
z
" style="fill:#fff8dc;opacity:0.4;"/>
   </g>
   <g id="patch_9">
    <path clip-path="url(#pe273d42b18)" d="
M81.6837 183.26
L81.6837 19.89
L137.929 19.89
L137.929 183.26
z
" style="fill:#fff8dc;opacity:0.4;"/>
   </g>
   <g id="patch_10">
    <path clip-path="url(#pe273d42b18)" d="
M138.005 183.26
L138.005 19.89
L165.938 19.89
L165.938 183.26
z
" style="fill:#fff8dc;opacity:0.4;"/>
   </g>
   <g id="patch_11">
    <path clip-path="url(#pe273d42b18)" d="
M166.014 183.26
L166.014 19.89
L207.422 19.89
L207.422 183.26
z
" style="fill:#fff8dc;opacity:0.4;"/>
   </g>
   <g id="patch_12">
    <path clip-path="url(#pe273d42b18)" d="
M220.367 183.26
L220.367 19.89
L238.913 19.89
L238.913 183.26
z
" style="fill:#fff8dc;opacity:0.4;"/>
   </g>
   <g id="patch_13">
    <path clip-path="url(#pe273d42b18)" d="
M244.515 183.26
L244.515 19.89
L294.78 19.89
L294.78 183.26
z
" style="fill:#fff8dc;opacity:0.4;"/>
   </g>
   <g id="patch_14">
    <path clip-path="url(#pe273d42b18)" d="
M299.549 183.26
L299.549 19.89
L328.467 19.89
L328.467 183.26
z
" style="fill:#fff8dc;opacity:0.4;"/>
   </g>
   <g id="patch_15">
    <path clip-path="url(#pe273d42b18)" d="
M328.542 183.26
L328.542 19.89
L335.583 19.89
L335.583 183.26
z
" style="fill:#fff8dc;opacity:0.4;"/>
   </g>
   <g id="patch_16">
    <path clip-path="url(#pe273d42b18)" d="
M335.658 183.26
L335.658 19.89
L375.477 19.89
L375.477 183.26
z
" style="fill:#fff8dc;opacity:0.4;"/>
   </g>
   <g id="patch_17">
    <path clip-path="url(#pe273d42b18)" d="
M389.027 183.26
L389.027 19.89
L400.458 19.89
L400.458 183.26
z
" style="fill:#fff8dc;opacity:0.4;"/>
   </g>
   <g id="patch_18">
    <path clip-path="url(#pe273d42b18)" d="
M416.128 183.26
L416.128 19.89
L434.447 19.89
L434.447 183.26
z
" style="fill:#fff8dc;opacity:0.4;"/>
   </g>
   <g id="patch_19">
    <path clip-path="url(#pe273d42b18)" d="
M440.73 183.26
L440.73 19.89
L465.787 19.89
L465.787 183.26
z
" style="fill:#fff8dc;opacity:0.4;"/>
   </g>
   <g id="patch_20">
    <path clip-path="url(#pe273d42b18)" d="
M465.863 183.26
L465.863 19.89
L472.373 19.89
L472.373 183.26
z
" style="fill:#fff8dc;opacity:0.4;"/>
   </g>
   <g id="patch_21">
    <path clip-path="url(#pe273d42b18)" d="
M472.449 183.26
L472.449 19.89
L515.674 19.89
L515.674 183.26
z
" style="fill:#fff8dc;opacity:0.4;"/>
   </g>
   <g id="patch_22">
    <path clip-path="url(#pe273d42b18)" d="
M519.837 183.26
L519.837 19.89
L541.412 19.89
L541.412 183.26
z
" style="fill:#fff8dc;opacity:0.4;"/>
   </g>
   <g id="patch_23">
    <path clip-path="url(#pe273d42b18)" d="
M558.369 183.26
L558.369 19.89
L561.018 19.89
L561.018 183.26
z
" style="fill:#fff8dc;opacity:0.4;"/>
   </g>
   <g id="patch_24">
    <path clip-path="url(#pe273d42b18)" d="
M54.6586 183.26
L54.6586 19.89
L54.7343 19.89
L54.7343 183.26
z
" style="fill:#b0c4de;opacity:0.4;"/>
   </g>
   <g id="patch_25">
    <path clip-path="url(#pe273d42b18)" d="
M62.3044 183.26
L62.3044 19.89
L62.3801 19.89
L62.3801 183.26
z
" style="fill:#b0c4de;opacity:0.4;"/>
   </g>
   <g id="patch_26">
    <path clip-path="url(#pe273d42b18)" d="
M78.2014 183.26
L78.2014 19.89
L78.2771 19.89
L78.2771 183.26
z
" style="fill:#b0c4de;opacity:0.4;"/>
   </g>
   <g id="patch_27">
    <path clip-path="url(#pe273d42b18)" d="
M79.564 183.26
L79.564 19.89
L80.0182 19.89
L80.0182 183.26
z
" style="fill:#b0c4de;opacity:0.4;"/>
   </g>
   <g id="patch_28">
    <path clip-path="url(#pe273d42b18)" d="
M81.3809 183.26
L81.3809 19.89
L81.4566 19.89
L81.4566 183.26
z
" style="fill:#b0c4de;opacity:0.4;"/>
   </g>
   <g id="patch_29">
    <path clip-path="url(#pe273d42b18)" d="
M81.608 183.26
L81.608 19.89
L81.6837 19.89
L81.6837 183.26
z
" style="fill:#b0c4de;opacity:0.4;"/>
   </g>
   <g id="patch_30">
    <path clip-path="url(#pe273d42b18)" d="
M137.929 183.26
L137.929 19.89
L138.005 19.89
L138.005 183.26
z
" style="fill:#b0c4de;opacity:0.4;"/>
   </g>
   <g id="patch_31">
    <path clip-path="url(#pe273d42b18)" d="
M165.938 183.26
L165.938 19.89
L166.014 19.89
L166.014 183.26
z
" style="fill:#b0c4de;opacity:0.4;"/>
   </g>
   <g id="patch_32">
    <path clip-path="url(#pe273d42b18)" d="
M328.467 183.26
L328.467 19.89
L328.542 19.89
L328.542 183.26
z
" style="fill:#b0c4de;opacity:0.4;"/>
   </g>
   <g id="patch_33">
    <path clip-path="url(#pe273d42b18)" d="
M335.583 183.26
L335.583 19.89
L335.658 19.89
L335.658 183.26
z
" style="fill:#b0c4de;opacity:0.4;"/>
   </g>
   <g id="patch_34">
    <path clip-path="url(#pe273d42b18)" d="
M465.787 183.26
L465.787 19.89
L465.863 19.89
L465.863 183.26
z
" style="fill:#b0c4de;opacity:0.4;"/>
   </g>
   <g id="patch_35">
    <path clip-path="url(#pe273d42b18)" d="
M472.373 183.26
L472.373 19.89
L472.449 19.89
L472.449 183.26
z
" style="fill:#b0c4de;opacity:0.4;"/>
   </g>
   <g id="patch_36">
    <path clip-path="url(#pe273d42b18)" d="
M45.0447 183.26
L45.0447 19.89
L53.9773 19.89
L53.9773 183.26
z
" style="fill:#cd5c5c;opacity:0.4;"/>
   </g>
   <g id="patch_37">
    <path clip-path="url(#pe273d42b18)" d="
M207.422 183.26
L207.422 19.89
L220.367 19.89
L220.367 183.26
z
" style="fill:#cd5c5c;opacity:0.4;"/>
   </g>
   <g id="patch_38">
    <path clip-path="url(#pe273d42b18)" d="
M238.913 183.26
L238.913 19.89
L244.515 19.89
L244.515 183.26
z
" style="fill:#cd5c5c;opacity:0.4;"/>
   </g>
   <g id="patch_39">
    <path clip-path="url(#pe273d42b18)" d="
M294.78 183.26
L294.78 19.89
L299.549 19.89
L299.549 183.26
z
" style="fill:#cd5c5c;opacity:0.4;"/>
   </g>
   <g id="patch_40">
    <path clip-path="url(#pe273d42b18)" d="
M375.477 183.26
L375.477 19.89
L389.027 19.89
L389.027 183.26
z
" style="fill:#cd5c5c;opacity:0.4;"/>
   </g>
   <g id="patch_41">
    <path clip-path="url(#pe273d42b18)" d="
M400.458 183.26
L400.458 19.89
L416.128 19.89
L416.128 183.26
z
" style="fill:#cd5c5c;opacity:0.4;"/>
   </g>
   <g id="patch_42">
    <path clip-path="url(#pe273d42b18)" d="
M434.447 183.26
L434.447 19.89
L440.73 19.89
L440.73 183.26
z
" style="fill:#cd5c5c;opacity:0.4;"/>
   </g>
   <g id="patch_43">
    <path clip-path="url(#pe273d42b18)" d="
M515.674 183.26
L515.674 19.89
L519.837 19.89
L519.837 183.26
z
" style="fill:#cd5c5c;opacity:0.4;"/>
   </g>
   <g id="patch_44">
    <path clip-path="url(#pe273d42b18)" d="
M541.412 183.26
L541.412 19.89
L558.369 19.89
L558.369 183.26
z
" style="fill:#cd5c5c;opacity:0.4;"/>
   </g>
   <g id="patch_45">
    <path clip-path="url(#pe273d42b18)" d="
M561.018 183.26
L561.018 19.89
L598.036 19.89
L598.036 183.26
z
" style="fill:#cd5c5c;opacity:0.4;"/>
   </g>
   <g id="line2d_77">
    <path clip-path="url(#pe273d42b18)" d="
M45.0447 108.339
L45.5746 115.088
L45.726 114.706
L45.8017 114.822
L46.1045 115.747
L46.483 116.822
L46.8615 118.086
L48.2998 125.333
L50.3437 137.34
L50.4194 137.402
L50.6465 130.533
L50.7979 130.041
L51.4035 131.146
L51.7063 132.351
L51.782 132.294
L52.2362 130.709
L52.3119 130.602
L52.539 130.845
L52.8418 130.738
L53.0689 131.01
L53.1446 130.208
L53.4474 123.464
L53.7502 118.79
L53.9773 107.971
L54.2044 101.377
L54.5072 99.5093
L54.6586 85.3695
L54.7343 86.732
L55.0371 101.286
L55.567 114.451
L55.7184 116.295
L55.8698 115.597
L56.4754 124.139
L56.6268 124.35
L56.7025 124.202
L56.7782 122.546
L57.081 111.761
L57.3838 104.062
L57.7623 94.8442
L58.4436 84.6054
L58.595 83.255
L58.8979 79.2939
L59.125 73.4698
L59.882 63.8587
L60.2605 62.516
L60.4876 62.1309
L60.639 61.3922
L61.1689 54.7853
L61.5474 51.0724
L62.0773 45.1449
L62.2287 41.357
L62.3044 31.6691
L62.3801 34.4593
L62.4558 33.6435
L62.6072 35.7122
L62.6829 36.6802
L62.7586 36.3817
L62.9857 34.1756
L63.7427 28.01
L64.1212 26.6184
L64.2726 26.6184
L64.3483 26.6728
L64.5754 27.2163
L64.6511 27.2163
L65.0296 29.6293
L65.7109 35.7475
L66.1651 37.5751
L66.3922 37.9262
L66.8464 39.933
L67.452 43.7378
L68.1333 46.715
L68.8146 50.6699
L68.8903 50.5859
L68.966 50.8208
L69.5716 54.9345
L70.2529 58.2659
L70.6314 59.6469
L71.0856 61.5373
L71.1613 61.4407
L71.7669 62.5802
L71.9183 62.516
L72.2211 63.1732
L72.2968 63.0133
L73.0538 67.012
L74.1136 74.1429
L74.6435 77.0666
L75.022 79.4578
L75.9304 86.3318
L76.2332 88.3393
L76.3089 88.3959
L76.4603 85.9315
L76.536 85.8885
L76.6117 86.0548
L76.6874 86.5605
L76.7631 86.1316
L76.9145 86.8893
L77.3687 91.1603
L77.4444 91.0487
L77.5201 91.2021
L77.5958 92.2967
L77.6715 91.5227
L77.9743 104.849
L78.1257 102.219
L78.2014 93.2472
L78.2771 93.6032
L78.807 106.794
L79.0341 102.578
L79.2612 104.849
L79.3369 104.062
L79.4883 111.223
L79.564 108.906
L79.6397 102.076
L79.7911 42.0484
L79.8668 46.4597
L80.6995 121.427
L80.9267 125.779
L81.0781 126.212
L81.2295 124.988
L81.3809 118.678
L81.5323 123.027
L81.6837 111.569
L82.0622 122.386
L82.1379 122.493
L82.365 124.633
L82.5921 127.145
L82.7435 126.706
L83.122 123.389
L83.879 115.354
L84.2575 118.153
L84.3332 117.997
L84.9388 116.055
L85.7715 111.88
L86.5285 106.108
L86.8313 105.517
L86.907 105.479
L87.8154 102.63
L88.6481 93.3841
L89.3294 89.8472
L89.5565 88.3535
L90.5406 82.2609
L90.7677 81.719
L90.8434 81.7043
L90.9948 81.4315
L91.1462 81.499
L91.2976 81.5725
L91.3733 81.3808
L91.6761 77.9359
L91.8275 77.3814
L91.9032 77.621
L92.1303 78.4152
L92.3574 79.0856
L92.5088 79.3237
L92.5845 79.264
L92.8116 79.4723
L92.8873 79.4426
L93.1901 81.4104
L93.5686 84.4323
L94.1742 86.6034
L95.234 89.791
L95.3097 89.805
L95.991 91.5088
L96.1424 91.6197
L96.2938 91.7026
L96.748 92.794
L97.2779 94.2604
L97.4293 94.3421
L97.5807 94.3964
L97.8835 94.0961
L98.1106 93.9865
L99.2461 91.744
L99.5489 90.8396
L99.776 91.2579
L100.003 91.744
L100.23 92.3934
L100.382 92.5178
L100.533 93.1103
L101.214 96.3976
L101.441 96.7742
L101.971 99.6018
L102.35 102.011
L102.728 103.489
L103.107 105.856
L104.469 112.57
L104.545 112.653
L104.697 111.845
L105.151 112.901
L105.378 113.901
L105.681 111.426
L106.211 112.286
L106.362 112.298
L106.74 112.523
L107.27 114.451
L107.497 115.203
L107.8 114.018
L108.027 113.784
L108.103 112.06
L108.254 104.392
L108.33 104.647
L108.633 91.3974
L108.709 90.756
L109.39 95.3869
L109.541 94.6542
L109.617 94.7084
L109.693 94.7764
L109.768 92.9184
L109.844 86.0031
L110.071 98.6515
L110.298 95.5498
L110.374 95.9137
L110.45 95.7523
L110.601 95.0342
L110.753 93.3977
L111.055 97.7619
L111.131 97.6022
L111.358 94.3557
L111.585 92.3934
L111.888 91.3415
L112.494 86.2174
L112.948 84.0544
L113.099 82.6711
L113.175 82.9493
L113.402 85.3551
L113.478 84.9658
L113.705 74.4319
L113.932 73.6995
L114.765 67.5315
L114.916 67.248
L114.992 67.3426
L115.295 63.4921
L115.522 63.1574
L115.749 61.4729
L116.052 58.8021
L116.354 59.0782
L116.43 59.0134
L116.733 57.6118
L116.809 57.4809
L117.187 58.1024
L117.263 58.0206
L117.339 58.2169
L117.641 61.5213
L117.944 64.0022
L118.247 62.2592
L118.398 60.6172
L118.625 60.1168
L118.777 60.6012
L118.928 59.5007
L119.155 56.8267
L119.912 39.6898
L120.291 36.4871
L120.518 34.7416
L120.669 34.211
L120.896 34.6887
L120.972 34.8122
L121.124 34.2466
L122.108 28.1722
L122.259 28.0459
L122.638 28.9293
L122.865 29.5398
L123.697 33.5015
L124.227 37.5751
L124.454 38.747
L125.136 43.4801
L125.287 44.2187
L126.195 50.284
L126.347 50.8208
L126.423 50.6531
L126.952 54.6858
L127.861 65.7017
L128.315 70.8853
L128.845 74.371
L129.753 79.8291
L130.056 81.5579
L130.359 83.3568
L130.813 84.7784
L130.965 85.1101
L131.116 85.9457
L131.343 87.7862
L131.873 91.6197
L132.024 92.2276
L132.176 91.9099
L132.479 93.2882
L133.008 88.2968
L133.084 88.3959
L133.236 88.6511
L133.614 89.6222
L133.69 89.6643
L133.841 89.8472
L133.917 89.791
L134.068 89.8895
L134.295 89.7769
L134.522 90.1845
L134.825 91.1463
L134.977 91.5645
L135.279 92.6836
L135.355 92.7112
L136.112 95.5769
L136.188 95.4818
L136.264 94.3557
L136.415 86.0173
L136.491 86.9037
L136.642 90.6166
L137.323 96.196
L137.475 96.0346
L137.551 96.1289
L137.626 96.4516
L137.702 97.2825
L137.853 93.2472
L137.929 83.1243
L138.005 83.3568
L138.308 92.6697
L138.459 94.7764
L138.535 94.5728
L138.762 102.27
L138.837 101.442
L138.913 101.714
L139.065 102.037
L139.216 101.701
L139.367 102.296
L139.67 98.4667
L139.746 98.2947
L139.822 98.4667
L139.897 98.3612
L139.973 97.9351
L140.276 94.7492
L140.503 93.2882
L142.168 80.2738
L142.471 77.7859
L143.001 71.6107
L143.909 60.3912
L144.666 54.1225
L145.499 45.5718
L145.65 44.8199
L145.953 39.5153
L146.332 34.5476
L146.559 33.271
L146.71 33.0581
L146.862 33.0581
L146.937 33.0227
L147.77 28.8391
L147.846 28.8932
L147.921 28.785
L148.149 28.1361
L148.224 28.0279
L148.3 28.2622
L149.965 44.2704
L150.874 53.9901
L151.252 56.7286
L151.328 56.7776
L151.706 58.1351
L151.782 58.2006
L151.934 58.1187
L152.463 58.7046
L152.539 58.6559
L152.766 59.2569
L152.842 59.1757
L152.918 59.2083
L153.448 60.5043
L153.523 60.5043
L154.205 62.0507
L154.583 61.1823
L154.659 61.3438
L154.962 62.3556
L156.021 68.0026
L158.974 86.2032
L159.277 86.9179
L159.428 87.0753
L159.655 86.9895
L160.109 88.4528
L160.261 88.4102
L160.336 88.325
L160.715 89.2285
L161.018 89.5238
L161.245 90.2541
L161.472 90.3796
L162.305 95.4276
L163.213 99.9553
L163.591 101.545
L163.667 101.908
L163.743 101.882
L163.819 101.804
L164.273 95.5498
L164.5 83.3713
L164.727 88.311
L165.03 91.9927
L165.181 92.7527
L165.257 92.573
L165.484 93.0417
L165.56 93.0966
L165.635 92.946
L165.711 91.979
L165.938 76.4477
L166.014 76.5684
L166.468 91.5645
L166.544 91.4113
L166.695 88.5095
L166.847 90.2682
L166.998 84.7784
L167.376 87.8998
L167.604 86.1888
L167.982 83.1679
L168.133 82.3927
L168.663 78.2355
L169.118 75.5418
L169.496 72.9645
L169.723 71.3177
L169.95 69.5342
L170.177 68.7063
L170.556 66.7287
L170.632 66.9332
L170.859 66.2562
L171.086 66.9963
L171.237 67.6259
L171.313 67.5944
L171.616 68.5813
L172.07 72.212
L172.221 73.1637
L172.524 70.7454
L172.751 70.0467
L173.66 60.4234
L174.189 55.6592
L174.568 55.083
L174.795 54.487
L174.946 54.5202
L175.401 53.4598
L175.476 53.6752
L175.628 53.5096
L175.703 53.5924
L175.855 54.6528
L176.082 55.9719
L176.233 56.4658
L176.839 61.3922
L177.142 63.3806
L177.293 64.0661
L178.504 74.66
L178.731 75.5872
L178.807 75.5418
L179.186 76.7949
L179.337 77.4413
L179.413 77.3663
L179.488 77.6361
L179.564 77.5163
L179.64 77.4564
L179.716 77.6661
L180.018 76.8553
L180.094 76.8251
L180.246 76.9308
L180.624 75.8741
L180.775 75.9043
L180.851 75.9194
L180.927 76.1308
L181.003 76.1006
L181.305 75.7081
L181.381 75.7081
L182.062 73.623
L182.138 73.7149
L182.214 73.9138
L182.289 73.8527
L182.592 73.2249
L183.046 74.4775
L183.879 77.9956
L184.485 81.8948
L185.242 88.0699
L185.393 88.4668
L185.469 88.325
L185.545 88.3817
L186.074 89.566
L186.15 89.566
L186.302 89.7629
L186.377 89.791
L186.453 89.6786
L186.529 89.9035
L186.907 89.3129
L187.059 89.2567
L187.361 89.791
L187.74 91.5227
L187.891 91.6334
L188.118 91.9236
L188.27 92.1861
L188.497 92.2552
L188.724 92.9597
L188.875 92.5178
L189.102 92.5039
L189.254 92.8216
L189.33 92.6973
L189.557 93.3019
L190.011 95.007
L190.087 95.102
L190.465 97.2958
L191.449 102.232
L191.676 102.95
L191.752 103.015
L191.903 103.246
L191.979 103.181
L192.282 102.245
L192.585 102.912
L192.736 103.4
L193.115 104.443
L193.266 104.685
L193.417 103.731
L193.644 102.989
L193.872 102.848
L193.947 102.861
L194.023 102.655
L194.401 99.219
L194.629 97.6687
L194.856 97.3225
L195.007 96.4516
L195.31 93.7538
L195.688 92.2828
L195.84 91.8823
L195.991 91.5506
L196.143 91.4251
L196.521 89.3129
L196.975 85.3408
L197.278 83.851
L197.581 83.5022
L197.808 83.2114
L198.111 83.0225
L198.262 83.0807
L198.489 82.2317
L199.7 71.3793
L199.928 70.2797
L200.23 68.3624
L200.609 67.5628
L200.76 67.4055
L201.063 67.4684
L201.139 67.3897
L201.366 67.8148
L201.593 69.3944
L201.744 69.8603
L202.88 79.5318
L204.243 89.1723
L205.075 95.0342
L205.529 98.2815
L206.816 105.907
L207.043 106.519
L208.103 110.959
L209.542 117.082
L209.92 118.712
L210.299 120.13
L210.677 122.02
L211.131 124.602
L211.813 128.592
L212.115 130.248
L213.175 135.97
L214.084 139.56
L214.462 140.28
L214.841 141.522
L214.916 141.464
L215.068 141.287
L215.219 140.519
L215.37 140.715
L215.446 140.647
L215.598 140.485
L215.976 137.598
L216.127 137.455
L216.43 137.633
L216.96 135.752
L217.339 132.998
L217.414 132.998
L217.566 132.657
L217.793 130.218
L218.323 118.522
L218.701 113.737
L219.383 109.554
L219.458 109.468
L220.594 103.04
L220.669 102.989
L220.745 102.758
L221.199 99.89
L221.426 98.7703
L221.654 96.9624
L221.881 90.3239
L222.335 84.8505
L222.562 83.3713
L222.638 83.4004
L222.713 83.1389
L222.789 81.763
L223.016 75.4353
L223.243 74.1429
L223.319 74.1125
L223.622 73.1483
L223.773 73.0717
L223.925 72.8268
L224.076 71.4256
L224.53 66.3036
L224.984 62.4196
L225.212 60.5365
L225.666 58.4122
L225.741 58.2496
L225.893 57.0884
L225.969 57.1047
L226.12 57.4318
L226.347 58.9158
L226.423 58.7696
L226.574 58.6071
L226.801 58.8508
L226.953 59.2408
L227.104 58.7371
L227.18 58.7858
L227.255 58.9158
L227.331 58.8021
L227.71 56.7776
L227.785 56.843
L227.937 57.1866
L228.391 55.5274
L229.299 48.9354
L229.754 47.2414
L229.829 46.9019
L229.905 46.9527
L230.056 47.2414
L230.359 47.8016
L230.738 50.9718
L232.327 64.2414
L234.068 84.345
L235.885 93.6579
L236.037 93.7811
L236.188 93.8223
L236.642 94.4779
L236.718 94.3557
L236.794 94.4235
L238.232 98.2148
L238.913 101.804
L240.049 106.295
L240.352 107.502
L240.427 107.515
L240.957 108.662
L241.411 109.615
L241.487 109.529
L241.714 108.366
L241.941 107.885
L242.093 107.823
L242.547 108.711
L242.623 108.784
L242.85 109.419
L243.077 110.1
L244.061 112.665
L244.137 112.357
L244.666 102.437
L244.894 100.648
L245.045 100.387
L245.121 100.426
L245.196 100.165
L245.423 96.5724
L245.651 94.3828
L246.559 88.6229
L246.786 88.155
L246.938 88.311
L247.165 87.161
L247.392 85.4128
L247.543 85.3118
L247.77 84.9514
L247.922 85.3695
L248.149 86.0745
L248.224 86.0602
L248.376 86.6034
L248.906 90.7142
L249.209 93.165
L249.738 95.9271
L250.041 96.6398
L250.193 97.0028
L250.495 96.2632
L250.571 96.1691
L250.723 96.3708
L250.874 96.3035
L251.025 95.5089
L251.328 92.0066
L251.631 90.3378
L251.934 86.1888
L252.237 82.5832
L252.918 76.6591
L253.221 73.286
L253.448 65.5433
L255.113 41.7893
L255.87 34.3884
L256.4 30.8307
L256.779 27.1801
L257.081 25.2946
L257.157 25.4585
L257.46 25.8573
L257.611 25.7849
L257.687 25.8754
L257.763 25.6398
L258.217 27.6854
L258.444 28.6228
L258.898 31.3659
L258.974 31.3303
L259.428 33.1823
L259.731 35.1298
L260.109 37.856
L260.488 40.3844
L260.715 42.0137
L261.775 55.8237
L262.078 59.387
L262.683 63.811
L263.516 67.5944
L263.97 69.1598
L264.349 70.4814
L264.803 71.626
L265.106 72.6583
L266.165 75.7382
L266.317 76.1006
L266.695 77.7859
L269.042 93.8358
L269.269 94.7628
L271.237 104.011
L271.389 103.528
L271.464 103.719
L271.54 103.655
L272.07 100.936
L272.146 101.131
L272.221 101.079
L272.297 101.131
L272.524 100.805
L273.054 96.5994
L273.13 96.2632
L273.433 92.2276
L273.584 91.9099
L273.811 92.3105
L274.114 93.0829
L274.19 92.9732
L274.341 93.5483
L274.417 93.4936
L275.022 92.8216
L275.098 92.8631
L275.249 92.3934
L275.552 92.8907
L275.628 92.794
L275.931 91.2858
L276.158 91.1324
L276.612 91.2299
L276.688 91.0487
L276.915 86.0317
L277.066 87.2038
L277.293 89.791
L277.369 89.2567
L277.596 83.1969
L278.05 79.2194
L278.277 78.3703
L279.489 68.4093
L279.716 67.736
L279.867 67.8777
L280.019 67.8304
L280.246 67.374
L280.397 66.7444
L280.473 67.2167
L280.851 73.1483
L281.078 74.5992
L281.684 80.4362
L281.987 81.0414
L282.29 80.3034
L282.517 79.9482
L282.819 78.6052
L282.971 78.8329
L283.122 78.7584
L283.425 79.264
L283.576 79.16
L283.804 79.16
L283.955 79.1451
L284.258 79.621
L284.409 79.7102
L284.863 79.5913
L285.015 79.7548
L285.09 79.6061
L286.15 85.1101
L286.604 88.5095
L287.21 93.918
L288.648 108.796
L289.178 112.546
L289.708 115.019
L290.314 116.776
L290.617 117.794
L290.844 118.042
L291.676 119.589
L291.752 119.644
L291.828 119.909
L291.979 119.787
L292.131 119.765
L292.358 120.063
L292.736 120.828
L292.812 120.818
L293.19 121.686
L293.266 121.621
L293.418 121.47
L294.402 122.408
L294.477 122.546
L295.007 125.552
L295.234 126.367
L295.537 125.655
L295.613 125.707
L295.764 125.8
L295.991 124.988
L296.143 125.02
L296.446 126.006
L296.975 127.795
L297.051 127.664
L297.203 127.502
L297.43 127.765
L297.808 128.951
L298.187 129.933
L298.338 129.805
L298.944 130.208
L299.019 130.1
L299.322 127.084
L299.625 126.378
L299.776 126.326
L300.079 125.696
L300.155 125.861
L300.231 125.8
L300.382 125.789
L300.533 125.944
L300.609 125.81
L300.685 125.416
L301.063 115.192
L301.366 113.456
L301.82 101.247
L302.123 98.5327
L302.35 97.2825
L302.729 94.4508
L303.334 87.0467
L303.788 85.2398
L303.864 85.1245
L304.167 88.9192
L304.243 88.8348
L304.394 87.6444
L304.697 84.692
L304.848 85.9745
L304.924 85.9745
L305.53 80.8938
L305.832 78.3253
L306.135 76.312
L306.438 75.5872
L306.514 75.4811
L306.589 75.557
L306.892 78.565
L306.968 75.9798
L307.119 66.9647
L307.422 74.0973
L307.498 73.7454
L307.801 72.3509
L308.179 67.4684
L308.482 62.1149
L308.86 57.5953
L309.012 55.8072
L309.315 53.0605
L309.542 51.5591
L310.299 43.9268
L310.601 38.4327
L310.829 35.0063
L310.98 35.3239
L311.056 35.1122
L311.207 33.4839
L311.283 34.6534
L311.358 31.7227
L311.434 32.0972
L311.737 35.8181
L311.813 35.4476
L312.04 29.0013
L312.191 26.0566
L312.57 28.5867
L312.721 28.082
L312.873 28.3704
L313.175 24.7298
L313.251 24.7663
L313.63 26.4554
L314.084 30.7231
L314.159 30.6873
L314.387 31.0985
L314.462 31.0449
L314.538 30.8665
L314.614 30.9201
L314.689 30.7948
L314.992 31.2589
L316.052 37.3822
L318.399 56.5666
L319.004 60.4058
L319.231 61.8581
L319.458 63.3169
L320.291 69.6896
L320.443 70.4038
L320.821 72.551
L321.427 76.4175
L322.032 78.9518
L322.714 83.7783
L323.092 86.818
L323.849 90.6585
L324.455 93.0281
L325.439 96.8683
L325.742 98.0018
L325.969 99.0343
L326.044 99.1266
L326.12 98.8495
L326.196 97.8819
L326.347 93.6579
L326.877 92.5315
L327.028 92.7664
L327.331 92.3381
L327.407 92.5315
L327.483 92.1033
L327.785 83.1969
L327.861 78.2503
L327.937 78.3404
L328.391 107.404
L328.542 76.4327
L328.618 76.6893
L328.845 93.9455
L329.299 119.312
L329.527 123.717
L329.602 123.464
L329.678 123.506
L329.754 123.717
L329.905 122.279
L330.359 118.153
L330.435 117.918
L330.889 113.643
L331.116 106.956
L331.343 111.809
L331.722 121.891
L332.555 118.053
L332.63 118.008
L332.782 119.301
L332.857 118.287
L333.084 105.428
L333.69 85.1965
L334.069 80.5986
L334.599 77.8759
L334.674 77.9208
L334.75 78.1605
L335.053 70.0622
L335.28 67.2323
L335.356 66.4452
L335.431 67.1851
L335.658 55.7909
L335.734 58.3796
L336.113 68.0183
L336.264 69.0815
L336.415 70.4194
L336.567 68.6282
L336.642 69.1286
L336.718 69.0034
L337.399 62.0185
L337.854 52.3768
L338.232 50.6699
L338.384 50.5021
L338.913 44.94
L339.292 39.7594
L340.2 28.8391
L340.503 27.4331
L340.579 27.3609
L340.73 26.7633
L340.806 26.7996
L340.882 26.854
L341.26 28.3344
L341.866 31.3481
L342.169 33.1112
L343.985 45.2132
L344.137 45.9474
L344.894 52.3601
L345.197 54.4374
L345.348 55.0665
L345.802 57.7098
L347.922 70.5437
L348.527 75.0401
L350.874 90.8119
L351.631 96.3035
L352.237 99.2455
L353.296 102.102
L354.356 105.693
L354.659 105.894
L354.81 105.114
L355.038 104.214
L355.34 104.761
L355.492 104.532
L355.719 104.697
L355.87 104.316
L356.097 104.583
L356.325 105.051
L356.552 103.297
L356.703 103.194
L357.082 103.515
L357.233 103.693
L357.309 103.655
L357.536 104.087
L358.52 107.03
L359.05 108.772
L359.125 108.539
L359.201 106.133
L359.353 97.7221
L359.58 95.6447
L359.882 94.7764
L360.261 94.1098
L360.412 90.7142
L360.639 86.2318
L361.548 79.978
L362.305 72.4742
L362.835 69.9381
L362.986 70.1243
L363.062 70.0157
L363.365 69.5497
L363.667 68.3624
L363.895 67.9557
L364.197 67.5156
L364.5 67.1222
L365.333 61.5373
L365.56 59.9714
L365.711 59.4032
L366.166 57.121
L366.468 56.2683
L366.771 55.0993
L367.15 54.4374
L367.377 54.7688
L367.452 54.6528
L367.604 54.7357
L367.982 55.1982
L368.512 57.3828
L368.739 59.517
L369.572 72.2738
L370.253 82.0559
L370.708 86.675
L371.919 101.079
L372.979 111.366
L375.325 126.931
L375.552 127.533
L376.082 128.961
L376.234 129.229
L376.461 129.706
L376.536 129.736
L376.688 130.179
L377.066 131.272
L377.672 132.827
L377.975 133.678
L378.353 134.898
L378.732 135.788
L379.035 136.694
L379.186 137.135
L379.867 139.127
L380.019 139.482
L381.533 144.851
L381.836 145.675
L381.987 145.179
L382.138 145.429
L382.668 146.726
L382.82 146.718
L383.047 146.013
L383.198 146.143
L383.879 147.109
L383.955 146.967
L384.031 146.371
L384.258 142.908
L384.864 141.077
L385.166 140.967
L385.318 140.917
L385.469 140.841
L385.621 140.664
L385.772 140.203
L385.999 138.235
L386.15 137.09
L386.302 135.212
L386.529 133.387
L386.907 131.765
L387.74 128.168
L387.892 126.665
L388.119 123.706
L388.649 120.13
L389.254 117.477
L389.557 114.961
L390.087 112.605
L391.374 106.357
L391.601 104.887
L392.131 101.001
L392.812 96.2632
L393.191 93.4799
L393.342 92.3934
L393.948 87.1181
L394.099 85.6579
L394.477 82.3196
L394.705 82.0266
L394.932 81.8656
L395.537 83.662
L395.764 84.5911
L395.916 85.3262
L396.219 89.2285
L397.354 104.367
L399.322 123.091
L400.079 127.165
L401.366 131.833
L401.593 132.275
L401.972 133.463
L402.577 135.487
L403.107 136.784
L403.183 136.829
L403.486 137.606
L403.713 137.918
L403.864 138.252
L404.016 138.498
L404.243 138.612
L404.621 139.378
L405 139.887
L405.378 140.866
L406.135 142.761
L406.59 144.291
L406.892 145.054
L407.119 144.812
L407.195 144.844
L407.649 146.036
L408.179 147.027
L408.482 147.723
L408.861 148.291
L409.163 149.306
L409.693 150.523
L409.996 150.719
L410.223 150.665
L411.132 147.709
L411.359 147.642
L411.51 147.701
L411.586 147.826
L411.889 147.36
L412.57 147.84
L412.646 147.862
L412.797 147.612
L413.024 147.796
L413.1 147.746
L413.175 147.338
L413.478 144.045
L414.008 142.72
L414.462 141.796
L414.765 140.74
L415.446 133.235
L415.825 115.907
L416.052 108.649
L416.355 88.9614
L416.809 79.978
L417.49 70.8387
L417.869 65.4008
L418.55 59.1432
L419.307 57.023
L419.61 57.1866
L419.761 56.7123
L420.064 53.7912
L420.14 53.8244
L420.594 55.8237
L420.897 44.6311
L421.2 37.0311
L421.578 33.3064
L421.881 31.794
L422.26 29.4141
L422.335 29.3066
L422.411 29.3604
L422.562 29.3963
L422.714 29.9162
L423.168 31.9188
L423.395 32.008
L423.471 31.9366
L423.698 32.5786
L424.001 33.0403
L424.303 33.6435
L424.833 39.3407
L425.59 52.0767
L427.104 78.505
L428.316 96.1153
L428.997 102.707
L429.451 106.469
L429.981 110.149
L430.208 111.414
L430.435 112.617
L431.571 114.579
L431.722 114.81
L432.706 119.29
L433.009 120.578
L433.085 120.239
L433.16 120.37
L433.312 120.359
L433.463 120.567
L434.372 126.006
L435.658 134.099
L436.34 135.824
L436.643 136.586
L437.172 137.811
L437.551 138.586
L437.627 138.349
L437.778 137.429
L437.854 137.337
L438.838 139.161
L439.368 141.018
L439.443 141.077
L439.898 142.311
L439.973 142.393
L440.428 140.79
L441.185 132.265
L441.639 129.499
L441.79 128.691
L442.244 125.8
L442.547 124.686
L442.774 123.907
L443.228 121.254
L444.288 105.919
L444.515 103.769
L445.045 98.9287
L445.954 90.4493
L446.408 84.4613
L446.711 79.7697
L447.165 70.9784
L447.392 66.9175
L448.225 47.8186
L448.83 42.3764
L449.057 41.357
L449.133 41.1485
L449.209 41.3049
L449.36 40.7144
L449.814 38.1535
L449.89 38.1883
L450.042 38.3454
L450.117 38.2757
L450.496 35.3417
L450.647 34.211
L451.253 28.8752
L451.631 30.5079
L451.783 31.0807
L452.161 31.6691
L452.237 31.8832
L452.313 31.7405
L452.388 31.794
L452.615 32.115
L452.842 32.7387
L453.221 35.1475
L453.827 41.9964
L454.281 47.5131
L454.886 56.7776
L455.643 66.1453
L456.173 70.4814
L456.552 72.7043
L457.46 76.01
L458.52 79.2343
L458.747 79.5169
L458.823 79.5318
L459.126 80.1704
L459.428 80.6872
L460.488 83.3859
L461.018 85.3984
L461.472 87.5595
L461.548 86.7036
L461.699 83.2696
L461.851 83.8364
L462.683 87.8571
L463.44 89.7207
L463.516 89.6362
L463.895 88.4102
L464.197 90.3378
L464.652 97.1093
L464.727 98.1349
L464.954 96.223
L465.106 96.7339
L465.257 95.2511
L465.333 95.3598
L465.484 99.4698
L465.636 112.096
L465.711 109.59
L465.863 99.5754
L466.469 114.427
L466.62 110.161
L467.301 116.467
L467.453 116.49
L467.68 115.655
L467.983 112.937
L468.437 108.979
L469.118 104.748
L469.345 104.71
L469.724 103.297
L470.254 100.034
L471.238 82.5979
L471.313 83.4295
L471.389 83.2841
L471.616 81.763
L471.843 76.9912
L472.07 75.0553
L472.146 74.8272
L472.297 72.842
L472.373 66.0187
L472.449 66.524
L472.903 79.0559
L473.13 77.771
L473.206 78.2355
L473.433 80.392
L473.584 78.0406
L474.039 69.643
L474.19 68.6282
L474.341 68.8783
L474.796 70.4038
L475.023 68.331
L475.401 63.8269
L475.931 59.8907
L476.158 57.7425
L476.688 50.804
L477.218 46.4597
L477.445 45.418
L477.748 42.981
L478.278 38.4851
L478.429 38.747
L478.505 38.6772
L478.732 36.803
L479.413 33.0758
L479.64 34.1756
L479.792 35.1122
L479.867 35.0592
L480.246 32.4538
L480.549 30.0956
L480.776 28.0459
L480.852 28.2622
L480.927 28.1902
L481.306 26.3465
L481.533 26.3828
L482.895 31.8653
L483.425 34.6005
L483.501 34.5123
L483.652 35.1651
L484.409 40.1761
L485.394 48.5979
L486.075 54.487
L487.513 63.7472
L489.406 86.7036
L490.238 93.4114
L491.601 102.745
L491.98 104.634
L494.099 114.764
L494.326 115.319
L494.402 115.377
L495.765 120.03
L495.84 119.853
L496.067 116.444
L496.219 115.861
L496.294 115.918
L496.522 115.62
L496.749 115.792
L496.824 115.792
L497.354 116.776
L497.657 117.319
L498.338 118.6
L498.717 119.765
L498.868 119.964
L499.095 119.787
L499.398 119.434
L499.55 119.511
L499.777 119.257
L499.852 119.103
L500.004 113.737
L500.307 90.2263
L500.761 82.5685
L500.988 78.9816
L501.896 62.9651
L502.123 59.4032
L502.35 50.8712
L503.183 32.8452
L503.335 30.759
L503.486 30.7768
L503.713 32.2398
L503.94 33.7498
L504.243 35.0416
L504.319 34.9357
L504.394 34.8122
L504.47 34.9887
L504.546 34.9357
L504.697 34.724
L504.773 34.9357
L504.924 33.4484
L505.227 33.0936
L505.53 32.2934
L505.606 32.2754
L505.757 32.0258
L505.984 31.7761
L506.135 31.9902
L506.287 32.0794
L506.741 34.4062
L507.195 38.4851
L509.996 74.5992
L511.056 90.6585
L511.359 93.4388
L511.737 96.1423
L512.949 101.61
L513.63 103.476
L514.538 107.601
L514.841 108.759
L515.22 109.858
L516.431 114.961
L517.869 120.796
L518.248 122.504
L518.702 124.255
L518.853 123.559
L518.929 123.696
L519.08 123.229
L519.156 123.411
L519.459 123.928
L519.61 123.08
L520.064 94.2877
L520.291 88.6938
L520.67 85.3984
L520.897 84.5767
L521.048 84.1707
L521.2 85.2398
L521.351 87.3326
L521.427 86.9751
L521.503 86.3175
L521.578 86.7322
L521.654 86.103
L521.73 86.1888
L522.108 88.2117
L522.184 87.9138
L522.335 88.5944
L522.714 90.2682
L522.941 91.1881
L523.244 92.5593
L524.001 92.0481
L524.228 91.0906
L524.379 90.7282
L524.758 89.6503
L525.212 90.03
L525.439 90.6446
L525.515 90.6305
L525.893 91.3136
L526.347 92.6973
L526.877 93.5483
L526.953 93.4799
L527.18 93.0966
L527.332 93.1376
L527.937 91.8132
L529.073 82.7883
L529.527 78.803
L530.587 73.3933
L531.344 71.1789
L531.798 69.2223
L532.025 68.1332
L532.631 65.8443
L533.085 64.6877
L533.161 64.6558
L533.236 64.4487
L533.463 63.2848
L533.766 63.524
L533.842 63.6356
L534.372 66.5398
L534.977 70.0467
L535.204 71.5798
L535.507 73.2096
L535.734 74.6144
L536.491 82.7883
L537.703 94.4643
L538.157 98.055
L538.687 101.519
L538.762 101.649
L540.049 111.163
L541.033 116.844
L541.412 118.678
L542.245 122.397
L544.97 135.175
L545.575 138.182
L546.408 141.846
L547.165 144.14
L547.771 146.522
L548.603 149.08
L550.193 154.621
L551.026 155.576
L551.101 155.564
L551.556 156.27
L551.631 156.19
L551.934 156.613
L552.01 156.544
L552.237 156.499
L552.464 156.693
L552.54 156.607
L552.615 155.993
L552.843 140.314
L553.07 138.182
L553.448 136.433
L554.054 134.916
L554.811 121.826
L555.189 118.868
L555.416 117.862
L555.492 117.873
L556.022 116.398
L556.325 114.602
L556.703 108.305
L558.142 96.2364
L558.293 96.3708
L559.126 91.9236
L559.883 89.9176
L560.186 90.7142
L561.397 95.2648
L561.927 97.7619
L562.305 99.7722
L562.759 103.079
L563.668 108.132
L565.257 115.527
L565.485 116.147
L565.712 116.867
L565.863 117.025
L566.317 118.254
L566.696 119.069
L566.771 119.014
L566.999 118.757
L567.68 120.567
L568.058 121.014
L568.134 121.036
L568.21 120.916
L568.513 121.384
L568.891 122.589
L568.967 122.472
L569.042 122.418
L569.648 124.717
L569.951 125.861
L571.389 129.608
L571.616 129.756
L571.995 131.185
L572.6 133.368
L572.676 133.463
L572.752 133.368
L573.282 135.101
L573.433 135.478
L574.114 137
L574.19 136.955
L574.871 137.846
L574.947 137.811
L575.098 137.34
L575.553 130.806
L575.78 128.711
L575.931 124.002
L576.537 118.645
L576.915 115.412
L577.37 112.818
L577.899 111.151
L578.051 111.043
L578.202 110.838
L578.959 110.112
L579.186 110.112
L579.489 110.064
L579.943 110.233
L580.019 110.137
L580.095 109.713
L580.246 106.37
L580.473 97.389
L580.776 94.4914
L581.23 92.4902
L581.609 91.4251
L581.684 91.3554
L581.987 90.5887
L583.047 89.3129
L583.955 89.7067
L584.334 90.03
L584.561 89.9316
L584.712 89.7348
L584.864 89.7488
L585.318 89.6786
L585.545 89.7488
L585.697 89.8472
L585.924 90.0723
L586.226 88.9333
L586.756 89.6645
L587.059 90.505
L587.892 92.6836
L588.195 93.7538
L588.422 94.3828
L588.573 95.0613
L589.709 100.57
L589.936 101.96
L590.617 108.268
L591.147 112.972
L593.418 137.162
L594.629 146.167
L595.386 150.325
L595.992 152.265
L596.295 152.407
L596.522 152.58
L596.673 152.624
L596.976 153.186
L597.203 153.508
L597.506 154.054
L597.96 154.883
L597.96 154.883" style="fill:none;stroke:#999999;stroke-linecap:round;stroke-width:2;"/>
   </g>
   <g id="patch_46">
    <path d="
M45.0447 19.89
L597.96 19.89" style="fill:none;stroke:#cccccc;stroke-linecap:square;stroke-linejoin:miter;"/>
   </g>
   <g id="patch_47">
    <path d="
M597.96 183.26
L597.96 19.89" style="fill:none;stroke:#cccccc;stroke-linecap:square;stroke-linejoin:miter;"/>
   </g>
   <g id="patch_48">
    <path d="
M45.0447 183.26
L597.96 183.26" style="fill:none;stroke:#cccccc;stroke-linecap:square;stroke-linejoin:miter;"/>
   </g>
   <g id="patch_49">
    <path d="
M45.0447 183.26
L45.0447 19.89" style="fill:none;stroke:#cccccc;stroke-linecap:square;stroke-linejoin:miter;"/>
   </g>
   <g id="legend_1">
    <g id="line2d_78">
     <path d="
M56.7447 164.02
L82.7447 164.02" style="fill:none;stroke:#999999;stroke-linecap:round;stroke-width:2;"/>
    </g>
    <g id="line2d_79"/>
    <g id="text_11">
     <!-- Observed (J = 0.29) -->
     <defs>
      <path d="
M6 -21.2031
Q5.29688 -20.5938 5.29688 -20.2031
Q5.29688 -19.5938 6.20312 -18.4062
Q10 -13.2969 12.7031 -8.25
Q15.4062 -3.20312 17.1562 2.04688
Q18.9062 7.29688 19.75 12.9375
Q20.5938 18.5938 20.5938 24.9062
Q20.5938 31.2031 19.75 36.8438
Q18.9062 42.5 17.1562 47.7969
Q15.4062 53.0938 12.7031 58.0938
Q10 63.0938 6.20312 68.2031
Q5.29688 69.5 5.29688 70
Q5.29688 70.4062 5.59375 70.5938
Q5.90625 70.7969 7.59375 71.9062
Q8.70312 72.5938 8.89062 72.6875
Q9.09375 72.7969 9.59375 72.7969
Q10.4062 72.7969 11.8438 71.0469
Q13.2969 69.2969 16.5 64.7031
Q22.7969 55.2969 25.7969 45.6406
Q28.7969 36 28.7969 24.9062
Q28.7969 13 25.2969 2.64062
Q21.7969 -7.70312 14.2969 -18
Q13.0938 -19.5938 12.3438 -20.5938
Q11.5938 -21.5938 11.0938 -22.0938
Q10.5938 -22.5938 10.25 -22.7969
Q9.90625 -23 9.59375 -23
Q9.09375 -23 8.40625 -22.5938
z
" id="OfficinaSanITC-Book-29"/>
      <path d="
M15 12.7031
Q17.7969 12.7031 19.8438 10.6406
Q21.9062 8.59375 21.9062 5.70312
Q21.9062 2.79688 19.8438 0.6875
Q17.7969 -1.40625 14.9062 -1.40625
Q11.9062 -1.40625 9.84375 0.640625
Q7.79688 2.70312 7.79688 5.70312
Q7.79688 8.59375 9.89062 10.6406
Q12 12.7031 15 12.7031" id="OfficinaSanITC-Book-2e"/>
      <path d="
M16 9.29688
Q20.5 5.40625 26.4062 5.40625
Q31.7969 5.40625 34.2969 10.3438
Q36.7969 15.2969 36.7969 26.0938
Q36.7969 34.9062 34.6875 38.7969
Q32.5938 42.7031 27.9062 42.7031
Q25.0938 42.7031 22.5469 41.6406
Q20 40.5938 16 37.7969
z

M16 44.5
Q19.9062 47.2031 22.9062 48.2969
Q25.9062 49.4062 29.2969 49.4062
Q37.0938 49.4062 41 43.7969
Q44.9062 38.2031 44.9062 27.2031
Q44.9062 12.5938 40.4531 5.59375
Q36 -1.40625 26.7031 -1.40625
Q22.9062 -1.40625 20 -0.25
Q17.0938 0.90625 13.9062 3.5
Q13.0938 1.59375 12.1406 0.296875
Q11.2031 -1 10.7031 -1
Q10.2969 -1 9.90625 -0.703125
L5.59375 2
Q5.29688 2.29688 5.29688 2.5
Q5.29688 2.70312 5.59375 3.20312
Q7.09375 5.20312 7.75 7.70312
Q8.40625 10.2031 8.40625 13.7031
L8.40625 69.7969
Q8.40625 70.7969 9.5 71.0938
L14.7031 72.2969
Q14.7969 72.4062 15 72.4062
Q15.2969 72.4062 15.4062 72.4062
Q16 72.4062 16 71.2969
z
" id="OfficinaSanITC-Book-62"/>
      <path d="
M34 39.5
Q30.7969 41.2969 28.5938 42
Q26.4062 42.7031 23.7969 42.7031
Q18.0938 42.7031 15.6406 38.5469
Q13.2031 34.4062 13.2031 24.9062
Q13.2031 14.5 15.3438 9.95312
Q17.5 5.40625 22.5 5.40625
Q25.4062 5.40625 28.0469 6.75
Q30.7031 8.09375 34 11.2031
z

M39.7969 -0.703125
Q39.5 -1 39 -1
Q38.2969 -1 37.2969 0.796875
Q36.2969 2.59375 35.7031 5
Q33.2969 3.20312 31.2969 1.95312
Q29.2969 0.703125 27.5938 -0.046875
Q25.9062 -0.796875 24.25 -1.09375
Q22.5938 -1.40625 20.7969 -1.40625
Q13.4062 -1.40625 9.25 5.4375
Q5.09375 12.2969 5.09375 24.5
Q5.09375 36.0938 9.84375 42.75
Q14.5938 49.4062 23 49.4062
Q25.7969 49.4062 28.2969 48.6562
Q30.7969 47.9062 34 46.2031
L34 69.7969
Q34 70.7969 35 71.0938
L40.2031 72.2969
Q40.4062 72.4062 40.7969 72.4062
Q41.5 72.4062 41.5 71.2969
L41.5 15.7969
Q41.5 13.5 41.5938 11.7969
Q41.7031 10.0938 42 8.75
Q42.2969 7.40625 42.75 6.29688
Q43.2031 5.20312 44 4
Q44.5938 3 44.6875 2.79688
Q44.7969 2.59375 44.7969 2.40625
Q44.7969 2 44.2969 1.79688
z
" id="OfficinaSanITC-Book-64"/>
      <path d="
M35 28.5
Q34.7969 35.7031 32.0938 39.5
Q29.4062 43.2969 24.2969 43.2969
Q14 43.2969 13.4062 28.5
z

M13.2969 22.2969
Q13.7031 14.0938 17.0469 9.75
Q20.4062 5.40625 26.5 5.40625
Q29.2031 5.40625 32 6.25
Q34.7969 7.09375 38.0938 9
Q38.5 9.29688 39.0938 9.29688
Q39.5 9.29688 39.7969 8.79688
L41.5938 4.90625
Q41.7969 4.40625 41.7969 4.20312
Q41.7969 3.59375 41 3
Q40.2031 2.40625 38.2031 1.40625
Q32.0938 -1.40625 25.9062 -1.40625
Q21.0938 -1.40625 17.25 0.34375
Q13.4062 2.09375 10.7031 5.39062
Q8 8.70312 6.54688 13.3906
Q5.09375 18.0938 5.09375 23.9062
Q5.09375 29.7031 6.5 34.4531
Q7.90625 39.2031 10.4531 42.5
Q13 45.7969 16.6406 47.5938
Q20.2969 49.4062 24.7969 49.4062
Q30.9062 49.4062 35.25 46.25
Q39.5938 43.0938 41.5938 37.4062
Q42.4062 35 42.75 31.9531
Q43.0938 28.9062 43.0938 24.0938
Q43.0938 23 42.8906 22.6406
Q42.7031 22.2969 42 22.2969
z
" id="OfficinaSanITC-Book-65"/>
      <path d="
M2.20312 20.7969
Q2.20312 21.7031 2.45312 21.9531
Q2.70312 22.2031 3.59375 22.2031
L46.4062 22.2031
Q47.2969 22.2031 47.5469 21.9531
Q47.7969 21.7031 47.7969 20.7969
L47.7969 16.0938
Q47.7969 15.2031 47.5469 14.9531
Q47.2969 14.7031 46.4062 14.7031
L3.59375 14.7031
Q2.70312 14.7031 2.45312 14.9531
Q2.20312 15.2031 2.20312 16.0938
z

M2.20312 34.5938
Q2.20312 35.5 2.45312 35.75
Q2.70312 36 3.59375 36
L46.4062 36
Q47.2969 36 47.5469 35.75
Q47.7969 35.5 47.7969 34.5938
L47.7969 29.9062
Q47.7969 29 47.5469 28.75
Q47.2969 28.5 46.4062 28.5
L3.59375 28.5
Q2.20312 28.5 2.20312 29.9062
z
" id="OfficinaSanITC-Book-3d"/>
      <path d="
M21 9.09375
Q21.2969 10.0938 21.5 10.8438
Q21.7031 11.5938 21.8906 12.25
Q22.0938 12.9062 22.3438 13.5938
Q22.5938 14.2969 22.9062 15.2969
L34.7969 48.2031
Q35.0938 49.0938 35.5938 49.0938
Q35.7031 49.0938 36.2031 49
L41.4062 47.5938
Q42.2969 47.2969 42.2969 46.7969
Q42.2969 46.5 42.0938 46.0938
L23.9062 0.203125
Q23.7031 -0.40625 23.5 -0.546875
Q23.2969 -0.703125 22.5938 -0.703125
L18.7969 -0.703125
Q18.0938 -0.703125 17.8906 -0.546875
Q17.7031 -0.40625 17.5 0.203125
L0.59375 46.2969
Q0.40625 46.7031 0.40625 46.9062
Q0.40625 47.5938 1.40625 47.7031
L7 48.9062
L7.29688 49
L7.59375 49
Q8.09375 49 8.40625 48.0938
L19.0938 15.4062
Q19.2969 14.9062 19.4375 14.3438
Q19.5938 13.7969 19.7969 13.2969
L20.5 10.9062
z
" id="OfficinaSanITC-Book-76"/>
      <path d="
M24.5 58.5938
Q19.4062 58.5938 16.4062 54.3438
Q13.4062 50.0938 13.4062 42.9062
Q13.4062 35.4062 16.25 31.25
Q19.0938 27.0938 24.2031 27.0938
Q29.5938 27.0938 32.3906 31.25
Q35.2031 35.4062 35.2031 43.2031
Q35.2031 50.7031 32.5 54.6406
Q29.7969 58.5938 24.5 58.5938
M9.09375 5.59375
Q9.09375 6.40625 9.90625 6.40625
Q10.0938 6.40625 10.7031 6.20312
Q13.5938 5.40625 16.7969 5.40625
Q24.7031 5.40625 29.0469 10.75
Q33.4062 16.0938 35.2031 28
Q32.7969 24 29.6406 22.1406
Q26.5 20.2969 22.2031 20.2969
Q18.4062 20.2969 15.2969 21.8906
Q12.2031 23.5 9.95312 26.3906
Q7.70312 29.2969 6.5 33.3906
Q5.29688 37.5 5.29688 42.5
Q5.29688 47.7031 6.6875 51.9531
Q8.09375 56.2031 10.6875 59.25
Q13.2969 62.2969 16.8438 64
Q20.4062 65.7031 24.7969 65.7031
Q43.2969 65.7031 43.2969 38.2969
Q43.2969 29 41.5469 21.6406
Q39.7969 14.2969 36.5469 9.1875
Q33.2969 4.09375 28.6406 1.34375
Q24 -1.40625 18.0938 -1.40625
Q13.9062 -1.40625 11.25 -0.75
Q8.59375 -0.09375 8.59375 1
L8.59375 1.70312
z
" id="OfficinaSanITC-Book-39"/>
      <path d="
M5.5 8.20312
Q5.70312 8.59375 6.09375 8.59375
Q6.29688 8.59375 6.90625 8.40625
Q10.2031 6.70312 13.3438 5.84375
Q16.5 5 19.0938 5
Q22.7031 5 24.8906 7
Q27.0938 9 27.0938 12.2031
Q27.0938 14.7969 25.6406 16.4375
Q24.2031 18.0938 20.7031 19.7969
Q18.2031 21 16.4531 21.7969
Q14.7031 22.5938 13.4531 23.2969
Q12.2031 24 11.2969 24.5938
Q10.4062 25.2031 9.5 26
Q4.90625 29.7031 4.90625 35.5
Q4.90625 38.5 6 41.0469
Q7.09375 43.5938 9.14062 45.4375
Q11.2031 47.2969 14 48.3438
Q16.7969 49.4062 20.0938 49.4062
Q22 49.4062 24.2969 49
Q26.5938 48.5938 28.5 47.9375
Q30.4062 47.2969 31.7031 46.5469
Q33 45.7969 33 45.2031
Q33 45 32.7969 44.5
L31 40.7969
Q30.5938 40.2031 30.0938 40.2031
Q29.9062 40.2031 29.75 40.25
Q29.5938 40.2969 29.2969 40.4062
Q23.7969 43 19.9062 43
Q16.2969 43 14.2969 41.25
Q12.2969 39.5 12.2969 36.2969
Q12.2969 33.2031 14.2969 31.4062
Q14.7969 30.9062 15.25 30.5469
Q15.7031 30.2031 16.6406 29.7031
Q17.5938 29.2031 19.5 28.25
Q21.4062 27.2969 24.7969 25.7031
Q30.2969 23 32.5469 20.1406
Q34.7969 17.2969 34.7969 12.7969
Q34.7969 9.59375 33.6406 7
Q32.5 4.40625 30.3906 2.5
Q28.2969 0.59375 25.3906 -0.40625
Q22.5 -1.40625 18.9062 -1.40625
Q15.0938 -1.40625 11.1406 -0.34375
Q7.20312 0.703125 4.09375 2.5
Q3.5 2.90625 3.5 3.40625
Q3.5 3.59375 3.59375 3.79688
z
" id="OfficinaSanITC-Book-73"/>
      <path d="
M11.2969 49.0938
Q11.7031 49.4062 12.0938 49.4062
Q12.5 49.4062 13.0938 48.7031
Q13.7031 48 14.2031 46.7969
Q14.7031 45.5938 15.1406 44.0938
Q15.5938 42.5938 15.9062 41.0938
Q18.2969 43.7969 19.8906 45.3906
Q21.5 47 22.8438 47.8906
Q24.2031 48.7969 25.4531 49.0938
Q26.7031 49.4062 28.2969 49.4062
Q30 49.4062 31.6406 48.8438
Q33.2969 48.2969 33.2969 47.7969
Q33.2969 47.5 33.0938 47.0938
L30.7031 41.5
Q30.5 41.2031 30.2031 41.2031
Q30.0938 41.2031 29.8906 41.25
Q29.7031 41.2969 28.5 41.7031
Q27.5 41.9062 26.7969 41.9062
Q25.7969 41.9062 24.8438 41.5469
Q23.9062 41.2031 22.7969 40.2969
Q21.7031 39.4062 20.25 37.9531
Q18.7969 36.5 16.9062 34.2969
L16.9062 1.20312
Q16.9062 0.40625 16.7031 0.203125
Q16.5 0 15.7969 0
L10.5 0
Q9.79688 0 9.59375 0.203125
Q9.40625 0.40625 9.40625 1.20312
L9.40625 31.2031
Q9.40625 34.2031 9.29688 36.0938
Q9.20312 38 8.95312 39.4531
Q8.70312 40.9062 8.25 42.0469
Q7.79688 43.2031 7 44.5938
Q6.59375 45.2969 6.59375 45.5938
Q6.59375 46.2031 7.09375 46.5
z
" id="OfficinaSanITC-Book-72"/>
      <path d="
M27.7969 63.2969
Q24.4062 63.2969 21.6562 61.5938
Q18.9062 59.9062 17.5 57
Q14.0938 49.5938 14.0938 34.5
Q14.0938 26.9062 15.0469 20.9531
Q16 15 18 11.0938
Q20.7969 5.29688 27.7031 5.29688
Q31.2031 5.29688 33.8906 6.9375
Q36.5938 8.59375 38 11.5938
Q39.7031 15.2031 40.5469 20.75
Q41.4062 26.2969 41.4062 33.7031
Q41.4062 49.9062 37.5938 57.5
Q34.5938 63.2969 27.7969 63.2969
M28.5938 70
Q39.2969 70 44.7969 61
Q50.2969 52 50.2969 34.4062
Q50.2969 16.7031 44.4375 7.64062
Q38.5938 -1.40625 27.2031 -1.40625
Q16.2969 -1.40625 10.75 7.5
Q5.20312 16.4062 5.20312 33.9062
Q5.20312 70 28.5938 70" id="OfficinaSanITC-Book-4f"/>
      <path d="
M31 70.9062
Q31.7031 70.5 31.7031 70
Q31.7031 69.4062 30.7969 68.2031
Q23.2031 58.0938 19.7969 47.75
Q16.4062 37.4062 16.4062 24.9062
Q16.4062 18.5938 17.25 12.9375
Q18.0938 7.29688 19.8438 2
Q21.5938 -3.29688 24.2969 -8.29688
Q27 -13.2969 30.7969 -18.4062
Q31.7031 -19.7031 31.7031 -20.2031
Q31.7031 -20.5 31.2031 -21
Q30.7031 -21.5 30 -21.9531
Q29.2969 -22.4062 28.5469 -22.7031
Q27.7969 -23 27.4062 -23
Q26.5938 -23 25 -21.1406
Q23.4062 -19.2969 20.5 -14.9062
Q14.2031 -5.40625 11.2031 4.25
Q8.20312 13.9062 8.20312 24.9062
Q8.20312 36.7031 11.75 47.1406
Q15.2969 57.5938 22.7031 67.7969
Q25 71 25.8438 71.8906
Q26.7031 72.7969 27.4062 72.7969
Q27.9062 72.7969 28.5938 72.4062
z
" id="OfficinaSanITC-Book-28"/>
      <path id="OfficinaSanITC-Book-20"/>
      <path d="
M10.4062 61.7031
Q9.5 61.7031 9.25 61.9531
Q9 62.2031 9 63.0938
L9 67.2031
Q9 68.0938 9.25 68.3438
Q9.5 68.5938 10.4062 68.5938
L34.5 68.5938
Q35.4062 68.5938 35.6562 68.3438
Q35.9062 68.0938 35.9062 67.2031
L35.9062 21.2031
Q35.9062 17.5 35.7969 15.0938
Q35.7031 12.7031 35.4531 11.0469
Q35.2031 9.40625 34.6406 8.20312
Q34.0938 7 33.2031 5.70312
Q30.9062 2.20312 27.0469 0.390625
Q23.2031 -1.40625 18.0938 -1.40625
Q9.70312 -1.40625 5.34375 3.4375
Q1 8.29688 1 17.7031
Q1 19 1.14062 19.3438
Q1.29688 19.7031 1.90625 19.7031
L7.79688 19.7031
Q8.59375 19.7031 8.59375 18.7031
L8.59375 17.5
Q8.59375 11.5 11.0469 8.39062
Q13.5 5.29688 18.2031 5.29688
Q21.4062 5.29688 23.6562 6.6875
Q25.9062 8.09375 26.9062 10.7031
Q27.2031 11.4062 27.3438 12
Q27.5 12.5938 27.5469 13.6406
Q27.5938 14.7031 27.6406 16.3438
Q27.7031 18 27.7031 20.7031
L27.7031 61.7031
z
" id="OfficinaSanITC-Book-4a"/>
     </defs>
     <g style="fill:#262626;" transform="translate(93.1446875 168.57)scale(0.13 -0.13)">
      <use xlink:href="#OfficinaSanITC-Book-4f"/>
      <use x="55.5999908447" xlink:href="#OfficinaSanITC-Book-62"/>
      <use x="105.599975586" xlink:href="#OfficinaSanITC-Book-73"/>
      <use x="144.499969482" xlink:href="#OfficinaSanITC-Book-65"/>
      <use x="190.799957275" xlink:href="#OfficinaSanITC-Book-72"/>
      <use x="228.849945068" xlink:href="#OfficinaSanITC-Book-76"/>
      <use x="270.699935913" xlink:href="#OfficinaSanITC-Book-65"/>
      <use x="316.999923706" xlink:href="#OfficinaSanITC-Book-64"/>
      <use x="366.999908447" xlink:href="#OfficinaSanITC-Book-20"/>
      <use x="387.599899292" xlink:href="#OfficinaSanITC-Book-28"/>
      <use x="424.599884033" xlink:href="#OfficinaSanITC-Book-4a"/>
      <use x="468.99987793" xlink:href="#OfficinaSanITC-Book-20"/>
      <use x="489.599868774" xlink:href="#OfficinaSanITC-Book-3d"/>
      <use x="539.599853516" xlink:href="#OfficinaSanITC-Book-20"/>
      <use x="560.19984436" xlink:href="#OfficinaSanITC-Book-30"/>
      <use x="610.199829102" xlink:href="#OfficinaSanITC-Book-2e"/>
      <use x="639.799819946" xlink:href="#OfficinaSanITC-Book-32"/>
      <use x="689.799804688" xlink:href="#OfficinaSanITC-Book-39"/>
      <use x="739.799789429" xlink:href="#OfficinaSanITC-Book-29"/>
     </g>
    </g>
    <g id="line2d_80">
     <path d="
M219.058 164.02
L245.058 164.02" style="fill:none;stroke:#000000;stroke-linecap:round;stroke-width:2;"/>
    </g>
    <g id="line2d_81"/>
    <g id="text_12">
     <!-- Tree (J = 0.03) -->
     <defs>
      <path d="
M7.29688 56.0938
Q6.90625 56.4062 6.90625 56.5938
Q6.90625 57.2969 8.34375 58.8438
Q9.79688 60.4062 11.7969 61.7969
Q17.2031 65.7031 23.9062 65.7031
Q27.7031 65.7031 30.8438 64.5
Q34 63.2969 36.25 61.1875
Q38.5 59.0938 39.75 56.0938
Q41 53.0938 41 49.5
Q41 38.7969 30.7031 34.7969
Q33.0938 34 34.4375 33.3906
Q35.7969 32.7969 37.0938 31.7031
Q40 29.5 41.5938 25.8438
Q43.2031 22.2031 43.2031 17.9062
Q43.2031 13.5 41.6406 9.95312
Q40.0938 6.40625 37.2969 3.90625
Q34.5 1.40625 30.5469 0
Q26.5938 -1.40625 21.7969 -1.40625
Q19.2031 -1.40625 16.3438 -0.953125
Q13.5 -0.5 11.0938 0.140625
Q8.70312 0.796875 7.09375 1.54688
Q5.5 2.29688 5.5 3
Q5.5 3.20312 5.54688 3.29688
Q5.59375 3.40625 5.79688 3.79688
L7.70312 8.29688
Q8.09375 8.90625 8.59375 8.90625
Q8.70312 8.90625 9.09375 8.70312
Q12.7969 7 15.6875 6.34375
Q18.5938 5.70312 21.9062 5.70312
Q28.2031 5.70312 31.6406 8.95312
Q35.0938 12.2031 35.0938 18.2031
Q35.0938 30.5 20.5 30.5
L17.0938 30.5
Q16.0938 30.5 15.8906 30.75
Q15.7031 31 15.7031 31.9062
L15.7031 35.9062
Q15.7031 36.7969 15.9531 37.0469
Q16.2031 37.2969 17.0938 37.2969
L20.4062 37.2969
Q26.4062 37.2969 29.8438 40.5469
Q33.2969 43.7969 33.2969 49.2969
Q33.2969 53.7969 30.6875 56.4375
Q28.0938 59.0938 23.5938 59.0938
Q18.4062 59.0938 13.7969 54.5
Q13.0938 53.7969 12.75 53.4375
Q12.4062 53.0938 12.2031 52.9375
Q12 52.7969 11.8438 52.75
Q11.7031 52.7031 11.5938 52.7031
Q11.0938 52.7031 10.9062 52.9062
z
" id="OfficinaSanITC-Book-33"/>
      <path d="
M24.5938 1.40625
Q24.5938 0.5 24.3438 0.25
Q24.0938 0 23.2031 0
L17.7969 0
Q16.9062 0 16.6562 0.25
Q16.4062 0.5 16.4062 1.40625
L16.4062 61.5938
L1.79688 61.5938
Q0.90625 61.5938 0.65625 61.8438
Q0.40625 62.0938 0.40625 63
L0.40625 67.2031
Q0.40625 68.0938 0.65625 68.3438
Q0.90625 68.5938 1.79688 68.5938
L40.7969 68.5938
Q42.2031 68.5938 42.2031 67.9062
Q42.2031 67.5 42.0938 67.2969
L42 67
L40.5 62.7031
Q40.2031 61.5938 39 61.5938
L24.5938 61.5938
z
" id="OfficinaSanITC-Book-54"/>
     </defs>
     <g style="fill:#262626;" transform="translate(255.4578125 168.57)scale(0.13 -0.13)">
      <use xlink:href="#OfficinaSanITC-Book-54"/>
      <use x="35.6999969482" xlink:href="#OfficinaSanITC-Book-72"/>
      <use x="68.4999847412" xlink:href="#OfficinaSanITC-Book-65"/>
      <use x="114.799972534" xlink:href="#OfficinaSanITC-Book-65"/>
      <use x="161.099960327" xlink:href="#OfficinaSanITC-Book-20"/>
      <use x="181.699951172" xlink:href="#OfficinaSanITC-Book-28"/>
      <use x="218.699935913" xlink:href="#OfficinaSanITC-Book-4a"/>
      <use x="263.09992981" xlink:href="#OfficinaSanITC-Book-20"/>
      <use x="283.699920654" xlink:href="#OfficinaSanITC-Book-3d"/>
      <use x="333.699905396" xlink:href="#OfficinaSanITC-Book-20"/>
      <use x="354.29989624" xlink:href="#OfficinaSanITC-Book-30"/>
      <use x="404.299880981" xlink:href="#OfficinaSanITC-Book-2e"/>
      <use x="433.899871826" xlink:href="#OfficinaSanITC-Book-30"/>
      <use x="483.899856567" xlink:href="#OfficinaSanITC-Book-33"/>
      <use x="533.899841309" xlink:href="#OfficinaSanITC-Book-29"/>
     </g>
    </g>
   </g>
   <g id="line2d_82">
    <path clip-path="url(#pe273d42b18)" d="
M45.0447 108.339
L45.2718 108.576
L45.5746 109.454
L45.6503 109.39
L46.0288 108.834
L46.1802 108.904
L46.4073 108.67
L46.7101 108.714
L46.8615 108.554
L47.1643 108.619
L47.6942 108.77
L47.8456 108.804
L48.0727 108.812
L48.2241 109.045
L48.5269 109.155
L48.9054 109.557
L49.3596 110.53
L49.5867 110.838
L50.1166 111.6
L50.268 111.665
L50.3437 111.771
L50.4194 111.544
L50.6465 103.854
L50.8736 102.501
L51.782 99.9815
L52.3119 96.0281
L52.4633 95.7489
L53.0689 94.02
L53.1446 92.9529
L53.4474 85.2947
L53.7502 79.3851
L53.9773 67.8937
L54.2044 59.9648
L54.5072 55.2198
L54.5829 49.2613
L54.6586 64.0633
L54.8857 49.2261
L55.3399 37.3307
L55.6427 29.5424
L55.8698 23.9742
L62.2287 23.9742
L62.3044 43.0741
L62.5315 23.9742
L64.9539 23.9742
L65.181 24.2195
L65.4081 24.2231
L66.3165 27.3881
L66.9221 30.8546
L67.5277 34.4673
L68.2847 37.8485
L68.8146 39.7788
L68.966 39.5272
L69.2688 40.4284
L69.4959 41.3837
L70.1772 43.5271
L70.5557 43.8634
L70.9342 44.7782
L71.3127 45.0142
L71.5398 45.2361
L72.0697 44.8858
L72.2211 45.0223
L72.3725 45.2671
L72.5239 45.3822
L72.8267 45.8225
L73.2809 47.6917
L73.3566 47.7644
L74.1893 50.6858
L74.265 50.7803
L74.4164 51.1106
L74.6435 51.3359
L74.8706 51.7254
L75.0977 51.968
L75.5519 52.9908
L75.9304 53.7618
L76.1575 54.0825
L76.2332 54.1146
L76.3089 53.8018
L76.536 49.3445
L76.6874 48.0117
L76.9145 45.4605
L77.2173 44.4998
L77.293 44.5368
L77.4444 43.7221
L77.5958 43.1483
L77.8229 31.3412
L77.9743 28.2989
L78.1257 23.9742
L78.2014 43.7616
L78.2771 35.3899
L78.5042 24.8525
L78.6556 23.9742
L79.4883 23.9742
L79.6397 58.4194
L79.7154 50.596
L79.7911 23.9742
L79.8668 32.2636
L79.9425 49.9931
L80.2453 24.078
L80.3967 23.9742
L81.3052 23.9742
L81.3809 45.0904
L81.4566 39.02
L81.5323 29.3705
L81.608 43.9959
L81.8351 23.9742
L91.9789 23.9742
L92.206 24.4151
L92.3574 24.2124
L92.4331 24.3044
L92.6602 24.7563
L93.1144 26.4691
L95.8396 43.5434
L96.0667 44.3477
L96.2938 44.8253
L97.2022 47.6767
L97.505 48.025
L97.5807 48.0254
L97.8835 47.6102
L98.1863 47.3166
L98.5648 46.7434
L98.7162 46.467
L99.019 45.6977
L99.1704 45.6971
L99.3975 45.4671
L99.7003 45.7505
L100.003 46.2201
L100.23 46.8016
L100.382 46.9576
L100.836 48.6242
L101.139 49.5874
L101.29 49.7354
L101.441 49.7086
L101.593 49.8671
L101.669 49.8361
L102.198 50.9973
L102.577 51.4981
L102.653 51.3821
L102.728 51.4849
L102.955 52.4218
L103.031 52.147
L103.712 53.731
L103.864 53.8869
L104.167 54.23
L104.242 54.0691
L104.469 54.715
L104.545 54.6075
L104.772 53.3082
L104.999 53.3337
L105.151 53.1926
L105.378 53.5472
L105.681 50.4047
L106.286 49.429
L106.74 48.0627
L107.043 47.7011
L107.195 48.0086
L107.497 47.9827
L107.8 46.0641
L108.027 45.1988
L108.103 43.2661
L108.406 23.9742
L123.924 23.9742
L124.076 24.278
L124.303 23.9742
L127.558 23.9821
L127.937 24.6194
L128.769 28.6624
L130.208 35.4275
L130.737 36.4149
L130.889 36.2221
L131.116 36.5497
L131.192 36.5173
L131.494 37.3393
L131.57 37.2568
L131.797 37.465
L131.873 37.481
L132.1 36.441
L132.327 35.6623
L132.479 35.3022
L133.084 26.9845
L133.538 25.0377
L133.917 23.9742
L135.658 23.998
L135.734 24.1007
L135.961 23.9742
L137.853 23.9742
L137.929 43.3585
L138.005 35.5836
L138.308 23.9742
L148.678 23.9742
L148.83 24.3854
L149.284 26.5139
L149.738 28.3712
L150.268 32.109
L151.404 36.9926
L151.479 36.9363
L151.782 37.7764
L151.934 37.5743
L152.161 37.5156
L152.312 37.5908
L152.388 37.3511
L152.463 37.4085
L152.539 37.2774
L152.766 37.5672
L152.918 37.4045
L153.296 37.7502
L153.826 37.5889
L153.977 37.6848
L154.205 37.898
L154.28 37.9648
L154.507 37.8325
L154.659 37.7633
L154.81 37.7465
L155.567 39.1077
L155.643 39.0303
L155.719 39.1375
L156.021 40.2711
L157.233 44.3803
L157.611 45.7486
L157.838 46.1715
L159.049 49.2542
L159.201 48.9343
L159.277 48.9705
L159.731 47.6123
L160.034 47.9359
L160.109 47.7941
L160.639 46.7685
L160.715 46.8045
L160.942 46.3033
L161.093 46.503
L161.169 46.4763
L161.245 46.9418
L161.32 46.7489
L161.472 45.2698
L161.699 45.6937
L162.153 46.693
L162.532 47.8128
L162.607 47.844
L162.91 48.5507
L162.986 48.6449
L163.364 49.879
L163.591 49.9912
L163.667 50.128
L163.819 49.5852
L164.273 41.8775
L164.576 23.9742
L165.862 23.9742
L165.938 43.7574
L166.014 36.008
L166.241 24.9446
L166.392 23.9742
L175.401 23.9742
L175.476 24.2008
L175.628 23.9742
L175.703 24.0286
L176.006 25.3903
L176.082 25.3211
L176.158 25.3767
L176.309 25.9767
L176.763 29.6666
L177.823 37.4658
L178.277 40.3116
L179.488 43.4307
L179.564 43.4659
L179.716 43.901
L179.791 43.8706
L179.943 43.5472
L180.246 44.2305
L180.321 44.0366
L180.624 43.9084
L181.003 44.7625
L181.23 44.9615
L181.457 45.2216
L181.532 45.1554
L181.684 44.5074
L181.835 44.5433
L181.987 43.9454
L182.062 43.6983
L182.138 43.7769
L182.289 44.1277
L182.592 43.4727
L182.819 44.3094
L184.031 49.8001
L184.333 51.5104
L185.317 57.5948
L185.393 57.5564
L185.62 57.1899
L185.696 57.3301
L185.772 57.2791
L185.923 57.3689
L186.074 57.8193
L186.15 57.7861
L186.302 57.8229
L186.377 57.7602
L186.983 55.7485
L187.286 54.9278
L187.361 54.9257
L187.664 55.4093
L188.194 54.0627
L188.497 53.1544
L188.573 53.2705
L188.648 53.3127
L188.724 53.0743
L189.027 51.4791
L189.557 50.2258
L189.632 50.2863
L189.859 50.1324
L190.011 50.0536
L190.087 49.8732
L190.314 50.2624
L190.692 50.5921
L190.919 51.0087
L191.146 50.4053
L191.222 50.513
L191.676 50.9243
L191.979 50.6714
L192.282 49.5349
L192.358 49.6192
L192.585 49.6648
L192.736 49.7854
L193.039 50.1222
L193.115 50.0787
L193.266 50.2361
L193.872 47.9192
L193.947 47.857
L194.023 47.6283
L194.856 41.3676
L195.007 40.4061
L195.31 37.2957
L195.688 35.1661
L196.218 33.1415
L197.354 23.9742
L201.214 23.9742
L201.366 24.463
L201.517 25.2587
L201.593 25.2434
L201.669 25.25
L201.82 25.6869
L202.956 33.0338
L203.258 34.9503
L203.486 36.6842
L204.091 42.3865
L204.47 45.4407
L205.075 52.2699
L205.757 59.5379
L206.968 69.7198
L208.255 77.0207
L211.131 89.8291
L214.084 108.418
L214.462 109.829
L214.916 111.68
L215.068 111.673
L215.219 111.263
L215.37 111.57
L215.598 111.898
L215.976 109.25
L216.127 109.073
L216.355 109.157
L216.43 109.149
L216.809 108.004
L217.187 105.344
L217.414 104.221
L217.566 103.849
L217.793 101.367
L218.323 89.6165
L218.701 84.422
L219.534 78.562
L219.912 75.2963
L220.442 71.1422
L220.972 68.1104
L221.654 62.6014
L221.881 55.729
L222.411 48.6133
L222.789 45.0379
L223.092 35.3303
L223.47 29.6377
L224.076 23.9742
L229.905 23.9742
L229.981 24.1924
L230.056 24.1167
L230.132 24.1926
L230.359 23.9928
L230.511 24.5481
L232.025 34.7209
L233.993 52.239
L234.447 55.1558
L234.901 57.4483
L235.81 62.4451
L236.037 63.3435
L236.869 64.7719
L237.096 65.5399
L237.172 65.5752
L237.929 67.8697
L238.383 69.7994
L238.913 72.8741
L240.654 79.0697
L240.881 79.4544
L240.957 79.4306
L241.336 80.1161
L241.487 79.9414
L241.714 78.6758
L242.017 77.9248
L242.093 77.8494
L242.395 78.177
L242.623 78.3697
L242.774 78.5103
L242.925 78.3094
L243.152 78.6584
L243.38 78.8871
L243.682 78.9908
L243.758 79.2226
L243.834 79.131
L243.985 79.1115
L244.061 79.1619
L244.137 78.7578
L244.666 68.5261
L244.894 66.718
L245.045 66.3961
L245.121 66.3563
L245.196 66.0239
L246.029 57.4187
L247.089 47.3443
L247.543 39.8229
L247.922 35.0737
L249.284 23.9742
L258.368 23.9742
L258.52 24.4676
L258.898 25.6807
L258.974 25.628
L259.277 26.8729
L259.655 28.9291
L260.034 31.5407
L262.305 43.727
L262.683 45.0804
L263.516 48.4987
L263.819 49.1863
L264.121 49.7909
L266.014 53.5334
L266.241 53.7603
L266.544 54.5201
L268.588 65.4993
L268.739 65.6676
L268.815 65.7299
L268.966 66.0813
L269.118 66.1341
L269.496 66.9216
L269.648 66.9074
L270.026 67.6942
L270.632 68.7883
L271.086 70.3103
L271.237 70.6063
L271.389 69.8075
L271.464 69.7567
L271.54 69.5286
L272.07 65.7026
L272.146 65.6625
L272.524 64.3465
L273.66 52.1464
L274.114 48.9327
L274.568 46.4846
L275.401 41.7258
L275.552 41.1512
L275.779 38.9085
L276.234 36.1282
L276.688 33.8618
L277.066 24.3667
L277.218 23.9742
L284.031 24.0745
L284.258 24.3868
L284.409 24.4787
L284.788 24.4265
L284.863 24.4837
L285.015 24.8083
L285.09 24.7532
L286.075 29.0353
L287.437 40.5394
L288.497 49.5991
L289.784 57.6436
L290.314 59.5377
L290.617 60.6525
L291.298 63.1394
L291.449 63.5827
L291.828 64.7105
L291.979 64.7289
L292.131 64.8477
L293.19 67.4381
L293.266 67.4044
L293.418 67.3575
L293.72 67.7994
L293.947 68.4774
L294.477 70.8383
L295.007 74.0724
L295.083 74.1324
L295.234 74.695
L295.31 74.5636
L295.537 74.2506
L295.764 74.4175
L295.991 73.7575
L296.143 73.8018
L296.597 75.0309
L296.975 76.1158
L297.278 75.8438
L297.657 76.1873
L298.187 76.7365
L298.338 76.4256
L298.944 76.0974
L299.019 75.9284
L299.322 72.7255
L299.701 71.4878
L299.852 71.0589
L300.079 70.2474
L300.155 70.2915
L300.382 70.2538
L300.533 70.3608
L300.609 70.2431
L300.685 69.8857
L301.063 60.1899
L301.366 58.4103
L301.82 46.0943
L302.123 43.5152
L302.577 40.1338
L302.88 36.1451
L303.183 31.4647
L304.016 23.9742
L314.992 23.9742
L315.068 24.1046
L315.446 25.7026
L315.749 26.5231
L316.43 29.6682
L317.263 33.6448
L317.944 35.2678
L318.096 35.7672
L318.172 35.7757
L318.55 37.1226
L318.626 37.0829
L319.231 37.9192
L319.383 38.0436
L320.518 40.9506
L320.745 41.2602
L321.351 43.272
L321.502 43.4065
L321.654 43.459
L321.729 43.4935
L322.562 45.7602
L323.016 48.4982
L323.395 50.2012
L323.471 50.2699
L323.925 51.6842
L324 51.6436
L324.228 51.9704
L324.682 53.0319
L325.06 53.1867
L325.287 52.9958
L325.439 53.1602
L325.59 53.0993
L325.742 53.2346
L325.893 53.5861
L326.044 53.2912
L326.196 51.6707
L326.347 47.0868
L326.877 44.6087
L326.953 44.5549
L327.104 44.028
L327.331 43.0214
L327.407 42.9693
L327.483 42.2746
L327.785 32.007
L327.937 24.3819
L328.088 23.9742
L335.507 23.9742
L335.583 42.1634
L335.734 23.9742
L342.471 24.0266
L342.926 24.9862
L343.531 27.2609
L343.758 28.0257
L343.834 28.0287
L344.137 28.7662
L344.364 29.7374
L344.742 30.9468
L345.197 32.0064
L345.272 31.8645
L345.726 32.4249
L346.181 32.5324
L346.332 32.5715
L346.483 32.6252
L346.711 32.563
L346.938 32.7821
L347.089 32.8928
L347.316 33.2367
L347.468 33.529
L347.846 34.6288
L348.603 36.898
L348.982 37.7078
L349.209 38.262
L349.36 38.6425
L349.814 40.5755
L350.95 46.475
L351.631 50.0835
L352.01 51.016
L352.464 51.7305
L352.842 51.1885
L353.372 51.6243
L353.675 51.863
L353.826 51.9334
L353.902 51.8408
L354.356 52.4995
L354.432 52.3916
L354.735 51.6467
L355.038 49.6444
L355.34 49.329
L355.567 48.4897
L355.719 48.2231
L355.946 47.2289
L356.249 46.8849
L356.325 46.8136
L356.627 44.0213
L357.006 43.4701
L357.763 42.7837
L357.914 42.867
L358.293 42.6949
L358.596 42.6668
L358.823 42.5464
L358.974 42.6403
L359.05 42.5445
L359.125 42.1273
L359.58 28.3467
L359.958 26.2732
L360.261 24.8484
L360.412 23.9742
L367.15 23.9742
L367.907 25.5424
L368.134 26.5774
L368.815 30.1933
L369.799 38.0567
L371.843 54.7377
L373.13 62.8509
L373.811 65.9479
L374.947 70.5715
L375.25 71.7675
L375.552 72.7923
L376.536 75.3548
L376.612 75.4685
L377.521 79.1534
L377.672 79.5196
L378.883 84.5352
L379.11 85.2534
L379.565 87.0904
L380.246 89.2635
L381.836 95.5906
L381.987 95.2826
L382.214 95.9767
L382.744 97.3543
L382.82 97.3755
L382.971 97.0287
L383.122 97.1244
L383.804 98.5573
L383.879 98.6589
L384.031 98.4387
L384.258 95.349
L384.864 94.0871
L385.469 94.0449
L385.772 93.4385
L385.999 91.5348
L386.075 91.1852
L386.605 86.0674
L387.135 83.9093
L387.74 81.3924
L387.892 79.9327
L388.119 76.9934
L388.649 73.4553
L389.33 69.798
L389.633 67.9028
L389.935 66.5003
L391.525 58.1021
L392.434 50.6801
L392.736 48.6134
L393.115 45.6956
L394.553 35.6407
L394.629 35.6965
L395.083 36.0203
L395.613 37.136
L396.521 41.4331
L398.414 57.2838
L399.776 69.1697
L400.912 74.4129
L402.426 79.7103
L402.729 80.5184
L403.562 82.7477
L403.713 82.9407
L404.243 84.0783
L405.984 91.2881
L406.892 95.5799
L407.044 95.5961
L407.271 96.2684
L407.725 97.7166
L408.785 100.792
L409.088 101.809
L409.693 103.922
L410.223 104.859
L410.45 104.624
L410.526 104.595
L411.132 103.567
L411.283 103.677
L411.661 104.193
L411.737 104.061
L411.813 104.109
L412.797 105.508
L413.1 105.879
L413.175 105.537
L413.478 102.516
L413.705 102.078
L414.16 101.244
L414.387 101.014
L414.765 100.008
L415.446 93.4874
L415.825 76.5199
L415.976 73.5228
L416.128 62.5013
L416.355 50.6303
L416.809 42.1706
L417.566 31.0407
L417.945 25.6719
L418.172 23.9742
L423.471 23.9742
L424.001 25.4351
L424.531 27.985
L425.06 31.6097
L425.817 38.2555
L427.483 52.5904
L428.391 57.3165
L428.618 58.2062
L429.602 61.8646
L429.678 61.8458
L430.587 63.6511
L430.738 63.5749
L430.889 63.6976
L431.116 63.7276
L431.268 63.7838
L432.025 65.1636
L433.009 67.6927
L433.236 67.1603
L433.387 67.1471
L433.539 67.6819
L435.431 76.7548
L435.734 77.3996
L436.037 77.6135
L436.34 77.697
L436.491 77.8042
L436.643 77.7665
L436.945 77.9347
L437.248 77.9808
L437.551 78.0412
L438.005 76.0798
L438.308 76.0883
L438.611 75.8004
L438.914 76.022
L439.216 76.3863
L439.443 76.4551
L439.822 76.9582
L439.973 77.0097
L440.503 73.7097
L440.957 67.9622
L441.336 63.8834
L443.38 49.1486
L443.683 42.7808
L444.061 37.5264
L445.727 23.9742
L453.07 23.9981
L453.221 24.3261
L453.524 26.0031
L455.795 40.3028
L456.173 42.082
L456.552 43.7004
L456.855 44.9697
L458.596 50.5279
L458.823 50.7464
L459.126 51.4102
L459.731 52.745
L460.185 54.3341
L461.472 60.3148
L461.548 59.5361
L461.699 56.4574
L462.154 57.9864
L462.608 59.5192
L462.759 59.3691
L462.986 59.6406
L463.44 59.3408
L463.668 58.0444
L463.743 57.7071
L463.97 55.5871
L464.046 55.4388
L464.349 53.9911
L464.576 53.3472
L464.727 52.2394
L465.484 34.6817
L465.711 23.9742
L465.787 44.7573
L465.863 35.7068
L466.09 24.101
L466.241 23.9742
L472.297 23.9742
L472.373 44.9507
L472.449 37.9486
L472.752 23.9742
L482.668 23.9742
L483.425 25.2385
L483.577 25.3031
L483.728 25.3833
L483.88 25.6362
L483.955 25.6006
L484.334 26.0695
L484.409 26.0616
L484.561 26.1714
L484.712 25.9179
L484.939 26.1263
L485.166 26.3587
L485.394 26.046
L485.469 26.1314
L485.545 26.3577
L485.621 26.3035
L485.923 25.9419
L486.075 25.9983
L486.226 25.8771
L486.378 25.7511
L486.453 25.7764
L486.908 25.0525
L487.059 25.0719
L487.21 24.9999
L487.362 24.7174
L487.513 24.7342
L488.043 26.4765
L488.119 26.4773
L488.573 27.7242
L490.541 35.6013
L490.768 36.1034
L491.525 38.3943
L492.509 41.3846
L493.039 42.994
L493.721 44.8052
L494.251 45.4531
L494.326 45.3627
L494.402 45.3336
L494.705 45.6985
L495.008 46.3472
L495.765 47.8808
L495.84 47.5671
L496.067 43.8217
L496.294 42.7538
L496.597 41.8553
L497.203 40.9876
L497.43 40.8328
L497.657 40.7435
L498.263 41.3407
L498.793 42.3784
L498.868 42.3374
L499.852 41.5297
L500.004 36.3346
L500.231 23.9742
L505.984 23.9932
L506.287 24.4735
L506.59 24.8663
L506.817 25.7753
L507.271 27.9394
L509.239 43.2723
L509.845 48.4738
L510.678 54.9721
L511.435 58.8124
L512.116 61.2513
L512.873 63.5402
L513.176 64.2062
L513.403 64.4048
L514.235 67.0747
L514.841 69.3049
L515.22 70.4042
L516.431 75.3233
L518.55 82.0015
L518.626 82.198
L518.702 82.1397
L518.853 81.45
L518.929 81.4799
L519.232 80.7293
L519.459 80.8561
L519.61 79.852
L520.14 46.4165
L520.443 41.7207
L521.048 34.8432
L521.427 26.9478
L521.578 23.9742
L532.706 24.0427
L533.236 24.7032
L533.388 24.2417
L533.539 24.3661
L533.766 24.8949
L533.993 25.6144
L534.372 27.2402
L535.204 32.5108
L535.659 35.0963
L535.886 36.7915
L536.87 45.8506
L537.475 51.6017
L538.687 60.0464
L538.914 61.0994
L539.444 63.7681
L539.746 65.2938
L540.201 67.3467
L540.579 68.9514
L541.033 71.1513
L541.185 71.7142
L541.563 73.4969
L543.229 80.5631
L545.727 94.5176
L551.556 118.248
L551.858 119.188
L552.086 119.623
L552.161 119.688
L552.54 120.67
L552.615 120.201
L552.843 105.316
L553.07 103.877
L553.372 103.045
L553.978 103.36
L554.054 103.146
L554.811 92.1375
L555.114 90.1478
L555.341 89.4302
L555.795 89.0283
L555.946 89.0225
L556.098 88.7284
L556.325 87.7482
L556.703 82.2584
L557.915 73.2108
L558.369 71.7493
L558.596 70.9036
L558.672 70.7957
L559.126 69.2086
L559.277 69.1488
L559.353 69.3641
L559.429 69.268
L559.807 69.0159
L559.958 69.0652
L560.261 69.853
L560.943 72.2352
L561.17 72.8646
L561.321 73.4591
L561.775 75.4808
L562.002 76.5246
L563.138 84.2188
L563.895 90.4135
L564.803 98.4375
L565.787 105.148
L566.09 107.089
L566.544 109.35
L566.847 110.127
L566.923 110.108
L567.074 110.59
L567.907 113.696
L568.134 114.206
L568.21 114.193
L568.74 115.974
L568.967 116.646
L569.042 116.676
L569.27 117.437
L571.843 129.547
L572.903 135.239
L573.282 137.02
L574.039 140.164
L575.023 142.787
L575.098 142.774
L575.477 138.079
L575.704 137.286
L575.78 136.399
L575.931 132.452
L576.461 129.474
L576.991 126.167
L577.142 125.781
L577.445 124.795
L577.824 124.389
L578.051 124.383
L578.505 124.63
L578.656 124.713
L578.808 124.824
L578.959 124.824
L579.338 125.11
L580.019 125.486
L580.095 125.114
L580.246 121.911
L580.473 113.196
L580.776 110.541
L581.155 109.171
L581.382 108.646
L582.29 107.66
L582.593 107.527
L582.896 107.369
L583.047 107.413
L583.728 108.28
L584.183 109.198
L584.561 109.906
L584.712 110.044
L585.015 110.363
L585.242 110.616
L585.924 112.003
L586.151 111.559
L586.302 111.622
L587.211 113.627
L588.8 120.263
L589.179 122.307
L589.709 124.776
L590.163 128.18
L591.147 136.24
L591.98 144.736
L592.812 153.651
L593.872 162.204
L595.386 170.951
L595.916 173.487
L596.597 176.446
L597.354 179.899
L597.96 182.926
L597.96 182.926" style="fill:none;stroke:#000000;stroke-linecap:round;stroke-width:2;"/>
   </g>
  </g>
 </g>
 <defs>
  <clipPath id="pe273d42b18">
   <rect height="163.37" width="552.9153125" x="45.0446875" y="19.89"/>
  </clipPath>
 </defs>
</svg>
