<?xml version="1.0" encoding="utf-8" standalone="no"?>
<!DOCTYPE svg PUBLIC "-//W3C//DTD SVG 1.1//EN"
  "http://www.w3.org/Graphics/SVG/1.1/DTD/svg11.dtd">
<!-- Created with matplotlib (http://matplotlib.org/) -->
<svg height="216pt" version="1.1" viewBox="0 0 612 216" width="612pt" xmlns="http://www.w3.org/2000/svg" xmlns:xlink="http://www.w3.org/1999/xlink">
 <defs>
  <style type="text/css">
*{stroke-linecap:butt;stroke-linejoin:round;}
  </style>
 </defs>
 <g id="figure_1">
  <g id="patch_1">
   <path d="
M0 216
L612 216
L612 0
L0 0
z
" style="fill:#ffffff;"/>
  </g>
  <g id="axes_1">
   <g id="patch_2">
    <path d="
M45.0447 169.76
L597.96 169.76
L597.96 19.89
L45.0447 19.89
z
" style="fill:#ffffff;"/>
   </g>
   <g id="matplotlib.axis_1">
    <g id="xtick_1">
     <g id="line2d_1">
      <path clip-path="url(#paa3a7b243e)" d="
M45.0447 169.76
L45.0447 19.89" style="fill:none;stroke:#cccccc;stroke-linecap:round;"/>
     </g>
     <g id="line2d_2">
      <defs>
       <path d="
M0 0
L0 0" id="m219da94a98" style="stroke:#262626;"/>
      </defs>
      <g>
       <use style="fill:#262626;stroke:#262626;" x="45.0446875" xlink:href="#m219da94a98" y="169.76"/>
      </g>
     </g>
     <g id="line2d_3">
      <g>
       <use style="fill:#262626;stroke:#262626;" x="45.0446875" xlink:href="#m219da94a98" y="19.89"/>
      </g>
     </g>
     <g id="text_1">
      <!-- Nov -->
      <defs>
       <path d="
M21 9.09375
Q21.2969 10.0938 21.5 10.8438
Q21.7031 11.5938 21.8906 12.25
Q22.0938 12.9062 22.3438 13.5938
Q22.5938 14.2969 22.9062 15.2969
L34.7969 48.2031
Q35.0938 49.0938 35.5938 49.0938
Q35.7031 49.0938 36.2031 49
L41.4062 47.5938
Q42.2969 47.2969 42.2969 46.7969
Q42.2969 46.5 42.0938 46.0938
L23.9062 0.203125
Q23.7031 -0.40625 23.5 -0.546875
Q23.2969 -0.703125 22.5938 -0.703125
L18.7969 -0.703125
Q18.0938 -0.703125 17.8906 -0.546875
Q17.7031 -0.40625 17.5 0.203125
L0.59375 46.2969
Q0.40625 46.7031 0.40625 46.9062
Q0.40625 47.5938 1.40625 47.7031
L7 48.9062
L7.29688 49
L7.59375 49
Q8.09375 49 8.40625 48.0938
L19.0938 15.4062
Q19.2969 14.9062 19.4375 14.3438
Q19.5938 13.7969 19.7969 13.2969
L20.5 10.9062
z
" id="OfficinaSanITC-Book-76"/>
       <path d="
M39.7031 21
Q40.5 19.0938 41.2031 17.1406
Q41.9062 15.2031 42.5 12.5938
Q42.0938 15.4062 41.9375 17.3438
Q41.7969 19.2969 41.7969 21.2969
L41.7969 67.2031
Q41.7969 68.0938 42.0469 68.3438
Q42.2969 68.5938 43.2031 68.5938
L47.7031 68.5938
Q48.5938 68.5938 48.8438 68.3438
Q49.0938 68.0938 49.0938 67.2031
L49.0938 1.40625
Q49.0938 0.5 48.8438 0.25
Q48.5938 0 47.7031 0
L42.2969 0
Q41.2031 0 40.7969 1
L17.9062 50.5
Q16.9062 52.5938 16.2969 54.5469
Q15.7031 56.5 14.9062 59.9062
Q15.2031 57.9062 15.3906 56.5469
Q15.5938 55.2031 15.6875 54.1406
Q15.7969 53.0938 15.8438 52.1875
Q15.9062 51.2969 15.9062 50.0938
L15.9062 1.40625
Q15.9062 0.5 15.6562 0.25
Q15.4062 0 14.5 0
L10 0
Q9.09375 0 8.84375 0.25
Q8.59375 0.5 8.59375 1.40625
L8.59375 67.2031
Q8.59375 68.0938 8.84375 68.3438
Q9.09375 68.5938 10 68.5938
L16.2969 68.5938
Q17.4062 68.5938 17.7969 67.5938
z
" id="OfficinaSanITC-Book-4e"/>
       <path d="
M24.9062 43.0938
Q19.2031 43.0938 16.2031 38.4375
Q13.2031 33.7969 13.2031 24.7969
Q13.2031 20 14.0469 15.8906
Q14.9062 11.7969 16.2969 9.29688
Q17.5938 7.29688 19.9375 6.09375
Q22.2969 4.90625 25.0938 4.90625
Q27.7969 4.90625 30.0938 6
Q32.4062 7.09375 33.5938 9.09375
Q35.0938 11.5 35.9375 15.5469
Q36.7969 19.5938 36.7969 24.4062
Q36.7969 43.0938 24.9062 43.0938
M25.5938 49.4062
Q34.7031 49.4062 39.7969 42.75
Q44.9062 36.0938 44.9062 24.2969
Q44.9062 12.0938 39.5 5.34375
Q34.0938 -1.40625 24.4062 -1.40625
Q15.2031 -1.40625 10.1406 5.1875
Q5.09375 11.7969 5.09375 23.7969
Q5.09375 36 10.5 42.7031
Q15.9062 49.4062 25.5938 49.4062" id="OfficinaSanITC-Book-6f"/>
      </defs>
      <g style="fill:#262626;" transform="translate(35.913203125 186.1728125)scale(0.13 -0.13)">
       <use xlink:href="#OfficinaSanITC-Book-4e"/>
       <use x="57.1499938965" xlink:href="#OfficinaSanITC-Book-6f"/>
       <use x="106.774978638" xlink:href="#OfficinaSanITC-Book-76"/>
      </g>
     </g>
    </g>
    <g id="xtick_2">
     <g id="line2d_4">
      <path clip-path="url(#paa3a7b243e)" d="
M137.197 169.76
L137.197 19.89" style="fill:none;stroke:#cccccc;stroke-linecap:round;"/>
     </g>
     <g id="line2d_5">
      <g>
       <use style="fill:#262626;stroke:#262626;" x="137.197239583" xlink:href="#m219da94a98" y="169.76"/>
      </g>
     </g>
     <g id="line2d_6">
      <g>
       <use style="fill:#262626;stroke:#262626;" x="137.197239583" xlink:href="#m219da94a98" y="19.89"/>
      </g>
     </g>
     <g id="text_2">
      <!-- Dec -->
      <defs>
       <path d="
M22.9062 7.09375
Q25.7969 7.09375 27.9375 7.39062
Q30.0938 7.70312 31.75 8.39062
Q33.4062 9.09375 34.6562 10.25
Q35.9062 11.4062 37.0938 13.2031
Q39.4062 16.5 40.4531 21.9531
Q41.5 27.4062 41.5 35.5
Q41.5 45.5 39.4531 51.3438
Q37.4062 57.2031 33 59.5
Q31 60.5938 28.3906 61.0469
Q25.7969 61.5 21.9062 61.5
L17.7969 61.5
L17.7969 7.09375
z

M9.59375 67.2031
Q9.59375 68.0938 9.84375 68.3438
Q10.0938 68.5938 11 68.5938
L21.4062 68.5938
Q24.7031 68.5938 27.2969 68.3906
Q29.9062 68.2031 32 67.7031
Q34.0938 67.2031 35.8438 66.4531
Q37.5938 65.7031 39.2031 64.5938
Q44.5938 60.9062 47.4375 53.4531
Q50.2969 46 50.2969 35.5
Q50.2969 0 22.2969 0
L11 0
Q10.0938 0 9.84375 0.25
Q9.59375 0.5 9.59375 1.40625
z
" id="OfficinaSanITC-Book-44"/>
       <path d="
M37.5 38.5
Q37.0938 37.7969 36.7031 37.7969
Q36.2969 37.7969 35.9062 38.2031
Q34.0938 39.5 32.6875 40.3906
Q31.2969 41.2969 30.1406 41.7969
Q29 42.2969 27.9531 42.5
Q26.9062 42.7031 25.5938 42.7031
Q13.5 42.7031 13.5 24.0938
Q13.5 5.40625 24.5938 5.40625
Q26.0938 5.40625 27.3438 5.59375
Q28.5938 5.79688 29.8906 6.34375
Q31.2031 6.90625 32.75 7.84375
Q34.2969 8.79688 36.4062 10.2969
Q36.7969 10.5938 37.0938 10.5938
Q37.5 10.5938 37.7969 10
L39.2969 6.20312
Q39.4062 6 39.5 5.64062
Q39.5938 5.29688 39.5938 5.20312
Q39.5938 4.5 38 3.29688
Q34.9062 1 31.2969 -0.203125
Q27.7031 -1.40625 24 -1.40625
Q15 -1.40625 10.0469 5
Q5.09375 11.4062 5.09375 22.9062
Q5.09375 29 6.5 33.9531
Q7.90625 38.9062 10.5 42.2969
Q13.0938 45.7031 16.8906 47.5469
Q20.7031 49.4062 25.4062 49.4062
Q32 49.4062 37.5938 45.5
Q39.7969 44 39.7969 43
L39.7031 42.4062
z
" id="OfficinaSanITC-Book-63"/>
       <path d="
M35 28.5
Q34.7969 35.7031 32.0938 39.5
Q29.4062 43.2969 24.2969 43.2969
Q14 43.2969 13.4062 28.5
z

M13.2969 22.2969
Q13.7031 14.0938 17.0469 9.75
Q20.4062 5.40625 26.5 5.40625
Q29.2031 5.40625 32 6.25
Q34.7969 7.09375 38.0938 9
Q38.5 9.29688 39.0938 9.29688
Q39.5 9.29688 39.7969 8.79688
L41.5938 4.90625
Q41.7969 4.40625 41.7969 4.20312
Q41.7969 3.59375 41 3
Q40.2031 2.40625 38.2031 1.40625
Q32.0938 -1.40625 25.9062 -1.40625
Q21.0938 -1.40625 17.25 0.34375
Q13.4062 2.09375 10.7031 5.39062
Q8 8.70312 6.54688 13.3906
Q5.09375 18.0938 5.09375 23.9062
Q5.09375 29.7031 6.5 34.4531
Q7.90625 39.2031 10.4531 42.5
Q13 45.7969 16.6406 47.5938
Q20.2969 49.4062 24.7969 49.4062
Q30.9062 49.4062 35.25 46.25
Q39.5938 43.0938 41.5938 37.4062
Q42.4062 35 42.75 31.9531
Q43.0938 28.9062 43.0938 24.0938
Q43.0938 23 42.8906 22.6406
Q42.7031 22.2969 42 22.2969
z
" id="OfficinaSanITC-Book-65"/>
      </defs>
      <g style="fill:#262626;" transform="translate(128.611145833 186.1728125)scale(0.13 -0.13)">
       <use xlink:href="#OfficinaSanITC-Book-44"/>
       <use x="55.5999908447" xlink:href="#OfficinaSanITC-Book-65"/>
       <use x="101.899978638" xlink:href="#OfficinaSanITC-Book-63"/>
      </g>
     </g>
    </g>
    <g id="xtick_3">
     <g id="line2d_7">
      <path clip-path="url(#paa3a7b243e)" d="
M232.422 169.76
L232.422 19.89" style="fill:none;stroke:#cccccc;stroke-linecap:round;"/>
     </g>
     <g id="line2d_8">
      <g>
       <use style="fill:#262626;stroke:#262626;" x="232.421543403" xlink:href="#m219da94a98" y="169.76"/>
      </g>
     </g>
     <g id="line2d_9">
      <g>
       <use style="fill:#262626;stroke:#262626;" x="232.421543403" xlink:href="#m219da94a98" y="19.89"/>
      </g>
     </g>
     <g id="text_3">
      <!-- Jan -->
      <defs>
       <path d="
M30.0938 23.9062
Q11.4062 23.7969 11.4062 13.2969
Q11.4062 9.79688 13.4531 7.54688
Q15.5 5.29688 18.7031 5.29688
Q23.7031 5.29688 30.0938 11
z

M30.0938 33.4062
Q30.0938 38.2031 28 40.25
Q25.9062 42.2969 20.9062 42.2969
Q18 42.2969 15.4531 41.6875
Q12.9062 41.0938 9 39.4062
Q8.40625 39.2031 8.29688 39.2031
Q7.79688 39.2031 7.59375 39.7031
L6.09375 43.7031
L6 44.5
Q6 45 6.5 45.3438
Q7 45.7031 8.70312 46.4062
Q14.7031 49.0938 22 49.0938
Q30 49.0938 33.7969 45.6875
Q37.5938 42.2969 37.5938 35.0938
L37.5938 16.2031
Q37.5938 13.5938 37.6875 11.7969
Q37.7969 10 38.0938 8.54688
Q38.4062 7.09375 38.9531 5.84375
Q39.5 4.59375 40.2969 3.09375
Q40.5 2.70312 40.5 2.5
Q40.5 2.20312 40.0938 2
L35.7969 -0.703125
Q35.2969 -1 35 -1
Q34.2031 -1 33.0938 0.890625
Q32 2.79688 31.2031 5.29688
Q27.7969 2 24.4375 0.5
Q21.0938 -1 16.9062 -1
Q10.7969 -1 7.25 2.70312
Q3.70312 6.40625 3.70312 12.7031
Q3.70312 29.7031 30.0938 30.0938
z
" id="OfficinaSanITC-Book-61"/>
       <path d="
M11.7031 48.9062
Q12.2969 49.2031 12.5 49.2031
Q13.2969 49.2031 14.1875 47.3438
Q15.0938 45.5 15.5938 42.5938
Q20.2031 46.2969 23.8438 47.8438
Q27.5 49.4062 31.7031 49.4062
Q35.2031 49.4062 37.8438 48.1562
Q40.5 46.9062 41.9062 44.5938
Q42.4062 43.7031 42.75 42.7969
Q43.0938 41.9062 43.2969 40.7969
Q43.5 39.7031 43.5469 38.1406
Q43.5938 36.5938 43.5938 34.5
L43.5938 1.20312
Q43.5938 0.40625 43.3906 0.203125
Q43.2031 0 42.5 0
L37.2031 0
Q36.5 0 36.2969 0.203125
Q36.0938 0.40625 36.0938 1.20312
L36.0938 34.5938
Q36.0938 39.0938 34.5469 41
Q33 42.9062 29.5 42.9062
Q26 42.9062 23.0469 41.5
Q20.0938 40.0938 16.2969 36.5938
L16.2969 1.20312
Q16.2969 0.40625 16.0938 0.203125
Q15.9062 0 15.2031 0
L9.90625 0
Q9.20312 0 9 0.203125
Q8.79688 0.40625 8.79688 1.20312
L8.79688 35.5
Q8.79688 37.2031 8.6875 38.4531
Q8.59375 39.7031 8.39062 40.75
Q8.20312 41.7969 7.84375 42.8438
Q7.5 43.9062 6.90625 45.0938
Q6.70312 45.5 6.70312 45.7031
Q6.70312 46.0938 7.20312 46.2969
z
" id="OfficinaSanITC-Book-6e"/>
       <path d="
M10.4062 61.7031
Q9.5 61.7031 9.25 61.9531
Q9 62.2031 9 63.0938
L9 67.2031
Q9 68.0938 9.25 68.3438
Q9.5 68.5938 10.4062 68.5938
L34.5 68.5938
Q35.4062 68.5938 35.6562 68.3438
Q35.9062 68.0938 35.9062 67.2031
L35.9062 21.2031
Q35.9062 17.5 35.7969 15.0938
Q35.7031 12.7031 35.4531 11.0469
Q35.2031 9.40625 34.6406 8.20312
Q34.0938 7 33.2031 5.70312
Q30.9062 2.20312 27.0469 0.390625
Q23.2031 -1.40625 18.0938 -1.40625
Q9.70312 -1.40625 5.34375 3.4375
Q1 8.29688 1 17.7031
Q1 19 1.14062 19.3438
Q1.29688 19.7031 1.90625 19.7031
L7.79688 19.7031
Q8.59375 19.7031 8.59375 18.7031
L8.59375 17.5
Q8.59375 11.5 11.0469 8.39062
Q13.5 5.29688 18.2031 5.29688
Q21.4062 5.29688 23.6562 6.6875
Q25.9062 8.09375 26.9062 10.7031
Q27.2031 11.4062 27.3438 12
Q27.5 12.5938 27.5469 13.6406
Q27.5938 14.7031 27.6406 16.3438
Q27.7031 18 27.7031 20.7031
L27.7031 61.7031
z
" id="OfficinaSanITC-Book-4a"/>
      </defs>
      <g style="fill:#262626;" transform="translate(223.757246528 186.1728125)scale(0.13 -0.13)">
       <use xlink:href="#OfficinaSanITC-Book-4a"/>
       <use x="44.3999938965" xlink:href="#OfficinaSanITC-Book-61"/>
       <use x="90.6999816895" xlink:href="#OfficinaSanITC-Book-6e"/>
      </g>
      <!-- 1997 -->
      <defs>
       <path d="
M31 64.4062
Q31.9062 64.4062 32.1562 64.1562
Q32.4062 63.9062 32.4062 63
L32.4062 6.59375
L41.0938 6.59375
Q42 6.59375 42.25 6.34375
Q42.5 6.09375 42.5 5.20312
L42.5 1.40625
Q42.5 0.5 42.25 0.25
Q42 0 41.0938 0
L14.5938 0
Q13.7031 0 13.4531 0.25
Q13.2031 0.5 13.2031 1.40625
L13.2031 5.20312
Q13.2031 6.09375 13.4531 6.34375
Q13.7031 6.59375 14.5938 6.59375
L24.7969 6.59375
L24.7969 55.5
L10.7969 47.4062
Q10.2969 47 9.79688 47
Q9.40625 47 9 47.9062
L7.79688 50.0938
Q7.5 50.5 7.5 51.0938
Q7.5 51.5 8.29688 51.9062
L26 64.4062
z
" id="OfficinaSanITC-Book-31"/>
       <path d="
M19.5 0.09375
Q19.0938 -0.90625 18.5 -0.90625
Q18.4062 -0.90625 17.9062 -0.796875
L12.5 -0.09375
Q11.2969 0.203125 11.2969 0.796875
Q11.2969 1 11.3438 1.09375
Q11.4062 1.20312 11.5938 1.70312
L33.2031 57.2031
L7.40625 57.2031
Q6.5 57.2031 6.25 57.4531
Q6 57.7031 6 58.5938
L6 63
Q6 63.9062 6.25 64.1562
Q6.5 64.4062 7.40625 64.4062
L41.2031 64.4062
Q42.0938 64.4062 42.3438 64.1562
Q42.5938 63.9062 42.5938 63
L42.5938 60.7031
z
" id="OfficinaSanITC-Book-37"/>
       <path d="
M24.5 58.5938
Q19.4062 58.5938 16.4062 54.3438
Q13.4062 50.0938 13.4062 42.9062
Q13.4062 35.4062 16.25 31.25
Q19.0938 27.0938 24.2031 27.0938
Q29.5938 27.0938 32.3906 31.25
Q35.2031 35.4062 35.2031 43.2031
Q35.2031 50.7031 32.5 54.6406
Q29.7969 58.5938 24.5 58.5938
M9.09375 5.59375
Q9.09375 6.40625 9.90625 6.40625
Q10.0938 6.40625 10.7031 6.20312
Q13.5938 5.40625 16.7969 5.40625
Q24.7031 5.40625 29.0469 10.75
Q33.4062 16.0938 35.2031 28
Q32.7969 24 29.6406 22.1406
Q26.5 20.2969 22.2031 20.2969
Q18.4062 20.2969 15.2969 21.8906
Q12.2031 23.5 9.95312 26.3906
Q7.70312 29.2969 6.5 33.3906
Q5.29688 37.5 5.29688 42.5
Q5.29688 47.7031 6.6875 51.9531
Q8.09375 56.2031 10.6875 59.25
Q13.2969 62.2969 16.8438 64
Q20.4062 65.7031 24.7969 65.7031
Q43.2969 65.7031 43.2969 38.2969
Q43.2969 29 41.5469 21.6406
Q39.7969 14.2969 36.5469 9.1875
Q33.2969 4.09375 28.6406 1.34375
Q24 -1.40625 18.0938 -1.40625
Q13.9062 -1.40625 11.25 -0.75
Q8.59375 -0.09375 8.59375 1
L8.59375 1.70312
z
" id="OfficinaSanITC-Book-39"/>
      </defs>
      <g style="fill:#262626;" transform="translate(220.756074653 200.22459375)scale(0.13 -0.13)">
       <use xlink:href="#OfficinaSanITC-Book-31"/>
       <use x="47.2499847412" xlink:href="#OfficinaSanITC-Book-39"/>
       <use x="97.2499694824" xlink:href="#OfficinaSanITC-Book-39"/>
       <use x="144.374954224" xlink:href="#OfficinaSanITC-Book-37"/>
      </g>
     </g>
    </g>
    <g id="xtick_4">
     <g id="line2d_10">
      <path clip-path="url(#paa3a7b243e)" d="
M327.646 169.76
L327.646 19.89" style="fill:none;stroke:#cccccc;stroke-linecap:round;"/>
     </g>
     <g id="line2d_11">
      <g>
       <use style="fill:#262626;stroke:#262626;" x="327.645847222" xlink:href="#m219da94a98" y="169.76"/>
      </g>
     </g>
     <g id="line2d_12">
      <g>
       <use style="fill:#262626;stroke:#262626;" x="327.645847222" xlink:href="#m219da94a98" y="19.89"/>
      </g>
     </g>
     <g id="text_4">
      <!-- Feb -->
      <defs>
       <path d="
M17.7969 38.2969
L37.4062 38.2969
Q38.2969 38.2969 38.5469 38.0469
Q38.7969 37.7969 38.7969 36.9062
L38.7969 33
Q38.7969 32.0938 38.5469 31.8438
Q38.2969 31.5938 37.4062 31.5938
L17.7969 31.5938
L17.7969 1.40625
Q17.7969 0.5 17.5469 0.25
Q17.2969 0 16.4062 0
L11 0
Q10.0938 0 9.84375 0.25
Q9.59375 0.5 9.59375 1.40625
L9.59375 67.2031
Q9.59375 68.0938 9.84375 68.3438
Q10.0938 68.5938 11 68.5938
L41.7969 68.5938
Q43.2031 68.5938 43.2031 67.9062
Q43.2031 67.5938 43.0938 67.4062
L43 67
L41.5 62.5938
Q41 61.5 40 61.5
L17.7969 61.5
z
" id="OfficinaSanITC-Book-46"/>
       <path d="
M16 9.29688
Q20.5 5.40625 26.4062 5.40625
Q31.7969 5.40625 34.2969 10.3438
Q36.7969 15.2969 36.7969 26.0938
Q36.7969 34.9062 34.6875 38.7969
Q32.5938 42.7031 27.9062 42.7031
Q25.0938 42.7031 22.5469 41.6406
Q20 40.5938 16 37.7969
z

M16 44.5
Q19.9062 47.2031 22.9062 48.2969
Q25.9062 49.4062 29.2969 49.4062
Q37.0938 49.4062 41 43.7969
Q44.9062 38.2031 44.9062 27.2031
Q44.9062 12.5938 40.4531 5.59375
Q36 -1.40625 26.7031 -1.40625
Q22.9062 -1.40625 20 -0.25
Q17.0938 0.90625 13.9062 3.5
Q13.0938 1.59375 12.1406 0.296875
Q11.2031 -1 10.7031 -1
Q10.2969 -1 9.90625 -0.703125
L5.59375 2
Q5.29688 2.29688 5.29688 2.5
Q5.29688 2.70312 5.59375 3.20312
Q7.09375 5.20312 7.75 7.70312
Q8.40625 10.2031 8.40625 13.7031
L8.40625 69.7969
Q8.40625 70.7969 9.5 71.0938
L14.7031 72.2969
Q14.7969 72.4062 15 72.4062
Q15.2969 72.4062 15.4062 72.4062
Q16 72.4062 16 71.2969
z
" id="OfficinaSanITC-Book-62"/>
      </defs>
      <g style="fill:#262626;" transform="translate(319.556394097 186.1728125)scale(0.13 -0.13)">
       <use xlink:href="#OfficinaSanITC-Book-46"/>
       <use x="42.8499908447" xlink:href="#OfficinaSanITC-Book-65"/>
       <use x="89.1499786377" xlink:href="#OfficinaSanITC-Book-62"/>
      </g>
     </g>
    </g>
    <g id="xtick_5">
     <g id="line2d_13">
      <path clip-path="url(#paa3a7b243e)" d="
M413.655 169.76
L413.655 19.89" style="fill:none;stroke:#cccccc;stroke-linecap:round;"/>
     </g>
     <g id="line2d_14">
      <g>
       <use style="fill:#262626;stroke:#262626;" x="413.654895833" xlink:href="#m219da94a98" y="169.76"/>
      </g>
     </g>
     <g id="line2d_15">
      <g>
       <use style="fill:#262626;stroke:#262626;" x="413.654895833" xlink:href="#m219da94a98" y="19.89"/>
      </g>
     </g>
     <g id="text_5">
      <!-- Mar -->
      <defs>
       <path d="
M31.7969 33
Q32.2969 31.5938 32.6406 29.8438
Q33 28.0938 33.2031 26.7969
Q33.5 28.7031 33.7031 29.7969
Q33.9062 30.9062 34.5 33
L46.4062 67.5
Q46.7031 68.2969 46.8906 68.4375
Q47.0938 68.5938 47.9062 68.5938
L54.2031 68.5938
Q55 68.5938 55.25 68.3438
Q55.5 68.0938 55.5 67.2969
L59.2969 1.40625
L59.2969 1.20312
L59.2969 1
Q59.2969 0 58 0
L52.2031 0
Q51.2969 0 51.0938 0.25
Q50.9062 0.5 50.7969 1.29688
L49.2969 52.0938
L49.2969 52.5938
Q49.2969 53.4062 49.3438 54.8438
Q49.4062 56.2969 49.5938 57.7031
L49.7031 59.7031
Q49.2969 57.0938 48.75 54.75
Q48.2031 52.4062 47.5938 50.9062
L35.9062 17.0938
Q35.7031 16.2969 35.4531 16.1406
Q35.2031 16 34.4062 16
L31.5 16
Q30.4062 16 30 17.0938
L18.7031 50.9062
Q18 53 17.5469 55.0938
Q17.0938 57.2031 16.7969 59.7031
L16.7969 57.7969
L16.9062 56
L17 54
L17 52.4062
L17 52.0938
L15.5 1.29688
Q15.5 0.5 15.25 0.25
Q15 0 14.2031 0
L8.79688 0
Q7.40625 0 7.40625 1
L7.40625 1.40625
L11.2031 67.2969
Q11.2031 68.0938 11.4531 68.3438
Q11.7031 68.5938 12.5938 68.5938
L18.5 68.5938
Q19.2969 68.5938 19.5469 68.4375
Q19.7969 68.2969 20 67.5
z
" id="OfficinaSanITC-Book-4d"/>
       <path d="
M11.2969 49.0938
Q11.7031 49.4062 12.0938 49.4062
Q12.5 49.4062 13.0938 48.7031
Q13.7031 48 14.2031 46.7969
Q14.7031 45.5938 15.1406 44.0938
Q15.5938 42.5938 15.9062 41.0938
Q18.2969 43.7969 19.8906 45.3906
Q21.5 47 22.8438 47.8906
Q24.2031 48.7969 25.4531 49.0938
Q26.7031 49.4062 28.2969 49.4062
Q30 49.4062 31.6406 48.8438
Q33.2969 48.2969 33.2969 47.7969
Q33.2969 47.5 33.0938 47.0938
L30.7031 41.5
Q30.5 41.2031 30.2031 41.2031
Q30.0938 41.2031 29.8906 41.25
Q29.7031 41.2969 28.5 41.7031
Q27.5 41.9062 26.7969 41.9062
Q25.7969 41.9062 24.8438 41.5469
Q23.9062 41.2031 22.7969 40.2969
Q21.7031 39.4062 20.25 37.9531
Q18.7969 36.5 16.9062 34.2969
L16.9062 1.20312
Q16.9062 0.40625 16.7031 0.203125
Q16.5 0 15.7969 0
L10.5 0
Q9.79688 0 9.59375 0.203125
Q9.40625 0.40625 9.40625 1.20312
L9.40625 31.2031
Q9.40625 34.2031 9.29688 36.0938
Q9.20312 38 8.95312 39.4531
Q8.70312 40.9062 8.25 42.0469
Q7.79688 43.2031 7 44.5938
Q6.59375 45.2969 6.59375 45.5938
Q6.59375 46.2031 7.09375 46.5
z
" id="OfficinaSanITC-Book-72"/>
      </defs>
      <g style="fill:#262626;" transform="translate(404.627005208 186.1728125)scale(0.13 -0.13)">
       <use xlink:href="#OfficinaSanITC-Book-4d"/>
       <use x="66.6999969482" xlink:href="#OfficinaSanITC-Book-61"/>
       <use x="112.999984741" xlink:href="#OfficinaSanITC-Book-72"/>
      </g>
     </g>
    </g>
    <g id="xtick_6">
     <g id="line2d_16">
      <path clip-path="url(#paa3a7b243e)" d="
M508.879 169.76
L508.879 19.89" style="fill:none;stroke:#cccccc;stroke-linecap:round;"/>
     </g>
     <g id="line2d_17">
      <g>
       <use style="fill:#262626;stroke:#262626;" x="508.879199653" xlink:href="#m219da94a98" y="169.76"/>
      </g>
     </g>
     <g id="line2d_18">
      <g>
       <use style="fill:#262626;stroke:#262626;" x="508.879199653" xlink:href="#m219da94a98" y="19.89"/>
      </g>
     </g>
     <g id="text_6">
      <!-- Apr -->
      <defs>
       <path d="
M16.5 9.59375
Q20 7.20312 22.3906 6.29688
Q24.7969 5.40625 27.4062 5.40625
Q32.5 5.40625 34.6406 9.84375
Q36.7969 14.2969 36.7969 24.7969
Q36.7969 29.2969 36.4375 32.2969
Q36.0938 35.2969 35.2969 37.5
Q34.4062 39.9062 32.4531 41.2969
Q30.5 42.7031 28.0938 42.7031
Q25.5 42.7031 23.0469 41.6406
Q20.5938 40.5938 16.5 37.7969
z

M10.5938 49.2969
Q10.9062 49.5938 11.4062 49.5938
Q12 49.5938 13.1406 47.75
Q14.2969 45.9062 15.0938 43.5938
Q19.2969 46.7969 22.5 48.0938
Q25.7031 49.4062 29.5 49.4062
Q38.0938 49.4062 41.5938 42.5
Q43.2031 39.2031 44.0469 34.75
Q44.9062 30.2969 44.9062 25
Q44.9062 12.5938 40.5 5.59375
Q36.0938 -1.40625 28.2969 -1.40625
Q25.2031 -1.40625 22.5469 -0.40625
Q19.9062 0.59375 16.5 3
L16.5 -18.4062
Q16.5 -19.4062 15.5938 -19.7031
L10.2969 -21.0938
Q10 -21.2031 9.70312 -21.2031
Q9 -21.2031 9 -20.0938
L9 34.2031
Q9 37.9062 8.59375 39.9062
Q8.20312 41.9062 7 43.9062
Q6.29688 44.9062 6.14062 45.25
Q6 45.5938 6 45.7969
Q6 46.0938 6.29688 46.2969
z
" id="OfficinaSanITC-Book-70"/>
       <path d="
M35 27.5
L29 49.5
Q28.2969 52.0938 27.75 54.5
Q27.2031 56.9062 26.7031 59.0938
Q26.2969 57.0938 25.75 54.75
Q25.2031 52.4062 24.4062 49.5938
L18.4062 27.5
z

M16.5938 20.5938
L11 1.09375
Q10.7031 0 9.5 0
L3.5 0
Q2.09375 0 2.09375 0.703125
Q2.09375 0.90625 2.09375 1
Q2.09375 1.09375 2.29688 1.59375
L22.4062 67.5
Q22.7031 68.2969 22.8906 68.4375
Q23.0938 68.5938 23.9062 68.5938
L29.9062 68.5938
Q30.7031 68.5938 30.8906 68.4375
Q31.0938 68.2969 31.4062 67.5
L51.5 1.59375
Q51.7031 1.09375 51.7031 1
Q51.7031 0.90625 51.7031 0.796875
Q51.7031 0 50.2969 0
L43.9062 0
Q42.9062 0 42.4062 1.09375
L36.9062 20.5938
z
" id="OfficinaSanITC-Book-41"/>
      </defs>
      <g style="fill:#262626;" transform="translate(500.110293403 186.1728125)scale(0.13 -0.13)">
       <use xlink:href="#OfficinaSanITC-Book-41"/>
       <use x="53.6999969482" xlink:href="#OfficinaSanITC-Book-70"/>
       <use x="103.699981689" xlink:href="#OfficinaSanITC-Book-72"/>
      </g>
     </g>
    </g>
    <g id="xtick_7">
     <g id="line2d_19">
      <path clip-path="url(#paa3a7b243e)" d="
M597.96 169.76
L597.96 19.89" style="fill:none;stroke:#cccccc;stroke-linecap:round;"/>
     </g>
     <g id="line2d_20">
      <g>
       <use style="fill:#262626;stroke:#262626;" x="597.96" xlink:href="#m219da94a98" y="169.76"/>
      </g>
     </g>
     <g id="line2d_21">
      <g>
       <use style="fill:#262626;stroke:#262626;" x="597.96" xlink:href="#m219da94a98" y="19.89"/>
      </g>
     </g>
    </g>
    <g id="xtick_8">
     <g id="line2d_22">
      <defs>
       <path d="
M0 0
L0 0" id="m8735711441" style="stroke:#262626;stroke-width:0.5;"/>
      </defs>
      <g>
       <use style="fill:#262626;stroke:#262626;stroke-width:0.5;" x="54.2599427083" xlink:href="#m8735711441" y="169.76"/>
      </g>
     </g>
     <g id="line2d_23">
      <g>
       <use style="fill:#262626;stroke:#262626;stroke-width:0.5;" x="54.2599427083" xlink:href="#m8735711441" y="19.89"/>
      </g>
     </g>
    </g>
    <g id="xtick_9">
     <g id="line2d_24">
      <g>
       <use style="fill:#262626;stroke:#262626;stroke-width:0.5;" x="75.7622048611" xlink:href="#m8735711441" y="169.76"/>
      </g>
     </g>
     <g id="line2d_25">
      <g>
       <use style="fill:#262626;stroke:#262626;stroke-width:0.5;" x="75.7622048611" xlink:href="#m8735711441" y="19.89"/>
      </g>
     </g>
    </g>
    <g id="xtick_10">
     <g id="line2d_26">
      <g>
       <use style="fill:#262626;stroke:#262626;stroke-width:0.5;" x="97.2644670139" xlink:href="#m8735711441" y="169.76"/>
      </g>
     </g>
     <g id="line2d_27">
      <g>
       <use style="fill:#262626;stroke:#262626;stroke-width:0.5;" x="97.2644670139" xlink:href="#m8735711441" y="19.89"/>
      </g>
     </g>
    </g>
    <g id="xtick_11">
     <g id="line2d_28">
      <g>
       <use style="fill:#262626;stroke:#262626;stroke-width:0.5;" x="118.766729167" xlink:href="#m8735711441" y="169.76"/>
      </g>
     </g>
     <g id="line2d_29">
      <g>
       <use style="fill:#262626;stroke:#262626;stroke-width:0.5;" x="118.766729167" xlink:href="#m8735711441" y="19.89"/>
      </g>
     </g>
    </g>
    <g id="xtick_12">
     <g id="line2d_30">
      <g>
       <use style="fill:#262626;stroke:#262626;stroke-width:0.5;" x="140.268991319" xlink:href="#m8735711441" y="169.76"/>
      </g>
     </g>
     <g id="line2d_31">
      <g>
       <use style="fill:#262626;stroke:#262626;stroke-width:0.5;" x="140.268991319" xlink:href="#m8735711441" y="19.89"/>
      </g>
     </g>
    </g>
    <g id="xtick_13">
     <g id="line2d_32">
      <g>
       <use style="fill:#262626;stroke:#262626;stroke-width:0.5;" x="161.771253472" xlink:href="#m8735711441" y="169.76"/>
      </g>
     </g>
     <g id="line2d_33">
      <g>
       <use style="fill:#262626;stroke:#262626;stroke-width:0.5;" x="161.771253472" xlink:href="#m8735711441" y="19.89"/>
      </g>
     </g>
    </g>
    <g id="xtick_14">
     <g id="line2d_34">
      <g>
       <use style="fill:#262626;stroke:#262626;stroke-width:0.5;" x="183.273515625" xlink:href="#m8735711441" y="169.76"/>
      </g>
     </g>
     <g id="line2d_35">
      <g>
       <use style="fill:#262626;stroke:#262626;stroke-width:0.5;" x="183.273515625" xlink:href="#m8735711441" y="19.89"/>
      </g>
     </g>
    </g>
    <g id="xtick_15">
     <g id="line2d_36">
      <g>
       <use style="fill:#262626;stroke:#262626;stroke-width:0.5;" x="204.775777778" xlink:href="#m8735711441" y="169.76"/>
      </g>
     </g>
     <g id="line2d_37">
      <g>
       <use style="fill:#262626;stroke:#262626;stroke-width:0.5;" x="204.775777778" xlink:href="#m8735711441" y="19.89"/>
      </g>
     </g>
    </g>
    <g id="xtick_16">
     <g id="line2d_38">
      <g>
       <use style="fill:#262626;stroke:#262626;stroke-width:0.5;" x="226.278039931" xlink:href="#m8735711441" y="169.76"/>
      </g>
     </g>
     <g id="line2d_39">
      <g>
       <use style="fill:#262626;stroke:#262626;stroke-width:0.5;" x="226.278039931" xlink:href="#m8735711441" y="19.89"/>
      </g>
     </g>
    </g>
    <g id="xtick_17">
     <g id="line2d_40">
      <g>
       <use style="fill:#262626;stroke:#262626;stroke-width:0.5;" x="247.780302083" xlink:href="#m8735711441" y="169.76"/>
      </g>
     </g>
     <g id="line2d_41">
      <g>
       <use style="fill:#262626;stroke:#262626;stroke-width:0.5;" x="247.780302083" xlink:href="#m8735711441" y="19.89"/>
      </g>
     </g>
    </g>
    <g id="xtick_18">
     <g id="line2d_42">
      <g>
       <use style="fill:#262626;stroke:#262626;stroke-width:0.5;" x="269.282564236" xlink:href="#m8735711441" y="169.76"/>
      </g>
     </g>
     <g id="line2d_43">
      <g>
       <use style="fill:#262626;stroke:#262626;stroke-width:0.5;" x="269.282564236" xlink:href="#m8735711441" y="19.89"/>
      </g>
     </g>
    </g>
    <g id="xtick_19">
     <g id="line2d_44">
      <g>
       <use style="fill:#262626;stroke:#262626;stroke-width:0.5;" x="290.784826389" xlink:href="#m8735711441" y="169.76"/>
      </g>
     </g>
     <g id="line2d_45">
      <g>
       <use style="fill:#262626;stroke:#262626;stroke-width:0.5;" x="290.784826389" xlink:href="#m8735711441" y="19.89"/>
      </g>
     </g>
    </g>
    <g id="xtick_20">
     <g id="line2d_46">
      <g>
       <use style="fill:#262626;stroke:#262626;stroke-width:0.5;" x="312.287088542" xlink:href="#m8735711441" y="169.76"/>
      </g>
     </g>
     <g id="line2d_47">
      <g>
       <use style="fill:#262626;stroke:#262626;stroke-width:0.5;" x="312.287088542" xlink:href="#m8735711441" y="19.89"/>
      </g>
     </g>
    </g>
    <g id="xtick_21">
     <g id="line2d_48">
      <g>
       <use style="fill:#262626;stroke:#262626;stroke-width:0.5;" x="333.789350694" xlink:href="#m8735711441" y="169.76"/>
      </g>
     </g>
     <g id="line2d_49">
      <g>
       <use style="fill:#262626;stroke:#262626;stroke-width:0.5;" x="333.789350694" xlink:href="#m8735711441" y="19.89"/>
      </g>
     </g>
    </g>
    <g id="xtick_22">
     <g id="line2d_50">
      <g>
       <use style="fill:#262626;stroke:#262626;stroke-width:0.5;" x="355.291612847" xlink:href="#m8735711441" y="169.76"/>
      </g>
     </g>
     <g id="line2d_51">
      <g>
       <use style="fill:#262626;stroke:#262626;stroke-width:0.5;" x="355.291612847" xlink:href="#m8735711441" y="19.89"/>
      </g>
     </g>
    </g>
    <g id="xtick_23">
     <g id="line2d_52">
      <g>
       <use style="fill:#262626;stroke:#262626;stroke-width:0.5;" x="376.793875" xlink:href="#m8735711441" y="169.76"/>
      </g>
     </g>
     <g id="line2d_53">
      <g>
       <use style="fill:#262626;stroke:#262626;stroke-width:0.5;" x="376.793875" xlink:href="#m8735711441" y="19.89"/>
      </g>
     </g>
    </g>
    <g id="xtick_24">
     <g id="line2d_54">
      <g>
       <use style="fill:#262626;stroke:#262626;stroke-width:0.5;" x="398.296137153" xlink:href="#m8735711441" y="169.76"/>
      </g>
     </g>
     <g id="line2d_55">
      <g>
       <use style="fill:#262626;stroke:#262626;stroke-width:0.5;" x="398.296137153" xlink:href="#m8735711441" y="19.89"/>
      </g>
     </g>
    </g>
    <g id="xtick_25">
     <g id="line2d_56">
      <g>
       <use style="fill:#262626;stroke:#262626;stroke-width:0.5;" x="419.798399306" xlink:href="#m8735711441" y="169.76"/>
      </g>
     </g>
     <g id="line2d_57">
      <g>
       <use style="fill:#262626;stroke:#262626;stroke-width:0.5;" x="419.798399306" xlink:href="#m8735711441" y="19.89"/>
      </g>
     </g>
    </g>
    <g id="xtick_26">
     <g id="line2d_58">
      <g>
       <use style="fill:#262626;stroke:#262626;stroke-width:0.5;" x="441.300661458" xlink:href="#m8735711441" y="169.76"/>
      </g>
     </g>
     <g id="line2d_59">
      <g>
       <use style="fill:#262626;stroke:#262626;stroke-width:0.5;" x="441.300661458" xlink:href="#m8735711441" y="19.89"/>
      </g>
     </g>
    </g>
    <g id="xtick_27">
     <g id="line2d_60">
      <g>
       <use style="fill:#262626;stroke:#262626;stroke-width:0.5;" x="462.802923611" xlink:href="#m8735711441" y="169.76"/>
      </g>
     </g>
     <g id="line2d_61">
      <g>
       <use style="fill:#262626;stroke:#262626;stroke-width:0.5;" x="462.802923611" xlink:href="#m8735711441" y="19.89"/>
      </g>
     </g>
    </g>
    <g id="xtick_28">
     <g id="line2d_62">
      <g>
       <use style="fill:#262626;stroke:#262626;stroke-width:0.5;" x="484.305185764" xlink:href="#m8735711441" y="169.76"/>
      </g>
     </g>
     <g id="line2d_63">
      <g>
       <use style="fill:#262626;stroke:#262626;stroke-width:0.5;" x="484.305185764" xlink:href="#m8735711441" y="19.89"/>
      </g>
     </g>
    </g>
    <g id="xtick_29">
     <g id="line2d_64">
      <g>
       <use style="fill:#262626;stroke:#262626;stroke-width:0.5;" x="505.807447917" xlink:href="#m8735711441" y="169.76"/>
      </g>
     </g>
     <g id="line2d_65">
      <g>
       <use style="fill:#262626;stroke:#262626;stroke-width:0.5;" x="505.807447917" xlink:href="#m8735711441" y="19.89"/>
      </g>
     </g>
    </g>
    <g id="xtick_30">
     <g id="line2d_66">
      <g>
       <use style="fill:#262626;stroke:#262626;stroke-width:0.5;" x="527.309710069" xlink:href="#m8735711441" y="169.76"/>
      </g>
     </g>
     <g id="line2d_67">
      <g>
       <use style="fill:#262626;stroke:#262626;stroke-width:0.5;" x="527.309710069" xlink:href="#m8735711441" y="19.89"/>
      </g>
     </g>
    </g>
    <g id="xtick_31">
     <g id="line2d_68">
      <g>
       <use style="fill:#262626;stroke:#262626;stroke-width:0.5;" x="548.811972222" xlink:href="#m8735711441" y="169.76"/>
      </g>
     </g>
     <g id="line2d_69">
      <g>
       <use style="fill:#262626;stroke:#262626;stroke-width:0.5;" x="548.811972222" xlink:href="#m8735711441" y="19.89"/>
      </g>
     </g>
    </g>
    <g id="xtick_32">
     <g id="line2d_70">
      <g>
       <use style="fill:#262626;stroke:#262626;stroke-width:0.5;" x="570.314234375" xlink:href="#m8735711441" y="169.76"/>
      </g>
     </g>
     <g id="line2d_71">
      <g>
       <use style="fill:#262626;stroke:#262626;stroke-width:0.5;" x="570.314234375" xlink:href="#m8735711441" y="19.89"/>
      </g>
     </g>
    </g>
    <g id="xtick_33">
     <g id="line2d_72">
      <g>
       <use style="fill:#262626;stroke:#262626;stroke-width:0.5;" x="591.816496528" xlink:href="#m8735711441" y="169.76"/>
      </g>
     </g>
     <g id="line2d_73">
      <g>
       <use style="fill:#262626;stroke:#262626;stroke-width:0.5;" x="591.816496528" xlink:href="#m8735711441" y="19.89"/>
      </g>
     </g>
    </g>
   </g>
   <g id="matplotlib.axis_2">
    <g id="ytick_1">
     <g id="line2d_74">
      <path clip-path="url(#paa3a7b243e)" d="
M45.0447 169.76
L597.96 169.76" style="fill:none;stroke:#cccccc;stroke-linecap:round;"/>
     </g>
     <g id="line2d_75">
      <g>
       <use style="fill:#262626;stroke:#262626;" x="45.0446875" xlink:href="#m219da94a98" y="169.76"/>
      </g>
     </g>
     <g id="line2d_76">
      <g>
       <use style="fill:#262626;stroke:#262626;" x="597.96" xlink:href="#m219da94a98" y="169.76"/>
      </g>
     </g>
     <g id="text_7">
      <!-- 0 -->
      <defs>
       <path d="
M25.2969 58.5938
Q19.2969 58.5938 15.9375 51.6406
Q12.5938 44.7031 12.5938 32.0938
Q12.5938 25.5938 13.5 20.3906
Q14.4062 15.2031 16.2031 11.5
Q19 5.70312 25 5.70312
Q31.7969 5.70312 34.5 12.4062
Q36 16 36.75 21.1406
Q37.5 26.2969 37.5 32.5938
Q37.5 58.5938 25.2969 58.5938
M25.9062 65.7031
Q35.5 65.7031 40.5469 57.25
Q45.5938 48.7969 45.5938 32.7969
Q45.5938 16 40.2969 7.29688
Q35 -1.40625 24.9062 -1.40625
Q16.2031 -1.40625 11.4062 5.20312
Q4.5 14.5938 4.5 31.5
Q4.5 39.5938 5.95312 45.9375
Q7.40625 52.2969 10.1562 56.6875
Q12.9062 61.0938 16.8438 63.3906
Q20.7969 65.7031 25.9062 65.7031" id="OfficinaSanITC-Book-30"/>
      </defs>
      <g style="fill:#262626;" transform="translate(32.7025 173.088203125)scale(0.13 -0.13)">
       <use xlink:href="#OfficinaSanITC-Book-30"/>
      </g>
     </g>
    </g>
    <g id="ytick_2">
     <g id="line2d_77">
      <path clip-path="url(#paa3a7b243e)" d="
M45.0447 139.786
L597.96 139.786" style="fill:none;stroke:#cccccc;stroke-linecap:round;"/>
     </g>
     <g id="line2d_78">
      <g>
       <use style="fill:#262626;stroke:#262626;" x="45.0446875" xlink:href="#m219da94a98" y="139.786"/>
      </g>
     </g>
     <g id="line2d_79">
      <g>
       <use style="fill:#262626;stroke:#262626;" x="597.96" xlink:href="#m219da94a98" y="139.786"/>
      </g>
     </g>
     <g id="text_8">
      <!-- 200 -->
      <defs>
       <path d="
M41.5938 7.29688
Q42.5 7.29688 42.75 7.04688
Q43 6.79688 43 5.90625
L43 1.40625
Q43 0.5 42.75 0.25
Q42.5 0 41.5938 0
L8.09375 0
Q7.29688 0 7.09375 0.25
Q6.90625 0.5 6.90625 1.40625
Q6.90625 6.79688 7.84375 11.25
Q8.79688 15.7031 10.8438 19.5469
Q12.9062 23.4062 16.1562 26.75
Q19.4062 30.0938 23.9062 33.2031
Q26.4062 34.9062 27.7969 35.9062
Q29.2031 36.9062 30.0469 37.5938
Q30.9062 38.2969 31.3438 38.7969
Q31.7969 39.2969 32.4062 40.0938
Q34.9062 43.4062 34.9062 48
Q34.9062 52.9062 32.25 55.75
Q29.5938 58.5938 25.0938 58.5938
Q20.9062 58.5938 18.3438 56.2969
Q15.7969 54 13.7969 48.5938
Q13.5 47.7969 13 47.7969
Q12.7031 47.7969 12.2031 48
L7.79688 49.2969
Q7 49.5938 7 50.2031
Q7 50.7969 7.34375 51.8906
Q7.70312 53 8.29688 54.2031
Q8.90625 55.4062 9.59375 56.6562
Q10.2969 57.9062 11 58.7969
Q16.2031 65.7031 25.5938 65.7031
Q33.7031 65.7031 38.3438 60.8438
Q43 56 43 47.5938
Q43 44.7031 42.3906 42.3438
Q41.7969 40 40.4375 37.8438
Q39.0938 35.7031 36.7969 33.5469
Q34.5 31.4062 31.2031 29
Q27.2969 26.2969 24.5 23.8438
Q21.7031 21.4062 19.8906 18.8438
Q18.0938 16.2969 17.0938 13.5
Q16.0938 10.7031 15.7031 7.29688
z
" id="OfficinaSanITC-Book-32"/>
      </defs>
      <g style="fill:#262626;" transform="translate(20.0153125 143.114203125)scale(0.13 -0.13)">
       <use xlink:href="#OfficinaSanITC-Book-32"/>
       <use x="49.9999847412" xlink:href="#OfficinaSanITC-Book-30"/>
       <use x="99.9999694824" xlink:href="#OfficinaSanITC-Book-30"/>
      </g>
     </g>
    </g>
    <g id="ytick_3">
     <g id="line2d_80">
      <path clip-path="url(#paa3a7b243e)" d="
M45.0447 109.812
L597.96 109.812" style="fill:none;stroke:#cccccc;stroke-linecap:round;"/>
     </g>
     <g id="line2d_81">
      <g>
       <use style="fill:#262626;stroke:#262626;" x="45.0446875" xlink:href="#m219da94a98" y="109.812"/>
      </g>
     </g>
     <g id="line2d_82">
      <g>
       <use style="fill:#262626;stroke:#262626;" x="597.96" xlink:href="#m219da94a98" y="109.812"/>
      </g>
     </g>
     <g id="text_9">
      <!-- 400 -->
      <defs>
       <path d="
M29 64.0938
Q29.5 64.9062 30.0938 64.9062
L30.2969 64.9062
L30.7031 64.9062
L35.7031 64.0938
Q36.9062 63.7969 36.9062 63.2031
Q36.9062 62.7969 36.5 62.2969
L11 20.7031
L30.0938 20.7031
L31.2031 36.7969
Q31.2969 37.5938 31.5469 37.8438
Q31.7969 38.0938 32.5938 38.0938
L36.2031 38.0938
Q37.0938 38.0938 37.3438 37.8438
Q37.5938 37.5938 37.5938 36.7031
L37.5938 20.7031
L45.5 20.7031
Q46.4062 20.7031 46.6562 20.4531
Q46.9062 20.2031 46.9062 19.2969
L46.9062 15.5938
Q46.9062 14.7031 46.6562 14.4531
Q46.4062 14.2031 45.5 14.2031
L37.5938 14.2031
L37.5938 0
Q37.5938 -0.90625 37.3438 -1.15625
Q37.0938 -1.40625 36.2031 -1.40625
L31.5 -1.40625
Q30.5938 -1.40625 30.3438 -1.15625
Q30.0938 -0.90625 30.0938 0
L30.0938 14.2031
L4.5 14.2031
Q3.59375 14.2031 3.34375 14.4531
Q3.09375 14.7031 3.09375 15.5938
L3.09375 21.2031
z
" id="OfficinaSanITC-Book-34"/>
      </defs>
      <g style="fill:#262626;" transform="translate(19.5196875 113.140203125)scale(0.13 -0.13)">
       <use xlink:href="#OfficinaSanITC-Book-34"/>
       <use x="49.9999847412" xlink:href="#OfficinaSanITC-Book-30"/>
       <use x="99.9999694824" xlink:href="#OfficinaSanITC-Book-30"/>
      </g>
     </g>
    </g>
    <g id="ytick_4">
     <g id="line2d_83">
      <path clip-path="url(#paa3a7b243e)" d="
M45.0447 79.838
L597.96 79.838" style="fill:none;stroke:#cccccc;stroke-linecap:round;"/>
     </g>
     <g id="line2d_84">
      <g>
       <use style="fill:#262626;stroke:#262626;" x="45.0446875" xlink:href="#m219da94a98" y="79.838"/>
      </g>
     </g>
     <g id="line2d_85">
      <g>
       <use style="fill:#262626;stroke:#262626;" x="597.96" xlink:href="#m219da94a98" y="79.838"/>
      </g>
     </g>
     <g id="text_10">
      <!-- 600 -->
      <defs>
       <path d="
M24.9062 36.9062
Q19.7031 36.9062 16.8438 33.1562
Q14 29.4062 14 22.5
Q14 14.4062 16.7969 10.0469
Q19.5938 5.70312 25 5.70312
Q30.4062 5.70312 33.25 9.95312
Q36.0938 14.2031 36.0938 22.2969
Q36.0938 29.5 33.25 33.2031
Q30.4062 36.9062 24.9062 36.9062
M40.7969 58.4062
Q40.5938 57.9062 40.2031 57.9062
Q40 57.9062 39.4062 58.0938
Q36.2969 59.2031 33.0938 59.2031
Q28.9062 59.2031 25.7969 57.5
Q22.7031 55.7969 20 52.0938
Q17.7969 48.9062 16.5938 45.5469
Q15.4062 42.2031 14.7031 37.2969
Q17.7969 40.7969 20.6875 42.2969
Q23.5938 43.7969 27.4062 43.7969
Q31.2031 43.7969 34.2969 42.25
Q37.4062 40.7031 39.5938 37.8906
Q41.7969 35.0938 43 31.1406
Q44.2031 27.2031 44.2031 22.4062
Q44.2031 17.0938 42.7969 12.75
Q41.4062 8.40625 38.8438 5.25
Q36.2969 2.09375 32.75 0.34375
Q29.2031 -1.40625 24.9062 -1.40625
Q20.0938 -1.40625 16.0469 1
Q12 3.40625 9.70312 7.79688
Q7.70312 11.4062 6.79688 15.7031
Q5.90625 20 5.90625 26
Q5.90625 35.0938 7.84375 42.3906
Q9.79688 49.7031 13.3906 54.8906
Q17 60.0938 22.0938 62.8906
Q27.2031 65.7031 33.5 65.7031
Q35.0938 65.7031 36.6406 65.5
Q38.2031 65.2969 39.3906 65
Q40.5938 64.7031 41.3438 64.3438
Q42.0938 64 42.0938 63.5938
Q42.0938 63.4062 42 63
z
" id="OfficinaSanITC-Book-36"/>
      </defs>
      <g style="fill:#262626;" transform="translate(19.8853125 83.166203125)scale(0.13 -0.13)">
       <use xlink:href="#OfficinaSanITC-Book-36"/>
       <use x="49.9999847412" xlink:href="#OfficinaSanITC-Book-30"/>
       <use x="99.9999694824" xlink:href="#OfficinaSanITC-Book-30"/>
      </g>
     </g>
    </g>
    <g id="ytick_5">
     <g id="line2d_86">
      <path clip-path="url(#paa3a7b243e)" d="
M45.0447 49.864
L597.96 49.864" style="fill:none;stroke:#cccccc;stroke-linecap:round;"/>
     </g>
     <g id="line2d_87">
      <g>
       <use style="fill:#262626;stroke:#262626;" x="45.0446875" xlink:href="#m219da94a98" y="49.864"/>
      </g>
     </g>
     <g id="line2d_88">
      <g>
       <use style="fill:#262626;stroke:#262626;" x="597.96" xlink:href="#m219da94a98" y="49.864"/>
      </g>
     </g>
     <g id="text_11">
      <!-- 800 -->
      <defs>
       <path d="
M24.7969 30.2031
Q22.2031 29.0938 20.9531 28.5
Q19.7031 27.9062 18.4062 27.0938
Q15.5 25.4062 13.8438 22.4062
Q12.2031 19.4062 12.2031 16.2031
Q12.2031 11.2031 15.75 8.20312
Q19.2969 5.20312 25.2031 5.20312
Q30.7969 5.20312 34.2969 8.29688
Q37.7969 11.4062 37.7969 16.2031
Q37.7969 20.7969 34.75 24.0469
Q31.7031 27.2969 24.7969 30.2031
M25.2969 37.2969
Q30.7031 39.7031 33.0938 42.5938
Q35.5 45.5 35.5 49.7031
Q35.5 54.2031 32.6406 56.75
Q29.7969 59.2969 24.9062 59.2969
Q20.2969 59.2969 17.5 56.6875
Q14.7031 54.0938 14.7031 49.9062
Q14.7031 46.0938 17.25 43.0469
Q19.7969 40 25.2969 37.2969
M18.5938 34.0938
Q6.79688 39 6.79688 49.5938
Q6.79688 56.0938 11.4062 60.7031
Q14 63.2969 17.2969 64.5
Q20.5938 65.7031 25.2031 65.7031
Q29.2031 65.7031 32.5 64.5938
Q35.7969 63.5 38.1406 61.5
Q40.5 59.5 41.7969 56.7031
Q43.0938 53.9062 43.0938 50.5
Q43.0938 44.9062 40.4375 41.0469
Q37.7969 37.2031 31.7969 34.2031
Q38.7969 31.5 42.3906 27.0469
Q46 22.5938 46 16.7031
Q46 13.5938 44.8906 10.6875
Q43.7969 7.79688 41.5 5.29688
Q38.5 1.79688 34.5469 0.1875
Q30.5938 -1.40625 25 -1.40625
Q20.2031 -1.40625 16.3438 -0.09375
Q12.5 1.20312 9.75 3.54688
Q7 5.90625 5.5 9.20312
Q4 12.5 4 16.5938
Q4 20.2969 5.5 23.5938
Q7 26.9062 9.70312 29.2969
Q11.4062 30.7031 13.3438 31.75
Q15.2969 32.7969 18.5938 34.0938" id="OfficinaSanITC-Book-38"/>
      </defs>
      <g style="fill:#262626;" transform="translate(19.6375 53.192203125)scale(0.13 -0.13)">
       <use xlink:href="#OfficinaSanITC-Book-38"/>
       <use x="49.9999847412" xlink:href="#OfficinaSanITC-Book-30"/>
       <use x="99.9999694824" xlink:href="#OfficinaSanITC-Book-30"/>
      </g>
     </g>
    </g>
    <g id="ytick_6">
     <g id="line2d_89">
      <path clip-path="url(#paa3a7b243e)" d="
M45.0447 19.89
L597.96 19.89" style="fill:none;stroke:#cccccc;stroke-linecap:round;"/>
     </g>
     <g id="line2d_90">
      <g>
       <use style="fill:#262626;stroke:#262626;" x="45.0446875" xlink:href="#m219da94a98" y="19.89"/>
      </g>
     </g>
     <g id="line2d_91">
      <g>
       <use style="fill:#262626;stroke:#262626;" x="597.96" xlink:href="#m219da94a98" y="19.89"/>
      </g>
     </g>
     <g id="text_12">
      <!-- 1000 -->
      <g style="fill:#262626;" transform="translate(14.08 23.218203125)scale(0.13 -0.13)">
       <use xlink:href="#OfficinaSanITC-Book-31"/>
       <use x="46.2499847412" xlink:href="#OfficinaSanITC-Book-30"/>
       <use x="96.2499694824" xlink:href="#OfficinaSanITC-Book-30"/>
       <use x="146.249954224" xlink:href="#OfficinaSanITC-Book-30"/>
      </g>
     </g>
    </g>
   </g>
   <g id="patch_3">
    <path clip-path="url(#paa3a7b243e)" d="
M45.0447 169.76
L45.0447 19.89
L170.987 19.89
L170.987 169.76
z
" style="fill:#fff8dc;opacity:0.4;"/>
   </g>
   <g id="patch_4">
    <path clip-path="url(#paa3a7b243e)" d="
M174.058 169.76
L174.058 19.89
L226.278 19.89
L226.278 169.76
z
" style="fill:#fff8dc;opacity:0.4;"/>
   </g>
   <g id="patch_5">
    <path clip-path="url(#paa3a7b243e)" d="
M244.709 169.76
L244.709 19.89
L300 19.89
L300 169.76
z
" style="fill:#fff8dc;opacity:0.4;"/>
   </g>
   <g id="patch_6">
    <path clip-path="url(#paa3a7b243e)" d="
M303.072 169.76
L303.072 19.89
L309.215 19.89
L309.215 169.76
z
" style="fill:#fff8dc;opacity:0.4;"/>
   </g>
   <g id="patch_7">
    <path clip-path="url(#paa3a7b243e)" d="
M312.287 169.76
L312.287 19.89
L601.032 19.89
L601.032 169.76
z
" style="fill:#fff8dc;opacity:0.4;"/>
   </g>
   <g id="patch_8">
    <path clip-path="url(#paa3a7b243e)" d="
M170.987 169.76
L170.987 19.89
L174.058 19.89
L174.058 169.76
z
" style="fill:#b0c4de;opacity:0.4;"/>
   </g>
   <g id="patch_9">
    <path clip-path="url(#paa3a7b243e)" d="
M226.278 169.76
L226.278 19.89
L244.709 19.89
L244.709 169.76
z
" style="fill:#b0c4de;opacity:0.4;"/>
   </g>
   <g id="patch_10">
    <path clip-path="url(#paa3a7b243e)" d="
M300 169.76
L300 19.89
L303.072 19.89
L303.072 169.76
z
" style="fill:#b0c4de;opacity:0.4;"/>
   </g>
   <g id="patch_11">
    <path clip-path="url(#paa3a7b243e)" d="
M309.215 169.76
L309.215 19.89
L312.287 19.89
L312.287 169.76
z
" style="fill:#b0c4de;opacity:0.4;"/>
   </g>
   <g id="line2d_92">
    <path clip-path="url(#paa3a7b243e)" d="
M45.0447 75.0126
L48.1164 75.6361
L51.1882 76.1506
L78.834 80.8414
L81.9057 81.4578
L91.121 82.683
L94.1927 82.735
L97.2645 80.9725
L100.336 80.4742
L103.408 80.4348
L106.48 80.5873
L109.551 81.0512
L112.623 80.6578
L115.695 80.8546
L118.767 81.3529
L124.91 82.7611
L131.054 84.3885
L134.125 85.1046
L137.197 85.2709
L140.269 85.1686
L143.341 85.3093
L146.412 86.3134
L149.484 85.6033
L152.556 89.9153
L155.628 92.8089
L158.7 95.4747
L161.771 97.8288
L164.843 97.0597
L167.915 95.4155
L170.987 87.1854
L174.058 87.5119
L177.13 89.4958
L180.202 92.3126
L183.274 94.453
L186.345 96.3457
L189.417 97.8058
L192.489 98.8682
L195.561 99.6123
L198.632 97.6076
L201.704 95.7455
L204.776 95.7455
L210.919 96.7448
L213.991 97.8288
L217.063 97.1063
L220.135 99.475
L223.206 103.675
L226.278 101.55
L229.35 95.2848
L232.422 69.9109
L235.493 40.2173
L238.565 44.2641
L241.637 51.4457
L244.709 63.2769
L247.78 74.2759
L253.924 86.326
L260.067 99.475
L263.139 104.18
L266.211 107.327
L269.283 110.279
L272.354 113.036
L275.426 115.176
L278.498 116.409
L281.57 117.029
L284.641 117.37
L287.713 117.426
L290.785 116.801
L293.857 116.304
L300 110.515
L303.072 114.21
L306.144 114.504
L309.215 105.498
L312.287 103.994
L315.359 106.454
L318.431 109.797
L321.502 112.257
L324.574 113.383
L327.646 113.917
L330.718 114.015
L336.861 115.089
L339.933 115.978
L346.076 117.964
L349.148 118.282
L352.22 118.17
L355.292 117.879
L358.363 117.389
L361.435 116.61
L370.65 114.837
L373.722 114.103
L382.937 111.147
L389.081 109.662
L395.224 108.423
L398.296 107.836
L401.368 107.465
L404.44 107.941
L407.511 108.665
L413.655 109.776
L416.727 110.033
L432.085 109.299
L441.301 108.455
L447.444 107.784
L450.516 107.529
L456.659 107.253
L459.731 106.956
L462.803 106.444
L465.875 106.089
L484.305 103.145
L487.377 102.491
L490.449 102.032
L499.664 100.172
L505.807 99.3607
L508.879 98.9833
L515.023 98.5794
L524.238 98.4063
L536.525 97.526
L539.597 97.2929
L548.812 97.0363
L558.027 96.2046
L561.099 95.7926
L564.171 94.9164
L567.242 93.747
L570.314 92.8695
L576.458 90.6794
L579.529 89.8535
L585.673 88.8247
L588.745 88.4014
L594.888 87.311
L597.96 86.8837
L597.96 86.8837" style="fill:none;stroke:#999999;stroke-linecap:round;stroke-width:2;"/>
   </g>
   <g id="patch_12">
    <path d="
M45.0447 19.89
L597.96 19.89" style="fill:none;stroke:#cccccc;stroke-linecap:square;stroke-linejoin:miter;"/>
   </g>
   <g id="patch_13">
    <path d="
M597.96 169.76
L597.96 19.89" style="fill:none;stroke:#cccccc;stroke-linecap:square;stroke-linejoin:miter;"/>
   </g>
   <g id="patch_14">
    <path d="
M45.0447 169.76
L597.96 169.76" style="fill:none;stroke:#cccccc;stroke-linecap:square;stroke-linejoin:miter;"/>
   </g>
   <g id="patch_15">
    <path d="
M45.0447 169.76
L45.0447 19.89" style="fill:none;stroke:#cccccc;stroke-linecap:square;stroke-linejoin:miter;"/>
   </g>
   <g id="legend_1">
    <g id="line2d_93">
     <path d="
M56.7447 150.52
L82.7447 150.52" style="fill:none;stroke:#999999;stroke-linecap:round;stroke-width:2;"/>
    </g>
    <g id="line2d_94"/>
    <g id="text_13">
     <!-- Observed (J = 0.34) -->
     <defs>
      <path d="
M15 12.7031
Q17.7969 12.7031 19.8438 10.6406
Q21.9062 8.59375 21.9062 5.70312
Q21.9062 2.79688 19.8438 0.6875
Q17.7969 -1.40625 14.9062 -1.40625
Q11.9062 -1.40625 9.84375 0.640625
Q7.79688 2.70312 7.79688 5.70312
Q7.79688 8.59375 9.89062 10.6406
Q12 12.7031 15 12.7031" id="OfficinaSanITC-Book-2e"/>
      <path d="
M34 39.5
Q30.7969 41.2969 28.5938 42
Q26.4062 42.7031 23.7969 42.7031
Q18.0938 42.7031 15.6406 38.5469
Q13.2031 34.4062 13.2031 24.9062
Q13.2031 14.5 15.3438 9.95312
Q17.5 5.40625 22.5 5.40625
Q25.4062 5.40625 28.0469 6.75
Q30.7031 8.09375 34 11.2031
z

M39.7969 -0.703125
Q39.5 -1 39 -1
Q38.2969 -1 37.2969 0.796875
Q36.2969 2.59375 35.7031 5
Q33.2969 3.20312 31.2969 1.95312
Q29.2969 0.703125 27.5938 -0.046875
Q25.9062 -0.796875 24.25 -1.09375
Q22.5938 -1.40625 20.7969 -1.40625
Q13.4062 -1.40625 9.25 5.4375
Q5.09375 12.2969 5.09375 24.5
Q5.09375 36.0938 9.84375 42.75
Q14.5938 49.4062 23 49.4062
Q25.7969 49.4062 28.2969 48.6562
Q30.7969 47.9062 34 46.2031
L34 69.7969
Q34 70.7969 35 71.0938
L40.2031 72.2969
Q40.4062 72.4062 40.7969 72.4062
Q41.5 72.4062 41.5 71.2969
L41.5 15.7969
Q41.5 13.5 41.5938 11.7969
Q41.7031 10.0938 42 8.75
Q42.2969 7.40625 42.75 6.29688
Q43.2031 5.20312 44 4
Q44.5938 3 44.6875 2.79688
Q44.7969 2.59375 44.7969 2.40625
Q44.7969 2 44.2969 1.79688
z
" id="OfficinaSanITC-Book-64"/>
      <path d="
M2.20312 20.7969
Q2.20312 21.7031 2.45312 21.9531
Q2.70312 22.2031 3.59375 22.2031
L46.4062 22.2031
Q47.2969 22.2031 47.5469 21.9531
Q47.7969 21.7031 47.7969 20.7969
L47.7969 16.0938
Q47.7969 15.2031 47.5469 14.9531
Q47.2969 14.7031 46.4062 14.7031
L3.59375 14.7031
Q2.70312 14.7031 2.45312 14.9531
Q2.20312 15.2031 2.20312 16.0938
z

M2.20312 34.5938
Q2.20312 35.5 2.45312 35.75
Q2.70312 36 3.59375 36
L46.4062 36
Q47.2969 36 47.5469 35.75
Q47.7969 35.5 47.7969 34.5938
L47.7969 29.9062
Q47.7969 29 47.5469 28.75
Q47.2969 28.5 46.4062 28.5
L3.59375 28.5
Q2.20312 28.5 2.20312 29.9062
z
" id="OfficinaSanITC-Book-3d"/>
      <path d="
M7.29688 56.0938
Q6.90625 56.4062 6.90625 56.5938
Q6.90625 57.2969 8.34375 58.8438
Q9.79688 60.4062 11.7969 61.7969
Q17.2031 65.7031 23.9062 65.7031
Q27.7031 65.7031 30.8438 64.5
Q34 63.2969 36.25 61.1875
Q38.5 59.0938 39.75 56.0938
Q41 53.0938 41 49.5
Q41 38.7969 30.7031 34.7969
Q33.0938 34 34.4375 33.3906
Q35.7969 32.7969 37.0938 31.7031
Q40 29.5 41.5938 25.8438
Q43.2031 22.2031 43.2031 17.9062
Q43.2031 13.5 41.6406 9.95312
Q40.0938 6.40625 37.2969 3.90625
Q34.5 1.40625 30.5469 0
Q26.5938 -1.40625 21.7969 -1.40625
Q19.2031 -1.40625 16.3438 -0.953125
Q13.5 -0.5 11.0938 0.140625
Q8.70312 0.796875 7.09375 1.54688
Q5.5 2.29688 5.5 3
Q5.5 3.20312 5.54688 3.29688
Q5.59375 3.40625 5.79688 3.79688
L7.70312 8.29688
Q8.09375 8.90625 8.59375 8.90625
Q8.70312 8.90625 9.09375 8.70312
Q12.7969 7 15.6875 6.34375
Q18.5938 5.70312 21.9062 5.70312
Q28.2031 5.70312 31.6406 8.95312
Q35.0938 12.2031 35.0938 18.2031
Q35.0938 30.5 20.5 30.5
L17.0938 30.5
Q16.0938 30.5 15.8906 30.75
Q15.7031 31 15.7031 31.9062
L15.7031 35.9062
Q15.7031 36.7969 15.9531 37.0469
Q16.2031 37.2969 17.0938 37.2969
L20.4062 37.2969
Q26.4062 37.2969 29.8438 40.5469
Q33.2969 43.7969 33.2969 49.2969
Q33.2969 53.7969 30.6875 56.4375
Q28.0938 59.0938 23.5938 59.0938
Q18.4062 59.0938 13.7969 54.5
Q13.0938 53.7969 12.75 53.4375
Q12.4062 53.0938 12.2031 52.9375
Q12 52.7969 11.8438 52.75
Q11.7031 52.7031 11.5938 52.7031
Q11.0938 52.7031 10.9062 52.9062
z
" id="OfficinaSanITC-Book-33"/>
      <path d="
M5.5 8.20312
Q5.70312 8.59375 6.09375 8.59375
Q6.29688 8.59375 6.90625 8.40625
Q10.2031 6.70312 13.3438 5.84375
Q16.5 5 19.0938 5
Q22.7031 5 24.8906 7
Q27.0938 9 27.0938 12.2031
Q27.0938 14.7969 25.6406 16.4375
Q24.2031 18.0938 20.7031 19.7969
Q18.2031 21 16.4531 21.7969
Q14.7031 22.5938 13.4531 23.2969
Q12.2031 24 11.2969 24.5938
Q10.4062 25.2031 9.5 26
Q4.90625 29.7031 4.90625 35.5
Q4.90625 38.5 6 41.0469
Q7.09375 43.5938 9.14062 45.4375
Q11.2031 47.2969 14 48.3438
Q16.7969 49.4062 20.0938 49.4062
Q22 49.4062 24.2969 49
Q26.5938 48.5938 28.5 47.9375
Q30.4062 47.2969 31.7031 46.5469
Q33 45.7969 33 45.2031
Q33 45 32.7969 44.5
L31 40.7969
Q30.5938 40.2031 30.0938 40.2031
Q29.9062 40.2031 29.75 40.25
Q29.5938 40.2969 29.2969 40.4062
Q23.7969 43 19.9062 43
Q16.2969 43 14.2969 41.25
Q12.2969 39.5 12.2969 36.2969
Q12.2969 33.2031 14.2969 31.4062
Q14.7969 30.9062 15.25 30.5469
Q15.7031 30.2031 16.6406 29.7031
Q17.5938 29.2031 19.5 28.25
Q21.4062 27.2969 24.7969 25.7031
Q30.2969 23 32.5469 20.1406
Q34.7969 17.2969 34.7969 12.7969
Q34.7969 9.59375 33.6406 7
Q32.5 4.40625 30.3906 2.5
Q28.2969 0.59375 25.3906 -0.40625
Q22.5 -1.40625 18.9062 -1.40625
Q15.0938 -1.40625 11.1406 -0.34375
Q7.20312 0.703125 4.09375 2.5
Q3.5 2.90625 3.5 3.40625
Q3.5 3.59375 3.59375 3.79688
z
" id="OfficinaSanITC-Book-73"/>
      <path d="
M6 -21.2031
Q5.29688 -20.5938 5.29688 -20.2031
Q5.29688 -19.5938 6.20312 -18.4062
Q10 -13.2969 12.7031 -8.25
Q15.4062 -3.20312 17.1562 2.04688
Q18.9062 7.29688 19.75 12.9375
Q20.5938 18.5938 20.5938 24.9062
Q20.5938 31.2031 19.75 36.8438
Q18.9062 42.5 17.1562 47.7969
Q15.4062 53.0938 12.7031 58.0938
Q10 63.0938 6.20312 68.2031
Q5.29688 69.5 5.29688 70
Q5.29688 70.4062 5.59375 70.5938
Q5.90625 70.7969 7.59375 71.9062
Q8.70312 72.5938 8.89062 72.6875
Q9.09375 72.7969 9.59375 72.7969
Q10.4062 72.7969 11.8438 71.0469
Q13.2969 69.2969 16.5 64.7031
Q22.7969 55.2969 25.7969 45.6406
Q28.7969 36 28.7969 24.9062
Q28.7969 13 25.2969 2.64062
Q21.7969 -7.70312 14.2969 -18
Q13.0938 -19.5938 12.3438 -20.5938
Q11.5938 -21.5938 11.0938 -22.0938
Q10.5938 -22.5938 10.25 -22.7969
Q9.90625 -23 9.59375 -23
Q9.09375 -23 8.40625 -22.5938
z
" id="OfficinaSanITC-Book-29"/>
      <path d="
M27.7969 63.2969
Q24.4062 63.2969 21.6562 61.5938
Q18.9062 59.9062 17.5 57
Q14.0938 49.5938 14.0938 34.5
Q14.0938 26.9062 15.0469 20.9531
Q16 15 18 11.0938
Q20.7969 5.29688 27.7031 5.29688
Q31.2031 5.29688 33.8906 6.9375
Q36.5938 8.59375 38 11.5938
Q39.7031 15.2031 40.5469 20.75
Q41.4062 26.2969 41.4062 33.7031
Q41.4062 49.9062 37.5938 57.5
Q34.5938 63.2969 27.7969 63.2969
M28.5938 70
Q39.2969 70 44.7969 61
Q50.2969 52 50.2969 34.4062
Q50.2969 16.7031 44.4375 7.64062
Q38.5938 -1.40625 27.2031 -1.40625
Q16.2969 -1.40625 10.75 7.5
Q5.20312 16.4062 5.20312 33.9062
Q5.20312 70 28.5938 70" id="OfficinaSanITC-Book-4f"/>
      <path d="
M31 70.9062
Q31.7031 70.5 31.7031 70
Q31.7031 69.4062 30.7969 68.2031
Q23.2031 58.0938 19.7969 47.75
Q16.4062 37.4062 16.4062 24.9062
Q16.4062 18.5938 17.25 12.9375
Q18.0938 7.29688 19.8438 2
Q21.5938 -3.29688 24.2969 -8.29688
Q27 -13.2969 30.7969 -18.4062
Q31.7031 -19.7031 31.7031 -20.2031
Q31.7031 -20.5 31.2031 -21
Q30.7031 -21.5 30 -21.9531
Q29.2969 -22.4062 28.5469 -22.7031
Q27.7969 -23 27.4062 -23
Q26.5938 -23 25 -21.1406
Q23.4062 -19.2969 20.5 -14.9062
Q14.2031 -5.40625 11.2031 4.25
Q8.20312 13.9062 8.20312 24.9062
Q8.20312 36.7031 11.75 47.1406
Q15.2969 57.5938 22.7031 67.7969
Q25 71 25.8438 71.8906
Q26.7031 72.7969 27.4062 72.7969
Q27.9062 72.7969 28.5938 72.4062
z
" id="OfficinaSanITC-Book-28"/>
      <path id="OfficinaSanITC-Book-20"/>
     </defs>
     <g style="fill:#262626;" transform="translate(93.1446875 155.07)scale(0.13 -0.13)">
      <use xlink:href="#OfficinaSanITC-Book-4f"/>
      <use x="55.5999908447" xlink:href="#OfficinaSanITC-Book-62"/>
      <use x="105.599975586" xlink:href="#OfficinaSanITC-Book-73"/>
      <use x="144.499969482" xlink:href="#OfficinaSanITC-Book-65"/>
      <use x="190.799957275" xlink:href="#OfficinaSanITC-Book-72"/>
      <use x="228.849945068" xlink:href="#OfficinaSanITC-Book-76"/>
      <use x="270.699935913" xlink:href="#OfficinaSanITC-Book-65"/>
      <use x="316.999923706" xlink:href="#OfficinaSanITC-Book-64"/>
      <use x="366.999908447" xlink:href="#OfficinaSanITC-Book-20"/>
      <use x="387.599899292" xlink:href="#OfficinaSanITC-Book-28"/>
      <use x="424.599884033" xlink:href="#OfficinaSanITC-Book-4a"/>
      <use x="468.99987793" xlink:href="#OfficinaSanITC-Book-20"/>
      <use x="489.599868774" xlink:href="#OfficinaSanITC-Book-3d"/>
      <use x="539.599853516" xlink:href="#OfficinaSanITC-Book-20"/>
      <use x="560.19984436" xlink:href="#OfficinaSanITC-Book-30"/>
      <use x="610.199829102" xlink:href="#OfficinaSanITC-Book-2e"/>
      <use x="639.799819946" xlink:href="#OfficinaSanITC-Book-33"/>
      <use x="690.049804688" xlink:href="#OfficinaSanITC-Book-34"/>
      <use x="740.049789429" xlink:href="#OfficinaSanITC-Book-29"/>
     </g>
    </g>
    <g id="line2d_95">
     <path d="
M219.09 150.52
L245.09 150.52" style="fill:none;stroke:#000000;stroke-linecap:round;stroke-width:2;"/>
    </g>
    <g id="line2d_96"/>
    <g id="text_14">
     <!-- Tree (J = 0.11) -->
     <defs>
      <path d="
M24.5938 1.40625
Q24.5938 0.5 24.3438 0.25
Q24.0938 0 23.2031 0
L17.7969 0
Q16.9062 0 16.6562 0.25
Q16.4062 0.5 16.4062 1.40625
L16.4062 61.5938
L1.79688 61.5938
Q0.90625 61.5938 0.65625 61.8438
Q0.40625 62.0938 0.40625 63
L0.40625 67.2031
Q0.40625 68.0938 0.65625 68.3438
Q0.90625 68.5938 1.79688 68.5938
L40.7969 68.5938
Q42.2031 68.5938 42.2031 67.9062
Q42.2031 67.5 42.0938 67.2969
L42 67
L40.5 62.7031
Q40.2031 61.5938 39 61.5938
L24.5938 61.5938
z
" id="OfficinaSanITC-Book-54"/>
     </defs>
     <g style="fill:#262626;" transform="translate(255.4903125 155.07)scale(0.13 -0.13)">
      <use xlink:href="#OfficinaSanITC-Book-54"/>
      <use x="35.6999969482" xlink:href="#OfficinaSanITC-Book-72"/>
      <use x="68.4999847412" xlink:href="#OfficinaSanITC-Book-65"/>
      <use x="114.799972534" xlink:href="#OfficinaSanITC-Book-65"/>
      <use x="161.099960327" xlink:href="#OfficinaSanITC-Book-20"/>
      <use x="181.699951172" xlink:href="#OfficinaSanITC-Book-28"/>
      <use x="218.699935913" xlink:href="#OfficinaSanITC-Book-4a"/>
      <use x="263.09992981" xlink:href="#OfficinaSanITC-Book-20"/>
      <use x="283.699920654" xlink:href="#OfficinaSanITC-Book-3d"/>
      <use x="333.699905396" xlink:href="#OfficinaSanITC-Book-20"/>
      <use x="354.29989624" xlink:href="#OfficinaSanITC-Book-30"/>
      <use x="404.299880981" xlink:href="#OfficinaSanITC-Book-2e"/>
      <use x="428.649871826" xlink:href="#OfficinaSanITC-Book-31"/>
      <use x="473.524856567" xlink:href="#OfficinaSanITC-Book-31"/>
      <use x="523.524841309" xlink:href="#OfficinaSanITC-Book-29"/>
     </g>
    </g>
   </g>
   <g id="line2d_97">
    <path clip-path="url(#paa3a7b243e)" d="
M45.0447 49.3173
L54.2599 49.8588
L66.5469 50.3641
L72.6905 50.7101
L78.834 50.9628
L84.9775 51.2215
L91.121 51.2865
L94.1927 50.9995
L97.2645 48.9035
L100.336 47.6892
L103.408 46.9105
L106.48 46.4976
L109.551 45.6879
L112.623 44.3892
L115.695 43.724
L118.767 43.3475
L124.91 42.9167
L131.054 42.4662
L134.125 42.5001
L137.197 42.2656
L140.269 41.7527
L143.341 41.4197
L146.412 41.2263
L149.484 35.57
L152.556 32.3825
L155.628 30.3949
L158.7 29.0971
L161.771 27.604
L164.843 23.907
L167.915 23.6367
L170.987 41.789
L174.058 34.1091
L177.13 29.6524
L180.202 26.7705
L183.274 24.4424
L186.345 23.6367
L223.206 23.6367
L226.278 43.0508
L229.35 55.2355
L232.422 48.0586
L235.493 23.6367
L238.565 31.2411
L241.637 47.5055
L244.709 38.3642
L247.78 32.2446
L250.852 27.608
L253.924 23.7319
L260.067 23.6367
L296.928 23.6367
L300 43.008
L303.072 37.4392
L306.144 28.5871
L309.215 42.0039
L312.287 31.208
L315.359 24.3068
L318.431 23.6367
L597.96 23.6367
L597.96 23.6367" style="fill:none;stroke:#000000;stroke-linecap:round;stroke-width:2;"/>
   </g>
  </g>
 </g>
 <defs>
  <clipPath id="paa3a7b243e">
   <rect height="149.87" width="552.9153125" x="45.0446875" y="19.89"/>
  </clipPath>
 </defs>
</svg>
