<?xml version="1.0" encoding="UTF-8" standalone="no"?>
<!DOCTYPE svg PUBLIC "-//W3C//DTD SVG 1.1//EN"
 "http://www.w3.org/Graphics/SVG/1.1/DTD/svg11.dtd">
<!-- Generated by graphviz version 2.40.1 (20161225.0304)
 -->
<!-- Pages: 1 -->
<svg width="251pt" height="216pt"
 viewBox="0.00 0.00 251.23 216.00" xmlns="http://www.w3.org/2000/svg" xmlns:xlink="http://www.w3.org/1999/xlink">
<g id="graph0" class="graph" transform="scale(1 1) rotate(0) translate(4 212)">
<polygon fill="#ffffff" stroke="transparent" points="-4,4 -4,-212 247.2285,-212 247.2285,4 -4,4"/>
<!-- Storage &lt; 625 -->
<g id="node1" class="node">
<title>Storage &lt; 625</title>
<polygon fill="none" stroke="#000000" points="100.5,-208 5.5,-208 5.5,-172 100.5,-172 100.5,-208"/>
<text text-anchor="middle" x="53" y="-185.8" font-family="Times,serif" font-size="14.00" fill="#000000">Storage &lt; 625</text>
</g>
<!-- Hedge_80 -->
<g id="node2" class="node">
<title>Hedge_80</title>
<polygon fill="none" stroke="#000000" points="74,-122 0,-122 0,-86 74,-86 74,-122"/>
<text text-anchor="middle" x="37" y="-99.8" font-family="Times,serif" font-size="14.00" fill="#000000">Hedge_80</text>
</g>
<!-- Storage &lt; 625&#45;&gt;Hedge_80 -->
<g id="edge1" class="edge">
<title>Storage &lt; 625&#45;&gt;Hedge_80</title>
<path fill="none" stroke="#000000" d="M49.607,-171.76C47.464,-160.25 44.653,-145.14 42.229,-132.11"/>
<polygon fill="#000000" stroke="#000000" points="45.6573,-131.4015 40.388,-122.21 38.7753,-132.6814 45.6573,-131.4015"/>
<text text-anchor="middle" x="50.276" y="-142.8" font-family="Times,serif" font-size="14.00" fill="#000000">T</text>
</g>
<!-- Inflow &lt; 79 -->
<g id="node3" class="node">
<title>Inflow &lt; 79</title>
<polygon fill="none" stroke="#000000" points="172.9564,-122 91.0456,-122 91.0456,-86 172.9564,-86 172.9564,-122"/>
<text text-anchor="middle" x="132.001" y="-99.8" font-family="Times,serif" font-size="14.00" fill="#000000">Inflow &lt; 79</text>
</g>
<!-- Storage &lt; 625&#45;&gt;Inflow &lt; 79 -->
<g id="edge2" class="edge">
<title>Storage &lt; 625&#45;&gt;Inflow &lt; 79</title>
<path fill="none" stroke="#000000" d="M69.754,-171.76C80.961,-159.56 95.874,-143.33 108.291,-129.81"/>
<polygon fill="#000000" stroke="#000000" points="111.0845,-131.9426 115.271,-122.21 105.9289,-127.2076 111.0845,-131.9426"/>
<text text-anchor="middle" x="101.891" y="-142.8" font-family="Times,serif" font-size="14.00" fill="#000000">F</text>
</g>
<!-- Release_Demand -->
<g id="node4" class="node">
<title>Release_Demand</title>
<polygon fill="none" stroke="#000000" points="127,-36 13,-36 13,0 127,0 127,-36"/>
<text text-anchor="middle" x="70" y="-13.8" font-family="Times,serif" font-size="14.00" fill="#000000">Release_Demand</text>
</g>
<!-- Inflow &lt; 79&#45;&gt;Release_Demand -->
<g id="edge3" class="edge">
<title>Inflow &lt; 79&#45;&gt;Release_Demand</title>
<path fill="none" stroke="#000000" d="M118.851,-85.762C110.221,-73.79 98.789,-57.933 89.154,-44.569"/>
<polygon fill="#000000" stroke="#000000" points="91.8168,-42.2775 83.13,-36.212 86.1383,-46.3708 91.8168,-42.2775"/>
<text text-anchor="middle" x="109.271" y="-56.8" font-family="Times,serif" font-size="14.00" fill="#000000">T</text>
</g>
<!-- Flood_Control -->
<g id="node5" class="node">
<title>Flood_Control</title>
<polygon fill="none" stroke="#000000" points="243.4571,-36 144.5449,-36 144.5449,0 243.4571,0 243.4571,-36"/>
<text text-anchor="middle" x="194.001" y="-13.8" font-family="Times,serif" font-size="14.00" fill="#000000">Flood_Control</text>
</g>
<!-- Inflow &lt; 79&#45;&gt;Flood_Control -->
<g id="edge4" class="edge">
<title>Inflow &lt; 79&#45;&gt;Flood_Control</title>
<path fill="none" stroke="#000000" d="M145.151,-85.762C153.781,-73.79 165.211,-57.933 174.841,-44.569"/>
<polygon fill="#000000" stroke="#000000" points="177.8579,-46.3694 180.871,-36.212 172.1813,-42.2734 177.8579,-46.3694"/>
<text text-anchor="middle" x="169.891" y="-56.8" font-family="Times,serif" font-size="14.00" fill="#000000">F</text>
</g>
</g>
</svg>
