<?xml version="1.0" encoding="utf-8" standalone="no"?>
<!DOCTYPE svg PUBLIC "-//W3C//DTD SVG 1.1//EN"
  "http://www.w3.org/Graphics/SVG/1.1/DTD/svg11.dtd">
<!-- Created with matplotlib (http://matplotlib.org/) -->
<svg height="216pt" version="1.1" viewBox="0 0 612 216" width="612pt" xmlns="http://www.w3.org/2000/svg" xmlns:xlink="http://www.w3.org/1999/xlink">
 <defs>
  <style type="text/css">
*{stroke-linecap:butt;stroke-linejoin:round;}
  </style>
 </defs>
 <g id="figure_1">
  <g id="patch_1">
   <path d="
M0 216
L612 216
L612 0
L0 0
z
" style="fill:#ffffff;"/>
  </g>
  <g id="axes_1">
   <g id="patch_2">
    <path d="
M45.0447 183.26
L597.96 183.26
L597.96 19.89
L45.0447 19.89
z
" style="fill:#ffffff;"/>
   </g>
   <g id="matplotlib.axis_1">
    <g id="xtick_1">
     <g id="line2d_1">
      <path clip-path="url(#pe273d42b18)" d="
M45.0447 183.26
L45.0447 19.89" style="fill:none;stroke:#cccccc;stroke-linecap:round;"/>
     </g>
     <g id="line2d_2">
      <defs>
       <path d="
M0 0
L0 0" id="m219da94a98" style="stroke:#262626;"/>
      </defs>
      <g>
       <use style="fill:#262626;stroke:#262626;" x="45.0446875" xlink:href="#m219da94a98" y="183.26"/>
      </g>
     </g>
     <g id="line2d_3">
      <g>
       <use style="fill:#262626;stroke:#262626;" x="45.0446875" xlink:href="#m219da94a98" y="19.89"/>
      </g>
     </g>
    </g>
    <g id="xtick_2">
     <g id="line2d_4">
      <path clip-path="url(#pe273d42b18)" d="
M156.997 183.26
L156.997 19.89" style="fill:none;stroke:#cccccc;stroke-linecap:round;"/>
     </g>
     <g id="line2d_5">
      <g>
       <use style="fill:#262626;stroke:#262626;" x="156.997422873" xlink:href="#m219da94a98" y="183.26"/>
      </g>
     </g>
     <g id="line2d_6">
      <g>
       <use style="fill:#262626;stroke:#262626;" x="156.997422873" xlink:href="#m219da94a98" y="19.89"/>
      </g>
     </g>
     <g id="text_1">
      <!-- 2000 -->
      <defs>
       <path d="
M41.5938 7.29688
Q42.5 7.29688 42.75 7.04688
Q43 6.79688 43 5.90625
L43 1.40625
Q43 0.5 42.75 0.25
Q42.5 0 41.5938 0
L8.09375 0
Q7.29688 0 7.09375 0.25
Q6.90625 0.5 6.90625 1.40625
Q6.90625 6.79688 7.84375 11.25
Q8.79688 15.7031 10.8438 19.5469
Q12.9062 23.4062 16.1562 26.75
Q19.4062 30.0938 23.9062 33.2031
Q26.4062 34.9062 27.7969 35.9062
Q29.2031 36.9062 30.0469 37.5938
Q30.9062 38.2969 31.3438 38.7969
Q31.7969 39.2969 32.4062 40.0938
Q34.9062 43.4062 34.9062 48
Q34.9062 52.9062 32.25 55.75
Q29.5938 58.5938 25.0938 58.5938
Q20.9062 58.5938 18.3438 56.2969
Q15.7969 54 13.7969 48.5938
Q13.5 47.7969 13 47.7969
Q12.7031 47.7969 12.2031 48
L7.79688 49.2969
Q7 49.5938 7 50.2031
Q7 50.7969 7.34375 51.8906
Q7.70312 53 8.29688 54.2031
Q8.90625 55.4062 9.59375 56.6562
Q10.2969 57.9062 11 58.7969
Q16.2031 65.7031 25.5938 65.7031
Q33.7031 65.7031 38.3438 60.8438
Q43 56 43 47.5938
Q43 44.7031 42.3906 42.3438
Q41.7969 40 40.4375 37.8438
Q39.0938 35.7031 36.7969 33.5469
Q34.5 31.4062 31.2031 29
Q27.2969 26.2969 24.5 23.8438
Q21.7031 21.4062 19.8906 18.8438
Q18.0938 16.2969 17.0938 13.5
Q16.0938 10.7031 15.7031 7.29688
z
" id="OfficinaSanITC-Book-32"/>
       <path d="
M25.2969 58.5938
Q19.2969 58.5938 15.9375 51.6406
Q12.5938 44.7031 12.5938 32.0938
Q12.5938 25.5938 13.5 20.3906
Q14.4062 15.2031 16.2031 11.5
Q19 5.70312 25 5.70312
Q31.7969 5.70312 34.5 12.4062
Q36 16 36.75 21.1406
Q37.5 26.2969 37.5 32.5938
Q37.5 58.5938 25.2969 58.5938
M25.9062 65.7031
Q35.5 65.7031 40.5469 57.25
Q45.5938 48.7969 45.5938 32.7969
Q45.5938 16 40.2969 7.29688
Q35 -1.40625 24.9062 -1.40625
Q16.2031 -1.40625 11.4062 5.20312
Q4.5 14.5938 4.5 31.5
Q4.5 39.5938 5.95312 45.9375
Q7.40625 52.2969 10.1562 56.6875
Q12.9062 61.0938 16.8438 63.3906
Q20.7969 65.7031 25.9062 65.7031" id="OfficinaSanITC-Book-30"/>
      </defs>
      <g style="fill:#262626;" transform="translate(144.732735373 199.6728125)scale(0.13 -0.13)">
       <use xlink:href="#OfficinaSanITC-Book-32"/>
       <use x="49.9999847412" xlink:href="#OfficinaSanITC-Book-30"/>
       <use x="99.9999694824" xlink:href="#OfficinaSanITC-Book-30"/>
       <use x="149.999954224" xlink:href="#OfficinaSanITC-Book-30"/>
      </g>
     </g>
    </g>
    <g id="xtick_3">
     <g id="line2d_7">
      <path clip-path="url(#pe273d42b18)" d="
M288.702 183.26
L288.702 19.89" style="fill:none;stroke:#cccccc;stroke-linecap:round;"/>
     </g>
     <g id="line2d_8">
      <g>
       <use style="fill:#262626;stroke:#262626;" x="288.702282839" xlink:href="#m219da94a98" y="183.26"/>
      </g>
     </g>
     <g id="line2d_9">
      <g>
       <use style="fill:#262626;stroke:#262626;" x="288.702282839" xlink:href="#m219da94a98" y="19.89"/>
      </g>
     </g>
     <g id="text_2">
      <!-- 2005 -->
      <defs>
       <path d="
M14.2969 37.0938
Q17.5 39.4062 20.25 40.4062
Q23 41.4062 26.2969 41.4062
Q30.0938 41.4062 33.1875 40
Q36.2969 38.5938 38.5469 36
Q40.7969 33.4062 42.0469 29.7969
Q43.2969 26.2031 43.2969 21.7969
Q43.2969 16.5 41.6875 12.25
Q40.0938 8 37.0938 4.95312
Q34.0938 1.90625 29.8906 0.25
Q25.7031 -1.40625 20.5938 -1.40625
Q17.5 -1.40625 14.25 -1
Q11 -0.59375 8.09375 0.203125
Q6.70312 0.59375 6.70312 1.5
Q6.70312 1.70312 6.70312 1.90625
Q6.70312 2.09375 6.79688 2.29688
L7.79688 6.79688
Q8 7.5 8.70312 7.5
Q8.90625 7.5 9.70312 7.29688
Q13.9062 5.70312 19.5 5.70312
Q27.9062 5.70312 31.4062 9.90625
Q33.2031 12 34.2031 15.0469
Q35.2031 18.0938 35.2031 21.5938
Q35.2031 27.5938 32.4531 30.9375
Q29.7031 34.2969 24.7969 34.2969
Q18.7031 34.2969 13.2031 28.7969
Q12.5938 28.2031 12.2031 28.2031
L11.4062 28.2969
L7.90625 29.4062
Q6.79688 29.7969 6.79688 30.4062
Q6.79688 30.7031 6.90625 31
L10 63.0938
Q10.0938 63.9062 10.3438 64.1562
Q10.5938 64.4062 11.4062 64.4062
L37.4062 64.4062
Q38.2969 64.4062 38.5469 64.1562
Q38.7969 63.9062 38.7969 63
L38.7969 58.7969
Q38.7969 57.9062 38.5469 57.6562
Q38.2969 57.4062 37.4062 57.4062
L16.5 57.4062
z
" id="OfficinaSanITC-Book-35"/>
      </defs>
      <g style="fill:#262626;" transform="translate(276.586892214 199.6728125)scale(0.13 -0.13)">
       <use xlink:href="#OfficinaSanITC-Book-32"/>
       <use x="49.9999847412" xlink:href="#OfficinaSanITC-Book-30"/>
       <use x="99.9999694824" xlink:href="#OfficinaSanITC-Book-30"/>
       <use x="149.999954224" xlink:href="#OfficinaSanITC-Book-35"/>
      </g>
     </g>
    </g>
    <g id="xtick_4">
     <g id="line2d_10">
      <path clip-path="url(#pe273d42b18)" d="
M420.335 183.26
L420.335 19.89" style="fill:none;stroke:#cccccc;stroke-linecap:round;"/>
     </g>
     <g id="line2d_11">
      <g>
       <use style="fill:#262626;stroke:#262626;" x="420.335054759" xlink:href="#m219da94a98" y="183.26"/>
      </g>
     </g>
     <g id="line2d_12">
      <g>
       <use style="fill:#262626;stroke:#262626;" x="420.335054759" xlink:href="#m219da94a98" y="19.89"/>
      </g>
     </g>
     <g id="text_3">
      <!-- 2010 -->
      <defs>
       <path d="
M31 64.4062
Q31.9062 64.4062 32.1562 64.1562
Q32.4062 63.9062 32.4062 63
L32.4062 6.59375
L41.0938 6.59375
Q42 6.59375 42.25 6.34375
Q42.5 6.09375 42.5 5.20312
L42.5 1.40625
Q42.5 0.5 42.25 0.25
Q42 0 41.0938 0
L14.5938 0
Q13.7031 0 13.4531 0.25
Q13.2031 0.5 13.2031 1.40625
L13.2031 5.20312
Q13.2031 6.09375 13.4531 6.34375
Q13.7031 6.59375 14.5938 6.59375
L24.7969 6.59375
L24.7969 55.5
L10.7969 47.4062
Q10.2969 47 9.79688 47
Q9.40625 47 9 47.9062
L7.79688 50.0938
Q7.5 50.5 7.5 51.0938
Q7.5 51.5 8.29688 51.9062
L26 64.4062
z
" id="OfficinaSanITC-Book-31"/>
      </defs>
      <g style="fill:#262626;" transform="translate(408.427867259 199.6728125)scale(0.13 -0.13)">
       <use xlink:href="#OfficinaSanITC-Book-32"/>
       <use x="49.9999847412" xlink:href="#OfficinaSanITC-Book-30"/>
       <use x="98.2499694824" xlink:href="#OfficinaSanITC-Book-31"/>
       <use x="144.499954224" xlink:href="#OfficinaSanITC-Book-30"/>
      </g>
     </g>
    </g>
    <g id="xtick_5">
     <g id="line2d_13">
      <path clip-path="url(#pe273d42b18)" d="
M551.968 183.26
L551.968 19.89" style="fill:none;stroke:#cccccc;stroke-linecap:round;"/>
     </g>
     <g id="line2d_14">
      <g>
       <use style="fill:#262626;stroke:#262626;" x="551.967826679" xlink:href="#m219da94a98" y="183.26"/>
      </g>
     </g>
     <g id="line2d_15">
      <g>
       <use style="fill:#262626;stroke:#262626;" x="551.967826679" xlink:href="#m219da94a98" y="19.89"/>
      </g>
     </g>
     <g id="text_4">
      <!-- 2015 -->
      <g style="fill:#262626;" transform="translate(540.079936054 199.6728125)scale(0.13 -0.13)">
       <use xlink:href="#OfficinaSanITC-Book-32"/>
       <use x="49.9999847412" xlink:href="#OfficinaSanITC-Book-30"/>
       <use x="98.2499694824" xlink:href="#OfficinaSanITC-Book-31"/>
       <use x="146.499954224" xlink:href="#OfficinaSanITC-Book-35"/>
      </g>
     </g>
    </g>
    <g id="xtick_6">
     <g id="line2d_16">
      <path clip-path="url(#pe273d42b18)" d="
M597.96 183.26
L597.96 19.89" style="fill:none;stroke:#cccccc;stroke-linecap:round;"/>
     </g>
     <g id="line2d_17">
      <g>
       <use style="fill:#262626;stroke:#262626;" x="597.96" xlink:href="#m219da94a98" y="183.26"/>
      </g>
     </g>
     <g id="line2d_18">
      <g>
       <use style="fill:#262626;stroke:#262626;" x="597.96" xlink:href="#m219da94a98" y="19.89"/>
      </g>
     </g>
    </g>
    <g id="xtick_7">
     <g id="line2d_19">
      <defs>
       <path d="
M0 0
L0 0" id="m8735711441" style="stroke:#262626;stroke-width:0.5;"/>
      </defs>
      <g>
       <use style="fill:#262626;stroke:#262626;stroke-width:0.5;" x="51.6767877282" xlink:href="#m8735711441" y="183.26"/>
      </g>
     </g>
     <g id="line2d_20">
      <g>
       <use style="fill:#262626;stroke:#262626;stroke-width:0.5;" x="51.6767877282" xlink:href="#m8735711441" y="19.89"/>
      </g>
     </g>
    </g>
    <g id="xtick_8">
     <g id="line2d_21">
      <g>
       <use style="fill:#262626;stroke:#262626;stroke-width:0.5;" x="78.0610125489" xlink:href="#m8735711441" y="183.26"/>
      </g>
     </g>
     <g id="line2d_22">
      <g>
       <use style="fill:#262626;stroke:#262626;stroke-width:0.5;" x="78.0610125489" xlink:href="#m8735711441" y="19.89"/>
      </g>
     </g>
    </g>
    <g id="xtick_9">
     <g id="line2d_23">
      <g>
       <use style="fill:#262626;stroke:#262626;stroke-width:0.5;" x="104.373149324" xlink:href="#m8735711441" y="183.26"/>
      </g>
     </g>
     <g id="line2d_24">
      <g>
       <use style="fill:#262626;stroke:#262626;stroke-width:0.5;" x="104.373149324" xlink:href="#m8735711441" y="19.89"/>
      </g>
     </g>
    </g>
    <g id="xtick_10">
     <g id="line2d_25">
      <g>
       <use style="fill:#262626;stroke:#262626;stroke-width:0.5;" x="130.685286098" xlink:href="#m8735711441" y="183.26"/>
      </g>
     </g>
     <g id="line2d_26">
      <g>
       <use style="fill:#262626;stroke:#262626;stroke-width:0.5;" x="130.685286098" xlink:href="#m8735711441" y="19.89"/>
      </g>
     </g>
    </g>
    <g id="xtick_11">
     <g id="line2d_27">
      <g>
       <use style="fill:#262626;stroke:#262626;stroke-width:0.5;" x="156.997422873" xlink:href="#m8735711441" y="183.26"/>
      </g>
     </g>
     <g id="line2d_28">
      <g>
       <use style="fill:#262626;stroke:#262626;stroke-width:0.5;" x="156.997422873" xlink:href="#m8735711441" y="19.89"/>
      </g>
     </g>
    </g>
    <g id="xtick_12">
     <g id="line2d_29">
      <g>
       <use style="fill:#262626;stroke:#262626;stroke-width:0.5;" x="183.381647694" xlink:href="#m8735711441" y="183.26"/>
      </g>
     </g>
     <g id="line2d_30">
      <g>
       <use style="fill:#262626;stroke:#262626;stroke-width:0.5;" x="183.381647694" xlink:href="#m8735711441" y="19.89"/>
      </g>
     </g>
    </g>
    <g id="xtick_13">
     <g id="line2d_31">
      <g>
       <use style="fill:#262626;stroke:#262626;stroke-width:0.5;" x="209.693784469" xlink:href="#m8735711441" y="183.26"/>
      </g>
     </g>
     <g id="line2d_32">
      <g>
       <use style="fill:#262626;stroke:#262626;stroke-width:0.5;" x="209.693784469" xlink:href="#m8735711441" y="19.89"/>
      </g>
     </g>
    </g>
    <g id="xtick_14">
     <g id="line2d_33">
      <g>
       <use style="fill:#262626;stroke:#262626;stroke-width:0.5;" x="236.005921243" xlink:href="#m8735711441" y="183.26"/>
      </g>
     </g>
     <g id="line2d_34">
      <g>
       <use style="fill:#262626;stroke:#262626;stroke-width:0.5;" x="236.005921243" xlink:href="#m8735711441" y="19.89"/>
      </g>
     </g>
    </g>
    <g id="xtick_15">
     <g id="line2d_35">
      <g>
       <use style="fill:#262626;stroke:#262626;stroke-width:0.5;" x="262.318058018" xlink:href="#m8735711441" y="183.26"/>
      </g>
     </g>
     <g id="line2d_36">
      <g>
       <use style="fill:#262626;stroke:#262626;stroke-width:0.5;" x="262.318058018" xlink:href="#m8735711441" y="19.89"/>
      </g>
     </g>
    </g>
    <g id="xtick_16">
     <g id="line2d_37">
      <g>
       <use style="fill:#262626;stroke:#262626;stroke-width:0.5;" x="288.702282839" xlink:href="#m8735711441" y="183.26"/>
      </g>
     </g>
     <g id="line2d_38">
      <g>
       <use style="fill:#262626;stroke:#262626;stroke-width:0.5;" x="288.702282839" xlink:href="#m8735711441" y="19.89"/>
      </g>
     </g>
    </g>
    <g id="xtick_17">
     <g id="line2d_39">
      <g>
       <use style="fill:#262626;stroke:#262626;stroke-width:0.5;" x="315.014419614" xlink:href="#m8735711441" y="183.26"/>
      </g>
     </g>
     <g id="line2d_40">
      <g>
       <use style="fill:#262626;stroke:#262626;stroke-width:0.5;" x="315.014419614" xlink:href="#m8735711441" y="19.89"/>
      </g>
     </g>
    </g>
    <g id="xtick_18">
     <g id="line2d_41">
      <g>
       <use style="fill:#262626;stroke:#262626;stroke-width:0.5;" x="341.326556389" xlink:href="#m8735711441" y="183.26"/>
      </g>
     </g>
     <g id="line2d_42">
      <g>
       <use style="fill:#262626;stroke:#262626;stroke-width:0.5;" x="341.326556389" xlink:href="#m8735711441" y="19.89"/>
      </g>
     </g>
    </g>
    <g id="xtick_19">
     <g id="line2d_43">
      <g>
       <use style="fill:#262626;stroke:#262626;stroke-width:0.5;" x="367.638693163" xlink:href="#m8735711441" y="183.26"/>
      </g>
     </g>
     <g id="line2d_44">
      <g>
       <use style="fill:#262626;stroke:#262626;stroke-width:0.5;" x="367.638693163" xlink:href="#m8735711441" y="19.89"/>
      </g>
     </g>
    </g>
    <g id="xtick_20">
     <g id="line2d_45">
      <g>
       <use style="fill:#262626;stroke:#262626;stroke-width:0.5;" x="394.022917984" xlink:href="#m8735711441" y="183.26"/>
      </g>
     </g>
     <g id="line2d_46">
      <g>
       <use style="fill:#262626;stroke:#262626;stroke-width:0.5;" x="394.022917984" xlink:href="#m8735711441" y="19.89"/>
      </g>
     </g>
    </g>
    <g id="xtick_21">
     <g id="line2d_47">
      <g>
       <use style="fill:#262626;stroke:#262626;stroke-width:0.5;" x="420.335054759" xlink:href="#m8735711441" y="183.26"/>
      </g>
     </g>
     <g id="line2d_48">
      <g>
       <use style="fill:#262626;stroke:#262626;stroke-width:0.5;" x="420.335054759" xlink:href="#m8735711441" y="19.89"/>
      </g>
     </g>
    </g>
    <g id="xtick_22">
     <g id="line2d_49">
      <g>
       <use style="fill:#262626;stroke:#262626;stroke-width:0.5;" x="446.647191534" xlink:href="#m8735711441" y="183.26"/>
      </g>
     </g>
     <g id="line2d_50">
      <g>
       <use style="fill:#262626;stroke:#262626;stroke-width:0.5;" x="446.647191534" xlink:href="#m8735711441" y="19.89"/>
      </g>
     </g>
    </g>
    <g id="xtick_23">
     <g id="line2d_51">
      <g>
       <use style="fill:#262626;stroke:#262626;stroke-width:0.5;" x="472.959328308" xlink:href="#m8735711441" y="183.26"/>
      </g>
     </g>
     <g id="line2d_52">
      <g>
       <use style="fill:#262626;stroke:#262626;stroke-width:0.5;" x="472.959328308" xlink:href="#m8735711441" y="19.89"/>
      </g>
     </g>
    </g>
    <g id="xtick_24">
     <g id="line2d_53">
      <g>
       <use style="fill:#262626;stroke:#262626;stroke-width:0.5;" x="499.343553129" xlink:href="#m8735711441" y="183.26"/>
      </g>
     </g>
     <g id="line2d_54">
      <g>
       <use style="fill:#262626;stroke:#262626;stroke-width:0.5;" x="499.343553129" xlink:href="#m8735711441" y="19.89"/>
      </g>
     </g>
    </g>
    <g id="xtick_25">
     <g id="line2d_55">
      <g>
       <use style="fill:#262626;stroke:#262626;stroke-width:0.5;" x="525.655689904" xlink:href="#m8735711441" y="183.26"/>
      </g>
     </g>
     <g id="line2d_56">
      <g>
       <use style="fill:#262626;stroke:#262626;stroke-width:0.5;" x="525.655689904" xlink:href="#m8735711441" y="19.89"/>
      </g>
     </g>
    </g>
    <g id="xtick_26">
     <g id="line2d_57">
      <g>
       <use style="fill:#262626;stroke:#262626;stroke-width:0.5;" x="551.967826679" xlink:href="#m8735711441" y="183.26"/>
      </g>
     </g>
     <g id="line2d_58">
      <g>
       <use style="fill:#262626;stroke:#262626;stroke-width:0.5;" x="551.967826679" xlink:href="#m8735711441" y="19.89"/>
      </g>
     </g>
    </g>
    <g id="xtick_27">
     <g id="line2d_59">
      <g>
       <use style="fill:#262626;stroke:#262626;stroke-width:0.5;" x="578.279963453" xlink:href="#m8735711441" y="183.26"/>
      </g>
     </g>
     <g id="line2d_60">
      <g>
       <use style="fill:#262626;stroke:#262626;stroke-width:0.5;" x="578.279963453" xlink:href="#m8735711441" y="19.89"/>
      </g>
     </g>
    </g>
   </g>
   <g id="matplotlib.axis_2">
    <g id="ytick_1">
     <g id="line2d_61">
      <path clip-path="url(#pe273d42b18)" d="
M45.0447 183.26
L597.96 183.26" style="fill:none;stroke:#cccccc;stroke-linecap:round;"/>
     </g>
     <g id="line2d_62">
      <g>
       <use style="fill:#262626;stroke:#262626;" x="45.0446875" xlink:href="#m219da94a98" y="183.26"/>
      </g>
     </g>
     <g id="line2d_63">
      <g>
       <use style="fill:#262626;stroke:#262626;" x="597.96" xlink:href="#m219da94a98" y="183.26"/>
      </g>
     </g>
     <g id="text_5">
      <!-- 0 -->
      <g style="fill:#262626;" transform="translate(32.7025 186.588203125)scale(0.13 -0.13)">
       <use xlink:href="#OfficinaSanITC-Book-30"/>
      </g>
     </g>
    </g>
    <g id="ytick_2">
     <g id="line2d_64">
      <path clip-path="url(#pe273d42b18)" d="
M45.0447 150.586
L597.96 150.586" style="fill:none;stroke:#cccccc;stroke-linecap:round;"/>
     </g>
     <g id="line2d_65">
      <g>
       <use style="fill:#262626;stroke:#262626;" x="45.0446875" xlink:href="#m219da94a98" y="150.586"/>
      </g>
     </g>
     <g id="line2d_66">
      <g>
       <use style="fill:#262626;stroke:#262626;" x="597.96" xlink:href="#m219da94a98" y="150.586"/>
      </g>
     </g>
     <g id="text_6">
      <!-- 200 -->
      <g style="fill:#262626;" transform="translate(20.0153125 153.914203125)scale(0.13 -0.13)">
       <use xlink:href="#OfficinaSanITC-Book-32"/>
       <use x="49.9999847412" xlink:href="#OfficinaSanITC-Book-30"/>
       <use x="99.9999694824" xlink:href="#OfficinaSanITC-Book-30"/>
      </g>
     </g>
    </g>
    <g id="ytick_3">
     <g id="line2d_67">
      <path clip-path="url(#pe273d42b18)" d="
M45.0447 117.912
L597.96 117.912" style="fill:none;stroke:#cccccc;stroke-linecap:round;"/>
     </g>
     <g id="line2d_68">
      <g>
       <use style="fill:#262626;stroke:#262626;" x="45.0446875" xlink:href="#m219da94a98" y="117.912"/>
      </g>
     </g>
     <g id="line2d_69">
      <g>
       <use style="fill:#262626;stroke:#262626;" x="597.96" xlink:href="#m219da94a98" y="117.912"/>
      </g>
     </g>
     <g id="text_7">
      <!-- 400 -->
      <defs>
       <path d="
M29 64.0938
Q29.5 64.9062 30.0938 64.9062
L30.2969 64.9062
L30.7031 64.9062
L35.7031 64.0938
Q36.9062 63.7969 36.9062 63.2031
Q36.9062 62.7969 36.5 62.2969
L11 20.7031
L30.0938 20.7031
L31.2031 36.7969
Q31.2969 37.5938 31.5469 37.8438
Q31.7969 38.0938 32.5938 38.0938
L36.2031 38.0938
Q37.0938 38.0938 37.3438 37.8438
Q37.5938 37.5938 37.5938 36.7031
L37.5938 20.7031
L45.5 20.7031
Q46.4062 20.7031 46.6562 20.4531
Q46.9062 20.2031 46.9062 19.2969
L46.9062 15.5938
Q46.9062 14.7031 46.6562 14.4531
Q46.4062 14.2031 45.5 14.2031
L37.5938 14.2031
L37.5938 0
Q37.5938 -0.90625 37.3438 -1.15625
Q37.0938 -1.40625 36.2031 -1.40625
L31.5 -1.40625
Q30.5938 -1.40625 30.3438 -1.15625
Q30.0938 -0.90625 30.0938 0
L30.0938 14.2031
L4.5 14.2031
Q3.59375 14.2031 3.34375 14.4531
Q3.09375 14.7031 3.09375 15.5938
L3.09375 21.2031
z
" id="OfficinaSanITC-Book-34"/>
      </defs>
      <g style="fill:#262626;" transform="translate(19.5196875 121.240203125)scale(0.13 -0.13)">
       <use xlink:href="#OfficinaSanITC-Book-34"/>
       <use x="49.9999847412" xlink:href="#OfficinaSanITC-Book-30"/>
       <use x="99.9999694824" xlink:href="#OfficinaSanITC-Book-30"/>
      </g>
     </g>
    </g>
    <g id="ytick_4">
     <g id="line2d_70">
      <path clip-path="url(#pe273d42b18)" d="
M45.0447 85.238
L597.96 85.238" style="fill:none;stroke:#cccccc;stroke-linecap:round;"/>
     </g>
     <g id="line2d_71">
      <g>
       <use style="fill:#262626;stroke:#262626;" x="45.0446875" xlink:href="#m219da94a98" y="85.238"/>
      </g>
     </g>
     <g id="line2d_72">
      <g>
       <use style="fill:#262626;stroke:#262626;" x="597.96" xlink:href="#m219da94a98" y="85.238"/>
      </g>
     </g>
     <g id="text_8">
      <!-- 600 -->
      <defs>
       <path d="
M24.9062 36.9062
Q19.7031 36.9062 16.8438 33.1562
Q14 29.4062 14 22.5
Q14 14.4062 16.7969 10.0469
Q19.5938 5.70312 25 5.70312
Q30.4062 5.70312 33.25 9.95312
Q36.0938 14.2031 36.0938 22.2969
Q36.0938 29.5 33.25 33.2031
Q30.4062 36.9062 24.9062 36.9062
M40.7969 58.4062
Q40.5938 57.9062 40.2031 57.9062
Q40 57.9062 39.4062 58.0938
Q36.2969 59.2031 33.0938 59.2031
Q28.9062 59.2031 25.7969 57.5
Q22.7031 55.7969 20 52.0938
Q17.7969 48.9062 16.5938 45.5469
Q15.4062 42.2031 14.7031 37.2969
Q17.7969 40.7969 20.6875 42.2969
Q23.5938 43.7969 27.4062 43.7969
Q31.2031 43.7969 34.2969 42.25
Q37.4062 40.7031 39.5938 37.8906
Q41.7969 35.0938 43 31.1406
Q44.2031 27.2031 44.2031 22.4062
Q44.2031 17.0938 42.7969 12.75
Q41.4062 8.40625 38.8438 5.25
Q36.2969 2.09375 32.75 0.34375
Q29.2031 -1.40625 24.9062 -1.40625
Q20.0938 -1.40625 16.0469 1
Q12 3.40625 9.70312 7.79688
Q7.70312 11.4062 6.79688 15.7031
Q5.90625 20 5.90625 26
Q5.90625 35.0938 7.84375 42.3906
Q9.79688 49.7031 13.3906 54.8906
Q17 60.0938 22.0938 62.8906
Q27.2031 65.7031 33.5 65.7031
Q35.0938 65.7031 36.6406 65.5
Q38.2031 65.2969 39.3906 65
Q40.5938 64.7031 41.3438 64.3438
Q42.0938 64 42.0938 63.5938
Q42.0938 63.4062 42 63
z
" id="OfficinaSanITC-Book-36"/>
      </defs>
      <g style="fill:#262626;" transform="translate(19.8853125 88.566203125)scale(0.13 -0.13)">
       <use xlink:href="#OfficinaSanITC-Book-36"/>
       <use x="49.9999847412" xlink:href="#OfficinaSanITC-Book-30"/>
       <use x="99.9999694824" xlink:href="#OfficinaSanITC-Book-30"/>
      </g>
     </g>
    </g>
    <g id="ytick_5">
     <g id="line2d_73">
      <path clip-path="url(#pe273d42b18)" d="
M45.0447 52.564
L597.96 52.564" style="fill:none;stroke:#cccccc;stroke-linecap:round;"/>
     </g>
     <g id="line2d_74">
      <g>
       <use style="fill:#262626;stroke:#262626;" x="45.0446875" xlink:href="#m219da94a98" y="52.564"/>
      </g>
     </g>
     <g id="line2d_75">
      <g>
       <use style="fill:#262626;stroke:#262626;" x="597.96" xlink:href="#m219da94a98" y="52.564"/>
      </g>
     </g>
     <g id="text_9">
      <!-- 800 -->
      <defs>
       <path d="
M24.7969 30.2031
Q22.2031 29.0938 20.9531 28.5
Q19.7031 27.9062 18.4062 27.0938
Q15.5 25.4062 13.8438 22.4062
Q12.2031 19.4062 12.2031 16.2031
Q12.2031 11.2031 15.75 8.20312
Q19.2969 5.20312 25.2031 5.20312
Q30.7969 5.20312 34.2969 8.29688
Q37.7969 11.4062 37.7969 16.2031
Q37.7969 20.7969 34.75 24.0469
Q31.7031 27.2969 24.7969 30.2031
M25.2969 37.2969
Q30.7031 39.7031 33.0938 42.5938
Q35.5 45.5 35.5 49.7031
Q35.5 54.2031 32.6406 56.75
Q29.7969 59.2969 24.9062 59.2969
Q20.2969 59.2969 17.5 56.6875
Q14.7031 54.0938 14.7031 49.9062
Q14.7031 46.0938 17.25 43.0469
Q19.7969 40 25.2969 37.2969
M18.5938 34.0938
Q6.79688 39 6.79688 49.5938
Q6.79688 56.0938 11.4062 60.7031
Q14 63.2969 17.2969 64.5
Q20.5938 65.7031 25.2031 65.7031
Q29.2031 65.7031 32.5 64.5938
Q35.7969 63.5 38.1406 61.5
Q40.5 59.5 41.7969 56.7031
Q43.0938 53.9062 43.0938 50.5
Q43.0938 44.9062 40.4375 41.0469
Q37.7969 37.2031 31.7969 34.2031
Q38.7969 31.5 42.3906 27.0469
Q46 22.5938 46 16.7031
Q46 13.5938 44.8906 10.6875
Q43.7969 7.79688 41.5 5.29688
Q38.5 1.79688 34.5469 0.1875
Q30.5938 -1.40625 25 -1.40625
Q20.2031 -1.40625 16.3438 -0.09375
Q12.5 1.20312 9.75 3.54688
Q7 5.90625 5.5 9.20312
Q4 12.5 4 16.5938
Q4 20.2969 5.5 23.5938
Q7 26.9062 9.70312 29.2969
Q11.4062 30.7031 13.3438 31.75
Q15.2969 32.7969 18.5938 34.0938" id="OfficinaSanITC-Book-38"/>
      </defs>
      <g style="fill:#262626;" transform="translate(19.6375 55.892203125)scale(0.13 -0.13)">
       <use xlink:href="#OfficinaSanITC-Book-38"/>
       <use x="49.9999847412" xlink:href="#OfficinaSanITC-Book-30"/>
       <use x="99.9999694824" xlink:href="#OfficinaSanITC-Book-30"/>
      </g>
     </g>
    </g>
    <g id="ytick_6">
     <g id="line2d_76">
      <path clip-path="url(#pe273d42b18)" d="
M45.0447 19.89
L597.96 19.89" style="fill:none;stroke:#cccccc;stroke-linecap:round;"/>
     </g>
     <g id="line2d_77">
      <g>
       <use style="fill:#262626;stroke:#262626;" x="45.0446875" xlink:href="#m219da94a98" y="19.89"/>
      </g>
     </g>
     <g id="line2d_78">
      <g>
       <use style="fill:#262626;stroke:#262626;" x="597.96" xlink:href="#m219da94a98" y="19.89"/>
      </g>
     </g>
     <g id="text_10">
      <!-- 1000 -->
      <g style="fill:#262626;" transform="translate(14.08 23.218203125)scale(0.13 -0.13)">
       <use xlink:href="#OfficinaSanITC-Book-31"/>
       <use x="46.2499847412" xlink:href="#OfficinaSanITC-Book-30"/>
       <use x="96.2499694824" xlink:href="#OfficinaSanITC-Book-30"/>
       <use x="146.249954224" xlink:href="#OfficinaSanITC-Book-30"/>
      </g>
     </g>
    </g>
   </g>
   <g id="patch_3">
    <path clip-path="url(#pe273d42b18)" d="
M53.0465 183.26
L53.0465 19.89
L54.1999 19.89
L54.1999 183.26
z
" style="fill:#fff8dc;opacity:0.4;"/>
   </g>
   <g id="patch_4">
    <path clip-path="url(#pe273d42b18)" d="
M54.272 183.26
L54.272 19.89
L61.4808 19.89
L61.4808 183.26
z
" style="fill:#fff8dc;opacity:0.4;"/>
   </g>
   <g id="patch_5">
    <path clip-path="url(#pe273d42b18)" d="
M61.5529 183.26
L61.5529 19.89
L76.6193 19.89
L76.6193 183.26
z
" style="fill:#fff8dc;opacity:0.4;"/>
   </g>
   <g id="patch_6">
    <path clip-path="url(#pe273d42b18)" d="
M76.6913 183.26
L76.6913 19.89
L77.9168 19.89
L77.9168 183.26
z
" style="fill:#fff8dc;opacity:0.4;"/>
   </g>
   <g id="patch_7">
    <path clip-path="url(#pe273d42b18)" d="
M78.3494 183.26
L78.3494 19.89
L79.6469 19.89
L79.6469 183.26
z
" style="fill:#fff8dc;opacity:0.4;"/>
   </g>
   <g id="patch_8">
    <path clip-path="url(#pe273d42b18)" d="
M79.719 183.26
L79.719 19.89
L79.8632 19.89
L79.8632 183.26
z
" style="fill:#fff8dc;opacity:0.4;"/>
   </g>
   <g id="patch_9">
    <path clip-path="url(#pe273d42b18)" d="
M79.9353 183.26
L79.9353 19.89
L133.497 19.89
L133.497 183.26
z
" style="fill:#fff8dc;opacity:0.4;"/>
   </g>
   <g id="patch_10">
    <path clip-path="url(#pe273d42b18)" d="
M133.569 183.26
L133.569 19.89
L160.169 19.89
L160.169 183.26
z
" style="fill:#fff8dc;opacity:0.4;"/>
   </g>
   <g id="patch_11">
    <path clip-path="url(#pe273d42b18)" d="
M160.241 183.26
L160.241 19.89
L201.187 19.89
L201.187 183.26
z
" style="fill:#fff8dc;opacity:0.4;"/>
   </g>
   <g id="patch_12">
    <path clip-path="url(#pe273d42b18)" d="
M210.343 183.26
L210.343 19.89
L231.609 19.89
L231.609 183.26
z
" style="fill:#fff8dc;opacity:0.4;"/>
   </g>
   <g id="patch_13">
    <path clip-path="url(#pe273d42b18)" d="
M232.257 183.26
L232.257 19.89
L233.843 19.89
L233.843 183.26
z
" style="fill:#fff8dc;opacity:0.4;"/>
   </g>
   <g id="patch_14">
    <path clip-path="url(#pe273d42b18)" d="
M234.204 183.26
L234.204 19.89
L234.276 19.89
L234.276 183.26
z
" style="fill:#fff8dc;opacity:0.4;"/>
   </g>
   <g id="patch_15">
    <path clip-path="url(#pe273d42b18)" d="
M234.564 183.26
L234.564 19.89
L234.636 19.89
L234.636 183.26
z
" style="fill:#fff8dc;opacity:0.4;"/>
   </g>
   <g id="patch_16">
    <path clip-path="url(#pe273d42b18)" d="
M234.708 183.26
L234.708 19.89
L314.942 19.89
L314.942 183.26
z
" style="fill:#fff8dc;opacity:0.4;"/>
   </g>
   <g id="patch_17">
    <path clip-path="url(#pe273d42b18)" d="
M315.014 183.26
L315.014 19.89
L321.719 19.89
L321.719 183.26
z
" style="fill:#fff8dc;opacity:0.4;"/>
   </g>
   <g id="patch_18">
    <path clip-path="url(#pe273d42b18)" d="
M321.791 183.26
L321.791 19.89
L361.8 19.89
L361.8 183.26
z
" style="fill:#fff8dc;opacity:0.4;"/>
   </g>
   <g id="patch_19">
    <path clip-path="url(#pe273d42b18)" d="
M370.522 183.26
L370.522 19.89
L386.165 19.89
L386.165 183.26
z
" style="fill:#fff8dc;opacity:0.4;"/>
   </g>
   <g id="patch_20">
    <path clip-path="url(#pe273d42b18)" d="
M397.916 183.26
L397.916 19.89
L445.71 19.89
L445.71 183.26
z
" style="fill:#fff8dc;opacity:0.4;"/>
   </g>
   <g id="patch_21">
    <path clip-path="url(#pe273d42b18)" d="
M445.782 183.26
L445.782 19.89
L451.982 19.89
L451.982 183.26
z
" style="fill:#fff8dc;opacity:0.4;"/>
   </g>
   <g id="patch_22">
    <path clip-path="url(#pe273d42b18)" d="
M452.054 183.26
L452.054 19.89
L495.307 19.89
L495.307 183.26
z
" style="fill:#fff8dc;opacity:0.4;"/>
   </g>
   <g id="patch_23">
    <path clip-path="url(#pe273d42b18)" d="
M496.965 183.26
L496.965 19.89
L519.384 19.89
L519.384 183.26
z
" style="fill:#fff8dc;opacity:0.4;"/>
   </g>
   <g id="patch_24">
    <path clip-path="url(#pe273d42b18)" d="
M531.927 183.26
L531.927 19.89
L538.559 19.89
L538.559 183.26
z
" style="fill:#fff8dc;opacity:0.4;"/>
   </g>
   <g id="patch_25">
    <path clip-path="url(#pe273d42b18)" d="
M582.677 183.26
L582.677 19.89
L598.032 19.89
L598.032 183.26
z
" style="fill:#fff8dc;opacity:0.4;"/>
   </g>
   <g id="patch_26">
    <path clip-path="url(#pe273d42b18)" d="
M45.0447 183.26
L45.0447 19.89
L53.0465 19.89
L53.0465 183.26
z
" style="fill:#cd5c5c;opacity:0.4;"/>
   </g>
   <g id="patch_27">
    <path clip-path="url(#pe273d42b18)" d="
M201.187 183.26
L201.187 19.89
L210.343 19.89
L210.343 183.26
z
" style="fill:#cd5c5c;opacity:0.4;"/>
   </g>
   <g id="patch_28">
    <path clip-path="url(#pe273d42b18)" d="
M231.609 183.26
L231.609 19.89
L232.257 19.89
L232.257 183.26
z
" style="fill:#cd5c5c;opacity:0.4;"/>
   </g>
   <g id="patch_29">
    <path clip-path="url(#pe273d42b18)" d="
M233.843 183.26
L233.843 19.89
L234.204 19.89
L234.204 183.26
z
" style="fill:#cd5c5c;opacity:0.4;"/>
   </g>
   <g id="patch_30">
    <path clip-path="url(#pe273d42b18)" d="
M234.276 183.26
L234.276 19.89
L234.564 19.89
L234.564 183.26
z
" style="fill:#cd5c5c;opacity:0.4;"/>
   </g>
   <g id="patch_31">
    <path clip-path="url(#pe273d42b18)" d="
M234.636 183.26
L234.636 19.89
L234.708 19.89
L234.708 183.26
z
" style="fill:#cd5c5c;opacity:0.4;"/>
   </g>
   <g id="patch_32">
    <path clip-path="url(#pe273d42b18)" d="
M361.8 183.26
L361.8 19.89
L370.522 19.89
L370.522 183.26
z
" style="fill:#cd5c5c;opacity:0.4;"/>
   </g>
   <g id="patch_33">
    <path clip-path="url(#pe273d42b18)" d="
M386.165 183.26
L386.165 19.89
L397.916 19.89
L397.916 183.26
z
" style="fill:#cd5c5c;opacity:0.4;"/>
   </g>
   <g id="patch_34">
    <path clip-path="url(#pe273d42b18)" d="
M495.307 183.26
L495.307 19.89
L496.965 19.89
L496.965 183.26
z
" style="fill:#cd5c5c;opacity:0.4;"/>
   </g>
   <g id="patch_35">
    <path clip-path="url(#pe273d42b18)" d="
M519.384 183.26
L519.384 19.89
L531.927 19.89
L531.927 183.26
z
" style="fill:#cd5c5c;opacity:0.4;"/>
   </g>
   <g id="patch_36">
    <path clip-path="url(#pe273d42b18)" d="
M538.559 183.26
L538.559 19.89
L582.677 19.89
L582.677 183.26
z
" style="fill:#cd5c5c;opacity:0.4;"/>
   </g>
   <g id="patch_37">
    <path clip-path="url(#pe273d42b18)" d="
M54.1999 183.26
L54.1999 19.89
L54.272 19.89
L54.272 183.26
z
" style="fill:#b0c4de;opacity:0.4;"/>
   </g>
   <g id="patch_38">
    <path clip-path="url(#pe273d42b18)" d="
M61.4808 183.26
L61.4808 19.89
L61.5529 19.89
L61.5529 183.26
z
" style="fill:#b0c4de;opacity:0.4;"/>
   </g>
   <g id="patch_39">
    <path clip-path="url(#pe273d42b18)" d="
M76.6193 183.26
L76.6193 19.89
L76.6913 19.89
L76.6913 183.26
z
" style="fill:#b0c4de;opacity:0.4;"/>
   </g>
   <g id="patch_40">
    <path clip-path="url(#pe273d42b18)" d="
M77.9168 183.26
L77.9168 19.89
L78.3494 19.89
L78.3494 183.26
z
" style="fill:#b0c4de;opacity:0.4;"/>
   </g>
   <g id="patch_41">
    <path clip-path="url(#pe273d42b18)" d="
M79.6469 183.26
L79.6469 19.89
L79.719 19.89
L79.719 183.26
z
" style="fill:#b0c4de;opacity:0.4;"/>
   </g>
   <g id="patch_42">
    <path clip-path="url(#pe273d42b18)" d="
M79.8632 183.26
L79.8632 19.89
L79.9353 19.89
L79.9353 183.26
z
" style="fill:#b0c4de;opacity:0.4;"/>
   </g>
   <g id="patch_43">
    <path clip-path="url(#pe273d42b18)" d="
M133.497 183.26
L133.497 19.89
L133.569 19.89
L133.569 183.26
z
" style="fill:#b0c4de;opacity:0.4;"/>
   </g>
   <g id="patch_44">
    <path clip-path="url(#pe273d42b18)" d="
M160.169 183.26
L160.169 19.89
L160.241 19.89
L160.241 183.26
z
" style="fill:#b0c4de;opacity:0.4;"/>
   </g>
   <g id="patch_45">
    <path clip-path="url(#pe273d42b18)" d="
M314.942 183.26
L314.942 19.89
L315.014 19.89
L315.014 183.26
z
" style="fill:#b0c4de;opacity:0.4;"/>
   </g>
   <g id="patch_46">
    <path clip-path="url(#pe273d42b18)" d="
M321.719 183.26
L321.719 19.89
L321.791 19.89
L321.791 183.26
z
" style="fill:#b0c4de;opacity:0.4;"/>
   </g>
   <g id="patch_47">
    <path clip-path="url(#pe273d42b18)" d="
M445.71 183.26
L445.71 19.89
L445.782 19.89
L445.782 183.26
z
" style="fill:#b0c4de;opacity:0.4;"/>
   </g>
   <g id="patch_48">
    <path clip-path="url(#pe273d42b18)" d="
M451.982 183.26
L451.982 19.89
L452.054 19.89
L452.054 183.26
z
" style="fill:#b0c4de;opacity:0.4;"/>
   </g>
   <g id="patch_49">
    <path clip-path="url(#pe273d42b18)" d="
M73.6636 183.26
L73.6636 19.89
L84.5489 19.89
L84.5489 183.26
L73.6636 183.26" style="fill:none;stroke:#000000;stroke-dasharray:6.000000,6.000000;stroke-dashoffset:0.0;stroke-linejoin:miter;"/>
   </g>
   <g id="line2d_79">
    <path clip-path="url(#pe273d42b18)" d="
M45.0447 108.339
L45.5493 115.088
L45.6935 114.706
L45.7656 114.822
L46.3423 116.547
L47.2794 120.458
L48.4328 126.91
L49.6583 135.009
L50.1629 137.402
L50.3792 130.533
L50.5234 130.041
L50.5955 130.159
L51.1001 131.146
L51.3884 132.351
L51.4605 132.294
L51.8931 130.709
L51.9651 130.602
L52.1814 130.845
L52.4698 130.738
L52.686 131.01
L52.7581 130.208
L53.0465 123.464
L53.3348 118.79
L53.5511 107.971
L53.7673 101.377
L54.0557 99.5093
L54.1999 85.3695
L54.272 86.732
L54.6324 103.617
L55.2091 116.295
L55.3533 115.597
L55.93 124.139
L56.0742 124.35
L56.1462 124.202
L56.2183 122.546
L56.5067 111.761
L56.795 104.062
L57.1555 94.8442
L57.8043 84.6054
L57.9484 83.255
L58.2368 79.2939
L58.5252 72.3662
L59.246 63.4921
L59.3181 63.524
L59.6065 62.4198
L59.7506 62.1309
L59.8948 61.3922
L60.3994 54.7853
L60.7599 51.0724
L61.2645 45.1449
L61.4087 41.357
L61.4808 31.6691
L61.5529 34.4593
L61.6249 33.6435
L61.7691 35.7122
L61.8412 36.6802
L61.9133 36.3817
L62.2016 33.4839
L62.8504 28.01
L63.2109 26.6184
L63.283 26.5459
L63.3551 26.6184
L63.4271 26.6728
L63.6434 27.2163
L63.7155 27.2163
L64.0759 29.6293
L64.7247 35.7475
L65.1573 37.5751
L65.3735 37.9262
L65.806 39.933
L66.3827 43.7378
L67.0315 46.715
L67.6803 50.6699
L67.7524 50.5859
L67.8966 51.4248
L68.4733 55.3629
L68.8337 57.2029
L69.1221 58.4772
L69.3384 59.2246
L69.843 61.5373
L69.9151 61.4407
L70.4918 62.5802
L70.6359 62.516
L70.9243 63.1732
L70.9964 63.0133
L71.7173 67.012
L72.7265 74.1429
L73.2311 77.0666
L73.5916 79.4578
L74.8171 88.3959
L74.9612 85.9315
L75.0333 85.8885
L75.1054 86.0548
L75.1775 86.5605
L75.2496 86.1316
L75.3217 86.3461
L75.61 89.327
L75.8263 91.1603
L75.8984 91.0487
L75.9705 91.2021
L76.0425 92.2967
L76.1146 91.5227
L76.403 104.849
L76.5472 102.219
L76.6193 93.2472
L76.6913 93.6032
L77.196 106.794
L77.4122 102.578
L77.6285 104.849
L77.7006 104.062
L77.8447 111.223
L77.9168 108.906
L77.9889 102.076
L78.1331 42.0484
L78.2052 46.4597
L78.9982 121.427
L79.2144 125.779
L79.3586 126.212
L79.5028 124.988
L79.6469 118.678
L79.7911 123.027
L79.9353 111.569
L80.2957 122.386
L80.3678 122.493
L80.5841 124.633
L80.8004 127.145
L80.9445 126.706
L81.305 123.389
L82.0259 115.354
L82.3863 118.153
L82.4584 117.997
L83.0351 116.055
L83.9001 111.247
L84.621 105.869
L84.8373 105.517
L84.9094 105.479
L85.7744 102.63
L86.5674 93.3841
L87.2162 89.8472
L87.4325 88.3535
L88.3696 82.2609
L88.5859 81.719
L88.658 81.7043
L88.8021 81.4315
L88.9463 81.499
L89.0905 81.5725
L89.1626 81.3808
L89.4509 77.9359
L89.5951 77.3814
L89.6672 77.621
L89.8835 78.4152
L90.0997 79.0856
L90.2439 79.3237
L90.316 79.264
L90.5322 79.4723
L90.6043 79.4426
L90.8927 81.4104
L91.2531 84.4323
L91.8298 86.6034
L92.8391 89.791
L92.9112 89.805
L93.5599 91.5088
L93.7041 91.6197
L93.8483 91.7026
L94.2808 92.794
L94.7854 94.2604
L94.9296 94.3421
L95.0738 94.3964
L95.3621 94.0961
L95.5784 93.9865
L96.6597 91.744
L96.9481 90.8396
L97.1643 91.2579
L97.3806 91.744
L97.5969 92.3934
L97.741 92.5178
L97.8852 93.1103
L98.534 96.3976
L98.7503 96.7742
L99.2549 99.6018
L99.6153 102.011
L99.9758 103.489
L100.336 105.856
L101.706 112.653
L101.85 111.845
L102.283 112.901
L102.499 113.901
L102.787 111.426
L103.292 112.286
L103.436 112.298
L103.796 112.523
L104.301 114.451
L104.517 115.203
L104.806 114.018
L105.022 113.784
L105.094 112.06
L105.238 104.392
L105.31 104.647
L105.599 91.3974
L105.671 90.756
L106.32 95.3869
L106.464 94.6542
L106.536 94.7084
L106.608 94.7764
L106.68 92.9184
L106.752 86.0031
L106.968 98.6515
L107.185 95.5498
L107.257 95.9137
L107.329 95.7523
L107.473 95.0342
L107.617 93.3977
L107.905 97.7619
L107.978 97.6022
L108.194 94.3557
L108.41 92.3934
L108.698 91.3415
L109.275 86.2174
L109.708 84.0544
L109.852 82.6711
L109.924 82.9493
L110.14 85.3551
L110.212 84.9658
L110.429 74.4319
L110.645 73.6995
L111.438 67.5315
L111.582 67.248
L111.654 67.3426
L111.942 63.4921
L112.159 63.1574
L112.375 61.4729
L112.663 58.8021
L112.952 59.0782
L113.024 59.0134
L113.312 57.6118
L113.384 57.4809
L113.745 58.1024
L113.817 58.0206
L113.889 58.2169
L114.177 61.5213
L114.465 64.0022
L114.754 62.2592
L114.898 60.6172
L115.114 60.1168
L115.258 60.6012
L115.403 59.5007
L115.619 56.8267
L116.34 39.6898
L116.7 36.4871
L116.916 34.7416
L117.061 34.211
L117.349 34.8122
L117.493 34.2466
L118.502 28.0641
L118.574 28.0459
L118.935 28.9293
L119.151 29.5398
L119.944 33.5015
L120.449 37.5751
L120.665 38.747
L121.314 43.4801
L121.458 44.2187
L122.395 50.737
L122.467 50.8208
L122.539 50.6531
L123.044 54.6858
L123.909 65.7017
L124.342 70.8853
L124.918 74.888
L125.207 76.6139
L125.711 79.8291
L126 81.5579
L126.288 83.3568
L126.72 84.7784
L126.865 85.1101
L127.009 85.9457
L127.225 87.7862
L127.73 91.6197
L127.874 92.2276
L128.018 91.9099
L128.306 93.2882
L128.811 88.2968
L128.883 88.3959
L129.027 88.6511
L129.388 89.6222
L129.46 89.6643
L129.604 89.8472
L129.748 89.8754
L129.892 89.8124
L130.036 89.7769
L130.253 90.1845
L130.613 91.2858
L131.767 95.5769
L131.839 95.4818
L131.911 94.3557
L132.055 86.0173
L132.127 86.9037
L132.271 90.6166
L132.92 96.196
L133.064 96.0346
L133.136 96.1289
L133.28 97.2825
L133.425 93.2472
L133.497 83.1243
L133.569 83.3568
L133.857 92.6697
L134.146 98.8363
L134.29 102.27
L134.362 101.442
L134.434 101.714
L134.578 102.037
L134.722 101.701
L134.866 102.296
L135.155 98.4667
L135.227 98.2947
L135.299 98.4667
L135.371 98.3612
L135.443 97.9351
L135.731 94.7492
L135.948 93.2882
L137.534 80.2738
L137.822 77.7859
L138.327 71.6107
L139.192 60.3912
L139.913 54.1225
L140.706 45.5718
L140.85 44.8199
L141.138 39.5153
L141.498 34.5476
L141.715 33.271
L141.859 33.0581
L142.003 33.0581
L142.075 33.0227
L142.868 28.8391
L142.94 28.8932
L143.012 28.785
L143.229 28.1361
L143.301 28.0279
L143.373 28.2622
L144.959 44.2704
L145.824 53.9901
L146.184 56.7286
L146.256 56.7776
L146.617 58.1351
L146.689 58.2006
L146.833 58.1187
L147.338 58.7046
L147.41 58.6559
L147.626 59.2569
L147.698 59.1757
L147.77 59.2083
L148.275 60.5043
L148.347 60.5043
L148.996 62.0507
L149.356 61.1823
L149.428 61.3438
L149.717 62.3556
L150.726 68.0026
L153.537 86.2032
L153.826 86.9179
L153.898 87.1038
L153.97 87.0753
L154.186 86.9895
L154.619 88.4528
L154.763 88.4102
L154.835 88.325
L155.195 89.2285
L155.484 89.5238
L155.7 90.2541
L155.916 90.3796
L156.709 95.4276
L157.574 99.9553
L157.935 101.545
L158.007 101.908
L158.079 101.882
L158.151 101.804
L158.583 95.5498
L158.8 83.3713
L159.448 92.7527
L159.521 92.573
L159.737 93.0417
L159.809 93.0966
L159.881 92.946
L159.953 91.979
L160.169 76.4477
L160.241 76.5684
L160.674 91.5645
L160.746 91.4113
L160.89 88.5095
L161.034 90.2682
L161.179 84.7784
L161.539 87.8998
L161.755 86.1888
L162.116 83.1679
L162.26 82.3927
L162.764 78.2355
L163.197 75.5418
L163.557 72.9645
L163.774 71.3177
L163.99 69.5342
L164.206 68.7063
L164.567 66.7287
L164.639 66.9332
L164.855 66.2562
L165.071 66.9963
L165.215 67.6259
L165.288 67.5944
L165.576 68.5813
L166.008 72.212
L166.153 73.1637
L166.441 70.7454
L166.657 70.0467
L167.522 60.4234
L168.027 55.6592
L168.387 55.083
L168.604 54.487
L168.748 54.5202
L169.18 53.4598
L169.252 53.6752
L169.324 53.5426
L169.469 53.5924
L169.613 54.6528
L169.829 55.9719
L169.973 56.4658
L170.55 61.3922
L170.838 63.3806
L170.983 64.0661
L172.208 75.1465
L172.352 75.5872
L172.424 75.5418
L172.785 76.7949
L172.929 77.4413
L173.001 77.3663
L173.073 77.6361
L173.145 77.5163
L173.217 77.4564
L173.289 77.6661
L173.578 76.8553
L173.65 76.8251
L173.794 76.9308
L174.154 75.8741
L174.299 75.9043
L174.371 75.9194
L174.443 76.1308
L174.515 76.1006
L174.803 75.7081
L174.875 75.7081
L175.524 73.623
L175.596 73.7149
L175.668 73.9138
L175.74 73.8527
L176.029 73.2249
L176.461 74.4775
L177.254 77.9956
L177.831 81.8948
L178.552 88.0699
L178.696 88.4668
L178.768 88.325
L178.84 88.3817
L179.345 89.566
L179.417 89.566
L179.633 89.791
L179.705 89.6786
L179.777 89.9035
L180.138 89.3129
L180.282 89.2567
L180.57 89.791
L180.931 91.5227
L181.075 91.6334
L181.291 91.9236
L181.507 92.1861
L181.579 92.1309
L181.724 92.5593
L181.868 92.9597
L182.012 92.5178
L182.228 92.5039
L182.372 92.8216
L182.445 92.6973
L182.661 93.3019
L183.093 95.007
L183.165 95.102
L183.526 97.2958
L184.535 102.617
L184.823 103.258
L184.968 103.181
L185.256 102.245
L185.544 102.912
L185.688 103.4
L186.121 104.583
L186.193 104.685
L186.409 103.361
L186.554 102.989
L186.77 102.848
L186.842 102.861
L186.914 102.655
L187.274 99.219
L187.491 97.6687
L187.707 97.3225
L187.851 96.4516
L188.139 93.7538
L188.5 92.2828
L188.644 91.8823
L188.788 91.5506
L188.932 91.4251
L189.293 89.3129
L189.725 85.3408
L190.014 83.851
L190.302 83.5022
L190.59 83.1243
L191.023 82.8762
L191.239 81.499
L192.248 71.626
L192.537 70.2797
L192.825 68.3624
L193.186 67.5628
L193.33 67.4055
L193.618 67.4684
L193.69 67.3897
L193.907 67.8148
L194.195 69.5808
L194.339 70.5747
L195.132 78.3404
L195.781 82.2609
L196.213 86.3747
L196.574 88.863
L196.862 90.5191
L197.439 95.0342
L197.943 98.757
L198.592 103.387
L199.529 107.539
L200.25 110.645
L202.918 122.568
L203.422 126.068
L205.224 136.307
L206.666 141.296
L206.738 141.522
L206.81 141.464
L206.954 141.287
L207.099 140.519
L207.243 140.715
L207.315 140.647
L207.459 140.485
L207.819 137.598
L207.964 137.455
L208.252 137.633
L208.757 135.752
L209.189 132.998
L209.333 132.657
L209.55 130.218
L210.054 118.522
L210.415 113.737
L211.063 109.554
L211.136 109.468
L212.217 103.04
L212.289 102.989
L212.433 102.154
L213.226 96.9624
L213.442 90.3239
L213.875 84.8505
L214.091 83.3713
L214.163 83.4004
L214.235 83.1389
L214.307 81.763
L214.524 75.4353
L214.74 74.1429
L214.812 74.1125
L215.1 73.1483
L215.245 73.0717
L215.389 72.8268
L215.533 71.4256
L215.965 66.3036
L216.398 62.4196
L216.614 60.5365
L217.047 58.4122
L217.119 58.2496
L217.263 57.0884
L217.335 57.1047
L217.479 57.4318
L217.696 58.9158
L217.768 58.7696
L217.912 58.6071
L218.128 58.8508
L218.272 59.2408
L218.416 58.7371
L218.489 58.7858
L218.561 58.9158
L218.633 58.8021
L218.993 56.7776
L219.065 56.843
L219.209 57.1866
L219.642 55.5274
L220.507 48.9354
L221.012 46.9019
L221.084 46.9527
L221.228 47.2414
L221.516 47.8016
L221.877 50.9718
L223.463 65.1631
L225.049 84.345
L226.779 93.6579
L226.923 93.7811
L227.067 93.8223
L227.5 94.4779
L227.572 94.3557
L227.644 94.4235
L229.013 98.2148
L229.662 101.804
L230.743 106.295
L231.032 107.502
L231.104 107.515
L231.609 108.662
L232.041 109.615
L232.113 109.529
L232.329 108.366
L232.546 107.885
L232.69 107.823
L233.122 108.711
L233.194 108.784
L233.411 109.419
L233.627 110.1
L234.564 112.665
L234.636 112.357
L235.141 102.437
L235.357 100.648
L235.501 100.387
L235.573 100.426
L235.645 100.165
L235.862 96.5724
L236.078 94.3828
L236.943 88.6229
L237.159 88.155
L237.304 88.311
L237.52 87.161
L237.808 85.4128
L238.096 84.9514
L238.169 85.0668
L238.457 86.0745
L238.529 86.0602
L238.673 86.6034
L239.178 90.7142
L239.466 93.165
L239.971 95.9271
L240.259 96.6398
L240.403 97.0028
L240.764 96.1691
L240.908 96.3708
L241.052 96.3035
L241.196 95.5089
L241.485 92.0066
L241.773 90.3378
L242.061 86.1888
L242.35 82.5832
L242.998 76.6591
L243.287 73.286
L243.503 65.5433
L245.161 40.9575
L245.522 37.4699
L245.882 33.9627
L246.17 32.65
L246.891 25.4768
L246.963 25.2946
L247.324 25.8573
L247.468 25.7849
L247.54 25.8754
L247.612 25.6398
L248.045 27.6854
L248.261 28.6228
L248.693 31.3659
L248.766 31.3303
L249.198 33.1823
L249.486 35.1298
L249.919 38.5201
L250.207 40.3844
L250.424 42.0137
L251.433 55.8237
L251.793 60.0521
L252.298 63.811
L253.163 67.8148
L253.956 70.7299
L254.46 72.0578
L255.47 75.3897
L255.758 76.1006
L256.118 77.7859
L258.353 93.8358
L258.569 94.7628
L260.444 104.011
L260.588 103.528
L260.66 103.719
L260.732 103.655
L261.237 100.936
L261.309 101.131
L261.381 101.079
L261.453 101.131
L261.669 100.805
L262.174 96.5994
L262.246 96.2632
L262.534 92.2276
L262.678 91.9099
L262.895 92.3105
L263.183 93.0829
L263.255 92.9732
L263.399 93.5483
L263.471 93.4936
L264.048 92.8216
L264.12 92.8631
L264.264 92.3934
L264.553 92.8907
L264.625 92.794
L264.913 91.2858
L265.129 91.1324
L265.562 91.2299
L265.634 91.0487
L265.85 86.0317
L265.922 86.4319
L266.211 89.791
L266.283 89.2567
L266.499 83.1969
L266.932 79.2194
L267.148 78.3703
L268.301 68.4093
L268.518 67.736
L268.59 67.9089
L268.662 67.8777
L268.806 67.8304
L269.022 67.374
L269.166 66.7444
L269.239 67.2167
L269.671 73.5311
L269.815 74.5992
L270.392 80.4362
L270.68 81.0414
L271.041 80.2296
L271.185 79.9482
L271.473 78.6052
L271.617 78.8329
L271.762 78.7584
L272.05 79.264
L272.194 79.16
L272.41 79.16
L272.555 79.1451
L272.843 79.621
L272.987 79.7102
L273.42 79.5913
L273.564 79.7548
L273.636 79.6061
L274.645 85.1101
L275.15 89.088
L275.582 93.165
L277.529 112.546
L278.033 115.019
L278.61 116.776
L278.898 117.794
L279.403 118.801
L279.475 118.824
L279.835 119.544
L279.98 119.644
L280.052 119.909
L280.124 119.765
L280.484 119.942
L281.205 121.351
L281.349 121.686
L281.638 121.535
L282.503 122.408
L282.575 122.546
L283.152 125.872
L283.296 126.367
L283.584 125.655
L283.656 125.707
L283.8 125.8
L284.017 124.988
L284.161 125.02
L284.449 126.006
L284.954 127.795
L285.026 127.664
L285.17 127.502
L285.386 127.765
L285.747 128.951
L286.107 129.933
L286.251 129.805
L286.828 130.208
L286.9 130.1
L287.188 127.084
L287.477 126.378
L287.621 126.326
L287.909 125.696
L287.981 125.861
L288.053 125.8
L288.198 125.789
L288.342 125.944
L288.414 125.81
L288.486 125.416
L288.846 115.192
L289.135 113.456
L289.567 101.247
L289.856 98.5327
L290.072 97.2825
L290.432 94.4508
L291.081 86.6606
L291.514 85.1245
L291.802 88.9192
L291.874 88.8348
L292.018 87.6444
L292.307 84.692
L292.451 85.9745
L292.523 85.9745
L293.172 79.9185
L293.604 76.5384
L294.037 75.4811
L294.109 75.557
L294.397 78.565
L294.469 75.9798
L294.614 66.9647
L294.902 74.0973
L294.974 73.7454
L295.262 72.3509
L295.623 67.4684
L295.911 62.1149
L296.272 57.5953
L296.416 55.8072
L296.704 53.0605
L296.92 51.5591
L297.641 43.9268
L298.002 36.5046
L298.146 35.0063
L298.29 35.3239
L298.362 35.1122
L298.506 33.4839
L298.578 34.6534
L298.65 31.7227
L298.723 32.0972
L299.011 35.8181
L299.083 35.4476
L299.299 29.0013
L299.443 26.0566
L299.804 28.5867
L299.948 28.082
L300.092 28.3704
L300.381 24.7298
L300.453 24.7663
L300.813 26.4554
L301.246 30.7231
L301.318 30.6873
L301.534 31.0985
L301.606 31.0449
L301.822 30.7948
L302.111 31.2589
L303.192 38.0311
L304.201 47.3942
L304.634 50.7874
L305.066 54.2882
L305.21 55.2923
L305.643 58.4453
L308.382 76.9158
L308.815 78.9518
L309.464 83.7783
L309.824 86.818
L310.545 90.6585
L311.122 93.0281
L312.059 96.8683
L312.347 98.0018
L312.563 99.0343
L312.636 99.1266
L312.708 98.8495
L312.78 97.8819
L312.924 93.6579
L313.428 92.5315
L313.573 92.7664
L313.861 92.3381
L313.933 92.5315
L314.005 92.1033
L314.294 83.1969
L314.366 78.2503
L314.438 78.3404
L314.87 107.404
L315.014 76.4327
L315.087 76.6893
L315.303 93.9455
L315.735 119.312
L315.952 123.717
L316.024 123.464
L316.096 123.506
L316.168 123.717
L316.312 122.279
L316.745 118.153
L316.817 117.918
L317.249 113.643
L317.465 106.956
L317.682 111.809
L318.042 121.891
L318.835 118.053
L318.907 118.008
L319.051 119.301
L319.123 118.287
L319.34 105.428
L319.916 85.1965
L320.277 80.5986
L320.781 77.8759
L320.854 77.9208
L320.926 78.1605
L321.214 70.0622
L321.43 67.2323
L321.502 66.4452
L321.574 67.1851
L321.791 55.7909
L321.863 58.3796
L322.223 68.0183
L322.367 69.0815
L322.512 70.4194
L322.656 68.6282
L322.728 69.1286
L322.8 69.0034
L323.449 62.0185
L323.881 52.3768
L324.242 50.6699
L324.386 50.5021
L324.89 44.94
L325.323 38.7295
L325.828 31.7227
L326.26 28.0279
L326.476 27.3609
L326.621 26.7633
L326.693 26.7996
L326.765 26.854
L327.125 28.3344
L327.702 31.3481
L327.99 33.1112
L329.72 45.2132
L329.865 45.9474
L330.585 52.3601
L330.874 54.4374
L331.018 55.0665
L331.523 58.1514
L332.316 62.6122
L332.46 63.4124
L334.478 77.9357
L335.127 82.4953
L335.704 86.5177
L336.352 91.4531
L337.29 97.9485
L337.938 100.243
L338.011 100.256
L338.587 102.102
L339.596 105.693
L339.885 105.894
L340.101 104.685
L340.245 104.214
L340.534 104.761
L340.678 104.532
L340.894 104.697
L341.038 104.316
L341.254 104.583
L341.471 105.051
L341.759 103.207
L341.975 103.246
L342.768 104.405
L344.066 108.772
L344.138 108.539
L344.21 106.133
L344.426 96.7608
L344.715 95.0884
L345.219 94.1098
L345.363 90.7142
L345.58 86.2318
L346.445 79.978
L347.166 72.4742
L347.67 69.9381
L347.814 70.1243
L347.887 70.0157
L348.175 69.5497
L348.463 68.3624
L348.68 67.9557
L348.968 67.5156
L349.256 67.1222
L350.049 61.5373
L350.338 59.7444
L351.419 55.0993
L351.779 54.4374
L351.996 54.7688
L352.068 54.6528
L352.212 54.7357
L352.572 55.1982
L353.077 57.3828
L353.293 59.517
L354.158 73.5311
L354.663 81.2776
L355.6 92.5454
L356.249 100.4
L358.339 119.114
L359.565 126.931
L359.781 127.533
L360.286 128.961
L360.43 129.229
L360.646 129.706
L360.718 129.736
L360.862 130.179
L361.223 131.272
L361.8 132.827
L362.088 133.678
L362.448 134.898
L362.809 135.788
L363.097 136.694
L363.241 137.135
L363.89 139.127
L364.034 139.482
L365.548 145.047
L365.764 145.675
L365.909 145.179
L366.053 145.429
L366.557 146.726
L366.702 146.718
L366.918 146.013
L367.062 146.143
L367.711 147.109
L367.783 146.967
L367.855 146.371
L368.071 142.908
L368.72 141.077
L369.297 140.799
L369.513 140.203
L369.729 138.235
L369.873 137.09
L370.018 135.212
L370.234 133.387
L370.666 131.467
L371.171 129.399
L371.459 127.512
L372.108 120.992
L372.973 115.918
L373.334 114.065
L373.694 112.203
L374.271 108.735
L375.064 104.887
L375.64 100.544
L376.794 91.5921
L377.154 88.2684
L377.515 84.7641
L377.803 82.3196
L378.019 82.0266
L378.236 81.8656
L378.884 83.8801
L379.245 86.0459
L380.398 103.002
L380.903 108.28
L382.2 121.438
L382.849 126.037
L384.003 130.64
L384.219 131.36
L384.507 132.102
L384.868 133.112
L385.372 135.119
L385.589 135.706
L386.237 137.233
L386.382 137.606
L386.598 137.918
L386.742 138.252
L386.886 138.498
L387.102 138.612
L387.463 139.378
L387.823 139.887
L388.184 140.866
L388.905 142.761
L389.337 144.291
L389.626 145.054
L389.842 144.812
L389.914 144.844
L390.346 146.036
L390.851 147.027
L391.139 147.723
L391.5 148.291
L391.788 149.306
L392.293 150.523
L392.581 150.719
L392.797 150.665
L393.662 147.709
L393.879 147.642
L394.023 147.701
L394.095 147.826
L394.383 147.36
L395.032 147.84
L395.104 147.862
L395.248 147.612
L395.465 147.796
L395.537 147.746
L395.609 147.338
L395.897 144.045
L396.402 142.72
L396.834 141.796
L397.123 140.74
L397.771 133.235
L398.132 115.907
L398.348 108.649
L398.637 88.9614
L399.069 79.978
L399.79 69.3944
L400.078 65.4008
L400.727 59.1432
L401.448 57.023
L401.736 57.1866
L401.881 56.7123
L402.169 53.7912
L402.241 53.8244
L402.673 55.8237
L403.466 34.211
L404.332 29.3066
L404.62 29.5935
L405.269 32.0794
L405.413 31.9366
L405.629 32.5786
L405.917 33.0403
L406.206 33.6435
L406.71 39.3407
L407.431 52.0767
L408.945 79.7102
L409.882 94.3286
L410.459 100.805
L411.901 111.976
L412.189 113.031
L413.487 115.446
L414.208 119.29
L414.496 120.578
L414.568 120.239
L414.64 120.37
L414.784 120.359
L414.928 120.567
L415.794 126.006
L417.019 134.099
L417.668 135.824
L418.028 136.802
L418.461 137.811
L418.821 138.586
L418.893 138.349
L419.037 137.429
L419.11 137.337
L420.047 139.161
L420.551 141.018
L420.623 141.077
L421.056 142.311
L421.128 142.393
L421.561 140.79
L422.281 132.265
L422.714 129.499
L422.858 128.691
L423.291 125.8
L423.579 124.686
L423.795 123.907
L424.228 121.254
L425.237 105.919
L425.453 103.769
L426.03 98.2947
L426.967 88.708
L427.472 81.1448
L428.697 55.7909
L428.986 47.8186
L429.562 42.3764
L429.779 41.357
L429.851 41.1485
L429.923 41.3049
L430.067 40.7144
L430.499 38.1535
L430.572 38.1883
L430.716 38.3454
L430.788 38.2757
L431.148 35.3417
L431.292 34.211
L431.869 28.8752
L432.23 30.5079
L432.374 31.0807
L432.734 31.6691
L432.806 31.8832
L432.878 31.7405
L432.95 31.794
L433.167 32.115
L433.383 32.7387
L433.743 35.1475
L434.392 42.7564
L435.041 52.0098
L435.762 63.1255
L436.411 69.4411
L436.915 72.7043
L437.852 76.2665
L438.501 78.5949
L438.573 78.5201
L439.294 80.1114
L439.583 80.4656
L440.015 81.4842
L440.303 82.3196
L441.385 86.6177
L441.601 87.5595
L441.673 86.7036
L441.817 83.2696
L441.961 83.8364
L442.754 87.8571
L443.475 89.7207
L443.547 89.6362
L443.908 88.4102
L444.196 90.3378
L444.629 97.1093
L444.701 98.1349
L444.917 96.223
L445.061 96.7339
L445.205 95.2511
L445.278 95.3598
L445.422 99.4698
L445.566 112.096
L445.638 109.59
L445.782 99.5754
L446.359 114.427
L446.503 110.161
L447.152 116.467
L447.296 116.49
L447.512 115.655
L447.801 112.937
L448.233 108.979
L448.882 104.748
L449.098 104.71
L449.459 103.297
L449.963 100.034
L450.9 82.5979
L450.972 83.4295
L451.045 83.2841
L451.261 81.763
L451.477 76.9912
L451.693 75.0553
L451.765 74.8272
L451.91 72.842
L451.982 66.0187
L452.054 66.524
L452.486 79.0559
L452.703 77.771
L452.775 78.2355
L452.991 80.392
L453.135 78.0406
L453.568 69.643
L453.712 68.6282
L453.856 68.8783
L454.289 70.4038
L454.505 68.331
L454.865 63.8269
L455.37 59.8907
L455.586 57.7425
L456.091 50.804
L456.595 46.4597
L456.812 45.418
L457.1 42.981
L457.605 38.4851
L457.749 38.747
L457.821 38.6772
L458.109 36.3466
L458.686 33.0758
L458.758 33.3773
L459.046 35.1122
L459.118 35.0592
L459.479 32.4538
L459.839 29.0915
L459.983 28.0459
L460.056 28.2622
L460.128 28.1902
L460.488 26.3465
L460.704 26.3828
L462.074 32.3468
L462.507 34.6005
L462.579 34.5123
L462.723 35.1651
L463.444 40.1761
L464.453 49.3574
L464.885 53.5593
L465.462 57.3664
L465.751 58.6721
L466.111 61.36
L466.183 61.6175
L466.688 67.2008
L467.12 72.6123
L467.697 80.4656
L468.346 87.8714
L468.634 90.2959
L469.355 96.0885
L469.715 98.889
L470.292 102.745
L470.653 104.634
L472.671 114.764
L472.959 115.377
L474.257 120.03
L474.329 119.853
L474.545 116.444
L474.689 115.861
L474.762 115.918
L474.978 115.62
L475.194 115.792
L475.266 115.792
L475.771 116.776
L476.059 117.319
L476.708 118.6
L477.068 119.765
L477.213 119.964
L477.429 119.787
L477.717 119.434
L477.861 119.511
L478.078 119.257
L478.15 119.103
L478.294 113.737
L478.582 90.2263
L479.015 82.5685
L479.303 77.5013
L479.519 72.6735
L479.952 64.4805
L480.312 59.4032
L480.529 50.8712
L481.322 32.8452
L481.466 30.759
L481.61 30.7768
L481.826 32.2398
L482.042 33.7498
L482.331 35.0416
L482.403 34.9357
L482.475 34.8122
L482.547 34.9887
L482.619 34.9357
L482.763 34.724
L482.835 34.9357
L482.98 33.4484
L483.268 33.0936
L483.556 32.2934
L483.628 32.2754
L483.773 32.0258
L483.989 31.7761
L484.133 31.9902
L484.277 32.0794
L484.71 34.4062
L485.142 38.4851
L487.809 74.5992
L488.819 90.6585
L489.179 94.1234
L489.54 96.5187
L490.693 101.791
L491.053 102.642
L491.991 106.943
L492.567 109.224
L493.072 111.342
L493.649 113.807
L493.937 114.961
L495.307 120.796
L495.667 122.504
L496.1 124.255
L496.244 123.559
L496.316 123.696
L496.46 123.229
L496.532 123.411
L496.82 123.928
L496.965 123.08
L497.469 91.4809
L497.758 87.1038
L498.19 84.5767
L498.334 84.1707
L498.478 85.2398
L498.623 87.3326
L498.695 86.9751
L498.767 86.3175
L498.839 86.7322
L498.911 86.103
L498.983 86.1888
L499.344 88.2117
L499.416 87.9138
L499.56 88.5944
L499.92 90.2682
L500.137 91.1881
L500.425 92.5593
L501.146 92.0481
L501.362 91.0906
L501.506 90.7282
L501.867 89.6503
L502.299 90.03
L502.515 90.6446
L502.588 90.6305
L502.948 91.3136
L503.453 92.8216
L503.669 93.2745
L503.885 93.5483
L503.957 93.4799
L504.173 93.0966
L504.318 93.1376
L504.894 91.8132
L505.976 82.7883
L506.408 78.803
L507.417 73.3933
L508.138 71.1789
L508.571 69.2223
L508.787 68.1332
L509.364 65.8443
L509.796 64.6877
L509.868 64.6558
L510.013 63.9066
L510.157 63.2848
L510.229 63.3169
L510.301 63.2848
L510.589 63.9863
L512.536 77.1866
L513.184 84.4032
L514.554 97.5355
L517.221 116.147
L517.942 119.809
L518.303 121.567
L518.591 122.739
L519.817 128.41
L520.033 129.489
L522.7 142.434
L523.349 144.758
L523.637 145.844
L523.998 147.109
L525.223 151.643
L526.016 154.442
L526.304 154.907
L526.737 155.447
L527.746 156.613
L527.818 156.544
L528.035 156.499
L528.251 156.693
L528.323 156.607
L528.395 155.993
L528.611 140.314
L528.828 138.182
L529.188 136.433
L529.765 134.916
L530.486 121.826
L530.846 118.868
L531.062 117.862
L531.134 117.873
L531.639 116.398
L531.927 114.602
L532.288 108.305
L533.657 96.2364
L533.802 96.3708
L534.595 91.9236
L535.315 89.9176
L535.604 90.7142
L536.757 95.2648
L537.262 97.7619
L537.622 99.7722
L538.127 103.553
L540.145 114.486
L540.65 116.147
L540.866 116.867
L541.01 117.025
L541.443 118.254
L541.803 119.069
L541.876 119.014
L542.092 118.757
L542.741 120.567
L543.101 121.014
L543.173 121.036
L543.245 120.916
L543.534 121.384
L543.894 122.589
L543.966 122.472
L544.038 122.418
L544.615 124.717
L544.903 125.861
L546.345 129.657
L546.489 129.756
L546.85 131.185
L547.426 133.368
L547.498 133.463
L547.57 133.368
L548.075 135.101
L548.219 135.478
L548.868 137
L548.94 136.955
L549.589 137.846
L549.661 137.811
L549.805 137.34
L550.238 130.806
L550.454 128.711
L550.67 123.411
L551.896 113.043
L552.617 111.043
L552.761 110.838
L553.482 110.112
L553.698 110.112
L553.986 110.064
L554.347 110.342
L554.419 110.233
L554.491 110.137
L554.563 109.713
L554.707 106.37
L554.923 97.389
L555.212 94.4914
L555.644 92.4902
L556.005 91.4251
L556.077 91.3554
L556.365 90.5887
L557.302 89.2567
L557.374 89.3129
L558.239 89.7067
L558.6 90.03
L558.816 89.9316
L558.96 89.7348
L559.105 89.7488
L559.537 89.6786
L560.114 90.0723
L560.402 88.9333
L560.907 89.6645
L561.195 90.505
L561.988 92.6836
L562.276 93.7538
L562.493 94.3828
L562.637 95.0613
L564.151 104.125
L565.52 117.929
L567.323 137.775
L568.332 145.683
L569.125 150.325
L569.701 152.265
L569.99 152.407
L570.206 152.58
L570.35 152.624
L570.639 153.186
L570.855 153.508
L571.143 154.054
L571.864 155.383
L574.243 159.89
L574.315 159.839
L574.531 159.931
L574.892 160.306
L575.252 160.574
L575.469 160.652
L575.901 160.867
L576.045 160.965
L576.261 161.113
L576.406 160.95
L576.622 161.013
L576.694 161.051
L576.91 159.961
L577.127 159.418
L577.271 159.229
L577.487 158.464
L577.703 148.051
L578.064 145.171
L578.352 143.58
L578.496 143.306
L579.073 139.179
L579.217 138.322
L579.433 135.23
L579.866 122.02
L580.154 115.941
L580.298 113.221
L580.515 94.1508
L580.875 86.7036
L581.236 83.8801
L581.668 82.2024
L581.884 80.2
L582.029 79.6953
L582.461 84.3159
L582.605 84.2869
L582.677 84.2289
L582.822 83.415
L582.894 81.4104
L583.11 68.9721
L583.398 74.7511
L583.47 73.286
L583.542 69.066
L583.614 69.3944
L583.975 78.1306
L584.047 77.6511
L584.624 71.4564
L584.768 70.3107
L585.056 66.9491
L585.849 55.7579
L586.282 52.4601
L586.642 48.3785
L586.931 48.243
L587.507 46.2548
L587.579 46.3742
L587.651 46.289
L588.084 45.7425
L588.3 45.418
L588.444 45.3669
L588.589 45.7425
L589.093 48.3108
L589.165 48.3108
L589.67 50.1497
L589.886 51.2235
L590.03 52.0098
L591.833 73.9138
L594.428 117.624
L595.076 123.949
L595.653 126.336
L596.662 128.891
L597.023 129.952
L597.96 133.273
L597.96 133.273" style="fill:none;stroke:#999999;stroke-linecap:round;stroke-width:2;"/>
   </g>
   <g id="patch_50">
    <path d="
M45.0447 19.89
L597.96 19.89" style="fill:none;stroke:#cccccc;stroke-linecap:square;stroke-linejoin:miter;"/>
   </g>
   <g id="patch_51">
    <path d="
M597.96 183.26
L597.96 19.89" style="fill:none;stroke:#cccccc;stroke-linecap:square;stroke-linejoin:miter;"/>
   </g>
   <g id="patch_52">
    <path d="
M45.0447 183.26
L597.96 183.26" style="fill:none;stroke:#cccccc;stroke-linecap:square;stroke-linejoin:miter;"/>
   </g>
   <g id="patch_53">
    <path d="
M45.0447 183.26
L45.0447 19.89" style="fill:none;stroke:#cccccc;stroke-linecap:square;stroke-linejoin:miter;"/>
   </g>
   <g id="legend_1">
    <g id="line2d_80">
     <path d="
M186.23 164.02
L212.23 164.02" style="fill:none;stroke:#999999;stroke-linecap:round;stroke-width:2;"/>
    </g>
    <g id="line2d_81"/>
    <g id="text_11">
     <!-- Observed (J = 0.34) -->
     <defs>
      <path d="
M6 -21.2031
Q5.29688 -20.5938 5.29688 -20.2031
Q5.29688 -19.5938 6.20312 -18.4062
Q10 -13.2969 12.7031 -8.25
Q15.4062 -3.20312 17.1562 2.04688
Q18.9062 7.29688 19.75 12.9375
Q20.5938 18.5938 20.5938 24.9062
Q20.5938 31.2031 19.75 36.8438
Q18.9062 42.5 17.1562 47.7969
Q15.4062 53.0938 12.7031 58.0938
Q10 63.0938 6.20312 68.2031
Q5.29688 69.5 5.29688 70
Q5.29688 70.4062 5.59375 70.5938
Q5.90625 70.7969 7.59375 71.9062
Q8.70312 72.5938 8.89062 72.6875
Q9.09375 72.7969 9.59375 72.7969
Q10.4062 72.7969 11.8438 71.0469
Q13.2969 69.2969 16.5 64.7031
Q22.7969 55.2969 25.7969 45.6406
Q28.7969 36 28.7969 24.9062
Q28.7969 13 25.2969 2.64062
Q21.7969 -7.70312 14.2969 -18
Q13.0938 -19.5938 12.3438 -20.5938
Q11.5938 -21.5938 11.0938 -22.0938
Q10.5938 -22.5938 10.25 -22.7969
Q9.90625 -23 9.59375 -23
Q9.09375 -23 8.40625 -22.5938
z
" id="OfficinaSanITC-Book-29"/>
      <path d="
M15 12.7031
Q17.7969 12.7031 19.8438 10.6406
Q21.9062 8.59375 21.9062 5.70312
Q21.9062 2.79688 19.8438 0.6875
Q17.7969 -1.40625 14.9062 -1.40625
Q11.9062 -1.40625 9.84375 0.640625
Q7.79688 2.70312 7.79688 5.70312
Q7.79688 8.59375 9.89062 10.6406
Q12 12.7031 15 12.7031" id="OfficinaSanITC-Book-2e"/>
      <path d="
M16 9.29688
Q20.5 5.40625 26.4062 5.40625
Q31.7969 5.40625 34.2969 10.3438
Q36.7969 15.2969 36.7969 26.0938
Q36.7969 34.9062 34.6875 38.7969
Q32.5938 42.7031 27.9062 42.7031
Q25.0938 42.7031 22.5469 41.6406
Q20 40.5938 16 37.7969
z

M16 44.5
Q19.9062 47.2031 22.9062 48.2969
Q25.9062 49.4062 29.2969 49.4062
Q37.0938 49.4062 41 43.7969
Q44.9062 38.2031 44.9062 27.2031
Q44.9062 12.5938 40.4531 5.59375
Q36 -1.40625 26.7031 -1.40625
Q22.9062 -1.40625 20 -0.25
Q17.0938 0.90625 13.9062 3.5
Q13.0938 1.59375 12.1406 0.296875
Q11.2031 -1 10.7031 -1
Q10.2969 -1 9.90625 -0.703125
L5.59375 2
Q5.29688 2.29688 5.29688 2.5
Q5.29688 2.70312 5.59375 3.20312
Q7.09375 5.20312 7.75 7.70312
Q8.40625 10.2031 8.40625 13.7031
L8.40625 69.7969
Q8.40625 70.7969 9.5 71.0938
L14.7031 72.2969
Q14.7969 72.4062 15 72.4062
Q15.2969 72.4062 15.4062 72.4062
Q16 72.4062 16 71.2969
z
" id="OfficinaSanITC-Book-62"/>
      <path d="
M34 39.5
Q30.7969 41.2969 28.5938 42
Q26.4062 42.7031 23.7969 42.7031
Q18.0938 42.7031 15.6406 38.5469
Q13.2031 34.4062 13.2031 24.9062
Q13.2031 14.5 15.3438 9.95312
Q17.5 5.40625 22.5 5.40625
Q25.4062 5.40625 28.0469 6.75
Q30.7031 8.09375 34 11.2031
z

M39.7969 -0.703125
Q39.5 -1 39 -1
Q38.2969 -1 37.2969 0.796875
Q36.2969 2.59375 35.7031 5
Q33.2969 3.20312 31.2969 1.95312
Q29.2969 0.703125 27.5938 -0.046875
Q25.9062 -0.796875 24.25 -1.09375
Q22.5938 -1.40625 20.7969 -1.40625
Q13.4062 -1.40625 9.25 5.4375
Q5.09375 12.2969 5.09375 24.5
Q5.09375 36.0938 9.84375 42.75
Q14.5938 49.4062 23 49.4062
Q25.7969 49.4062 28.2969 48.6562
Q30.7969 47.9062 34 46.2031
L34 69.7969
Q34 70.7969 35 71.0938
L40.2031 72.2969
Q40.4062 72.4062 40.7969 72.4062
Q41.5 72.4062 41.5 71.2969
L41.5 15.7969
Q41.5 13.5 41.5938 11.7969
Q41.7031 10.0938 42 8.75
Q42.2969 7.40625 42.75 6.29688
Q43.2031 5.20312 44 4
Q44.5938 3 44.6875 2.79688
Q44.7969 2.59375 44.7969 2.40625
Q44.7969 2 44.2969 1.79688
z
" id="OfficinaSanITC-Book-64"/>
      <path d="
M35 28.5
Q34.7969 35.7031 32.0938 39.5
Q29.4062 43.2969 24.2969 43.2969
Q14 43.2969 13.4062 28.5
z

M13.2969 22.2969
Q13.7031 14.0938 17.0469 9.75
Q20.4062 5.40625 26.5 5.40625
Q29.2031 5.40625 32 6.25
Q34.7969 7.09375 38.0938 9
Q38.5 9.29688 39.0938 9.29688
Q39.5 9.29688 39.7969 8.79688
L41.5938 4.90625
Q41.7969 4.40625 41.7969 4.20312
Q41.7969 3.59375 41 3
Q40.2031 2.40625 38.2031 1.40625
Q32.0938 -1.40625 25.9062 -1.40625
Q21.0938 -1.40625 17.25 0.34375
Q13.4062 2.09375 10.7031 5.39062
Q8 8.70312 6.54688 13.3906
Q5.09375 18.0938 5.09375 23.9062
Q5.09375 29.7031 6.5 34.4531
Q7.90625 39.2031 10.4531 42.5
Q13 45.7969 16.6406 47.5938
Q20.2969 49.4062 24.7969 49.4062
Q30.9062 49.4062 35.25 46.25
Q39.5938 43.0938 41.5938 37.4062
Q42.4062 35 42.75 31.9531
Q43.0938 28.9062 43.0938 24.0938
Q43.0938 23 42.8906 22.6406
Q42.7031 22.2969 42 22.2969
z
" id="OfficinaSanITC-Book-65"/>
      <path d="
M2.20312 20.7969
Q2.20312 21.7031 2.45312 21.9531
Q2.70312 22.2031 3.59375 22.2031
L46.4062 22.2031
Q47.2969 22.2031 47.5469 21.9531
Q47.7969 21.7031 47.7969 20.7969
L47.7969 16.0938
Q47.7969 15.2031 47.5469 14.9531
Q47.2969 14.7031 46.4062 14.7031
L3.59375 14.7031
Q2.70312 14.7031 2.45312 14.9531
Q2.20312 15.2031 2.20312 16.0938
z

M2.20312 34.5938
Q2.20312 35.5 2.45312 35.75
Q2.70312 36 3.59375 36
L46.4062 36
Q47.2969 36 47.5469 35.75
Q47.7969 35.5 47.7969 34.5938
L47.7969 29.9062
Q47.7969 29 47.5469 28.75
Q47.2969 28.5 46.4062 28.5
L3.59375 28.5
Q2.20312 28.5 2.20312 29.9062
z
" id="OfficinaSanITC-Book-3d"/>
      <path d="
M7.29688 56.0938
Q6.90625 56.4062 6.90625 56.5938
Q6.90625 57.2969 8.34375 58.8438
Q9.79688 60.4062 11.7969 61.7969
Q17.2031 65.7031 23.9062 65.7031
Q27.7031 65.7031 30.8438 64.5
Q34 63.2969 36.25 61.1875
Q38.5 59.0938 39.75 56.0938
Q41 53.0938 41 49.5
Q41 38.7969 30.7031 34.7969
Q33.0938 34 34.4375 33.3906
Q35.7969 32.7969 37.0938 31.7031
Q40 29.5 41.5938 25.8438
Q43.2031 22.2031 43.2031 17.9062
Q43.2031 13.5 41.6406 9.95312
Q40.0938 6.40625 37.2969 3.90625
Q34.5 1.40625 30.5469 0
Q26.5938 -1.40625 21.7969 -1.40625
Q19.2031 -1.40625 16.3438 -0.953125
Q13.5 -0.5 11.0938 0.140625
Q8.70312 0.796875 7.09375 1.54688
Q5.5 2.29688 5.5 3
Q5.5 3.20312 5.54688 3.29688
Q5.59375 3.40625 5.79688 3.79688
L7.70312 8.29688
Q8.09375 8.90625 8.59375 8.90625
Q8.70312 8.90625 9.09375 8.70312
Q12.7969 7 15.6875 6.34375
Q18.5938 5.70312 21.9062 5.70312
Q28.2031 5.70312 31.6406 8.95312
Q35.0938 12.2031 35.0938 18.2031
Q35.0938 30.5 20.5 30.5
L17.0938 30.5
Q16.0938 30.5 15.8906 30.75
Q15.7031 31 15.7031 31.9062
L15.7031 35.9062
Q15.7031 36.7969 15.9531 37.0469
Q16.2031 37.2969 17.0938 37.2969
L20.4062 37.2969
Q26.4062 37.2969 29.8438 40.5469
Q33.2969 43.7969 33.2969 49.2969
Q33.2969 53.7969 30.6875 56.4375
Q28.0938 59.0938 23.5938 59.0938
Q18.4062 59.0938 13.7969 54.5
Q13.0938 53.7969 12.75 53.4375
Q12.4062 53.0938 12.2031 52.9375
Q12 52.7969 11.8438 52.75
Q11.7031 52.7031 11.5938 52.7031
Q11.0938 52.7031 10.9062 52.9062
z
" id="OfficinaSanITC-Book-33"/>
      <path d="
M21 9.09375
Q21.2969 10.0938 21.5 10.8438
Q21.7031 11.5938 21.8906 12.25
Q22.0938 12.9062 22.3438 13.5938
Q22.5938 14.2969 22.9062 15.2969
L34.7969 48.2031
Q35.0938 49.0938 35.5938 49.0938
Q35.7031 49.0938 36.2031 49
L41.4062 47.5938
Q42.2969 47.2969 42.2969 46.7969
Q42.2969 46.5 42.0938 46.0938
L23.9062 0.203125
Q23.7031 -0.40625 23.5 -0.546875
Q23.2969 -0.703125 22.5938 -0.703125
L18.7969 -0.703125
Q18.0938 -0.703125 17.8906 -0.546875
Q17.7031 -0.40625 17.5 0.203125
L0.59375 46.2969
Q0.40625 46.7031 0.40625 46.9062
Q0.40625 47.5938 1.40625 47.7031
L7 48.9062
L7.29688 49
L7.59375 49
Q8.09375 49 8.40625 48.0938
L19.0938 15.4062
Q19.2969 14.9062 19.4375 14.3438
Q19.5938 13.7969 19.7969 13.2969
L20.5 10.9062
z
" id="OfficinaSanITC-Book-76"/>
      <path d="
M5.5 8.20312
Q5.70312 8.59375 6.09375 8.59375
Q6.29688 8.59375 6.90625 8.40625
Q10.2031 6.70312 13.3438 5.84375
Q16.5 5 19.0938 5
Q22.7031 5 24.8906 7
Q27.0938 9 27.0938 12.2031
Q27.0938 14.7969 25.6406 16.4375
Q24.2031 18.0938 20.7031 19.7969
Q18.2031 21 16.4531 21.7969
Q14.7031 22.5938 13.4531 23.2969
Q12.2031 24 11.2969 24.5938
Q10.4062 25.2031 9.5 26
Q4.90625 29.7031 4.90625 35.5
Q4.90625 38.5 6 41.0469
Q7.09375 43.5938 9.14062 45.4375
Q11.2031 47.2969 14 48.3438
Q16.7969 49.4062 20.0938 49.4062
Q22 49.4062 24.2969 49
Q26.5938 48.5938 28.5 47.9375
Q30.4062 47.2969 31.7031 46.5469
Q33 45.7969 33 45.2031
Q33 45 32.7969 44.5
L31 40.7969
Q30.5938 40.2031 30.0938 40.2031
Q29.9062 40.2031 29.75 40.25
Q29.5938 40.2969 29.2969 40.4062
Q23.7969 43 19.9062 43
Q16.2969 43 14.2969 41.25
Q12.2969 39.5 12.2969 36.2969
Q12.2969 33.2031 14.2969 31.4062
Q14.7969 30.9062 15.25 30.5469
Q15.7031 30.2031 16.6406 29.7031
Q17.5938 29.2031 19.5 28.25
Q21.4062 27.2969 24.7969 25.7031
Q30.2969 23 32.5469 20.1406
Q34.7969 17.2969 34.7969 12.7969
Q34.7969 9.59375 33.6406 7
Q32.5 4.40625 30.3906 2.5
Q28.2969 0.59375 25.3906 -0.40625
Q22.5 -1.40625 18.9062 -1.40625
Q15.0938 -1.40625 11.1406 -0.34375
Q7.20312 0.703125 4.09375 2.5
Q3.5 2.90625 3.5 3.40625
Q3.5 3.59375 3.59375 3.79688
z
" id="OfficinaSanITC-Book-73"/>
      <path d="
M11.2969 49.0938
Q11.7031 49.4062 12.0938 49.4062
Q12.5 49.4062 13.0938 48.7031
Q13.7031 48 14.2031 46.7969
Q14.7031 45.5938 15.1406 44.0938
Q15.5938 42.5938 15.9062 41.0938
Q18.2969 43.7969 19.8906 45.3906
Q21.5 47 22.8438 47.8906
Q24.2031 48.7969 25.4531 49.0938
Q26.7031 49.4062 28.2969 49.4062
Q30 49.4062 31.6406 48.8438
Q33.2969 48.2969 33.2969 47.7969
Q33.2969 47.5 33.0938 47.0938
L30.7031 41.5
Q30.5 41.2031 30.2031 41.2031
Q30.0938 41.2031 29.8906 41.25
Q29.7031 41.2969 28.5 41.7031
Q27.5 41.9062 26.7969 41.9062
Q25.7969 41.9062 24.8438 41.5469
Q23.9062 41.2031 22.7969 40.2969
Q21.7031 39.4062 20.25 37.9531
Q18.7969 36.5 16.9062 34.2969
L16.9062 1.20312
Q16.9062 0.40625 16.7031 0.203125
Q16.5 0 15.7969 0
L10.5 0
Q9.79688 0 9.59375 0.203125
Q9.40625 0.40625 9.40625 1.20312
L9.40625 31.2031
Q9.40625 34.2031 9.29688 36.0938
Q9.20312 38 8.95312 39.4531
Q8.70312 40.9062 8.25 42.0469
Q7.79688 43.2031 7 44.5938
Q6.59375 45.2969 6.59375 45.5938
Q6.59375 46.2031 7.09375 46.5
z
" id="OfficinaSanITC-Book-72"/>
      <path d="
M27.7969 63.2969
Q24.4062 63.2969 21.6562 61.5938
Q18.9062 59.9062 17.5 57
Q14.0938 49.5938 14.0938 34.5
Q14.0938 26.9062 15.0469 20.9531
Q16 15 18 11.0938
Q20.7969 5.29688 27.7031 5.29688
Q31.2031 5.29688 33.8906 6.9375
Q36.5938 8.59375 38 11.5938
Q39.7031 15.2031 40.5469 20.75
Q41.4062 26.2969 41.4062 33.7031
Q41.4062 49.9062 37.5938 57.5
Q34.5938 63.2969 27.7969 63.2969
M28.5938 70
Q39.2969 70 44.7969 61
Q50.2969 52 50.2969 34.4062
Q50.2969 16.7031 44.4375 7.64062
Q38.5938 -1.40625 27.2031 -1.40625
Q16.2969 -1.40625 10.75 7.5
Q5.20312 16.4062 5.20312 33.9062
Q5.20312 70 28.5938 70" id="OfficinaSanITC-Book-4f"/>
      <path d="
M31 70.9062
Q31.7031 70.5 31.7031 70
Q31.7031 69.4062 30.7969 68.2031
Q23.2031 58.0938 19.7969 47.75
Q16.4062 37.4062 16.4062 24.9062
Q16.4062 18.5938 17.25 12.9375
Q18.0938 7.29688 19.8438 2
Q21.5938 -3.29688 24.2969 -8.29688
Q27 -13.2969 30.7969 -18.4062
Q31.7031 -19.7031 31.7031 -20.2031
Q31.7031 -20.5 31.2031 -21
Q30.7031 -21.5 30 -21.9531
Q29.2969 -22.4062 28.5469 -22.7031
Q27.7969 -23 27.4062 -23
Q26.5938 -23 25 -21.1406
Q23.4062 -19.2969 20.5 -14.9062
Q14.2031 -5.40625 11.2031 4.25
Q8.20312 13.9062 8.20312 24.9062
Q8.20312 36.7031 11.75 47.1406
Q15.2969 57.5938 22.7031 67.7969
Q25 71 25.8438 71.8906
Q26.7031 72.7969 27.4062 72.7969
Q27.9062 72.7969 28.5938 72.4062
z
" id="OfficinaSanITC-Book-28"/>
      <path id="OfficinaSanITC-Book-20"/>
      <path d="
M10.4062 61.7031
Q9.5 61.7031 9.25 61.9531
Q9 62.2031 9 63.0938
L9 67.2031
Q9 68.0938 9.25 68.3438
Q9.5 68.5938 10.4062 68.5938
L34.5 68.5938
Q35.4062 68.5938 35.6562 68.3438
Q35.9062 68.0938 35.9062 67.2031
L35.9062 21.2031
Q35.9062 17.5 35.7969 15.0938
Q35.7031 12.7031 35.4531 11.0469
Q35.2031 9.40625 34.6406 8.20312
Q34.0938 7 33.2031 5.70312
Q30.9062 2.20312 27.0469 0.390625
Q23.2031 -1.40625 18.0938 -1.40625
Q9.70312 -1.40625 5.34375 3.4375
Q1 8.29688 1 17.7031
Q1 19 1.14062 19.3438
Q1.29688 19.7031 1.90625 19.7031
L7.79688 19.7031
Q8.59375 19.7031 8.59375 18.7031
L8.59375 17.5
Q8.59375 11.5 11.0469 8.39062
Q13.5 5.29688 18.2031 5.29688
Q21.4062 5.29688 23.6562 6.6875
Q25.9062 8.09375 26.9062 10.7031
Q27.2031 11.4062 27.3438 12
Q27.5 12.5938 27.5469 13.6406
Q27.5938 14.7031 27.6406 16.3438
Q27.7031 18 27.7031 20.7031
L27.7031 61.7031
z
" id="OfficinaSanITC-Book-4a"/>
     </defs>
     <g style="fill:#262626;" transform="translate(222.630234375 168.57)scale(0.13 -0.13)">
      <use xlink:href="#OfficinaSanITC-Book-4f"/>
      <use x="55.5999908447" xlink:href="#OfficinaSanITC-Book-62"/>
      <use x="105.599975586" xlink:href="#OfficinaSanITC-Book-73"/>
      <use x="144.499969482" xlink:href="#OfficinaSanITC-Book-65"/>
      <use x="190.799957275" xlink:href="#OfficinaSanITC-Book-72"/>
      <use x="228.849945068" xlink:href="#OfficinaSanITC-Book-76"/>
      <use x="270.699935913" xlink:href="#OfficinaSanITC-Book-65"/>
      <use x="316.999923706" xlink:href="#OfficinaSanITC-Book-64"/>
      <use x="366.999908447" xlink:href="#OfficinaSanITC-Book-20"/>
      <use x="387.599899292" xlink:href="#OfficinaSanITC-Book-28"/>
      <use x="424.599884033" xlink:href="#OfficinaSanITC-Book-4a"/>
      <use x="468.99987793" xlink:href="#OfficinaSanITC-Book-20"/>
      <use x="489.599868774" xlink:href="#OfficinaSanITC-Book-3d"/>
      <use x="539.599853516" xlink:href="#OfficinaSanITC-Book-20"/>
      <use x="560.19984436" xlink:href="#OfficinaSanITC-Book-30"/>
      <use x="610.199829102" xlink:href="#OfficinaSanITC-Book-2e"/>
      <use x="639.799819946" xlink:href="#OfficinaSanITC-Book-33"/>
      <use x="690.049804688" xlink:href="#OfficinaSanITC-Book-34"/>
      <use x="740.049789429" xlink:href="#OfficinaSanITC-Book-29"/>
     </g>
    </g>
    <g id="line2d_82">
     <path d="
M348.576 164.02
L374.576 164.02" style="fill:none;stroke:#000000;stroke-linecap:round;stroke-width:2;"/>
    </g>
    <g id="line2d_83"/>
    <g id="text_12">
     <!-- Tree (J = 0.11) -->
     <defs>
      <path d="
M24.5938 1.40625
Q24.5938 0.5 24.3438 0.25
Q24.0938 0 23.2031 0
L17.7969 0
Q16.9062 0 16.6562 0.25
Q16.4062 0.5 16.4062 1.40625
L16.4062 61.5938
L1.79688 61.5938
Q0.90625 61.5938 0.65625 61.8438
Q0.40625 62.0938 0.40625 63
L0.40625 67.2031
Q0.40625 68.0938 0.65625 68.3438
Q0.90625 68.5938 1.79688 68.5938
L40.7969 68.5938
Q42.2031 68.5938 42.2031 67.9062
Q42.2031 67.5 42.0938 67.2969
L42 67
L40.5 62.7031
Q40.2031 61.5938 39 61.5938
L24.5938 61.5938
z
" id="OfficinaSanITC-Book-54"/>
     </defs>
     <g style="fill:#262626;" transform="translate(384.975859375 168.57)scale(0.13 -0.13)">
      <use xlink:href="#OfficinaSanITC-Book-54"/>
      <use x="35.6999969482" xlink:href="#OfficinaSanITC-Book-72"/>
      <use x="68.4999847412" xlink:href="#OfficinaSanITC-Book-65"/>
      <use x="114.799972534" xlink:href="#OfficinaSanITC-Book-65"/>
      <use x="161.099960327" xlink:href="#OfficinaSanITC-Book-20"/>
      <use x="181.699951172" xlink:href="#OfficinaSanITC-Book-28"/>
      <use x="218.699935913" xlink:href="#OfficinaSanITC-Book-4a"/>
      <use x="263.09992981" xlink:href="#OfficinaSanITC-Book-20"/>
      <use x="283.699920654" xlink:href="#OfficinaSanITC-Book-3d"/>
      <use x="333.699905396" xlink:href="#OfficinaSanITC-Book-20"/>
      <use x="354.29989624" xlink:href="#OfficinaSanITC-Book-30"/>
      <use x="404.299880981" xlink:href="#OfficinaSanITC-Book-2e"/>
      <use x="428.649871826" xlink:href="#OfficinaSanITC-Book-31"/>
      <use x="473.524856567" xlink:href="#OfficinaSanITC-Book-31"/>
      <use x="523.524841309" xlink:href="#OfficinaSanITC-Book-29"/>
     </g>
    </g>
   </g>
   <g id="line2d_84">
    <path clip-path="url(#pe273d42b18)" d="
M45.0447 108.339
L45.261 108.38
L45.4051 108.693
L45.5493 108.993
L45.8377 108.246
L46.3423 107.484
L46.6306 107.27
L46.8469 106.968
L46.9911 106.945
L47.2073 106.747
L47.4957 106.573
L47.784 106.387
L47.9282 106.315
L48.0724 106.439
L48.3607 106.333
L48.5049 106.43
L48.8654 106.734
L49.1537 107.112
L49.2979 107.201
L49.4421 107.34
L49.6583 107.591
L49.8746 107.626
L50.0188 107.58
L50.0909 107.631
L50.1629 107.348
L50.3792 99.4938
L50.6676 97.7282
L51.028 96.3329
L51.4605 94.8362
L51.9651 90.5343
L52.1814 89.8879
L52.6139 88.3422
L52.686 88.0387
L52.7581 86.9249
L53.0465 79.1749
L53.3348 73.4352
L53.5511 62.0257
L53.7673 54.0968
L54.0557 49.3518
L54.1278 43.3933
L54.1999 59.3689
L54.272 52.0624
L54.5603 39.8062
L55.2091 23.9742
L61.4087 23.9742
L61.4808 43.0741
L61.697 23.9742
L64.0038 23.9742
L64.2201 24.2195
L64.4364 24.2231
L65.3014 27.3881
L65.8781 30.8546
L66.4548 34.4673
L67.2478 38.172
L67.6803 39.7788
L67.8245 39.5272
L68.1129 40.4284
L68.3291 41.3837
L68.9779 43.5271
L69.3384 43.8634
L69.6988 44.7782
L70.0592 45.0142
L70.2755 45.2361
L70.7801 44.8858
L70.9243 45.0223
L71.0685 45.2671
L71.1406 45.4189
L71.2126 45.3822
L71.501 45.8225
L71.9335 47.6917
L72.0056 47.7644
L72.9428 51.0756
L73.2311 51.3359
L73.4474 51.7254
L73.6636 51.968
L74.0962 52.9908
L74.4566 53.7618
L74.6729 54.0825
L74.745 54.1146
L74.8171 53.8018
L75.0333 49.3445
L75.1775 48.0117
L75.3938 45.4605
L75.6821 44.4998
L75.7542 44.5368
L75.8984 43.7221
L76.0425 43.1483
L76.2588 31.3412
L76.403 28.2989
L76.5472 23.9742
L76.6193 43.7616
L76.6913 35.3899
L76.9076 24.8525
L77.0518 23.9742
L77.8447 23.9742
L77.9889 58.4194
L78.061 50.596
L78.1331 23.9742
L78.2052 32.2636
L78.2773 49.9931
L78.5656 24.078
L78.7098 23.9742
L79.5749 23.9742
L79.6469 45.0904
L79.719 39.02
L79.7911 29.3705
L79.8632 43.9959
L80.0795 23.9742
L89.7393 23.9742
L89.9555 24.4151
L90.0997 24.2124
L90.1718 24.3044
L90.3881 24.7563
L90.8206 26.4691
L93.4158 43.5434
L93.7041 44.476
L93.9204 45.0889
L94.425 46.7223
L94.8575 47.8447
L95.0738 48.0254
L95.3621 47.6102
L95.6505 47.3166
L96.0109 46.7434
L96.1551 46.467
L96.4435 45.6977
L96.5876 45.6971
L96.8039 45.4671
L97.0923 45.7505
L97.3806 46.2201
L97.5969 46.8016
L97.741 46.9576
L98.1736 48.6242
L98.4619 49.5874
L98.6061 49.7354
L98.7503 49.7086
L98.8945 49.8671
L98.9665 49.8361
L99.4712 50.9973
L99.8316 51.4981
L99.9037 51.3821
L99.9758 51.4849
L100.192 52.4218
L100.264 52.147
L100.913 53.731
L101.057 53.8869
L101.345 54.23
L101.418 54.0691
L101.634 54.715
L101.706 54.6075
L101.922 53.3082
L102.138 53.3337
L102.283 53.1926
L102.499 53.5472
L102.859 50.2955
L103.292 49.7105
L103.796 48.0627
L104.085 47.7011
L104.301 48.0264
L104.445 48.1603
L104.517 47.9827
L104.806 46.0641
L105.022 45.1988
L105.094 43.2661
L105.382 23.9742
L120.16 23.9742
L120.305 24.278
L120.521 23.9742
L123.621 23.9821
L123.981 24.6194
L124.918 29.4676
L125.207 30.9029
L126.072 35.1139
L126.36 35.8863
L126.648 36.4149
L126.793 36.2221
L127.009 36.5497
L127.081 36.5173
L127.369 37.3393
L127.441 37.2568
L127.658 37.465
L127.73 37.481
L127.946 36.441
L128.162 35.6623
L128.306 35.3022
L128.883 26.9845
L129.316 25.0377
L129.676 23.9742
L131.334 23.998
L131.406 24.1007
L131.622 23.9742
L133.425 23.9742
L133.497 43.3585
L133.569 35.5836
L133.857 23.9742
L143.733 23.9742
L143.877 24.3854
L144.31 26.5139
L144.815 29.0068
L145.824 35.3601
L146.617 37.6913
L146.689 37.7764
L146.833 37.5743
L147.049 37.5156
L147.193 37.5908
L147.266 37.3511
L147.338 37.4085
L147.41 37.2774
L147.626 37.5672
L147.77 37.4045
L148.131 37.7502
L148.635 37.5889
L148.779 37.6848
L149.068 37.9648
L149.284 37.8325
L149.428 37.7633
L149.572 37.7465
L150.293 39.1077
L150.365 39.0303
L150.437 39.1375
L150.726 40.2711
L151.879 44.3803
L152.24 45.7486
L152.456 46.1715
L153.609 49.2542
L153.898 48.6749
L153.97 48.6438
L154.258 47.6123
L154.33 47.6697
L154.546 47.9359
L154.619 47.7941
L155.123 46.7685
L155.195 46.8045
L155.411 46.3033
L155.556 46.503
L155.628 46.4763
L155.7 46.9418
L155.772 46.7489
L155.916 45.2698
L156.204 45.8287
L156.277 45.821
L156.493 46.4136
L156.925 47.8128
L156.997 47.844
L157.286 48.5507
L157.358 48.6449
L157.718 49.879
L157.935 49.9912
L158.007 50.128
L158.151 49.5852
L158.583 41.8775
L158.872 23.9742
L160.097 23.9742
L160.169 43.7574
L160.241 36.008
L160.458 24.9446
L160.602 23.9742
L169.18 23.9742
L169.252 24.2008
L169.397 23.9742
L169.469 24.0286
L169.757 25.3903
L169.829 25.3211
L169.901 25.3767
L170.045 25.9767
L170.478 29.6666
L171.559 38.0486
L172.064 40.7067
L173.001 43.3974
L173.145 43.4659
L173.289 43.901
L173.361 43.8706
L173.506 43.5472
L173.794 44.2305
L173.866 44.0366
L174.154 43.9084
L174.515 44.7625
L174.731 44.9615
L174.947 45.2216
L175.019 45.1554
L175.164 44.5074
L175.308 44.5433
L175.452 43.9454
L175.524 43.6983
L175.596 43.7769
L175.74 44.1277
L176.029 43.4727
L176.389 44.7697
L177.254 48.8394
L178.624 57.5948
L178.696 57.5564
L178.912 57.1899
L178.984 57.3301
L179.056 57.2791
L179.201 57.3689
L179.345 57.8193
L179.417 57.7861
L179.561 57.8229
L179.633 57.7602
L180.21 55.7485
L180.498 54.9278
L180.57 54.9257
L180.859 55.4093
L181.363 54.0627
L181.652 53.1544
L181.724 53.2705
L181.796 53.3127
L181.94 52.4526
L182.228 51.3039
L182.3 51.3441
L182.661 50.2258
L182.733 50.2863
L182.949 50.1324
L183.093 50.0536
L183.165 49.8732
L183.454 50.3175
L183.598 50.4169
L183.742 50.5921
L183.958 51.0087
L184.175 50.4053
L184.247 50.513
L184.679 50.9243
L184.968 50.6714
L185.256 49.5349
L185.328 49.6192
L185.544 49.6648
L185.688 49.7854
L185.977 50.1222
L186.121 50.1647
L186.193 50.2361
L186.77 47.9192
L186.842 47.857
L186.914 47.6283
L187.707 41.3676
L187.851 40.4061
L188.139 37.2957
L188.5 35.1661
L189.005 33.1415
L190.086 23.9742
L193.762 23.9742
L193.907 24.463
L194.051 25.2587
L194.123 25.2434
L194.195 25.25
L194.339 25.6869
L195.42 33.0338
L195.781 35.4056
L195.997 37.5069
L198.16 60.2316
L198.953 67.7191
L199.529 71.8394
L201.187 81.8478
L202.269 85.4355
L202.485 86.2417
L203.35 90.4289
L206.089 105.862
L206.45 107.143
L206.81 108.359
L206.954 108.244
L207.099 107.724
L207.171 107.75
L207.387 108.022
L207.459 108.085
L207.892 104.957
L208.108 104.793
L208.252 104.723
L208.612 103.307
L209.478 96.8719
L209.622 93.8648
L210.343 79.3483
L210.919 74.577
L211.424 71.891
L212.073 66.2823
L212.577 63.2506
L213.226 57.7415
L213.442 50.8691
L213.947 43.7535
L214.307 40.1781
L214.596 30.4704
L215.028 23.9742
L221.084 23.9742
L221.156 24.1924
L221.228 24.1167
L221.3 24.1926
L221.516 23.9928
L221.66 24.5481
L223.174 35.4245
L224.472 47.9572
L225.265 54.19
L226.851 63.253
L227.139 63.6452
L227.427 64.4149
L227.5 64.56
L227.572 64.3688
L227.716 64.7719
L227.932 65.5399
L228.004 65.5752
L228.725 67.8697
L229.158 69.7994
L229.734 73.2933
L230.455 76.6303
L230.743 78.3648
L231.032 79.7739
L231.104 79.8407
L231.536 81.1908
L231.609 81.1087
L231.969 81.509
L232.113 81.2234
L232.329 80.0121
L232.546 79.606
L232.69 79.4567
L233.05 80.0883
L233.339 80.6037
L233.483 80.5119
L233.915 81.1977
L234.204 81.1888
L234.276 81.3646
L234.492 81.0872
L234.564 81.1926
L234.636 80.7339
L235.141 70.7194
L235.357 68.9113
L235.718 67.3257
L236.006 62.656
L236.511 58.9557
L237.52 48.5209
L238.096 38.6121
L239.682 23.9742
L248.189 23.9742
L248.405 24.734
L248.693 25.6807
L248.766 25.628
L249.054 26.8729
L249.414 28.9291
L249.775 31.5407
L252.009 43.941
L252.298 45.0804
L253.091 48.4987
L253.451 49.4252
L254.172 50.9381
L254.46 51.3696
L254.893 52.5281
L255.109 52.9281
L255.326 53.2039
L255.614 53.7145
L255.758 53.9242
L255.974 54.5201
L257.921 65.4993
L258.065 65.6676
L258.137 65.7299
L258.281 66.0813
L258.425 66.1341
L258.786 66.9216
L258.93 66.9074
L259.29 67.6942
L259.867 68.7883
L260.3 70.3103
L260.444 70.6063
L260.588 69.8075
L260.66 69.7567
L260.732 69.5286
L261.237 65.7026
L261.309 65.6625
L261.669 64.3465
L262.823 51.4506
L263.688 45.9963
L265.634 33.8618
L265.995 24.3667
L266.139 23.9742
L272.627 24.0745
L272.843 24.3868
L272.987 24.4787
L273.348 24.4265
L273.42 24.4837
L273.564 24.8083
L273.636 24.7532
L274.645 29.6259
L275.078 33.1787
L276.231 44.1851
L276.736 48.4917
L277.817 56.441
L278.682 59.9635
L278.97 60.9756
L279.691 63.5827
L280.052 64.7105
L280.196 64.7289
L280.34 64.8477
L281.349 67.4381
L281.421 67.4044
L281.493 67.3032
L281.566 67.3575
L281.854 67.7994
L282.07 68.4774
L282.575 70.8383
L283.079 74.3367
L283.152 74.462
L283.296 75.1549
L283.368 75.0882
L283.512 74.9373
L283.656 75.0722
L283.8 75.3229
L284.017 74.8455
L284.161 75.0081
L284.665 76.867
L284.954 77.941
L285.17 77.8233
L285.386 78.0898
L286.107 79.4278
L286.251 79.2263
L286.828 79.3443
L286.9 79.2311
L287.188 76.2496
L287.909 73.8806
L288.053 73.8838
L288.198 73.887
L288.342 73.994
L288.414 73.8763
L288.486 73.5189
L288.846 63.8231
L289.135 62.0435
L289.639 48.8315
L290 46.1865
L290.432 42.2106
L291.442 28.8007
L291.946 23.9742
L302.111 23.9742
L302.183 24.1046
L302.543 25.7026
L302.832 26.5231
L303.48 29.6682
L304.273 33.6448
L304.922 35.2678
L305.066 35.7672
L305.138 35.7757
L305.499 37.1226
L305.571 37.0829
L306.148 37.9192
L306.292 38.0436
L307.445 41.0456
L307.589 41.2602
L308.166 43.272
L308.31 43.4065
L308.454 43.459
L308.526 43.4935
L309.319 45.7602
L309.752 48.4982
L310.112 50.2012
L310.185 50.2699
L310.617 51.6842
L310.689 51.6436
L310.905 51.9704
L311.338 53.0319
L311.698 53.1867
L311.915 52.9958
L312.059 53.1602
L312.203 53.0993
L312.347 53.2346
L312.491 53.5861
L312.636 53.2912
L312.78 51.6707
L312.924 47.0868
L313.428 44.6087
L313.501 44.5549
L313.645 44.028
L313.861 43.0214
L313.933 42.9693
L314.005 42.2746
L314.294 32.007
L314.438 24.3819
L314.582 23.9742
L321.647 23.9742
L321.719 42.1634
L321.935 23.9742
L328.279 24.0266
L328.711 24.9862
L329.36 27.6586
L329.504 28.0257
L329.576 28.0287
L329.865 28.7662
L330.153 30.0766
L330.369 30.8014
L330.658 31.6038
L330.874 32.0064
L330.946 31.8645
L331.378 32.4249
L331.811 32.5324
L331.955 32.5715
L332.099 32.6252
L332.316 32.563
L332.532 32.7821
L332.676 32.8928
L333.613 35.4622
L333.829 36.2952
L334.118 36.898
L334.478 37.7078
L334.694 38.262
L334.839 38.6425
L335.415 41.3616
L336.064 44.853
L336.785 48.9948
L337.073 50.3242
L337.362 51.016
L337.794 51.7305
L338.155 51.1885
L338.659 51.6243
L338.948 51.863
L339.092 51.9334
L339.164 51.8408
L339.596 52.4995
L339.669 52.3916
L339.957 51.6467
L340.245 49.6444
L340.534 49.329
L340.75 48.4897
L340.894 48.2231
L341.11 47.2289
L341.471 46.8136
L341.759 44.0213
L342.12 43.4701
L342.84 42.7837
L342.985 42.867
L343.345 42.6949
L343.633 42.6668
L343.85 42.5464
L343.994 42.6403
L344.066 42.5445
L344.138 42.1273
L344.643 27.7814
L345.363 23.9742
L351.779 23.9742
L352.5 25.5424
L352.789 26.9313
L353.509 31.2905
L356.97 59.9736
L358.339 67.0642
L360.646 76.1576
L360.79 76.48
L361.727 81.1542
L361.944 81.8565
L363.674 87.4978
L364.467 89.7458
L365.404 93.3071
L365.764 94.1981
L365.836 93.9342
L365.909 93.7785
L365.981 93.8836
L366.557 95.2521
L366.702 95.2718
L366.918 94.7657
L367.062 94.9454
L367.567 95.7023
L367.711 95.8386
L367.855 95.5197
L368.071 92.2817
L368.72 90.5865
L368.936 90.4362
L369.441 89.7341
L369.513 89.4625
L369.873 86.105
L370.594 80.4176
L371.459 76.8875
L372.108 70.8533
L372.901 66.529
L373.189 64.6338
L373.478 63.2313
L374.992 54.8331
L375.857 47.4111
L376.145 45.3444
L376.506 42.4266
L377.875 32.3716
L377.947 32.4275
L378.38 32.7512
L378.884 33.867
L379.749 38.1641
L381.624 54.7154
L383.066 67.1831
L385.877 80.4887
L386.165 81.3795
L386.742 82.2166
L386.886 82.4198
L387.03 82.5372
L387.175 82.8733
L388.4 87.0594
L389.337 90.8909
L389.626 91.901
L389.842 91.9107
L391.932 97.2738
L392.221 98.0299
L392.509 98.4981
L392.797 98.7609
L393.662 96.8426
L393.807 96.8516
L394.095 97.2174
L394.167 97.1184
L394.311 96.9347
L395.176 97.7331
L395.321 97.7714
L395.465 97.9654
L395.537 97.9038
L395.609 97.5201
L395.897 94.3347
L396.113 93.7776
L396.546 92.7118
L396.762 92.3631
L397.123 91.1506
L397.771 84.2478
L398.132 67.4084
L398.276 64.4963
L398.42 53.5168
L398.637 41.6457
L399.069 33.186
L399.79 23.9742
L405.413 23.9742
L405.917 25.4351
L406.422 27.985
L406.927 31.6097
L407.72 38.9507
L408.945 50.1382
L409.954 56.6707
L410.531 59.1916
L411.252 61.8646
L411.324 61.8458
L412.189 63.6511
L412.333 63.5749
L412.477 63.6976
L412.694 63.7276
L412.838 63.7838
L413.559 65.1636
L414.496 67.6927
L414.712 67.1603
L414.856 67.1471
L415.001 67.6819
L416.082 73.9878
L416.731 77.2841
L417.163 78.5358
L417.596 79.0973
L417.74 79.2682
L418.821 80.3628
L419.11 78.6674
L419.254 78.7282
L419.542 78.9485
L419.83 78.8684
L420.119 79.2933
L420.407 79.8578
L420.623 80.0749
L421.056 80.9603
L421.128 80.9741
L421.633 78
L422.137 71.3131
L422.498 67.7416
L423.507 60.1095
L423.867 58.1984
L424.3 54.4942
L424.372 53.5271
L424.66 47.1593
L425.021 41.9049
L426.751 25.3311
L426.895 23.9742
L433.599 23.9981
L433.743 24.3261
L434.032 26.0031
L436.194 40.3028
L436.627 42.5007
L436.915 43.7004
L437.204 44.9697
L438.934 50.5994
L439.15 50.982
L439.366 51.4102
L439.943 52.745
L440.376 54.3341
L441.601 60.3148
L441.673 59.5361
L441.817 56.4574
L442.25 57.9864
L442.682 59.5192
L442.827 59.3691
L443.043 59.6406
L443.475 59.3408
L443.764 57.7071
L443.98 55.5871
L444.052 55.4388
L444.412 53.7974
L444.629 52.895
L444.773 50.6726
L445.35 38.4398
L445.638 23.9742
L445.71 44.7573
L445.782 35.7068
L446.07 23.9742
L451.91 23.9742
L451.982 44.9507
L452.054 37.9486
L452.342 23.9742
L461.786 23.9742
L462.507 25.2385
L462.651 25.3031
L462.795 25.3833
L462.939 25.6362
L463.011 25.6006
L463.372 26.0695
L463.444 26.0616
L463.588 26.1714
L463.732 25.9179
L463.948 26.1263
L464.165 26.3587
L464.381 26.046
L464.453 26.1314
L464.525 26.3577
L464.597 26.3035
L464.885 25.9419
L465.03 25.9983
L465.174 25.8771
L465.318 25.7511
L465.39 25.7764
L465.823 25.0525
L465.967 25.0719
L466.111 24.9999
L466.255 24.7174
L466.399 24.7342
L466.904 26.4765
L466.976 26.4773
L467.409 27.7242
L469.355 35.715
L469.499 36.1034
L470.292 38.6011
L470.508 39.088
L471.013 40.8778
L472.238 44.6039
L472.527 45.1369
L472.815 45.4531
L472.959 45.3336
L473.248 45.6985
L473.536 46.3472
L474.257 47.8808
L474.329 47.5671
L474.545 43.8217
L474.762 42.7538
L475.05 41.8553
L475.699 40.9732
L475.771 40.9681
L475.987 40.7498
L476.131 40.8028
L476.564 41.2078
L477.14 42.3784
L477.213 42.3374
L478.15 41.5297
L478.294 36.3346
L478.51 23.9742
L483.989 23.9932
L484.277 24.4735
L484.566 24.8663
L484.782 25.7753
L485.214 27.9394
L487.089 43.2723
L487.665 48.4738
L488.458 54.9721
L489.179 58.8124
L489.828 61.2513
L490.621 63.755
L491.053 64.4048
L491.846 67.0747
L492.423 69.3049
L492.784 70.4042
L495.451 82.2837
L495.667 82.6766
L496.028 83.4133
L496.1 83.3011
L496.316 82.4797
L496.604 81.5123
L496.82 81.4754
L496.965 80.4717
L497.469 47.1474
L497.758 42.4516
L498.334 35.5741
L498.695 27.6787
L498.839 23.9742
L509.436 24.0427
L509.94 24.7032
L510.085 24.2417
L510.229 24.3661
L510.517 25.0546
L510.806 26.1762
L512.608 37.9596
L513.545 47.6701
L514.05 52.1643
L514.915 58.7535
L515.78 63.3974
L518.303 75.8462
L518.735 77.9165
L519.096 79.8978
L519.6 82.6605
L521.547 92.5585
L522.412 96.1253
L522.844 97.5194
L523.637 100.421
L524.43 103.041
L525.007 105.138
L526.304 110.094
L527.025 112.389
L527.674 114.337
L527.89 114.655
L527.963 114.68
L528.323 115.47
L528.395 114.96
L528.611 99.9525
L528.828 98.3871
L529.116 97.3852
L529.693 97.3588
L529.765 97.103
L530.486 85.6803
L530.846 83.1539
L531.062 82.5676
L531.423 82.0441
L531.567 81.9579
L531.711 81.5835
L531.927 80.5625
L532.288 75.2701
L533.441 66.8527
L533.874 65.5954
L534.09 64.7497
L534.162 64.6418
L534.595 63.0547
L534.739 62.9949
L534.811 63.2102
L534.883 63.1141
L535.315 62.835
L535.532 63.189
L536.181 65.4052
L537.55 73.0049
L539.569 89.2533
L541.227 99.4874
L541.587 100.949
L541.876 101.714
L542.092 101.678
L542.885 104.154
L543.029 104.366
L543.173 104.502
L543.245 104.42
L543.678 105.445
L543.894 106.267
L543.966 106.2
L544.038 106.166
L544.254 106.736
L546.705 116.645
L547.715 121.482
L548.003 122.702
L548.868 125.749
L549.156 126.244
L549.661 127.576
L549.733 127.499
L549.805 127.43
L550.238 122.169
L550.454 120.553
L550.67 116.092
L551.896 108.15
L552.617 106.992
L552.905 106.97
L553.482 106.878
L553.77 106.941
L554.419 107.062
L554.491 106.983
L554.563 106.573
L554.707 103.29
L554.923 94.4514
L555.212 91.6285
L555.572 90.0458
L555.861 89.2586
L556.221 88.6231
L556.437 88.1904
L556.581 88.066
L556.798 87.729
L557.086 87.4648
L557.302 87.2499
L557.519 87.3336
L558.384 88.2874
L558.816 88.9451
L558.96 89.0062
L559.177 89.1665
L559.321 89.1748
L559.753 89.6753
L559.898 89.8574
L560.114 90.3248
L560.402 89.6969
L560.763 89.9413
L560.907 90.2392
L561.267 91.001
L561.556 91.6911
L562.709 95.7132
L564.079 102.409
L565.088 109.68
L565.809 116.291
L567.25 129.133
L568.116 134.267
L569.774 141.712
L570.567 144.599
L570.999 146.301
L572.801 155.468
L574.531 164.346
L575.324 167.339
L575.685 168.712
L575.757 168.538
L575.829 168.426
L575.901 168.718
L576.117 168.446
L576.189 168.745
L576.334 168.326
L576.406 168.593
L576.478 168.429
L576.55 168.692
L576.622 168.516
L576.694 168.566
L576.838 167.757
L577.415 168.466
L577.487 168.259
L577.703 158.55
L577.992 157.009
L578.352 156.014
L578.424 156.099
L578.496 156.011
L579.073 153.497
L579.217 153.075
L579.433 150.701
L579.866 138.586
L580.154 132.593
L580.298 130.021
L580.515 111.194
L580.875 103.453
L582.245 84.3153
L582.749 79.0792
L582.894 75.072
L583.182 53.6746
L583.398 43.3483
L583.687 23.9742
L590.03 23.9742
L590.751 25.9716
L592.049 33.509
L592.914 40.7673
L593.779 46.151
L594.716 50.3923
L596.086 55.0017
L596.302 55.7535
L597.96 61.83
L597.96 61.83" style="fill:none;stroke:#000000;stroke-linecap:round;stroke-width:2;"/>
   </g>
  </g>
 </g>
 <defs>
  <clipPath id="pe273d42b18">
   <rect height="163.37" width="552.9153125" x="45.0446875" y="19.89"/>
  </clipPath>
 </defs>
</svg>
