<?xml version="1.0" encoding="UTF-8" standalone="no"?>
<!DOCTYPE svg PUBLIC "-//W3C//DTD SVG 1.1//EN"
 "http://www.w3.org/Graphics/SVG/1.1/DTD/svg11.dtd">
<!-- Generated by graphviz version 2.38.0 (20140413.2041)
 -->
<!-- Title: %3 Pages: 1 -->
<svg width="251pt" height="216pt"
 viewBox="0.00 0.00 251.23 216.00" xmlns="http://www.w3.org/2000/svg" xmlns:xlink="http://www.w3.org/1999/xlink">
<g id="graph0" class="graph" transform="scale(1 1) rotate(0) translate(4.231 212)">
<title>%3</title>
<polygon fill="white" stroke="none" points="-4.231,4 -4.231,-212 246.998,-212 246.998,4 -4.231,4"/>
<!-- Storage &lt; 679 -->
<g id="node1" class="node"><title>Storage &lt; 679</title>
<polygon fill="none" stroke="black" points="115.269,-208 20.269,-208 20.269,-172 115.269,-172 115.269,-208"/>
<text text-anchor="middle" x="67.769" y="-185.8" font-family="Times,serif" font-size="14.00">Storage &lt; 679</text>
</g>
<!-- Hedge_90 -->
<g id="node2" class="node"><title>Hedge_90</title>
<polygon fill="none" stroke="black" points="73.769,-122 -0.231,-122 -0.231,-86 73.769,-86 73.769,-122"/>
<text text-anchor="middle" x="36.769" y="-99.8" font-family="Times,serif" font-size="14.00">Hedge_90</text>
</g>
<!-- Storage &lt; 679&#45;&gt;Hedge_90 -->
<g id="edge1" class="edge"><title>Storage &lt; 679&#45;&gt;Hedge_90</title>
<path fill="none" stroke="black" d="M61.346,-171.6C57.078,-160.03 51.392,-144.62 46.565,-131.54"/>
<polygon fill="black" stroke="black" points="49.8263,-130.268 43.078,-122.1 43.2599,-132.693 49.8263,-130.268"/>
<text text-anchor="middle" x="59.045" y="-142.8" font-family="Times,serif" font-size="14.00">T</text>
</g>
<!-- Inflow &lt; 79 -->
<g id="node3" class="node"><title>Inflow &lt; 79</title>
<polygon fill="none" stroke="black" points="172.725,-122 90.8146,-122 90.8146,-86 172.725,-86 172.725,-122"/>
<text text-anchor="middle" x="131.77" y="-99.8" font-family="Times,serif" font-size="14.00">Inflow &lt; 79</text>
</g>
<!-- Storage &lt; 679&#45;&gt;Inflow &lt; 79 -->
<g id="edge2" class="edge"><title>Storage &lt; 679&#45;&gt;Inflow &lt; 79</title>
<path fill="none" stroke="black" d="M81.03,-171.6C90.1,-159.69 102.27,-143.71 112.42,-130.4"/>
<polygon fill="black" stroke="black" points="115.466,-132.176 118.74,-122.1 109.897,-127.936 115.466,-132.176"/>
<text text-anchor="middle" x="107.66" y="-142.8" font-family="Times,serif" font-size="14.00">F</text>
</g>
<!-- Release_Demand -->
<g id="node4" class="node"><title>Release_Demand</title>
<polygon fill="none" stroke="black" points="126.769,-36 12.769,-36 12.769,-0 126.769,-0 126.769,-36"/>
<text text-anchor="middle" x="69.769" y="-13.8" font-family="Times,serif" font-size="14.00">Release_Demand</text>
</g>
<!-- Inflow &lt; 79&#45;&gt;Release_Demand -->
<g id="edge3" class="edge"><title>Inflow &lt; 79&#45;&gt;Release_Demand</title>
<path fill="none" stroke="black" d="M118.92,-85.595C110.14,-73.69 98.344,-57.715 88.513,-44.395"/>
<polygon fill="black" stroke="black" points="91.1415,-42.0624 82.387,-36.095 85.5094,-46.2193 91.1415,-42.0624"/>
<text text-anchor="middle" x="109.04" y="-56.8" font-family="Times,serif" font-size="14.00">T</text>
</g>
<!-- Flood_Control -->
<g id="node5" class="node"><title>Flood_Control</title>
<polygon fill="none" stroke="black" points="243.226,-36 144.314,-36 144.314,-0 243.226,-0 243.226,-36"/>
<text text-anchor="middle" x="193.77" y="-13.8" font-family="Times,serif" font-size="14.00">Flood_Control</text>
</g>
<!-- Inflow &lt; 79&#45;&gt;Flood_Control -->
<g id="edge4" class="edge"><title>Inflow &lt; 79&#45;&gt;Flood_Control</title>
<path fill="none" stroke="black" d="M144.62,-85.595C153.4,-73.69 165.19,-57.715 175.03,-44.395"/>
<polygon fill="black" stroke="black" points="178.032,-46.2208 181.15,-36.095 172.398,-42.0665 178.032,-46.2208"/>
<text text-anchor="middle" x="169.66" y="-56.8" font-family="Times,serif" font-size="14.00">F</text>
</g>
</g>
</svg>
